<?xml version="1.0" encoding="UTF-8"?>
<svg xmlns="http://www.w3.org/2000/svg" xmlns:xlink="http://www.w3.org/1999/xlink" width="64" height="64" viewBox="0 0 64 64" version="1.1">
<defs>
<linearGradient id="linear0" gradientUnits="userSpaceOnUse" x1="400.57" y1="-511.8" x2="400.57" y2="-483.8" gradientTransform="matrix(2,0,0,-2,-769.14,-963.6)">
<stop offset="0" style="stop-color:rgb(12.156863%,51.764706%,10.196078%);stop-opacity:1;"/>
<stop offset="1" style="stop-color:rgb(54.117647%,76.470588%,21.176471%);stop-opacity:1;"/>
</linearGradient>
<linearGradient id="linear1" gradientUnits="userSpaceOnUse" x1="-32.04" y1="91.2276" x2="-32.04" y2="78.9461" gradientTransform="matrix(0.8398,0,0,-0.8398,58.9716,89.744)">
<stop offset="0" style="stop-color:rgb(31.372549%,31.372549%,31.372549%);stop-opacity:1;"/>
<stop offset="1" style="stop-color:rgb(9.803922%,9.803922%,9.803922%);stop-opacity:1;"/>
</linearGradient>
<linearGradient id="linear2" gradientUnits="userSpaceOnUse" x1="2.0002" y1="17.0902" x2="29.9999" y2="17.0902" gradientTransform="matrix(2,0,0,2,0,0)">
<stop offset="0" style="stop-color:rgb(90.980392%,93.72549%,97.254902%);stop-opacity:1;"/>
<stop offset="1" style="stop-color:rgb(96.078431%,98.039216%,100%);stop-opacity:1;"/>
</linearGradient>
</defs>
<g id="surface1">
<path style=" stroke:none;fill-rule:nonzero;fill:url(#linear0);" d="M 18 2 L 46 2 C 54.835938 2 62 9.164062 62 18 L 62 46 C 62 54.835938 54.835938 62 46 62 L 18 62 C 9.164062 62 2 54.835938 2 46 L 2 18 C 2 9.164062 9.164062 2 18 2 Z M 18 2 "/>
<path style=" stroke:none;fill-rule:nonzero;fill:url(#linear1);" d="M 52.828125 18.765625 C 52.726562 18.578125 52.574219 18.425781 52.390625 18.328125 L 51.558594 17.976562 L 51.296875 17.015625 C 51.296875 16.925781 51.25 16.882812 51.207031 16.796875 C 50.714844 15.957031 49.9375 15.320312 49.019531 15 C 46.703125 14.035156 44.253906 13.417969 41.757812 13.164062 C 41.140625 13.117188 40.527344 13.273438 40.007812 13.601562 C 39.171875 14.277344 38.175781 14.730469 37.117188 14.914062 L 26.617188 14.914062 C 25.558594 14.738281 24.5625 14.285156 23.730469 13.601562 C 23.207031 13.277344 22.59375 13.125 21.980469 13.164062 C 19.484375 13.417969 17.035156 14.035156 14.71875 15 C 13.800781 15.320312 13.023438 15.957031 12.53125 16.796875 C 12.488281 16.839844 12.488281 16.925781 12.441406 17.015625 L 12.179688 18.019531 L 11.566406 18.371094 C 11.394531 18.453125 11.257812 18.59375 11.171875 18.765625 C 11.128906 18.894531 10.648438 19.769531 10.035156 21.214844 L 14.105469 19.160156 C 19.878906 16.402344 21.9375 17.976562 22.113281 18.109375 C 22.964844 19.199219 23.902344 20.222656 24.910156 21.171875 C 26.707031 22.964844 27.539062 23.226562 27.886719 23.226562 L 35.585938 23.226562 C 35.980469 23.226562 36.8125 22.921875 38.519531 21.171875 C 39.519531 20.226562 40.441406 19.203125 41.273438 18.109375 C 41.492188 17.933594 43.636719 16.3125 49.71875 19.378906 C 49.632812 19.289062 52.300781 20.644531 54.09375 21.566406 C 53.394531 19.945312 52.914062 18.894531 52.828125 18.765625 Z M 52.828125 18.765625 "/>
<path style=" stroke:none;fill-rule:nonzero;fill:url(#linear2);" d="M 59.828125 40.464844 C 58.835938 33.921875 56.90625 27.558594 54.097656 21.566406 C 52.300781 20.644531 49.632812 19.289062 49.71875 19.378906 C 43.636719 16.3125 41.496094 17.933594 41.277344 18.109375 C 40.441406 19.203125 39.519531 20.226562 38.519531 21.171875 C 36.8125 22.921875 35.980469 23.226562 35.589844 23.226562 L 27.886719 23.226562 C 27.539062 23.226562 26.707031 22.964844 24.914062 21.171875 C 23.902344 20.222656 22.96875 19.199219 22.113281 18.109375 C 21.9375 17.976562 19.882812 16.402344 14.105469 19.160156 L 10.050781 21.207031 C 7.242188 27.335938 5.265625 33.8125 4.171875 40.464844 C 3.691406 44.273438 4.214844 47.074219 5.792969 48.867188 C 6.914062 50.097656 8.5 50.8125 10.167969 50.835938 L 10.824219 50.835938 C 11.960938 50.835938 13.578125 49.960938 18.917969 44.230469 C 19.441406 43.660156 19.835938 43.351562 20.097656 43.089844 C 21.136719 42.335938 22.40625 41.964844 23.6875 42.039062 L 40.398438 42.039062 C 41.683594 41.957031 42.953125 42.328125 43.988281 43.089844 C 44.25 43.351562 44.644531 43.660156 45.167969 44.230469 C 50.507812 49.960938 52.125 50.835938 53.261719 50.835938 L 53.921875 50.835938 C 55.589844 50.824219 57.179688 50.109375 58.296875 48.867188 C 59.933594 46.394531 60.484375 43.359375 59.828125 40.464844 Z M 59.828125 40.464844 "/>
<path style=" stroke:none;fill-rule:nonzero;fill:rgb(19.607843%,19.607843%,19.607843%);fill-opacity:1;" d="M 45.34375 28.039062 C 44.5 28.039062 43.8125 28.726562 43.8125 29.570312 C 43.8125 30.417969 44.5 31.101562 45.34375 31.101562 C 46.191406 31.101562 46.875 30.417969 46.875 29.570312 C 46.867188 28.730469 46.1875 28.050781 45.34375 28.039062 Z M 48.84375 24.539062 C 48 24.539062 47.3125 25.226562 47.3125 26.070312 C 47.3125 26.917969 48 27.601562 48.84375 27.601562 C 49.691406 27.601562 50.375 26.917969 50.375 26.070312 C 50.367188 25.230469 49.6875 24.550781 48.84375 24.539062 Z M 41.84375 24.539062 C 41 24.539062 40.3125 25.226562 40.3125 26.070312 C 40.3125 26.917969 41 27.601562 41.84375 27.601562 C 42.691406 27.601562 43.375 26.917969 43.375 26.070312 C 43.367188 25.230469 42.6875 24.550781 41.84375 24.539062 Z M 45.34375 21.039062 C 44.5 21.039062 43.8125 21.726562 43.8125 22.570312 C 43.8125 23.417969 44.5 24.101562 45.34375 24.101562 C 46.191406 24.101562 46.875 23.417969 46.875 22.570312 C 46.867188 21.730469 46.1875 21.050781 45.34375 21.039062 Z M 45.34375 21.039062 "/>
<path style=" stroke:none;fill-rule:nonzero;fill:rgb(72.156863%,76.862745%,79.607843%);fill-opacity:1;" d="M 32 17.539062 C 32.964844 17.539062 33.75 18.324219 33.75 19.289062 C 33.75 20.257812 32.964844 21.039062 32 21.039062 C 31.035156 21.039062 30.25 20.257812 30.25 19.289062 C 30.253906 18.324219 31.035156 17.542969 32 17.539062 Z M 32 17.539062 "/>
<path style=" stroke:none;fill-rule:nonzero;fill:rgb(19.607843%,19.607843%,19.607843%);fill-opacity:1;" d="M 28.761719 35.039062 L 27.1875 35.039062 L 27.1875 36.660156 C 27.191406 36.824219 27.128906 36.980469 27.011719 37.097656 C 26.894531 37.214844 26.738281 37.277344 26.574219 37.273438 L 25.175781 37.273438 C 25.011719 37.277344 24.851562 37.214844 24.738281 37.097656 C 24.621094 36.980469 24.558594 36.824219 24.5625 36.660156 L 24.5625 35.039062 L 22.988281 35.039062 C 22.824219 35.042969 22.664062 34.980469 22.550781 34.863281 C 22.433594 34.75 22.371094 34.589844 22.375 34.425781 L 22.375 33.027344 C 22.371094 32.863281 22.433594 32.707031 22.550781 32.589844 C 22.664062 32.472656 22.824219 32.410156 22.988281 32.414062 L 24.5625 32.414062 L 24.5625 30.839844 C 24.558594 30.675781 24.621094 30.519531 24.738281 30.402344 C 24.851562 30.285156 25.011719 30.222656 25.175781 30.226562 L 26.574219 30.226562 C 26.738281 30.222656 26.894531 30.285156 27.011719 30.402344 C 27.128906 30.519531 27.191406 30.675781 27.1875 30.839844 L 27.1875 32.414062 L 28.761719 32.414062 C 28.925781 32.410156 29.082031 32.472656 29.199219 32.589844 C 29.316406 32.707031 29.378906 32.863281 29.375 33.027344 L 29.375 34.429688 C 29.378906 34.589844 29.316406 34.75 29.199219 34.863281 C 29.082031 34.980469 28.925781 35.042969 28.761719 35.039062 Z M 28.761719 35.039062 "/>
<path style=" stroke:none;fill-rule:nonzero;fill:rgb(9.803922%,9.803922%,9.803922%);fill-opacity:1;" d="M 37.25 29.351562 C 39.667969 29.351562 41.625 31.3125 41.625 33.726562 C 41.625 36.144531 39.667969 38.105469 37.25 38.105469 C 34.832031 38.105469 32.875 36.144531 32.875 33.726562 C 32.882812 31.316406 34.835938 29.359375 37.25 29.351562 Z M 37.25 29.351562 "/>
<path style=" stroke:none;fill-rule:nonzero;fill:rgb(31.372549%,31.372549%,31.372549%);fill-opacity:1;" d="M 37.25 30.664062 C 38.941406 30.664062 40.3125 32.035156 40.3125 33.726562 C 40.3125 35.421875 38.941406 36.792969 37.25 36.792969 C 35.558594 36.792969 34.1875 35.417969 34.1875 33.726562 C 34.183594 32.914062 34.503906 32.132812 35.078125 31.558594 C 35.652344 30.980469 36.4375 30.660156 37.25 30.664062 Z M 37.25 30.664062 "/>
<path style=" stroke:none;fill-rule:nonzero;fill:rgb(9.803922%,9.803922%,9.803922%);fill-opacity:1;" d="M 18 21.476562 C 20.414062 21.476562 22.375 23.4375 22.375 25.851562 C 22.375 28.269531 20.414062 30.230469 18 30.230469 C 15.582031 30.230469 13.621094 28.269531 13.621094 25.851562 C 13.628906 23.4375 15.585938 21.484375 18 21.476562 Z M 18 21.476562 "/>
<path style=" stroke:none;fill-rule:nonzero;fill:rgb(31.372549%,31.372549%,31.372549%);fill-opacity:1;" d="M 18 22.789062 C 19.691406 22.789062 21.0625 24.160156 21.0625 25.851562 C 21.0625 27.542969 19.691406 28.914062 18 28.914062 C 16.308594 28.914062 14.9375 27.542969 14.9375 25.851562 C 14.929688 25.039062 15.25 24.257812 15.828125 23.679688 C 16.402344 23.105469 17.183594 22.785156 18 22.789062 Z M 18 22.789062 "/>
<path style=" stroke:none;fill-rule:nonzero;fill:rgb(19.607843%,19.607843%,19.607843%);fill-opacity:1;" d="M 37.25 31.976562 C 38.214844 31.976562 39 32.761719 39 33.726562 C 39 34.695312 38.214844 35.476562 37.25 35.476562 C 36.285156 35.476562 35.5 34.695312 35.5 33.726562 C 35.503906 32.761719 36.285156 31.980469 37.25 31.976562 Z M 18 24.101562 C 18.964844 24.101562 19.75 24.886719 19.75 25.851562 C 19.75 26.820312 18.964844 27.601562 18 27.601562 C 17.03125 27.601562 16.25 26.820312 16.25 25.851562 C 16.25 24.886719 17.03125 24.105469 18 24.101562 Z M 18 24.101562 "/>
</g>
</svg>
