<?xml version="1.0" encoding="UTF-8"?>
<svg xmlns="http://www.w3.org/2000/svg" xmlns:xlink="http://www.w3.org/1999/xlink" width="64" height="64" viewBox="0 0 64 64" version="1.1">
<defs>
<linearGradient id="linear0" gradientUnits="userSpaceOnUse" x1="400.57" y1="-511.8" x2="400.57" y2="-483.8" gradientTransform="matrix(2,0,0,-2,-769.14,-963.6)">
<stop offset="0" style="stop-color:rgb(82.745098%,82.745098%,82.745098%);stop-opacity:1;"/>
<stop offset="1" style="stop-color:rgb(98.823529%,97.647059%,97.647059%);stop-opacity:1;"/>
</linearGradient>
</defs>
<g id="surface1">
<path style=" stroke:none;fill-rule:nonzero;fill:url(#linear0);" d="M 18 2 L 46 2 C 54.835938 2 62 9.164062 62 18 L 62 46 C 62 54.835938 54.835938 62 46 62 L 18 62 C 9.164062 62 2 54.835938 2 46 L 2 18 C 2 9.164062 9.164062 2 18 2 Z M 18 2 "/>
<path style=" stroke:none;fill-rule:nonzero;fill:rgb(15.294118%,55.294118%,94.901961%);fill-opacity:1;" d="M 51.542969 32 C 51.542969 21.394531 42.792969 12.800781 32 12.800781 C 21.210938 12.800781 12.460938 21.394531 12.460938 32 C 12.460938 42.605469 21.210938 51.199219 32 51.199219 C 42.792969 51.199219 51.542969 42.605469 51.542969 32 Z M 51.542969 32 "/>
<path style=" stroke:none;fill-rule:nonzero;fill:rgb(20.392157%,87.843137%,76.862745%);fill-opacity:1;" d="M 53.5 20.632812 C 50.859375 15.257812 43.828125 13.304688 37.796875 16.269531 C 31.765625 19.230469 29.019531 25.988281 31.65625 31.363281 C 34.296875 36.738281 41.328125 38.691406 47.359375 35.730469 C 53.390625 32.765625 56.140625 26.007812 53.5 20.632812 Z M 53.5 20.632812 "/>
<path style=" stroke:none;fill-rule:nonzero;fill:rgb(100%,75.686275%,2.745098%);fill-opacity:1;" d="M 42.992188 44 C 42.992188 37.371094 38.074219 32 32 32 C 25.929688 32 21.011719 37.371094 21.011719 44 C 21.011719 50.628906 25.929688 56 32 56 C 38.074219 56 42.992188 50.628906 42.992188 44 Z M 42.992188 44 "/>
<path style=" stroke:none;fill-rule:nonzero;fill:rgb(98.431373%,51.372549%,0%);fill-opacity:1;" d="M 32.34375 32.632812 C 29.703125 27.261719 22.671875 25.304688 16.640625 28.269531 C 10.609375 31.230469 7.859375 37.992188 10.5 43.363281 C 13.140625 48.738281 20.171875 50.695312 26.203125 47.730469 C 32.234375 44.765625 34.980469 38.007812 32.34375 32.632812 Z M 32.34375 32.632812 "/>
<path style=" stroke:none;fill-rule:nonzero;fill:rgb(98.039216%,24.313725%,18.823529%);fill-opacity:1;" d="M 26.203125 16.269531 C 20.171875 13.308594 13.140625 15.261719 10.5 20.636719 C 7.859375 26.011719 10.609375 32.769531 16.640625 35.734375 C 22.671875 38.695312 29.703125 36.742188 32.34375 31.367188 C 34.984375 25.992188 32.234375 19.234375 26.203125 16.269531 Z M 26.203125 16.269531 "/>
<path style=" stroke:none;fill-rule:nonzero;fill:rgb(64.705882%,26.666667%,78.823529%);fill-opacity:1;" d="M 32 8 C 25.65625 8.289062 20.742188 13.65625 21.007812 20 C 20.742188 26.34375 25.65625 31.710938 32 32 C 28.964844 26.835938 31.238281 19.960938 37.078125 16.648438 C 38.59375 15.792969 40.257812 15.234375 41.984375 15.011719 C 40.378906 10.871094 36.4375 8.105469 32 8 Z M 32 32 C 36.9375 31.859375 41.195312 28.480469 42.449219 23.699219 C 42.109375 24.832031 41.613281 25.910156 40.972656 26.902344 C 37.308594 26.960938 33.925781 28.882812 32 32 Z M 42.449219 23.699219 C 42.550781 23.351562 42.640625 23 42.714844 22.640625 C 42.640625 23 42.550781 23.351562 42.449219 23.699219 Z M 42.113281 15.328125 C 42.25 15.6875 42.375 16.050781 42.480469 16.421875 C 42.375 16.050781 42.253906 15.6875 42.113281 15.328125 Z M 42.496094 16.472656 C 42.582031 16.785156 42.65625 17.101562 42.722656 17.421875 C 42.660156 17.101562 42.582031 16.785156 42.496094 16.472656 Z M 42.78125 17.714844 C 42.828125 17.96875 42.863281 18.222656 42.890625 18.480469 C 42.863281 18.222656 42.828125 17.96875 42.785156 17.714844 Z M 42.941406 18.957031 C 42.972656 19.304688 42.988281 19.652344 42.992188 20 C 42.992188 19.652344 42.972656 19.304688 42.945312 18.960938 Z M 42.96875 20.527344 C 42.960938 20.792969 42.945312 21.054688 42.921875 21.316406 C 42.945312 21.054688 42.960938 20.792969 42.96875 20.53125 Z M 42.882812 21.59375 C 42.847656 21.90625 42.800781 22.214844 42.738281 22.523438 C 42.800781 22.214844 42.847656 21.90625 42.882812 21.59375 Z M 42.882812 21.59375 "/>
<path style=" stroke:none;fill-rule:nonzero;fill:rgb(0%,58.823529%,53.333333%);fill-opacity:1;" d="M 41.140625 26.894531 C 37.417969 26.898438 33.957031 28.832031 32 32 C 38.34375 32.289062 43.257812 37.65625 42.992188 44 C 42.992188 45.714844 42.648438 47.410156 41.984375 48.988281 C 46.371094 49.722656 50.773438 47.757812 53.15625 44 C 56.191406 38.835938 53.917969 31.960938 48.074219 28.644531 C 45.964844 27.441406 43.570312 26.835938 41.140625 26.894531 Z M 41.140625 26.894531 "/>
<path style=" stroke:none;fill-rule:nonzero;fill:rgb(1.176471%,66.27451%,95.686275%);fill-opacity:1;" d="M 44.015625 14.894531 C 41.589844 14.835938 39.191406 15.445312 37.082031 16.648438 C 31.242188 19.960938 28.964844 26.835938 32 32 C 33.957031 28.832031 37.414062 26.898438 41.140625 26.894531 C 45.351562 26.804688 49.359375 28.691406 51.976562 31.988281 C 54.8125 28.621094 55.28125 23.855469 53.15625 20 C 51.199219 16.832031 47.742188 14.898438 44.015625 14.894531 Z M 32 32 C 33.929688 35.121094 37.320312 37.042969 40.988281 37.097656 C 39.058594 33.972656 35.671875 32.050781 32 32 Z M 32 32 "/>
<path style=" stroke:none;fill-rule:nonzero;fill:rgb(100%,75.686275%,2.745098%);fill-opacity:1;" d="M 32 32 C 33.496094 35.539062 37.183594 37.628906 40.988281 37.097656 C 39.058594 33.972656 35.671875 32.050781 32 32 Z M 32 32 "/>
</g>
</svg>
