<?xml version="1.0" encoding="UTF-8" standalone="no"?>
<svg
   width="16"
   height="16"
   version="1.1"
   viewBox="0 0 16 16"
   id="svg9"
   sodipodi:docname="folder-download-symbolic.svg"
   inkscape:version="1.1 (c4e8f9ed74, 2021-05-24)"
   xmlns:inkscape="http://www.inkscape.org/namespaces/inkscape"
   xmlns:sodipodi="http://sodipodi.sourceforge.net/DTD/sodipodi-0.dtd"
   xmlns:xlink="http://www.w3.org/1999/xlink"
   xmlns="http://www.w3.org/2000/svg"
   xmlns:svg="http://www.w3.org/2000/svg">
  <sodipodi:namedview
     id="namedview11"
     pagecolor="#ffffff"
     bordercolor="#999999"
     borderopacity="1"
     inkscape:pageshadow="0"
     inkscape:pageopacity="0"
     inkscape:pagecheckerboard="0"
     showgrid="false"
     inkscape:zoom="26.21875"
     inkscape:cx="4.5578069"
     inkscape:cy="7.2085816"
     inkscape:window-width="1920"
     inkscape:window-height="997"
     inkscape:window-x="0"
     inkscape:window-y="0"
     inkscape:window-maximized="1"
     inkscape:current-layer="svg9" />
  <defs
     id="defs3">
    <style
       id="current-color-scheme"
       type="text/css">.ColorScheme-Text { color:#363636; } .ColorScheme-Text { color:#363636; }</style>
    <linearGradient
       inkscape:collect="always"
       xlink:href="#linearGradient1096"
       id="linearGradient1098"
       x1="8"
       y1="0"
       x2="8"
       y2="16.055279"
       gradientUnits="userSpaceOnUse"
       gradientTransform="translate(-15.361144,-0.14302742)" />
    <linearGradient
       inkscape:collect="always"
       id="linearGradient1096">
      <stop
         style="stop-color:#38c494;stop-opacity:1"
         offset="0"
         id="stop1092" />
      <stop
         style="stop-color:#0c98a3;stop-opacity:1"
         offset="1"
         id="stop1094" />
    </linearGradient>
  </defs>
  <rect
     x="17.242571"
     y="14"
     width="11"
     height="1"
     rx="0"
     ry="0"
     fill="#363636"
     stroke-linecap="round"
     stroke-linejoin="round"
     stroke-width="1.2845"
     style="paint-order:stroke fill markers"
     id="rect5" />
  <path
     d="m 22.242572,1 v 10.088 l -3.7441,-3.7441 -0.70703,0.70703 4.2441,4.2422 0.70703,0.70703 4.9492,-4.9492 -0.70703,-0.70703 -3.7422,3.7402 v -10.084 h -1 z"
     fill="#363636"
     stroke-linecap="round"
     stroke-linejoin="round"
     stroke-width="1.2845"
     style="paint-order:stroke fill markers"
     id="path7" />
  <g
     id="g845"
     transform="translate(15.361144,0.14302721)">
    <path
       id="path970"
       style="fill:url(#linearGradient1098);fill-opacity:1;stroke:none;stroke-width:0.489342;stroke-linecap:round;stroke-linejoin:round;paint-order:stroke fill markers"
       d="m -7.361144,-0.14302742 c -0.4748571,0 -0.8574219,0.38256478 -0.8574219,0.85742188 V 10.644082 L -12.009581,6.8550195 c -0.335775,-0.3357741 -0.875163,-0.3357747 -1.210938,0 -0.335775,0.3357747 -0.335774,0.8751634 0,1.2109375 l 5.2519531,5.253907 c 3.323e-4,3.32e-4 0.00162,-3.32e-4 0.00195,0 0.019065,0.019 0.03976,0.0395 0.060547,0.05664 0.00107,8.81e-4 0.00283,0.0011 0.00391,0.002 0.022357,0.01825 0.044195,0.03484 0.068359,0.05078 4.338e-4,2.88e-4 0.00152,-2.88e-4 0.00195,0 0.04649,0.03054 0.096177,0.05698 0.1484375,0.07813 0.02202,0.0089 0.043509,0.0183 0.066406,0.02539 0.00135,4.2e-4 0.00255,0.0015 0.00391,0.002 0.00253,7.79e-4 0.00527,0.0012 0.00781,0.002 5.695e-4,1.7e-4 0.00138,-1.7e-4 0.00195,0 0.014926,0.0044 0.029825,0.0082 0.044922,0.01172 0.00788,0.0018 0.015475,0.0042 0.023437,0.0059 0.00124,2.59e-4 0.00267,-2.54e-4 0.00391,0 0.00196,3.89e-4 0.0039,0.0016 0.00586,0.002 6.211e-4,1.22e-4 0.00133,-1.21e-4 0.00195,0 0.02424,0.0046 0.04929,0.0072 0.074219,0.0098 0.058594,0.0061 0.117188,0.0061 0.1757812,0 0.02493,-0.0025 0.049978,-0.0052 0.074219,-0.0098 6.213e-4,-1.21e-4 0.00133,1.22e-4 0.00195,0 0.00915,-0.0018 0.018241,-0.0038 0.027344,-0.0059 0.011259,-0.0026 0.022035,-0.0067 0.033203,-0.0098 0.00717,-0.0019 0.014393,-0.0038 0.021484,-0.0059 0.00305,-9.23e-4 0.00672,-9.94e-4 0.00977,-0.002 0.022491,-0.007 0.044434,-0.01645 0.066406,-0.02539 0.05278,-0.02135 0.1035025,-0.04719 0.1503906,-0.07813 0.024164,-0.01594 0.046003,-0.03254 0.068359,-0.05078 0.010543,-0.0086 0.021025,-0.01816 0.03125,-0.02734 0.011408,-0.01027 0.022219,-0.02027 0.033203,-0.03125 0,0 0.00195,0 0.00195,0 L -1.501769,8.065957 c 0.335775,-0.3357747 0.335774,-0.8751634 0,-1.2109375 -0.335775,-0.3357756 -0.875163,-0.3357747 -1.210937,0 L -6.5037221,10.644082 V 0.71439446 c 0,-0.47485711 -0.3825648,-0.85742188 -0.8574219,-0.85742188 z M -12.788878,14.142129 c -0.474857,0 -0.857422,0.382565 -0.857422,0.857422 0,0.474858 0.382565,0.857422 0.857422,0.857422 H -1.93341 c 0.474856,0 0.857422,-0.382564 0.857422,-0.857422 0,-0.474857 -0.382566,-0.857422 -0.857422,-0.857422 z" />
  </g>
</svg>
