<?xml version="1.0" encoding="UTF-8" standalone="no"?>
<svg
   width="16"
   height="16"
   version="1.1"
   viewBox="0 0 16 16"
   id="svg7"
   sodipodi:docname="folder-music-symbolic.svg"
   inkscape:version="1.1 (c4e8f9ed74, 2021-05-24)"
   xmlns:inkscape="http://www.inkscape.org/namespaces/inkscape"
   xmlns:sodipodi="http://sodipodi.sourceforge.net/DTD/sodipodi-0.dtd"
   xmlns:xlink="http://www.w3.org/1999/xlink"
   xmlns="http://www.w3.org/2000/svg"
   xmlns:svg="http://www.w3.org/2000/svg">
  <sodipodi:namedview
     id="namedview9"
     pagecolor="#ffffff"
     bordercolor="#999999"
     borderopacity="1"
     inkscape:pageshadow="0"
     inkscape:pageopacity="0"
     inkscape:pagecheckerboard="0"
     showgrid="false"
     inkscape:zoom="6.5546875"
     inkscape:cx="-6.9415971"
     inkscape:cy="-10.831943"
     inkscape:window-width="1920"
     inkscape:window-height="997"
     inkscape:window-x="0"
     inkscape:window-y="0"
     inkscape:window-maximized="1"
     inkscape:current-layer="svg7" />
  <defs
     id="defs3">
    <style
       id="current-color-scheme"
       type="text/css">.ColorScheme-Text { color:#363636; }</style>
    <linearGradient
       inkscape:collect="always"
       xlink:href="#linearGradient1088"
       id="linearGradient1090"
       x1="1"
       y1="1"
       x2="15"
       y2="15"
       gradientUnits="userSpaceOnUse"
       gradientTransform="translate(-30.579261,2.374255)" />
    <linearGradient
       inkscape:collect="always"
       id="linearGradient1088">
      <stop
         style="stop-color:#f09154;stop-opacity:1"
         offset="0"
         id="stop1084" />
      <stop
         style="stop-color:#9e6ba9;stop-opacity:1"
         offset="1"
         id="stop1086" />
    </linearGradient>
  </defs>
  <path
     class="ColorScheme-Text"
     d="m 24.124525,-7e-8 c -0.01105,0 -0.02038,0.00516 -0.03125,0.00586 -0.03143,0.00191 -0.06072,0.011509 -0.0918,0.019531 -0.03629,0.00938 -0.07096,0.018351 -0.10352,0.035156 -0.0076,0.00389 -0.01597,0.0035 -0.02344,0.00781 -0.01553,0.00897 -0.02487,0.022903 -0.03906,0.033203 -0.03202,0.023239 -0.06031,0.048078 -0.08594,0.078125 -0.01913,0.022303 -0.03412,0.045374 -0.04883,0.070312 -0.01685,0.028515 -0.03198,0.056063 -0.04297,0.087891 -0.0121,0.034571 -0.0172,0.069033 -0.02148,0.10547 -0.0023,0.019478 -0.01171,0.036534 -0.01171,0.056643 V 11.504001 c -0.43225,-0.32595 -0.95863,-0.50278 -1.5,-0.50391 -1.3807,0 -2.5,1.1193 -2.5,2.5 0,1.3807 1.1193,2.5 2.5,2.5 1.3807,0 2.5,-1.1193 2.5,-2.5 V 2.3670909 l 1.5664,2.7129 c 0.1385,0.23989 0.4437,0.32209 0.68359,0.18359 0.23989,-0.1385 0.32209,-0.4437 0.18359,-0.68359 l -2.5,-4.33009997 c -0.01057,-0.018315 -0.02861,-0.02848 -0.04102,-0.044922 -0.02179,-0.02901 -0.04283,-0.056481 -0.07031,-0.080078 -0.02193,-0.018889 -0.04582,-0.032266 -0.07031,-0.046875 -0.03036,-0.018168 -0.05961,-0.035411 -0.09375,-0.046875 -0.03061,-0.010366 -0.06168,-0.013295 -0.09375,-0.017578 -0.02207,-0.002954 -0.04155,-0.013672 -0.06445,-0.013672 z M 22.118625,12 c 0.83163,-1.29e-4 1.5059,0.67148 1.5059,1.5 0,0.82852 -0.67423,1.5001 -1.5059,1.5 -0.83163,1.29e-4 -1.5059,-0.67148 -1.5059,-1.5 0,-0.82852 0.67423,-1.5001 1.5059,-1.5 z"
     color="#727272"
     fill="#363636"
     id="path5" />
  <g
     id="g863"
     transform="translate(30.579262,-2.3742552)">
    <circle
       style="fill:url(#linearGradient1090);fill-opacity:1;stroke-width:0.466667;stroke-linecap:round;stroke-linejoin:round"
       id="path1002"
       cx="-22.579262"
       cy="10.374255"
       r="7" />
    <g
       id="g15343"
       transform="matrix(0.34455934,0,0,0.34455934,-25.529812,21.511855)">
      <circle
         style="fill:#ffffff;fill-opacity:1;stroke-width:0.819168;stroke-linecap:round;stroke-linejoin:round;paint-order:stroke fill markers"
         id="circle15331"
         cx="4.4094462"
         cy="-24.398262"
         r="6.5853658" />
      <circle
         style="fill:#ffffff;fill-opacity:1;stroke-width:0.409584;stroke-linecap:round;stroke-linejoin:round;paint-order:stroke fill markers"
         id="circle15333"
         cx="4.4094462"
         cy="-24.398262"
         r="3.2926829" />
      <path
         style="color:#000000;font-style:normal;font-variant:normal;font-weight:normal;font-stretch:normal;font-size:medium;line-height:normal;font-family:sans-serif;font-variant-ligatures:normal;font-variant-position:normal;font-variant-caps:normal;font-variant-numeric:normal;font-variant-alternates:normal;font-variant-east-asian:normal;font-feature-settings:normal;font-variation-settings:normal;text-indent:0;text-align:start;text-decoration:none;text-decoration-line:none;text-decoration-style:solid;text-decoration-color:#000000;letter-spacing:normal;word-spacing:normal;text-transform:none;writing-mode:lr-tb;direction:ltr;text-orientation:mixed;dominant-baseline:auto;baseline-shift:baseline;text-anchor:start;white-space:normal;shape-padding:0;shape-margin:0;inline-size:0;clip-rule:nonzero;display:inline;overflow:visible;visibility:visible;isolation:auto;mix-blend-mode:normal;color-interpolation:sRGB;color-interpolation-filters:linearRGB;solid-color:#000000;solid-opacity:1;vector-effect:none;fill:#ffffff;fill-opacity:1;fill-rule:nonzero;stroke:none;stroke-width:0.977885;stroke-linecap:round;stroke-linejoin:round;stroke-miterlimit:4;stroke-dasharray:none;stroke-dashoffset:0;stroke-opacity:1;paint-order:stroke fill markers;color-rendering:auto;image-rendering:auto;shape-rendering:auto;text-rendering:auto;enable-background:accumulate;stop-color:#000000"
         d="m 10.908496,-46.752219 6.251297,1.675029 c 1.187026,0.318061 2.142645,1.56345 2.142645,2.792349 v 3.327341 c 0,1.2289 -0.955619,1.962172 -2.142645,1.64411 l -6.251297,-1.67503 c -1.1870255,-0.318062 -2.142645,-1.56345 -2.142645,-2.792349 v -3.327342 c 0,-1.228898 0.9556195,-1.96217 2.142645,-1.644108 z"
         id="path15335" />
      <path
         style="fill:#ffffff;fill-opacity:1;stroke:none;stroke-width:0.658535px;stroke-linecap:butt;stroke-linejoin:miter;stroke-opacity:1"
         d="m 8.7658495,-44.830833 v 20.414634 h 2.2311255 v -17.780486 l 8.305459,1.975609 v -1.975609 c 0,0 0,-2.295225 -1.975609,-2.824589 -1.975609,-0.529362 -6.585367,-1.785168 -6.585367,-1.785168 0,0 -1.9756085,-0.424808 -1.9756085,1.975609 z"
         id="path15337"
         sodipodi:nodetypes="scccccscs" />
    </g>
  </g>
</svg>
