<?xml version="1.0" encoding="UTF-8" standalone="no"?>
<svg
   width="24"
   height="24"
   version="1.1"
   id="svg1"
   sodipodi:docname="network-wired.svg"
   inkscape:version="1.4 (e7c3feb100, 2024-10-09)"
   xmlns:inkscape="http://www.inkscape.org/namespaces/inkscape"
   xmlns:sodipodi="http://sodipodi.sourceforge.net/DTD/sodipodi-0.dtd"
   xmlns="http://www.w3.org/2000/svg"
   xmlns:svg="http://www.w3.org/2000/svg">
  <sodipodi:namedview
     id="namedview1"
     pagecolor="#c8c8c8"
     bordercolor="#000000"
     borderopacity="0.25"
     inkscape:showpageshadow="2"
     inkscape:pageopacity="0.0"
     inkscape:pagecheckerboard="0"
     inkscape:deskcolor="#d1d1d1"
     inkscape:zoom="23.452375"
     inkscape:cx="0.29847723"
     inkscape:cy="11.87513"
     inkscape:window-width="1920"
     inkscape:window-height="1017"
     inkscape:window-x="0"
     inkscape:window-y="34"
     inkscape:window-maximized="1"
     inkscape:current-layer="svg1" />
  <defs
     id="defs1">
    <style
       id="current-color-scheme"
       type="text/css">.ColorScheme-Text {
        color:#363636;
      }</style>
  </defs>
  <g
     id="g2345"
     transform="translate(-158,-39)">
    <g
       id="g2333"
       transform="translate(19)">
      <path
         class="ColorScheme-Text" fill="currentColor"
         d="M 144 45 C 143.446 45 143 45.446001 143 46 L 143 50 C 143 50.553999 143.446 51 144 51 L 145 51 L 145 59.5 C 145 59.777 145.223 60 145.5 60 C 145.777 60 146 59.777 146 59.5 L 146 51 L 147 51 C 147.554 51 148 50.553999 148 50 L 148 46 C 148 45.446001 147.554 45 147 45 L 144 45 z M 149 45 L 149 46 L 157 46 C 157.554 46 158 46.446002 158 47 L 158 55 C 158 55.553998 157.554 56 157 56 L 147 56 L 147 57 L 148 57 L 148 59 L 147 59 L 147 59.5 C 147 59.674331 146.96766 59.842861 146.91016 60 L 155.5 60 C 155.777 60 156 59.777 156 59.5 C 156 59.223 155.777 59 155.5 59 L 154 59 L 154 57 L 157 57 C 158.108 57 159 56.107998 159 55 L 159 47 C 159 45.892002 158.108 45 157 45 L 149 45 z M 144 46 L 147 46 L 147 47 L 145.52539 47 L 145.47461 47 L 144 47 L 144 46 z M 144 48 L 145 48 L 145 48.5 C 145 48.776999 145.223 49 145.5 49 C 145.777 49 146 48.776999 146 48.5 L 146 48 L 147 48 L 147 50 L 145.5 50 L 144 50 L 144 48 z M 149 57 L 153 57 L 153 59 L 149 59 L 149 57 z " />
    </g>
    <g
       id="g2339"
       style="fill:#ffffff;fill-opacity:1" />
  </g>
</svg>
