<?xml version="1.0" encoding="UTF-8"?>
<svg xmlns="http://www.w3.org/2000/svg" xmlns:xlink="http://www.w3.org/1999/xlink" width="48" height="48" viewBox="0 0 48 48" version="1.1">
<defs>
<linearGradient id="linear0" gradientUnits="userSpaceOnUse" x1="24" y1="18.5848" x2="24" y2="16.0957" >
<stop offset="0" style="stop-color:rgb(99.607843%,74.901961%,9.411765%);stop-opacity:1;"/>
<stop offset="1" style="stop-color:rgb(93.72549%,71.764706%,18.823529%);stop-opacity:1;"/>
</linearGradient>
<linearGradient id="linear1" gradientUnits="userSpaceOnUse" x1="11.5" y1="12" x2="11.5" y2="17" >
<stop offset="0" style="stop-color:rgb(0%,0%,0%);stop-opacity:0;"/>
<stop offset="1" style="stop-color:rgb(0%,0%,0%);stop-opacity:0.2;"/>
</linearGradient>
<linearGradient id="linear2" gradientUnits="userSpaceOnUse" x1="14.1232" y1="16.1953" x2="39.8586" y2="41.9307" >
<stop offset="0" style="stop-color:rgb(100%,89.803922%,60%);stop-opacity:1;"/>
<stop offset="1" style="stop-color:rgb(100%,78.823529%,21.960784%);stop-opacity:1;"/>
</linearGradient>
<filter id="alpha" filterUnits="objectBoundingBox" x="0%" y="0%" width="100%" height="100%">
  <feColorMatrix type="matrix" in="SourceGraphic" values="0 0 0 0 1 0 0 0 0 1 0 0 0 0 1 0 0 0 1 0"/>
</filter>
<mask id="mask0">
  <g filter="url(#alpha)">
<rect x="0" y="0" width="48" height="48" style="fill:rgb(0%,0%,0%);fill-opacity:0.301961;stroke:none;"/>
  </g>
</mask>
<linearGradient id="linear3" gradientUnits="userSpaceOnUse" x1="10.1512" y1="14.1056" x2="43.7199" y2="14.1056" >
<stop offset="0.5196" style="stop-color:rgb(100%,100%,100%);stop-opacity:1;"/>
<stop offset="1" style="stop-color:rgb(99.215686%,74.509804%,9.411765%);stop-opacity:0;"/>
</linearGradient>
<clipPath id="clip1">
  <rect x="0" y="0" width="48" height="48"/>
</clipPath>
<g id="surface5" clip-path="url(#clip1)">
<path style=" stroke:none;fill-rule:nonzero;fill:url(#linear3);" d="M 46.449219 11.800781 C 46.160156 11.328125 45.65625 11.027344 45.101562 11 L 21.40625 11 C 20.574219 12.273438 19.421875 13.304688 18.0625 13.988281 L 18.011719 14 L 3.308594 14 C 2.703125 13.996094 2.117188 14.234375 1.683594 14.660156 C 1.269531 15.070312 1.035156 15.628906 1.03125 16.210938 L 1.03125 17.210938 C 1.035156 16.628906 1.269531 16.070312 1.683594 15.660156 C 2.117188 15.234375 2.703125 14.996094 3.308594 15 L 18.011719 15 L 18.0625 14.988281 C 19.421875 14.304688 20.574219 13.273438 21.40625 12 L 45.101562 12 C 45.65625 12.027344 46.160156 12.328125 46.449219 12.800781 C 46.828125 13.378906 47.023438 14.054688 47.011719 14.742188 L 47.011719 13.742188 C 47.023438 13.054688 46.828125 12.378906 46.449219 11.800781 Z M 46.449219 11.800781 "/>
</g>
<linearGradient id="linear4" gradientUnits="userSpaceOnUse" x1="6.8228" y1="45.4945" x2="6.8228" y2="39.6396" gradientTransform="matrix(3.4043,0,0,-3.4043,0.773,172.8781)">
<stop offset="0" style="stop-color:rgb(74.901961%,56.862745%,5.098039%);stop-opacity:1;"/>
<stop offset="1" style="stop-color:rgb(64.705882%,43.921569%,0.392157%);stop-opacity:1;"/>
</linearGradient>
</defs>
<g id="surface1">
<path style=" stroke:none;fill-rule:nonzero;fill:rgb(90.196078%,66.27451%,15.686275%);fill-opacity:1;" d="M 1 36 L 47 36 L 47 40.105469 C 47 41.152344 46.152344 42 45.105469 42 L 2.894531 42 C 1.847656 42 1 41.152344 1 40.105469 Z M 1 36 "/>
<path style=" stroke:none;fill-rule:nonzero;fill:url(#linear0);" d="M 45.097656 10 L 20.839844 10 L 18.71875 7.382812 C 17.949219 6.496094 16.828125 5.992188 15.652344 6 L 2.9375 6 C 1.828125 6.054688 0.972656 6.996094 1.019531 8.105469 L 1.019531 16.207031 C 1.011719 16.285156 1 16.359375 1 16.4375 L 1 19 L 47 19 L 47 12.144531 C 47.058594 11.03125 46.210938 10.074219 45.097656 10 Z M 45.097656 10 "/>
<path style=" stroke:none;fill-rule:nonzero;fill:url(#linear1);" d="M 1 12 L 22 12 L 22 17 L 1 17 Z M 1 12 "/>
<path style=" stroke:none;fill-rule:nonzero;fill:url(#linear2);" d="M 46.441406 11.800781 C 46.152344 11.328125 45.644531 11.027344 45.09375 11 L 21.394531 11 C 20.566406 12.273438 19.410156 13.304688 18.050781 13.988281 L 18 14 L 3.300781 14 C 2.691406 13.996094 2.105469 14.234375 1.671875 14.660156 C 1.261719 15.070312 1.027344 15.628906 1.019531 16.210938 L 1.019531 17.679688 C 1.007812 17.753906 1.003906 17.828125 1 17.90625 L 1 38.929688 C 0.996094 39.472656 1.195312 39.992188 1.558594 40.394531 C 1.90625 40.777344 2.398438 40.996094 2.917969 41 L 45.082031 41 C 45.601562 40.996094 46.09375 40.777344 46.4375 40.394531 C 46.804688 39.992188 47.003906 39.472656 47 38.929688 L 47 13.742188 C 47.011719 13.054688 46.816406 12.378906 46.441406 11.800781 Z M 46.441406 11.800781 "/>
<use xlink:href="#surface5" mask="url(#mask0)"/>
<path style=" stroke:none;fill-rule:nonzero;fill:url(#linear4);" d="M 16.878906 19.8125 C 16.871094 18.820312 17.667969 18.007812 18.660156 18 L 29.339844 18 C 30.332031 18.007812 31.128906 18.820312 31.121094 19.8125 L 31.121094 21.769531 C 31.121094 23.085938 30.554688 24.339844 29.566406 25.207031 L 26.40625 27.964844 L 29.566406 30.722656 C 30.554688 31.589844 31.121094 32.84375 31.121094 34.164062 L 31.121094 36.121094 C 31.128906 37.113281 30.328125 37.921875 29.339844 37.933594 L 18.660156 37.933594 C 18.1875 37.929688 17.734375 37.742188 17.402344 37.402344 C 17.066406 37.058594 16.882812 36.597656 16.882812 36.121094 L 16.882812 34.164062 C 16.878906 32.847656 17.445312 31.59375 18.4375 30.722656 L 21.59375 27.964844 L 18.433594 25.210938 C 17.445312 24.339844 16.878906 23.085938 16.878906 21.769531 Z M 21.464844 32.601562 C 21.191406 32.894531 21.109375 33.316406 21.257812 33.6875 C 21.394531 34.054688 21.742188 34.300781 22.132812 34.304688 L 25.929688 34.304688 C 26.320312 34.300781 26.671875 34.054688 26.808594 33.6875 C 26.957031 33.316406 26.875 32.894531 26.601562 32.601562 L 24.703125 30.609375 C 24.359375 30.238281 23.777344 30.21875 23.40625 30.5625 C 23.390625 30.578125 23.375 30.59375 23.359375 30.609375 Z M 21.464844 32.601562 "/>
</g>
</svg>
