<?xml version="1.0" encoding="UTF-8"?>
<svg xmlns="http://www.w3.org/2000/svg" xmlns:xlink="http://www.w3.org/1999/xlink" width="48" height="48" viewBox="0 0 48 48" version="1.1">
<defs>
<linearGradient id="linear0" gradientUnits="userSpaceOnUse" x1="24" y1="18.5848" x2="24" y2="16.0957" >
<stop offset="0" style="stop-color:rgb(99.607843%,74.901961%,9.411765%);stop-opacity:1;"/>
<stop offset="1" style="stop-color:rgb(93.72549%,71.764706%,18.823529%);stop-opacity:1;"/>
</linearGradient>
<linearGradient id="linear1" gradientUnits="userSpaceOnUse" x1="11.5" y1="12" x2="11.5" y2="17" >
<stop offset="0" style="stop-color:rgb(0%,0%,0%);stop-opacity:0;"/>
<stop offset="1" style="stop-color:rgb(0%,0%,0%);stop-opacity:0.2;"/>
</linearGradient>
<linearGradient id="linear2" gradientUnits="userSpaceOnUse" x1="14.1232" y1="16.1953" x2="39.8586" y2="41.9307" >
<stop offset="0" style="stop-color:rgb(100%,89.803922%,60%);stop-opacity:1;"/>
<stop offset="1" style="stop-color:rgb(100%,78.823529%,21.960784%);stop-opacity:1;"/>
</linearGradient>
<filter id="alpha" filterUnits="objectBoundingBox" x="0%" y="0%" width="100%" height="100%">
  <feColorMatrix type="matrix" in="SourceGraphic" values="0 0 0 0 1 0 0 0 0 1 0 0 0 0 1 0 0 0 1 0"/>
</filter>
<mask id="mask0">
  <g filter="url(#alpha)">
<rect x="0" y="0" width="48" height="48" style="fill:rgb(0%,0%,0%);fill-opacity:0.301961;stroke:none;"/>
  </g>
</mask>
<linearGradient id="linear3" gradientUnits="userSpaceOnUse" x1="10.1512" y1="14.1056" x2="43.7199" y2="14.1056" >
<stop offset="0.5196" style="stop-color:rgb(100%,100%,100%);stop-opacity:1;"/>
<stop offset="1" style="stop-color:rgb(99.215686%,74.509804%,9.411765%);stop-opacity:0;"/>
</linearGradient>
<clipPath id="clip1">
  <rect x="0" y="0" width="48" height="48"/>
</clipPath>
<g id="surface5" clip-path="url(#clip1)">
<path style=" stroke:none;fill-rule:nonzero;fill:url(#linear3);" d="M 46.449219 11.800781 C 46.160156 11.328125 45.65625 11.027344 45.101562 11 L 21.40625 11 C 20.574219 12.273438 19.421875 13.304688 18.0625 13.988281 L 18.011719 14 L 3.308594 14 C 2.703125 13.996094 2.117188 14.234375 1.683594 14.660156 C 1.269531 15.070312 1.035156 15.628906 1.03125 16.210938 L 1.03125 17.210938 C 1.035156 16.628906 1.269531 16.070312 1.683594 15.660156 C 2.117188 15.234375 2.703125 14.996094 3.308594 15 L 18.011719 15 L 18.0625 14.988281 C 19.421875 14.304688 20.574219 13.273438 21.40625 12 L 45.101562 12 C 45.65625 12.027344 46.160156 12.328125 46.449219 12.800781 C 46.828125 13.378906 47.023438 14.054688 47.011719 14.742188 L 47.011719 13.742188 C 47.023438 13.054688 46.828125 12.378906 46.449219 11.800781 Z M 46.449219 11.800781 "/>
</g>
<linearGradient id="linear4" gradientUnits="userSpaceOnUse" x1="-5.2767" y1="42.8311" x2="-5.2767" y2="37.0898" gradientTransform="matrix(3.7796,0,0,-3.7796,43.9438,178.1692)">
<stop offset="0" style="stop-color:rgb(77.647059%,55.294118%,0%);stop-opacity:1;"/>
<stop offset="1" style="stop-color:rgb(65.098039%,44.313725%,0%);stop-opacity:1;"/>
</linearGradient>
<linearGradient id="linear5" gradientUnits="userSpaceOnUse" x1="6.616" y1="45.0455" x2="6.616" y2="42.5384" gradientTransform="matrix(3.1566,0,0,-3.1566,3.1155,161.1924)">
<stop offset="0" style="stop-color:rgb(99.215686%,85.882353%,47.843137%);stop-opacity:1;"/>
<stop offset="1" style="stop-color:rgb(100%,85.098039%,43.921569%);stop-opacity:1;"/>
</linearGradient>
<linearGradient id="linear6" gradientUnits="userSpaceOnUse" x1="6.6156" y1="41.9988" x2="6.6156" y2="39.832" gradientTransform="matrix(3.1566,0,0,-3.1566,3.1155,161.1924)">
<stop offset="0" style="stop-color:rgb(100%,85.098039%,43.137255%);stop-opacity:1;"/>
<stop offset="1" style="stop-color:rgb(100%,83.529412%,38.039216%);stop-opacity:1;"/>
</linearGradient>
</defs>
<g id="surface1">
<path style=" stroke:none;fill-rule:nonzero;fill:rgb(90.196078%,66.27451%,15.686275%);fill-opacity:1;" d="M 1 36 L 47 36 L 47 40.105469 C 47 41.152344 46.152344 42 45.105469 42 L 2.894531 42 C 1.847656 42 1 41.152344 1 40.105469 Z M 1 36 "/>
<path style=" stroke:none;fill-rule:nonzero;fill:url(#linear0);" d="M 45.097656 10 L 20.839844 10 L 18.71875 7.382812 C 17.949219 6.496094 16.828125 5.992188 15.652344 6 L 2.9375 6 C 1.828125 6.054688 0.972656 6.996094 1.019531 8.105469 L 1.019531 16.207031 C 1.011719 16.285156 1 16.359375 1 16.4375 L 1 19 L 47 19 L 47 12.144531 C 47.058594 11.03125 46.210938 10.074219 45.097656 10 Z M 45.097656 10 "/>
<path style=" stroke:none;fill-rule:nonzero;fill:url(#linear1);" d="M 1 12 L 22 12 L 22 17 L 1 17 Z M 1 12 "/>
<path style=" stroke:none;fill-rule:nonzero;fill:url(#linear2);" d="M 46.441406 11.800781 C 46.152344 11.328125 45.644531 11.027344 45.09375 11 L 21.394531 11 C 20.566406 12.273438 19.410156 13.304688 18.050781 13.988281 L 18 14 L 3.300781 14 C 2.691406 13.996094 2.105469 14.234375 1.671875 14.660156 C 1.261719 15.070312 1.027344 15.628906 1.019531 16.210938 L 1.019531 17.679688 C 1.007812 17.753906 1.003906 17.828125 1 17.90625 L 1 38.929688 C 0.996094 39.472656 1.195312 39.992188 1.558594 40.394531 C 1.90625 40.777344 2.398438 40.996094 2.917969 41 L 45.082031 41 C 45.601562 40.996094 46.09375 40.777344 46.4375 40.394531 C 46.804688 39.992188 47.003906 39.472656 47 38.929688 L 47 13.742188 C 47.011719 13.054688 46.816406 12.378906 46.441406 11.800781 Z M 46.441406 11.800781 "/>
<use xlink:href="#surface5" mask="url(#mask0)"/>
<path style=" stroke:none;fill-rule:nonzero;fill:url(#linear4);" d="M 35 27 C 35 33.074219 30.074219 38 24 38 C 17.925781 38 13 33.074219 13 27 C 13 20.925781 17.925781 16 24 16 C 30.074219 16 35 20.925781 35 27 Z M 35 27 "/>
<path style=" stroke:none;fill-rule:nonzero;fill:url(#linear5);" d="M 28 23 C 28 25.210938 26.210938 27 24 27 C 21.789062 27 20 25.210938 20 23 C 20 20.789062 21.789062 19 24 19 C 26.210938 19 28 20.789062 28 23 Z M 28 23 "/>
<path style=" stroke:none;fill-rule:nonzero;fill:url(#linear6);" d="M 16.480469 30.46875 L 16.480469 30.136719 C 16.554688 29.234375 17.285156 28.523438 18.191406 28.476562 L 29.808594 28.476562 C 30.710938 28.523438 31.441406 29.234375 31.515625 30.136719 L 31.515625 30.46875 C 31.515625 33.488281 28.164062 35.457031 24 35.457031 C 19.835938 35.457031 16.480469 33.488281 16.480469 30.46875 Z M 16.480469 30.46875 "/>
</g>
</svg>
