<?xml version="1.0" encoding="UTF-8"?>
<svg xmlns="http://www.w3.org/2000/svg" xmlns:xlink="http://www.w3.org/1999/xlink" width="48" height="48" viewBox="0 0 48 48" version="1.1">
<defs>
<linearGradient id="linear0" gradientUnits="userSpaceOnUse" x1="24" y1="18.5848" x2="24" y2="16.0957" >
<stop offset="0" style="stop-color:rgb(99.607843%,74.901961%,9.411765%);stop-opacity:1;"/>
<stop offset="1" style="stop-color:rgb(93.72549%,71.764706%,18.823529%);stop-opacity:1;"/>
</linearGradient>
<linearGradient id="linear1" gradientUnits="userSpaceOnUse" x1="11.5" y1="12" x2="11.5" y2="17" >
<stop offset="0" style="stop-color:rgb(0%,0%,0%);stop-opacity:0;"/>
<stop offset="1" style="stop-color:rgb(0%,0%,0%);stop-opacity:0.2;"/>
</linearGradient>
<linearGradient id="linear2" gradientUnits="userSpaceOnUse" x1="14.1232" y1="16.1953" x2="39.8586" y2="41.9307" >
<stop offset="0" style="stop-color:rgb(100%,89.803922%,60%);stop-opacity:1;"/>
<stop offset="1" style="stop-color:rgb(100%,78.823529%,21.960784%);stop-opacity:1;"/>
</linearGradient>
<filter id="alpha" filterUnits="objectBoundingBox" x="0%" y="0%" width="100%" height="100%">
  <feColorMatrix type="matrix" in="SourceGraphic" values="0 0 0 0 1 0 0 0 0 1 0 0 0 0 1 0 0 0 1 0"/>
</filter>
<mask id="mask0">
  <g filter="url(#alpha)">
<rect x="0" y="0" width="48" height="48" style="fill:rgb(0%,0%,0%);fill-opacity:0.301961;stroke:none;"/>
  </g>
</mask>
<linearGradient id="linear3" gradientUnits="userSpaceOnUse" x1="10.1512" y1="14.1056" x2="43.7199" y2="14.1056" >
<stop offset="0.5196" style="stop-color:rgb(100%,100%,100%);stop-opacity:1;"/>
<stop offset="1" style="stop-color:rgb(99.215686%,74.509804%,9.411765%);stop-opacity:0;"/>
</linearGradient>
<clipPath id="clip1">
  <rect x="0" y="0" width="48" height="48"/>
</clipPath>
<g id="surface5" clip-path="url(#clip1)">
<path style=" stroke:none;fill-rule:nonzero;fill:url(#linear3);" d="M 46.449219 11.800781 C 46.160156 11.328125 45.65625 11.027344 45.101562 11 L 21.40625 11 C 20.574219 12.273438 19.421875 13.304688 18.0625 13.988281 L 18.011719 14 L 3.308594 14 C 2.703125 13.996094 2.117188 14.234375 1.683594 14.660156 C 1.269531 15.070312 1.035156 15.628906 1.03125 16.210938 L 1.03125 17.210938 C 1.035156 16.628906 1.269531 16.070312 1.683594 15.660156 C 2.117188 15.234375 2.703125 14.996094 3.308594 15 L 18.011719 15 L 18.0625 14.988281 C 19.421875 14.304688 20.574219 13.273438 21.40625 12 L 45.101562 12 C 45.65625 12.027344 46.160156 12.328125 46.449219 12.800781 C 46.828125 13.378906 47.023438 14.054688 47.011719 14.742188 L 47.011719 13.742188 C 47.023438 13.054688 46.828125 12.378906 46.449219 11.800781 Z M 46.449219 11.800781 "/>
</g>
<linearGradient id="linear4" gradientUnits="userSpaceOnUse" x1="26.4646" y1="33.0001" x2="26.4646" y2="11.9265" gradientTransform="matrix(1,0,0,-1,0,50.0003)">
<stop offset="0" style="stop-color:rgb(74.901961%,56.862745%,5.098039%);stop-opacity:1;"/>
<stop offset="1" style="stop-color:rgb(64.705882%,43.921569%,0.392157%);stop-opacity:1;"/>
</linearGradient>
<linearGradient id="linear5" gradientUnits="userSpaceOnUse" x1="1.2992" y1="42.714" x2="-2.6433" y2="38.7717" gradientTransform="matrix(2.6726,-2.6726,-2.6726,-2.6726,129.2839,134.6291)">
<stop offset="0" style="stop-color:rgb(74.901961%,56.862745%,5.098039%);stop-opacity:1;"/>
<stop offset="1" style="stop-color:rgb(65.882353%,46.666667%,1.568627%);stop-opacity:1;"/>
</linearGradient>
</defs>
<g id="surface1">
<path style=" stroke:none;fill-rule:nonzero;fill:rgb(90.196078%,66.27451%,15.686275%);fill-opacity:1;" d="M 1 36 L 47 36 L 47 40.105469 C 47 41.152344 46.152344 42 45.105469 42 L 2.894531 42 C 1.847656 42 1 41.152344 1 40.105469 Z M 1 36 "/>
<path style=" stroke:none;fill-rule:nonzero;fill:url(#linear0);" d="M 45.097656 10 L 20.839844 10 L 18.71875 7.382812 C 17.949219 6.496094 16.828125 5.992188 15.652344 6 L 2.9375 6 C 1.828125 6.054688 0.972656 6.996094 1.019531 8.105469 L 1.019531 16.207031 C 1.011719 16.285156 1 16.359375 1 16.4375 L 1 19 L 47 19 L 47 12.144531 C 47.058594 11.03125 46.210938 10.074219 45.097656 10 Z M 45.097656 10 "/>
<path style=" stroke:none;fill-rule:nonzero;fill:url(#linear1);" d="M 1 12 L 22 12 L 22 17 L 1 17 Z M 1 12 "/>
<path style=" stroke:none;fill-rule:nonzero;fill:url(#linear2);" d="M 46.441406 11.800781 C 46.152344 11.328125 45.644531 11.027344 45.09375 11 L 21.394531 11 C 20.566406 12.273438 19.410156 13.304688 18.050781 13.988281 L 18 14 L 3.300781 14 C 2.691406 13.996094 2.105469 14.234375 1.671875 14.660156 C 1.261719 15.070312 1.027344 15.628906 1.019531 16.210938 L 1.019531 17.679688 C 1.007812 17.753906 1.003906 17.828125 1 17.90625 L 1 38.929688 C 0.996094 39.472656 1.195312 39.992188 1.558594 40.394531 C 1.90625 40.777344 2.398438 40.996094 2.917969 41 L 45.082031 41 C 45.601562 40.996094 46.09375 40.777344 46.4375 40.394531 C 46.804688 39.992188 47.003906 39.472656 47 38.929688 L 47 13.742188 C 47.011719 13.054688 46.816406 12.378906 46.441406 11.800781 Z M 46.441406 11.800781 "/>
<use xlink:href="#surface5" mask="url(#mask0)"/>
<path style=" stroke:none;fill-rule:nonzero;fill:url(#linear4);" d="M 26.453125 17 C 22.292969 17.003906 18.925781 20.378906 18.925781 24.535156 C 18.929688 28.695312 22.300781 32.066406 26.457031 32.066406 C 30.617188 32.066406 33.988281 28.695312 33.992188 24.535156 C 33.992188 20.378906 30.625 17.003906 26.464844 17 Z M 26.394531 19.257812 C 26.417969 19.257812 26.441406 19.257812 26.464844 19.257812 C 29.375 19.257812 31.730469 21.617188 31.734375 24.523438 L 31.734375 24.527344 C 31.734375 27.425781 29.386719 29.78125 26.488281 29.792969 C 23.585938 29.808594 21.222656 27.472656 21.195312 24.574219 C 21.171875 21.671875 23.492188 19.296875 26.394531 19.257812 Z M 26.394531 19.257812 "/>
<path style=" stroke:none;fill-rule:nonzero;fill:url(#linear5);" d="M 14.074219 36.070312 L 21.527344 28.621094 C 21.808594 28.332031 22.226562 28.21875 22.621094 28.320312 C 23.011719 28.425781 23.316406 28.730469 23.421875 29.125 C 23.527344 29.515625 23.410156 29.933594 23.121094 30.21875 L 15.671875 37.667969 C 15.230469 38.109375 14.515625 38.109375 14.074219 37.667969 C 13.632812 37.226562 13.632812 36.511719 14.074219 36.070312 Z M 14.074219 36.070312 "/>
</g>
</svg>
