<?xml version="1.0" encoding="UTF-8" standalone="no"?>
<svg
   width="24"
   height="24"
   enable-background="new"
   version="1.1"
   id="svg5"
   sodipodi:docname="audio-volume-high-panel.svg"
   inkscape:version="1.4 (e7c3feb100, 2024-10-09)"
   xmlns:inkscape="http://www.inkscape.org/namespaces/inkscape"
   xmlns:sodipodi="http://sodipodi.sourceforge.net/DTD/sodipodi-0.dtd"
   xmlns="http://www.w3.org/2000/svg"
   xmlns:svg="http://www.w3.org/2000/svg"
   xmlns:rdf="http://www.w3.org/1999/02/22-rdf-syntax-ns#"
   xmlns:cc="http://creativecommons.org/ns#"
   xmlns:dc="http://purl.org/dc/elements/1.1/"><defs
   id="defs5" />
<sodipodi:namedview
   id="namedview5"
   pagecolor="#c8c8c8"
   bordercolor="#000000"
   borderopacity="0.25"
   inkscape:showpageshadow="2"
   inkscape:pageopacity="0.0"
   inkscape:pagecheckerboard="0"
   inkscape:deskcolor="#d1d1d1"
   inkscape:zoom="16.583333"
   inkscape:cx="20.743719"
   inkscape:cy="13.899498"
   inkscape:window-width="1920"
   inkscape:window-height="1017"
   inkscape:window-x="0"
   inkscape:window-y="34"
   inkscape:window-maximized="1"
   inkscape:current-layer="22-22-audio-volume-high" />
<title
   id="title1">Paper Symbolic Icon Theme</title>


style=&quot;color:#363636;fill:#fefefe;fill-opacity:1;stroke:#fefefe;stroke-width:0;stroke-miterlimit:4;stroke-dasharray:none;stroke-opacity:1&quot;
  <metadata
   id="metadata5">
  <rdf:RDF>
    <cc:Work
       rdf:about="">
      <dc:title>Paper Symbolic Icon Theme</dc:title>
    </cc:Work>
  </rdf:RDF>
</metadata>
<g
   id="22-22-audio-volume-high"
   transform="translate(-239.53572,-363.50504)">
  <rect
     style="opacity:0.001;fill:#fe20fe;stroke-width:1.50295;stroke-linecap:round;stroke-linejoin:round"
     id="rect1"
     width="24"
     height="23.585981"
     x="239.53572"
     y="363.71204" />
  <g
     id="g20027"
     transform="translate(56.996856)">
    <path
       id="path20019"
       style="color:#363636;fill:#fefefe;fill-opacity:1;stroke:#fefefe;stroke-width:0;stroke-miterlimit:4;stroke-dasharray:none;stroke-opacity:1"
       d="M 200.5623 368.45426 A 0.60000002 0.60000002 0 0 0 200.13847 368.63004 A 0.60000002 0.60000002 0 0 0 200.13847 369.4777 C 202.00154 371.34077 203.04668 373.8683 203.04668 376.50309 C 203.04668 379.13787 202.00154 381.66345 200.13847 383.52652 A 0.60000002 0.60000002 0 0 0 200.13847 384.37418 A 0.60000002 0.60000002 0 0 0 200.98613 384.37418 C 203.07392 382.28639 204.24785 379.45567 204.24785 376.50309 C 204.24785 373.55051 203.07392 370.71783 200.98613 368.63004 A 0.60000002 0.60000002 0 0 0 200.5623 368.45426 z M 190.92558 370.00504 C 190.73844 369.99354 190.36568 370.14466 190.23418 370.26285 L 187.63066 373.50504 L 185.17558 373.50504 C 184.26904 373.50504 183.53886 374.26032 183.53886 375.25504 L 183.53886 377.75504 C 183.53886 378.74976 184.26904 379.50504 185.17558 379.50504 L 187.63066 379.50504 L 190.41582 382.83902 C 190.5473 382.95723 190.73849 383.01658 190.92558 383.00504 C 191.23738 382.98574 191.53886 382.76755 191.53886 382.2902 L 191.53886 370.71988 C 191.53886 370.24253 191.23749 370.02436 190.92558 370.00504 z M 197.69902 370.39762 A 0.60000002 0.60000002 0 0 0 197.27519 370.5734 A 0.60000002 0.60000002 0 0 0 197.27519 371.42106 C 198.62293 372.76881 199.38066 374.59709 199.38066 376.50309 C 199.38066 378.40908 198.62293 380.23543 197.27519 381.58317 A 0.60000002 0.60000002 0 0 0 197.27519 382.43082 A 0.60000002 0.60000002 0 0 0 198.1248 382.43082 C 199.69726 380.85836 200.57988 378.72688 200.57988 376.50309 C 200.57988 374.27929 199.69726 372.14586 198.1248 370.5734 A 0.60000002 0.60000002 0 0 0 197.69902 370.39762 z M 190.53886 371.45817 L 190.53886 371.68277 L 190.53886 381.26285 L 190.53886 381.53629 L 188.05254 378.50504 L 185.37285 378.50504 C 185.31575 378.50504 185.25865 378.49806 185.20488 378.48746 L 185.20293 378.48746 C 185.14923 378.47656 185.09801 378.46129 185.04863 378.44059 L 185.04668 378.44059 C 184.99678 378.41959 184.95037 378.39236 184.90605 378.36246 C 184.86175 378.33256 184.82065 378.29856 184.783 378.2609 C 184.7453 378.2232 184.7113 378.1822 184.68144 378.13785 C 184.65154 378.09355 184.62432 378.04715 184.60332 377.99723 L 184.60332 377.99527 C 184.58262 377.94587 184.56744 377.89472 184.55644 377.84098 L 184.55644 377.83902 C 184.55044 377.81182 184.54567 377.78509 184.54277 377.75699 C 184.53977 377.72889 184.53886 377.69986 184.53886 377.67106 L 184.53886 375.33902 C 184.53886 375.28202 184.54584 375.22484 184.55644 375.17106 L 184.55644 375.1691 C 184.56734 375.1154 184.58262 375.0642 184.60332 375.01481 L 184.60332 375.01285 C 184.62432 374.96295 184.65154 374.91655 184.68144 374.87223 C 184.71134 374.82793 184.74534 374.78683 184.783 374.74918 C 184.8207 374.71148 184.8617 374.67748 184.90605 374.64762 C 184.95035 374.61772 184.99676 374.59049 185.04668 374.56949 L 185.04863 374.56949 C 185.09803 374.54879 185.14919 374.53362 185.20293 374.52262 C 185.25723 374.51152 185.31515 374.50504 185.37285 374.50504 L 188.05254 374.50504 L 190.53886 371.45817 z M 195.10918 372.98746 A 0.60000002 0.60000002 0 0 0 194.68535 373.16324 A 0.60000002 0.60000002 0 0 0 194.68535 374.0109 C 195.34598 374.67153 195.7166 375.56881 195.7166 376.50309 C 195.7166 377.43737 195.34598 378.33268 194.68535 378.99332 A 0.60000002 0.60000002 0 0 0 194.68535 379.84098 A 0.60000002 0.60000002 0 0 0 195.533 379.84098 C 196.41836 378.95562 196.91582 377.75517 196.91582 376.50309 C 196.91582 375.25101 196.41836 374.0486 195.533 373.16324 A 0.60000002 0.60000002 0 0 0 195.10918 372.98746 z " />
  </g>
</g>
</svg>
