<?xml version="1.0" encoding="UTF-8" standalone="no"?>
<svg
   width="16"
   height="16"
   version="1.1"
   id="svg1"
   sodipodi:docname="preferences-system-symbolic.svg"
   inkscape:version="1.4 (e7c3feb100, 2024-10-09)"
   xmlns:inkscape="http://www.inkscape.org/namespaces/inkscape"
   xmlns:sodipodi="http://sodipodi.sourceforge.net/DTD/sodipodi-0.dtd"
   xmlns="http://www.w3.org/2000/svg"
   xmlns:svg="http://www.w3.org/2000/svg">
  <defs
     id="defs1">
    <linearGradient
       id="linear0"
       gradientUnits="userSpaceOnUse"
       x1="22.2703"
       y1="11.7297"
       x2="9.6459999"
       y2="24.354"
       gradientTransform="matrix(2,0,0,-2,0,68)">
      <stop
         offset="0"
         style="stop-color:rgb(100%,100%,100%);stop-opacity:1;"
         id="stop1-5" />
      <stop
         offset="0.242"
         style="stop-color:rgb(94.901961%,94.901961%,94.901961%);stop-opacity:1;"
         id="stop2-6" />
      <stop
         offset="1"
         style="stop-color:rgb(80%,80%,80%);stop-opacity:1;"
         id="stop3" />
    </linearGradient>
    <linearGradient
       id="linear1"
       gradientUnits="userSpaceOnUse"
       x1="10.3857"
       y1="23.6143"
       x2="20.234301"
       y2="13.7657"
       gradientTransform="matrix(2,0,0,-2,0,68)">
      <stop
         offset="0.2291"
         style="stop-color:rgb(2.352941%,41.176471%,73.72549%);stop-opacity:1;"
         id="stop4" />
      <stop
         offset="0.8045"
         style="stop-color:rgb(6.27451%,30.588235%,56.862745%);stop-opacity:1;"
         id="stop5" />
    </linearGradient>
    <linearGradient
       id="linear2"
       gradientUnits="userSpaceOnUse"
       x1="1.1849"
       y1="32.736698"
       x2="27.172701"
       y2="6.7490001"
       gradientTransform="matrix(2,0,0,-2,0,68)">
      <stop
         offset="0.1453"
         style="stop-color:rgb(54.117647%,56.862745%,59.607843%);stop-opacity:1;"
         id="stop6" />
      <stop
         offset="0.8939"
         style="stop-color:rgb(38.823529%,43.921569%,48.235294%);stop-opacity:1;"
         id="stop7" />
    </linearGradient>
  </defs>
  <sodipodi:namedview
     id="namedview1"
     pagecolor="#ffffff"
     bordercolor="#000000"
     borderopacity="0.25"
     inkscape:showpageshadow="2"
     inkscape:pageopacity="0.0"
     inkscape:pagecheckerboard="0"
     inkscape:deskcolor="#d1d1d1"
     inkscape:zoom="11.5625"
     inkscape:cx="-21.751351"
     inkscape:cy="14.183784"
     inkscape:window-width="1920"
     inkscape:window-height="952"
     inkscape:window-x="0"
     inkscape:window-y="34"
     inkscape:window-maximized="1"
     inkscape:current-layer="svg1" />
  <path
     class="ColorScheme-Text"
     d="m 6.127,21.016477 c -0.064351,-0.0089 -0.13038,-0.0043 -0.19727,0.01367 -0.26756,0.07169 -0.42521,0.34377 -0.35352,0.61133 l 0.13672,0.50977 a 7,7 0 0 0 -1.1719,0.5293 c -0.013468,0.0063 -0.027897,0.0061 -0.041016,0.01367 -0.01342,0.0078 -0.020785,0.02055 -0.033203,0.0293 a 7,7 0 0 0 -1.0449,0.74805 l -0.37109,-0.37109 c -0.19587,-0.19587 -0.51116,-0.19587 -0.70703,0 -0.19587,0.19587 -0.19587,0.51116 0,0.70703 l 0.36914,0.36914 a 7,7 0 0 0 -0.77539,1.0801 7,7 0 0 0 -0.54883,1.2109 l -0.50391,-0.13477 c -0.26756,-0.07169 -0.53964,0.08595 -0.61133,0.35352 -0.07169,0.267566 0.085954,0.53964 0.35352,0.61133 l 0.50586,0.13672 a 7,7 0 0 0 -0.00195,2.6465 l -0.50391,0.13477 c -0.26756,0.07169 -0.42521,0.34377 -0.35352,0.61133 0.071693,0.26756 0.34377,0.42521 0.61133,0.35352 l 0.50977,-0.13672 a 7,7 0 0 0 1.3203,2.291 l -0.37109,0.37109 c -0.19587,0.19587 -0.19587,0.51116 0,0.70703 0.19587,0.19587 0.51116,0.19587 0.70703,0 l 0.36914,-0.36914 a 7,7 0 0 0 1.0801,0.77539 7,7 0 0 0 1.2109,0.54883 l -0.13477,0.50391 c -0.071693,0.26756 0.085954,0.53964 0.35352,0.61133 0.26756,0.07169 0.53964,-0.08595 0.61133,-0.35352 l 0.13672,-0.50586 a 7,7 0 0 0 2.6465,0.002 l 0.13477,0.50391 c 0.071693,0.26756 0.34377,0.42521 0.61133,0.35352 0.26756,-0.07169 0.42521,-0.34377 0.35352,-0.61133 l -0.13672,-0.50976 a 7,7 0 0 0 2.291,-1.3203 l 0.37109,0.37109 c 0.19587,0.19587 0.51116,0.19587 0.70703,0 0.19587,-0.19587 0.19587,-0.51116 0,-0.70703 l -0.36914,-0.36914 a 7,7 0 0 0 0.77539,-1.0801 7,7 0 0 0 0.54883,-1.2109 l 0.50391,0.13477 c 0.26756,0.07169 0.53964,-0.08595 0.61133,-0.35352 0.07169,-0.26756 -0.08595,-0.53963 -0.35352,-0.61133 l -0.50586,-0.13672 a 7,7 0 0 0 0.12695,-1.2949 c 5.42e-4,-0.0096 0.0059,-0.01762 0.0059,-0.02734 0,-0.01252 -0.0069,-0.02287 -0.0078,-0.03516 a 7,7 0 0 0 -0.12305,-1.2891 l 0.50391,-0.13477 c 0.26756,-0.07169 0.42521,-0.34377 0.35352,-0.61133 -0.07169,-0.26756 -0.34377,-0.42521 -0.61133,-0.35352 l -0.50976,0.13672 a 7,7 0 0 0 -1.3203,-2.291 l 0.37109,-0.37109 c 0.19587,-0.19587 0.19587,-0.51116 0,-0.70703 -0.19587,-0.19587 -0.51116,-0.19587 -0.70703,0 l -0.36914,0.36914 a 7,7 0 0 0 -1.0801,-0.77539 7,7 0 0 0 -1.2109,-0.54883 l 0.13477,-0.50391 c 0.07169,-0.26756 -0.08595,-0.53964 -0.35352,-0.61133 -0.26762,-0.07174 -0.53969,0.08591 -0.61139,0.35347 l -0.13672,0.50586 a 7,7 0 0 0 -2.6465,-0.002 l -0.13477,-0.50391 c -0.05377,-0.20067 -0.22101,-0.34054 -0.41406,-0.36719 z m 1.5898,1.7461 a 6,6 0 0 1 3.2832,0.79883 6,6 0 0 1 2.9727,4.6953 H 9.9336 a 2,2 0 0 0 -1.9336,-1.5 2,2 0 0 0 -0.5332,0.07422 l -2.0215,-3.5 a 6,6 0 0 1 2.2715,-0.56836 z m -3.1367,1.0723 2.0195,3.4961 a 2,2 0 0 0 -0.59961,1.4258 2,2 0 0 0 0.59766,1.4258 l -2.0195,3.498 a 6,6 0 0 1 -1.7734,-7.9238 6,6 0 0 1 1.7754,-1.9219 z M 8,27.756777 a 1,1 0 0 1 1,1 1,1 0 0 1 -1,1 1,1 0 0 1 -1,-1 1,1 0 0 1 1,-1 z m 1.9355,1.5 h 4.0371 a 6,6 0 0 1 -0.77734,2.5 6,6 0 0 1 -7.75,2.4238 l 2.0195,-3.4961 a 2,2 0 0 0 0.53516,0.07227 2,2 0 0 0 1.9355,-1.5 z"
     color="#363636"
     fill="#363636"
     id="path1" />
  <g
     id="surface1"
     transform="matrix(0.24999955,0,0,0.24999955,3.752019e-4,1.44e-5)">
    <path
       style="fill:url(#linear0);fill-rule:nonzero;stroke:none"
       d="m 50,32 c 0,9.941406 -8.058594,18 -18,18 -9.941406,0 -18,-8.058594 -18,-18 0,-9.941406 8.058594,-18 18,-18 9.941406,0 18,8.058594 18,18 z m 0,0"
       id="path7" />
    <path
       style="fill:url(#linear1);fill-rule:nonzero;stroke:none"
       d="m 44,32 c 0,6.628906 -5.371094,12 -12,12 -6.628906,0 -12,-5.371094 -12,-12 0,-6.628906 5.371094,-12 12,-12 6.628906,0 12,5.371094 12,12 z m 0,0"
       id="path8" />
    <path
       style="fill:url(#linear2);fill-rule:nonzero;stroke:none"
       d="m 63.050781,24.636719 c -3.933593,-0.02734 -7.566406,-2.117188 -9.574219,-5.5 -1.898437,-3.234375 -2,-7.21875 -0.257812,-10.542969 C 49.773438,5.570312 45.71875,3.324219 41.332031,2 39.234375,5.09375 35.738281,6.941406 32,6.929688 28.261719,6.941406 24.765625,5.09375 22.671875,2 18.28125,3.324219 14.226562,5.570312 10.78125,8.59375 c 1.742188,3.324219 1.644531,7.308594 -0.257812,10.542969 -2.007813,3.382812 -5.640626,5.472656 -9.574219,5.5 -1.128907,4.378906 -1.253907,8.960937 -0.367188,13.398437 4.066407,-0.09766 7.867188,2.007813 9.941407,5.507813 C 12.636719,47.144531 12.5,51.640625 10.167969,55.109375 13.546875,58.222656 17.550781,60.570312 21.914062,62 23.816406,58.167969 27.722656,55.746094 32,55.746094 c 4.277344,0 8.183594,2.421875 10.085938,6.253906 4.363281,-1.429688 8.367187,-3.777344 11.742187,-6.890625 -2.332031,-3.464844 -2.46875,-7.960937 -0.351563,-11.566406 2.070313,-3.5 5.875,-5.605469 9.941407,-5.507813 0.882812,-4.4375 0.757812,-9.015625 -0.367188,-13.398437 z M 32,48 c -8.835938,0 -16,-7.164062 -16,-16 0,-8.835938 7.164062,-16 16,-16 8.835938,0 16,7.164062 16,16 0,8.835938 -7.164062,16 -16,16 z m 0,0"
       id="path9" />
  </g>
</svg>
