<?xml version="1.0" encoding="UTF-8" standalone="no"?>
<svg
   width="16"
   height="16"
   version="1.1"
   id="svg1"
   sodipodi:docname="ephy-bookmarks-symbolic.svg"
   inkscape:version="1.4 (e7c3feb100, 2024-10-09)"
   xmlns:inkscape="http://www.inkscape.org/namespaces/inkscape"
   xmlns:sodipodi="http://sodipodi.sourceforge.net/DTD/sodipodi-0.dtd"
   xmlns="http://www.w3.org/2000/svg"
   xmlns:svg="http://www.w3.org/2000/svg">
  <defs
     id="defs1" />
  <sodipodi:namedview
     id="namedview1"
     pagecolor="#ffffff"
     bordercolor="#000000"
     borderopacity="0.25"
     inkscape:showpageshadow="2"
     inkscape:pageopacity="0.0"
     inkscape:pagecheckerboard="0"
     inkscape:deskcolor="#d1d1d1"
     inkscape:zoom="2.0439805"
     inkscape:cx="-54.06118"
     inkscape:cy="13.209519"
     inkscape:window-width="1920"
     inkscape:window-height="952"
     inkscape:window-x="0"
     inkscape:window-y="34"
     inkscape:window-maximized="1"
     inkscape:current-layer="svg1" />
  <path
     d="m4.8008 0s-0.43146-0.012793-0.87695 0.22852c-0.44549 0.24131-0.92383 0.89765-0.92383 1.6387v12.133a1.0001 1.0001 0 0 0 1.5449 0.83789l3.4551-2.2461 3.4551 2.2461a1.0001 1.0001 0 0 0 1.5449-0.83789v-12.133s0.01489-0.40654-0.19141-0.85352c-0.2063-0.44698-0.84826-1.0137-1.6094-1.0137h-6.3984zm0 1h6.3984c0.8 0 0.80078 0.86719 0.80078 0.86719v12.133l-4-2.5996-4 2.5996v-12.133c0-0.86667 0.80078-0.86719 0.80078-0.86719z"
     color="#000000"
     color-rendering="auto"
     dominant-baseline="auto"
     fill="#363636"
     image-rendering="auto"
     shape-rendering="auto"
     solid-color="#000000"
     style="font-feature-settings:normal;font-variant-alternates:normal;font-variant-caps:normal;font-variant-ligatures:normal;font-variant-numeric:normal;font-variant-position:normal;isolation:auto;mix-blend-mode:normal;shape-padding:0;text-decoration-color:#000000;text-decoration-line:none;text-decoration-style:solid;text-indent:0;text-orientation:mixed;text-transform:none;white-space:normal"
     id="path1" />
</svg>
