<?xml version="1.0" encoding="UTF-8"?>
<svg width="64" height="64" version="1.1" viewBox="0 0 16.933 16.933" xmlns="http://www.w3.org/2000/svg" xmlns:cc="http://creativecommons.org/ns#" xmlns:dc="http://purl.org/dc/elements/1.1/" xmlns:rdf="http://www.w3.org/1999/02/22-rdf-syntax-ns#">
 <defs>
  <style type="text/css"/>
  <style type="text/css"/>
  <style type="text/css"/>
  <style type="text/css"/>
  <style type="text/css"/>
  <linearGradient id="linearGradient1911-3-3" x1="25.085" x2="25.085" y1="24.031" y2="26.412" gradientTransform="matrix(8.673 0 0 8.673 -243.24 -251.76)" gradientUnits="userSpaceOnUse">
   <stop stop-color="#892a3c" offset="0"/>
   <stop stop-color="#732332" offset="1"/>
  </linearGradient>
  <linearGradient id="linearGradient1951-6-6" x1="100" x2="133.19" y1="17.453" y2="51.606" gradientTransform="matrix(2.2947 0 0 2.2947 -262.41 -67.465)" gradientUnits="userSpaceOnUse">
   <stop stop-color="#bf7474" offset="0"/>
   <stop stop-color="#be4c63" offset="1"/>
  </linearGradient>
  <linearGradient id="linearGradient11110-7-5" x1=".52917" x2="16.404" y1="5.3815" y2="5.3815" gradientTransform="matrix(8.673 0 0 8.673 -88.013 -66.291)" gradientUnits="userSpaceOnUse">
   <stop stop-color="#fff" offset="0"/>
   <stop stop-color="#fff" stop-opacity="0" offset="1"/>
  </linearGradient>
  <linearGradient id="linearGradient29077-6" x1=".52916" x2="16.404" y1="14.179" y2="14.179" gradientTransform="matrix(8.673 0 0 8.673 -88.013 -66.426)" gradientUnits="userSpaceOnUse">
   <stop stop-color="#4e1822" offset="0"/>
   <stop stop-color="#4e1821" offset="1"/>
  </linearGradient>
  <linearGradient id="linearGradient1006-1" x1="8.5259" x2="8.5259" y1="6.0936" y2="13.269" gradientTransform="matrix(8.673 0 0 8.673 -88.012 -66.292)" gradientUnits="userSpaceOnUse">
   <stop stop-color="#fff" offset="0"/>
   <stop stop-color="#fececd" offset="1"/>
  </linearGradient>
 </defs>
 <metadata>
  <rdf:RDF>
   <cc:Work rdf:about="">
    <dc:format>image/svg+xml</dc:format>
    <dc:type rdf:resource="http://purl.org/dc/dcmitype/StillImage"/>
   </cc:Work>
  </rdf:RDF>
 </metadata>
 <g fill="#5e4aa6" stroke-width=".26458">
  <circle cx="-330.35" cy="-328.38" r="0"/>
  <circle cx="-312.11" cy="-326.25" r="0"/>
  <circle cx="-306.02" cy="-333.07" r="0"/>
  <circle cx="-308.84" cy="-326.01" r="0"/>
  <circle cx="-328.8" cy="-330.45" r="0"/>
  <g transform="translate(.000295 -.00032978)">
   <circle cx="-330.35" cy="-328.38" r="0"/>
   <circle cx="-312.11" cy="-326.25" r="0"/>
   <circle cx="-306.02" cy="-333.07" r="0"/>
   <circle cx="-308.84" cy="-326.01" r="0"/>
   <circle cx="-328.8" cy="-330.45" r="0"/>
  </g>
  <circle cx="-330.35" cy="-328.38" r="0"/>
  <circle cx="-312.11" cy="-326.25" r="0"/>
  <circle cx="-306.02" cy="-333.07" r="0"/>
  <circle cx="-308.84" cy="-326.01" r="0"/>
  <circle cx="-328.8" cy="-330.45" r="0"/>
  <g transform="translate(2.95e-4,-3.2978e-4)">
   <circle cx="-330.35" cy="-328.38" r="0"/>
   <circle cx="-312.11" cy="-326.25" r="0"/>
   <circle cx="-306.02" cy="-333.07" r="0"/>
   <circle cx="-308.84" cy="-326.01" r="0"/>
   <circle cx="-328.8" cy="-330.45" r="0"/>
  </g>
 </g>
 <g transform="matrix(.1153 0 0 .1153 10.148 7.6434)">
  <path d="m-77.625-46.786c-3.1682 0-5.7367 2.8253-5.7367 6.3105v25.703c-0.026 0.2281-0.0607 0.45099-0.0607 0.68603v68.84c0 3.4852 2.5685 6.3105 5.7367 6.3105h126.21c3.1684 0 5.7367-2.8253 5.7367-6.3105v-81.466c0-3.4852-2.5684-6.3104-5.7367-6.3104v4e-3h-71.113l-7.7939-9.6227s-3.175-4.1457-9.1786-4.1457h-11.474z" color="#000000" color-rendering="auto" dominant-baseline="auto" fill="url(#linearGradient1911-3-3)" image-rendering="auto" shape-rendering="auto" solid-color="#000000" stop-color="#000000" stroke-width="8.673" style="font-feature-settings:normal;font-variant-alternates:normal;font-variant-caps:normal;font-variant-east-asian:normal;font-variant-ligatures:normal;font-variant-numeric:normal;font-variant-position:normal;font-variation-settings:normal;inline-size:0;isolation:auto;mix-blend-mode:normal;shape-margin:0;shape-padding:0;text-decoration-color:#000000;text-decoration-line:none;text-decoration-style:solid;text-indent:0;text-orientation:mixed;text-transform:none;white-space:normal"/>
  <path d="m-15.503-33.152c-0.98107 0.0173-2.6754-0.13356-4.5088 0.82479-6.3874 3.291-6.6978 5.1488-13.504 6.1938h-43.025c-1.9069 0-3.6274 0.76756-4.8718 2.0124-1.2087 1.2087-1.9116 2.8909-1.954 4.7328v2.4067c0.0434-1.8418 0.745-3.5241 1.954-4.7328 1.2444-1.2443 2.9649-2.0123 4.8718-2.0123h43.025c6.8059-1.0452 7.1163-2.9028 13.504-6.1939 1.8334-0.95835 3.5276-0.80917 4.5088-0.82478h64.031c1.5798 3e-3 3.0113 0.7025 4.0471 1.842 1.0381 1.142 1.6806 2.7214 1.6806 4.464v-2.4068c0-1.7425-0.64266-3.322-1.6806-4.4639-1.0358-1.1394-2.4673-1.8388-4.0471-1.842h-10.106zm-67.864 18.245c-0.026 0.2281-0.0607 0.45099-0.0607 0.68603v2.4067c0-0.23504 0.0347-0.45792 0.0607-0.68602z" fill="#1e5992" opacity=".001" stroke-width="2.2947"/>
  <g stroke-width="8.673">
   <path d="m-22.597-30.75s-3.1153 4.1516-10.039 6.8706c-0.2836 0.052-0.5646 0.10061-0.87404 0.14831h-43.025c-1.9069 0-3.6274 0.76754-4.8717 2.0123-1.2088 1.2086-1.9118 2.891-1.9541 4.7328v4.4818c-0.026 0.2281-0.0607 0.45099-0.0607 0.68602v64.14c0 1.7426 0.63832 3.3175 1.6762 4.4594 1.0382 1.1419 2.4765 1.851 4.0605 1.851h126.21c1.5841 0 3.0179-0.70857 4.056-1.851 1.0381-1.142 1.6806-2.7169 1.6806-4.4594v-76.765c0-1.7426-0.64266-3.322-1.6806-4.464-1.036-1.1393-2.4674-1.8388-4.0473-1.842h-64.892z" fill="url(#linearGradient1951-6-6)"/>
   <path d="m-22.597-30.75s-3.1153 4.1516-10.039 6.8706c-0.2836 0.052-0.5646 0.10061-0.87404 0.14831h-43.025c-1.9069 0-3.6274 0.76754-4.8717 2.0123-1.2088 1.2086-1.9117 2.891-1.9541 4.7328v3.3344c0.0434-1.8418 0.745-3.5241 1.9541-4.7328 1.2443-1.2443 2.9648-2.0124 4.8717-2.0124h43.025c0.30961-0.052 0.59062-0.0971 0.87404-0.14831 6.5837-2.2812 11.173-6.8705 11.173-6.8705h69.997c1.5798 3e-3 3.0111 0.7025 4.0471 1.842 1.0381 1.142 1.6806 2.7214 1.6806 4.4639v-3.3344c0-1.7426-0.64266-3.322-1.6806-4.464-1.036-1.1393-2.4673-1.8388-4.0471-1.842h-64.892zm-60.765 18.245c-0.026 0.2281-0.0607 0.45099-0.0607 0.68603v3.3345c0-0.23504 0.0347-0.45793 0.0607-0.68603z" fill="url(#linearGradient11110-7-5)" opacity=".3"/>
   <path d="m-83.423 52.164v2.4471c0 1.7426 0.63832 3.3174 1.6762 4.4594 1.0382 1.142 2.4765 1.851 4.0605 1.851h126.21c1.5841 0 3.0179-0.70857 4.056-1.851 1.0381-1.142 1.6806-2.7168 1.6806-4.4594v-2.4471c0 1.7426-0.64266 3.3175-1.6806 4.4594-1.0381 1.1419-2.4719 1.851-4.056 1.851h-126.21c-1.5841 0-3.0223-0.70944-4.0605-1.851-1.0381-1.1419-1.6762-2.7169-1.6762-4.4594z" color="#000000" color-rendering="auto" dominant-baseline="auto" fill="url(#linearGradient29077-6)" image-rendering="auto" shape-rendering="auto" solid-color="#000000" stop-color="#000000" style="font-feature-settings:normal;font-variant-alternates:normal;font-variant-caps:normal;font-variant-east-asian:normal;font-variant-ligatures:normal;font-variant-numeric:normal;font-variant-position:normal;font-variation-settings:normal;inline-size:0;isolation:auto;mix-blend-mode:normal;shape-margin:0;shape-padding:0;text-decoration-color:#000000;text-decoration-line:none;text-decoration-style:solid;text-indent:0;text-orientation:mixed;text-transform:none;white-space:normal"/>
  </g>
  <path d="m15.657 13.947c-4.3905 5.3485-11.88 13.844-11.88 13.844s0.9927 10.031 1.7041 16.657c0.30875 3.3733-2.1219 4.8305-4.8774 3.5168-5.2394-2.6338-13.39-7.7821-15.185-8.6999-1.8256 0.91116-9.7078 5.9909-15 8.6185-2.7866 1.3106-5.2455-0.14658-4.9336-3.5137 0.72072-6.6123 1.5764-16.579 1.5764-16.579s-7.4273-8.5356-11.871-13.878c-1.5696-1.941-0.562-4.6995 2.5339-5.205 6.3159-1.1951 16.099-1.5693 16.099-1.5693s5.3516-11.394 8.7372-17.438c1.8628-3.676 3.1517-3.2516 3.3732-3.1423 0.57415 0.19688 1.4823 0.91117 2.6649 3.1455 3.3483 6.0506 8.2937 17.435 8.2937 17.435s10.017 0.39895 16.258 1.5942c3.0581 0.51169 4.0566 3.2735 2.5058 5.2144z" fill="url(#linearGradient1006-1)" stroke-width=".060987" p-id="13941"/>
 </g>
</svg>
