<?xml version="1.0" encoding="UTF-8" standalone="no"?>
<svg
   width="64"
   height="64"
   viewBox="0 0 16.933 16.933"
   version="1.1"
   id="svg20"
   sodipodi:docname="folder-steam.svg"
   inkscape:version="1.4 (e7c3feb100, 2024-10-09)"
   xmlns:inkscape="http://www.inkscape.org/namespaces/inkscape"
   xmlns:sodipodi="http://sodipodi.sourceforge.net/DTD/sodipodi-0.dtd"
   xmlns:xlink="http://www.w3.org/1999/xlink"
   xmlns="http://www.w3.org/2000/svg"
   xmlns:svg="http://www.w3.org/2000/svg">
  <sodipodi:namedview
     id="namedview20"
     pagecolor="#505050"
     bordercolor="#eeeeee"
     borderopacity="1"
     inkscape:showpageshadow="0"
     inkscape:pageopacity="0"
     inkscape:pagecheckerboard="0"
     inkscape:deskcolor="#505050"
     inkscape:zoom="6.1875"
     inkscape:cx="19.878788"
     inkscape:cy="61.89899"
     inkscape:window-width="1920"
     inkscape:window-height="1051"
     inkscape:window-x="0"
     inkscape:window-y="0"
     inkscape:window-maximized="1"
     inkscape:current-layer="svg20" />
  <defs
     id="defs13">
    <linearGradient
       id="linearGradient20"
       x1="100"
       x2="133.19"
       y1="17.452999"
       y2="51.605999"
       gradientTransform="matrix(2.2947,0,0,2.2947,-262.41,-67.465)"
       gradientUnits="userSpaceOnUse">
      <stop
         stop-color="#bf7474"
         offset="0"
         id="stop19"
         style="stop-color:#ffffff;stop-opacity:1;" />
      <stop
         stop-color="#be4c63"
         offset="1"
         id="stop20"
         style="stop-color:#fecfce;stop-opacity:1" />
    </linearGradient>
    <linearGradient
       id="linearGradient18"
       x1="100"
       x2="133.19"
       y1="17.452999"
       y2="51.605999"
       gradientTransform="matrix(2.2947,0,0,2.2947,-262.41,-67.465)"
       gradientUnits="userSpaceOnUse">
      <stop
         stop-color="#bf7474"
         offset="0"
         id="stop17"
         style="stop-color:#ffffff;stop-opacity:1;" />
      <stop
         stop-color="#be4c63"
         offset="1"
         id="stop18" />
    </linearGradient>
    <linearGradient
       id="linearGradient39"
       x1="100"
       x2="133.19"
       y1="17.452999"
       y2="51.605999"
       gradientTransform="matrix(0.26458,0,0,0.26458,-20.10798,-0.1353581)"
       gradientUnits="userSpaceOnUse">
      <stop
         stop-color="#646464"
         offset="0"
         id="stop38"
         style="stop-color:#ffffff;stop-opacity:1" />
      <stop
         stop-color="#3c3c3c"
         offset="1"
         id="stop39"
         style="stop-color:#fecfce;stop-opacity:1" />
    </linearGradient>
    <linearGradient
       id="linearGradient34"
       x1="100"
       x2="133.19"
       y1="17.452999"
       y2="51.605999"
       gradientTransform="matrix(0.26458,0,0,0.26458,-20.10798,-0.1353581)"
       gradientUnits="userSpaceOnUse">
      <stop
         stop-color="#646464"
         offset="0"
         id="stop33"
         style="stop-color:#222222;stop-opacity:1" />
      <stop
         stop-color="#3c3c3c"
         offset="1"
         id="stop34"
         style="stop-color:#1d1d1d;stop-opacity:1" />
    </linearGradient>
    <linearGradient
       id="linearGradient32"
       x1="100"
       x2="133.19"
       y1="17.452999"
       y2="51.605999"
       gradientTransform="matrix(0.26458,0,0,0.26458,-20.10798,-0.1353581)"
       gradientUnits="userSpaceOnUse">
      <stop
         stop-color="#646464"
         offset="0"
         id="stop31"
         style="stop-color:#313131;stop-opacity:1" />
      <stop
         stop-color="#3c3c3c"
         offset="1"
         id="stop32"
         style="stop-color:#161616;stop-opacity:1" />
    </linearGradient>
    <linearGradient
       id="linearGradient30"
       x1="100"
       x2="133.19"
       y1="17.452999"
       y2="51.605999"
       gradientTransform="matrix(0.26458,0,0,0.26458,-26.458,2.5104)"
       gradientUnits="userSpaceOnUse">
      <stop
         stop-color="#fce798"
         offset="0"
         id="stop29"
         style="stop-color:#303030;stop-opacity:1" />
      <stop
         stop-color="#ffc937"
         offset="1"
         id="stop30"
         style="stop-color:#161616;stop-opacity:1" />
    </linearGradient>
    <linearGradient
       id="linearGradient16"
       x1="100"
       x2="133.19"
       y1="17.452999"
       y2="51.605999"
       gradientTransform="matrix(0.26458,0,0,0.26458,-26.458,2.5104)"
       gradientUnits="userSpaceOnUse">
      <stop
         stop-color="#fce798"
         offset="0"
         id="stop15"
         style="stop-color:#242424;stop-opacity:1" />
      <stop
         stop-color="#ffc937"
         offset="1"
         id="stop16"
         style="stop-color:#a57001;stop-opacity:1" />
    </linearGradient>
    <linearGradient
       id="linearGradient24"
       x1="100"
       x2="133.19"
       y1="17.452999"
       y2="51.605999"
       gradientTransform="matrix(0.26458,0,0,0.26458,-26.458,2.5104)"
       gradientUnits="userSpaceOnUse">
      <stop
         stop-color="#fce798"
         offset="0"
         id="stop23"
         style="stop-color:#bd8f0d;stop-opacity:1" />
      <stop
         stop-color="#ffc937"
         offset="1"
         id="stop24"
         style="stop-color:#a57001;stop-opacity:1" />
    </linearGradient>
    <linearGradient
       id="b"
       x1="445.28"
       x2="445.28"
       y1="179.28"
       y2="200.07"
       gradientTransform="matrix(0.38956,0,0,0.38184,-146.04804,-63.44)"
       gradientUnits="userSpaceOnUse">
      <stop
         stop-color="#60c0f0"
         offset="0"
         id="stop1" />
      <stop
         stop-color="#83d4fb"
         offset="1"
         id="stop2" />
    </linearGradient>
    <linearGradient
       id="c"
       x1="8.467"
       x2="8.467"
       y1="293.3"
       y2="292.77"
       gradientTransform="translate(19.471957,-280.07)"
       gradientUnits="userSpaceOnUse">
      <stop
         stop-color="#008ea2"
         stop-opacity=".25"
         offset="0"
         id="stop3" />
      <stop
         stop-color="#fff"
         stop-opacity=".15"
         offset="1"
         id="stop4" />
    </linearGradient>
    <linearGradient
       id="d"
       x1="8.467"
       x2="8.467"
       y1="294.62"
       y2="293.56"
       gradientTransform="matrix(0.99998,0,0,0.99998,19.471957,-280.06)"
       gradientUnits="userSpaceOnUse">
      <stop
         stop-color="#008ea2"
         stop-opacity=".251"
         offset="0"
         id="stop5" />
      <stop
         stop-color="#008ea2"
         stop-opacity=".15"
         offset=".757"
         id="stop6" />
      <stop
         stop-color="#fff"
         stop-opacity=".15"
         offset="1"
         id="stop7" />
    </linearGradient>
    <linearGradient
       id="a"
       x1="6.879"
       x2="6.879"
       y1="285.36"
       y2="283.77"
       gradientTransform="matrix(0.99998,0,0,0.99998,19.471957,-280.06)"
       gradientUnits="userSpaceOnUse">
      <stop
         offset="0"
         id="stop8" />
      <stop
         stop-opacity="0"
         offset="1"
         id="stop9" />
    </linearGradient>
    <linearGradient
       id="e"
       x1="1.058"
       x2="15.875"
       y1="289.59"
       y2="289.59"
       gradientTransform="translate(19.471957,-280.07)"
       gradientUnits="userSpaceOnUse">
      <stop
         stop-color="#46a2d7"
         stop-opacity=".5"
         offset="0"
         id="stop10" />
      <stop
         stop-color="#46a2d7"
         stop-opacity="0"
         offset=".108"
         id="stop11" />
      <stop
         stop-color="#46a2d7"
         stop-opacity=".096"
         offset=".894"
         id="stop12" />
      <stop
         stop-color="#46a2d7"
         stop-opacity=".5"
         offset="1"
         id="stop13" />
    </linearGradient>
    <linearGradient
       id="linearGradient1911"
       x1="25.084999"
       x2="25.084999"
       y1="24.031"
       y2="26.412001"
       gradientTransform="translate(-24.247,-18.739)"
       gradientUnits="userSpaceOnUse">
      <stop
         stop-color="#fcbc19"
         stop-opacity=".99608"
         offset="0"
         id="stop7-1" />
      <stop
         stop-color="#f4b61f"
         offset="1"
         id="stop8-7" />
    </linearGradient>
    <linearGradient
       id="linearGradient4625"
       x1="0.52917999"
       x2="16.403999"
       y1="5.0665002"
       y2="5.0665002"
       gradientTransform="translate(-6.3499,2.6458)"
       gradientUnits="userSpaceOnUse">
      <stop
         stop-color="#b78815"
         offset="0"
         id="stop9-8" />
      <stop
         stop-color="#e2b24b"
         stop-opacity="0"
         offset="1"
         id="stop10-5" />
    </linearGradient>
    <linearGradient
       id="linearGradient1951"
       x1="100"
       x2="133.19"
       y1="17.452999"
       y2="51.605999"
       gradientTransform="matrix(0.26458,0,0,0.26458,-26.458,2.5104)"
       gradientUnits="userSpaceOnUse">
      <stop
         stop-color="#fce798"
         offset="0"
         id="stop11-7" />
      <stop
         stop-color="#ffc937"
         offset="1"
         id="stop12-4" />
    </linearGradient>
    <linearGradient
       id="linearGradient11110"
       x1="0.52916998"
       x2="16.403999"
       y1="5.3814998"
       y2="5.3814998"
       gradientTransform="translate(-6.3499,2.6458)"
       gradientUnits="userSpaceOnUse">
      <stop
         stop-color="#fff"
         offset="0"
         id="stop13-1" />
      <stop
         stop-color="#fff"
         stop-opacity="0"
         offset="1"
         id="stop14" />
    </linearGradient>
    <linearGradient
       id="linearGradient1118"
       x1="20.108"
       x2="20.108"
       y1="6.3498998"
       y2="13.493"
       gradientTransform="translate(-26.358768,-0.13233805)"
       gradientUnits="userSpaceOnUse">
      <stop
         stop-color="#be900d"
         offset="0"
         id="stop5-8" />
      <stop
         stop-color="#a57001"
         offset="1"
         id="stop6-5" />
    </linearGradient>
    <linearGradient
       id="linearGradient1911-1"
       x1="25.084999"
       x2="25.084999"
       y1="24.031"
       y2="26.412001"
       gradientTransform="translate(-17.89698,-21.384758)"
       gradientUnits="userSpaceOnUse">
      <stop
         stop-color="#3c3c3c"
         offset="0"
         id="stop5-2" />
      <stop
         stop-color="#2d2d2d"
         offset="1"
         id="stop6-9" />
    </linearGradient>
    <linearGradient
       id="linearGradient4625-3"
       x1="0.52917999"
       x2="16.403999"
       y1="5.0665002"
       y2="5.0665002"
       gradientTransform="translate(2.02e-5,4.19e-5)"
       gradientUnits="userSpaceOnUse">
      <stop
         stop-color="#b78815"
         offset="0"
         id="stop7-9" />
      <stop
         stop-color="#e2b24b"
         stop-opacity="0"
         offset="1"
         id="stop8-0" />
    </linearGradient>
    <linearGradient
       id="linearGradient1951-8"
       x1="100"
       x2="133.19"
       y1="17.452999"
       y2="51.605999"
       gradientTransform="matrix(0.26458,0,0,0.26458,-20.10798,-0.1353581)"
       gradientUnits="userSpaceOnUse">
      <stop
         stop-color="#646464"
         offset="0"
         id="stop9-85" />
      <stop
         stop-color="#3c3c3c"
         offset="1"
         id="stop10-0" />
    </linearGradient>
    <linearGradient
       id="linearGradient11110-9"
       x1="0.52916998"
       x2="16.403999"
       y1="5.3814998"
       y2="5.3814998"
       gradientTransform="translate(2.02e-5,4.19e-5)"
       gradientUnits="userSpaceOnUse">
      <stop
         stop-color="#fff"
         offset="0"
         id="stop11-6" />
      <stop
         stop-color="#fff"
         stop-opacity="0"
         offset="1"
         id="stop12-3" />
    </linearGradient>
    <linearGradient
       id="linearGradient79069"
       x1="8.5258999"
       x2="8.5258999"
       y1="6.0935998"
       y2="13.269"
       gradientUnits="userSpaceOnUse"
       gradientTransform="translate(-18.141554,0.1322419)">
      <stop
         stop-color="#323232"
         offset="0"
         id="stop13-8" />
      <stop
         stop-color="#141414"
         offset="1"
         id="stop14-5" />
    </linearGradient>
    <linearGradient
       id="linearGradient1911-3"
       x1="25.084999"
       x2="25.084999"
       y1="24.031"
       y2="26.412001"
       gradientTransform="translate(-3.610525,-26.015179)"
       gradientUnits="userSpaceOnUse">
      <stop
         stop-color="#0272cb"
         offset="0"
         id="stop5-85" />
      <stop
         stop-color="#0768ba"
         offset="1"
         id="stop6-0" />
    </linearGradient>
    <linearGradient
       id="linearGradient1951-6"
       x1="100"
       x2="133.19"
       y1="17.452999"
       y2="51.605999"
       gradientTransform="matrix(0.26458,0,0,0.26458,-5.820525,-4.7654791)"
       gradientUnits="userSpaceOnUse">
      <stop
         stop-color="#27aee9"
         offset="0"
         id="stop7-6" />
      <stop
         stop-color="#0669bc"
         offset="1"
         id="stop8-4" />
    </linearGradient>
    <linearGradient
       id="linearGradient11110-7"
       x1="0.52916998"
       x2="16.403999"
       y1="5.3814998"
       y2="5.3814998"
       gradientTransform="translate(14.287376,-4.6300795)"
       gradientUnits="userSpaceOnUse">
      <stop
         stop-color="#fff"
         offset="0"
         id="stop9-6" />
      <stop
         stop-color="#fff"
         stop-opacity="0"
         offset="1"
         id="stop10-2" />
    </linearGradient>
    <linearGradient
       id="linearGradient29077"
       x1="0.52916002"
       x2="16.403999"
       y1="14.179"
       y2="14.179"
       gradientTransform="translate(14.287376,-4.6455791)"
       gradientUnits="userSpaceOnUse">
      <stop
         stop-color="#0a5ba8"
         stop-opacity=".99608"
         offset="0"
         id="stop11-5" />
      <stop
         stop-color="#104a8c"
         stop-opacity=".99608"
         offset="1"
         id="stop12-8" />
    </linearGradient>
    <linearGradient
       id="linearGradient1006"
       x1="8.5258999"
       x2="8.5258999"
       y1="6.0935998"
       y2="13.269"
       gradientTransform="translate(14.287403,-4.6301791)"
       gradientUnits="userSpaceOnUse">
      <stop
         stop-color="#fff"
         offset="0"
         id="stop13-6" />
      <stop
         stop-color="#c5e7f5"
         offset="1"
         id="stop14-2" />
    </linearGradient>
    <linearGradient
       id="linearGradient1911-3-3"
       x1="25.084999"
       x2="25.084999"
       y1="24.031"
       y2="26.412001"
       gradientTransform="matrix(0.9999969,0,0,0.9999969,-35.09478,-20.722996)"
       gradientUnits="userSpaceOnUse">
      <stop
         stop-color="#892a3c"
         offset="0"
         id="stop5-20" />
      <stop
         stop-color="#732332"
         offset="1"
         id="stop6-6" />
    </linearGradient>
    <linearGradient
       id="linearGradient1951-6-6"
       x1="100"
       x2="133.19"
       y1="17.452999"
       y2="51.605999"
       gradientTransform="matrix(2.2947,0,0,2.2947,-262.41,-67.465)"
       gradientUnits="userSpaceOnUse">
      <stop
         stop-color="#bf7474"
         offset="0"
         id="stop7-15" />
      <stop
         stop-color="#be4c63"
         offset="1"
         id="stop8-5" />
    </linearGradient>
    <linearGradient
       id="linearGradient11110-7-5"
       x1="0.52916998"
       x2="16.403999"
       y1="5.3814998"
       y2="5.3814998"
       gradientTransform="matrix(8.673,0,0,8.673,-88.013,-66.291)"
       gradientUnits="userSpaceOnUse">
      <stop
         stop-color="#fff"
         offset="0"
         id="stop9-4" />
      <stop
         stop-color="#fff"
         stop-opacity="0"
         offset="1"
         id="stop10-7" />
    </linearGradient>
    <linearGradient
       id="linearGradient29077-6"
       x1="0.52916002"
       x2="16.403999"
       y1="14.179"
       y2="14.179"
       gradientTransform="matrix(8.673,0,0,8.673,-88.013,-66.426)"
       gradientUnits="userSpaceOnUse">
      <stop
         stop-color="#4e1822"
         offset="0"
         id="stop11-65" />
      <stop
         stop-color="#4e1821"
         offset="1"
         id="stop12-6" />
    </linearGradient>
    <linearGradient
       id="linearGradient1006-1"
       x1="8.5258999"
       x2="8.5258999"
       y1="6.0935998"
       y2="13.269"
       gradientTransform="matrix(0.9999969,0,0,0.9999969,-17.196992,0.661464)"
       gradientUnits="userSpaceOnUse">
      <stop
         stop-color="#fff"
         offset="0"
         id="stop13-9" />
      <stop
         stop-color="#fececd"
         offset="1"
         id="stop14-3" />
    </linearGradient>
    <linearGradient
       inkscape:collect="always"
       xlink:href="#linearGradient20"
       id="linearGradient19"
       x1="8.4237394"
       y1="6.4567752"
       x2="8.4237394"
       y2="13.361195"
       gradientUnits="userSpaceOnUse" />
  </defs>
  <g
     id="g1"
     transform="translate(17.197125,-0.6614867)">
    <path
       d="m -15.999371,2.9105058 c -0.365293,0 -0.661441,0.3257571 -0.661441,0.7276006 v 2.9635559 c -0.003,0.0263 -0.007,0.051999 -0.007,0.079099 v 7.9372527 c 0,0.401843 0.296148,0.7276 0.661442,0.7276 h 14.5520128 c 0.3653165,0 0.6614415,-0.325757 0.6614415,-0.7276 V 5.2249838 c 0,-0.4018436 -0.2961365,-0.7275891 -0.6614415,-0.7275891 v 4.612e-4 H -9.6536851 L -10.552322,3.3883586 c 0,0 -0.366077,-0.4779992 -1.058292,-0.4779992 h -1.322953 z"
       color="#000000"
       color-rendering="auto"
       dominant-baseline="auto"
       fill="url(#linearGradient1911-3-3)"
       image-rendering="auto"
       shape-rendering="auto"
       solid-color="#000000"
       stop-color="#000000"
       stroke-width="0.999997"
       style="font-variant-ligatures:normal;font-variant-position:normal;font-variant-caps:normal;font-variant-numeric:normal;font-variant-alternates:normal;font-variant-east-asian:normal;font-feature-settings:normal;font-variation-settings:normal;text-indent:0;text-decoration-line:none;text-decoration-style:solid;text-decoration-color:#000000;text-transform:none;text-orientation:mixed;white-space:normal;shape-padding:0;shape-margin:0;inline-size:0;isolation:auto;mix-blend-mode:normal;fill:url(#linearGradient1911-3-3)"
       id="path34" />
    <path
       d="m -8.8367039,4.482506 c -0.1131174,0.00199 -0.3084736,-0.0154 -0.5198646,0.095098 -0.7364675,0.3794523 -0.7722565,0.5936566 -1.5570115,0.7141451 h -4.960782 c -0.219866,0 -0.418239,0.0885 -0.561719,0.2320297 -0.139363,0.1393632 -0.220407,0.3333208 -0.225296,0.5456919 v 0.2774925 c 0.005,-0.2123595 0.0859,-0.4063287 0.225296,-0.5456918 0.14348,-0.1434678 0.341853,-0.2320182 0.561719,-0.2320182 h 4.960782 c 0.784721,-0.1205116 0.82051,-0.3346929 1.5570115,-0.7141567 0.211391,-0.1104978 0.4067322,-0.093297 0.5198646,-0.095097 h 7.3827743 c 0.1821509,3.459e-4 0.3472029,0.080998 0.46663063,0.2123826 0.11969293,0.1316726 0.19377318,0.3137774 0.19377318,0.5146992 V 5.2095774 c 0,-0.2009102 -0.0740987,-0.3830266 -0.19377318,-0.5146876 C -1.1067267,4.5635169 -1.2717787,4.4828761 -1.4539296,4.4825072 h -1.1652218 z m -7.8247191,2.1036485 c -0.003,0.0263 -0.007,0.051999 -0.007,0.079099 V 6.942746 c 0,-0.0271 0.004,-0.052798 0.007,-0.079098 z"
       fill="#1e5992"
       opacity="0.00100002"
       stroke-width="0.264579"
       id="path35" />
    <g
       stroke-width="8.673"
       id="g38"
       transform="matrix(0.1153,0,0,0.1153,-7.049208,8.3049316)">
      <path
         d="m -22.597,-30.75 c 0,0 -3.1153,4.1516 -10.039,6.8706 -0.2836,0.052 -0.5646,0.10061 -0.87404,0.14831 h -43.025 c -1.9069,0 -3.6274,0.76754 -4.8717,2.0123 -1.2088,1.2086 -1.9118,2.891 -1.9541,4.7328 v 4.4818 c -0.026,0.2281 -0.0607,0.45099 -0.0607,0.68602 v 64.14 c 0,1.7426 0.63832,3.3175 1.6762,4.4594 1.0382,1.1419 2.4765,1.851 4.0605,1.851 h 126.21 c 1.5841,0 3.0179,-0.70857 4.056,-1.851 1.0381,-1.142 1.6806,-2.7169 1.6806,-4.4594 v -76.765 c 0,-1.7426 -0.64266,-3.322 -1.6806,-4.464 -1.036,-1.1393 -2.4674,-1.8388 -4.0473,-1.842 h -64.892 z"
         fill="url(#linearGradient1951-6-6)"
         id="path36"
         style="fill:url(#linearGradient1951-6-6)" />
      <path
         d="m -22.597,-30.75 c 0,0 -3.1153,4.1516 -10.039,6.8706 -0.2836,0.052 -0.5646,0.10061 -0.87404,0.14831 h -43.025 c -1.9069,0 -3.6274,0.76754 -4.8717,2.0123 -1.2088,1.2086 -1.9117,2.891 -1.9541,4.7328 v 3.3344 c 0.0434,-1.8418 0.745,-3.5241 1.9541,-4.7328 1.2443,-1.2443 2.9648,-2.0124 4.8717,-2.0124 h 43.025 c 0.30961,-0.052 0.59062,-0.0971 0.87404,-0.14831 6.5837,-2.2812 11.173,-6.8705 11.173,-6.8705 h 69.997 c 1.5798,0.003 3.0111,0.7025 4.0471,1.842 1.0381,1.142 1.6806,2.7214 1.6806,4.4639 v -3.3344 c 0,-1.7426 -0.64266,-3.322 -1.6806,-4.464 -1.036,-1.1393 -2.4673,-1.8388 -4.0471,-1.842 h -64.892 z m -60.765,18.245 c -0.026,0.2281 -0.0607,0.45099 -0.0607,0.68603 v 3.3345 c 0,-0.23504 0.0347,-0.45793 0.0607,-0.68603 z"
         fill="url(#linearGradient11110-7-5)"
         opacity="0.3"
         id="path37"
         style="fill:url(#linearGradient11110-7-5)" />
      <path
         d="m -83.423,52.164 v 2.4471 c 0,1.7426 0.63832,3.3174 1.6762,4.4594 1.0382,1.142 2.4765,1.851 4.0605,1.851 h 126.21 c 1.5841,0 3.0179,-0.70857 4.056,-1.851 1.0381,-1.142 1.6806,-2.7168 1.6806,-4.4594 V 52.164 c 0,1.7426 -0.64266,3.3175 -1.6806,4.4594 -1.0381,1.1419 -2.4719,1.851 -4.056,1.851 h -126.21 c -1.5841,0 -3.0223,-0.70944 -4.0605,-1.851 -1.0381,-1.1419 -1.6762,-2.7169 -1.6762,-4.4594 z"
         color="#000000"
         color-rendering="auto"
         dominant-baseline="auto"
         fill="url(#linearGradient29077-6)"
         image-rendering="auto"
         shape-rendering="auto"
         solid-color="#000000"
         stop-color="#000000"
         style="font-variant-ligatures:normal;font-variant-position:normal;font-variant-caps:normal;font-variant-numeric:normal;font-variant-alternates:normal;font-variant-east-asian:normal;font-feature-settings:normal;font-variation-settings:normal;text-indent:0;text-decoration-line:none;text-decoration-style:solid;text-decoration-color:#000000;text-transform:none;text-orientation:mixed;white-space:normal;shape-padding:0;shape-margin:0;inline-size:0;isolation:auto;mix-blend-mode:normal;fill:url(#linearGradient29077-6)"
         id="path38" />
    </g>
  </g>
  <path
     id="path19"
     style="fill:url(#linearGradient19);fill-opacity:1;stroke-width:0.286626"
     d="M 10.473056 6.4821641 A 1.7197578 1.7197578 0 0 0 8.7532986 8.2019219 A 1.7197578 1.7197578 0 0 0 9.0395804 9.1506825 L 9.0395804 11.107114 A 1.1465052 1.1465052 0 0 0 8.6887043 11.26369 L 7.0304402 10.428616 A 1.1465052 1.1465052 0 0 0 5.8868633 9.3485993 A 1.1465052 1.1465052 0 0 0 4.7401858 10.49476 A 1.1465052 1.1465052 0 0 0 5.8868633 11.641437 A 1.1465052 1.1465052 0 0 0 6.5193704 11.443004 L 8.184869 12.282213 A 1.1465052 1.1465052 0 0 0 9.3263789 13.361195 A 1.1465052 1.1465052 0 0 0 10.473056 12.214518 A 1.1465052 1.1465052 0 0 0 10.156286 11.426985 L 11.230101 9.7377152 A 1.7197578 1.7197578 0 0 0 12.192814 8.2019219 A 1.7197578 1.7197578 0 0 0 10.473056 6.4821641 z M 10.473056 7.0552444 A 1.1465052 1.1465052 0 0 1 11.619217 8.2019219 A 1.1465052 1.1465052 0 0 1 10.473056 9.3485993 A 1.1465052 1.1465052 0 0 1 9.3263789 8.2019219 A 1.1465052 1.1465052 0 0 1 10.473056 7.0552444 z M 10.473056 7.6288415 A 0.5732526 0.5732526 0 0 0 9.8994593 8.2019219 A 0.5732526 0.5732526 0 0 0 10.473056 8.7750022 A 0.5732526 0.5732526 0 0 0 11.046137 8.2019219 A 0.5732526 0.5732526 0 0 0 10.473056 7.6288415 z M 5.8868633 9.6348811 A 0.8598789 0.8598789 0 0 1 6.7162537 10.270489 L 6.1442068 9.9821399 C 5.863124 9.8405615 5.5205008 9.9519837 5.3763102 10.231732 C 5.2321195 10.511481 5.3427525 10.850299 5.6238354 10.991878 L 6.2144854 11.289528 A 0.8598789 0.8598789 0 0 1 5.8868633 11.354639 A 0.8598789 0.8598789 0 0 1 5.0269844 10.49476 A 0.8598789 0.8598789 0 0 1 5.8868633 9.6348811 z M 9.3263789 11.354639 A 0.8598789 0.8598789 0 0 1 10.186258 12.214518 A 0.8598789 0.8598789 0 0 1 9.3263789 13.074397 A 0.8598789 0.8598789 0 0 1 8.4985388 12.440339 L 9.0690353 12.727655 C 9.3501182 12.869233 9.6922246 12.757811 9.8364153 12.478062 C 9.9806059 12.198314 9.8704896 11.858979 9.5894068 11.7174 L 9.0018573 11.4213 A 0.8598789 0.8598789 0 0 1 9.3263789 11.354639 z " />
</svg>
