<?xml version="1.0" encoding="UTF-8" standalone="no"?>
<svg
   version="1.1"
   viewBox="0 0 22 22"
   id="svg3"
   sodipodi:docname="brightness-low.svg"
   inkscape:version="1.4 (e7c3feb100, 2024-10-09)"
   xmlns:inkscape="http://www.inkscape.org/namespaces/inkscape"
   xmlns:sodipodi="http://sodipodi.sourceforge.net/DTD/sodipodi-0.dtd"
   xmlns="http://www.w3.org/2000/svg"
   xmlns:svg="http://www.w3.org/2000/svg">
  <sodipodi:namedview
     id="namedview3"
     pagecolor="#c8c8c8"
     bordercolor="#000000"
     borderopacity="0.25"
     inkscape:showpageshadow="2"
     inkscape:pageopacity="0.0"
     inkscape:pagecheckerboard="0"
     inkscape:deskcolor="#d1d1d1"
     showgrid="true"
     inkscape:zoom="17"
     inkscape:cx="11.470588"
     inkscape:cy="13.941176"
     inkscape:window-width="2560"
     inkscape:window-height="1411"
     inkscape:window-x="0"
     inkscape:window-y="0"
     inkscape:window-maximized="1"
     inkscape:current-layer="svg3">
    <inkscape:grid
       id="grid4"
       units="px"
       originx="0"
       originy="0"
       spacingx="1"
       spacingy="1"
       empcolor="#0099e5"
       empopacity="0.30196078"
       color="#0099e5"
       opacity="0.14902"
       empspacing="5"
       dotted="false"
       gridanglex="30"
       gridanglez="30"
       visible="true" />
  </sodipodi:namedview>
  <defs
     id="defs1">
    <style
       id="current-color-scheme"
       type="text/css">.ColorScheme-Text {
                color:#ffffff;
            }</style>
  </defs>
  <path
     class="ColorScheme-Text" fill="currentColor"
     d="M 5 3 C 3.892 3 3 3.892 3 5 L 3 14 C 3 15.108 3.892 16 5 16 L 8 16 L 8 18 L 6.5 18 C 6.223 18 6 18.223 6 18.5 C 6 18.777 6.223 19 6.5 19 L 15.5 19 C 15.777 19 16 18.777 16 18.5 C 16 18.223 15.777 18 15.5 18 L 14 18 L 14 16 L 17 16 C 18.108 16 19 15.108 19 14 L 19 5 C 19 3.892 18.108 3 17 3 L 5 3 z M 5 4 L 17 4 C 17.554 4 18 4.446 18 5 L 18 14 C 18 14.554 17.554 15 17 15 L 5 15 C 4.446 15 4 14.554 4 14 L 4 5 C 4 4.446 4.446 4 5 4 z M 10.974609 5 C 10.709695 5.0133421 10.5 5.2316562 10.5 5.5 L 10.5 6.5 C 10.5 6.777 10.723 7 11 7 C 11.277 7 11.5 6.777 11.5 6.5 L 11.5 5.5 C 11.5 5.223 11.277 5 11 5 C 10.991344 5 10.983155 4.9995696 10.974609 5 z M 8.171875 6.171875 C 8.0440654 6.171875 7.9162937 6.2204251 7.8183594 6.3183594 C 7.6224908 6.514228 7.6224908 6.829522 7.8183594 7.0253906 L 8.5253906 7.7324219 C 8.7212592 7.9282905 9.0365533 7.9282905 9.2324219 7.7324219 C 9.4282905 7.5365533 9.4282905 7.2212592 9.2324219 7.0253906 L 8.5253906 6.3183594 C 8.4274563 6.2204251 8.2996846 6.171875 8.171875 6.171875 z M 13.828125 6.171875 C 13.700315 6.171875 13.572544 6.2204251 13.474609 6.3183594 L 12.767578 7.0253906 C 12.57171 7.2212592 12.57171 7.5365533 12.767578 7.7324219 C 12.963447 7.9282905 13.278741 7.9282905 13.474609 7.7324219 L 14.181641 7.0253906 C 14.377509 6.829522 14.377509 6.514228 14.181641 6.3183594 C 14.083706 6.2204251 13.955935 6.171875 13.828125 6.171875 z M 11 8 A 1.5 1.5 0 0 0 9.5 9.5 A 1.5 1.5 0 0 0 11 11 A 1.5 1.5 0 0 0 12.5 9.5 A 1.5 1.5 0 0 0 11 8 z M 6.9746094 9 C 6.709695 9.0133421 6.5 9.2316563 6.5 9.5 C 6.5 9.777 6.723 10 7 10 L 8 10 C 8.277 10 8.5 9.777 8.5 9.5 C 8.5 9.223 8.277 9 8 9 L 7 9 C 6.9913438 9 6.983155 8.9995696 6.9746094 9 z M 13.974609 9 C 13.709695 9.0133421 13.5 9.2316563 13.5 9.5 C 13.5 9.777 13.723 10 14 10 L 15 10 C 15.277 10 15.5 9.777 15.5 9.5 C 15.5 9.223 15.277 9 15 9 L 14 9 C 13.991344 9 13.983155 8.9995696 13.974609 9 z M 8.8789062 11.121094 C 8.7510967 11.121094 8.6233249 11.169644 8.5253906 11.267578 L 7.8183594 11.974609 C 7.6224908 12.170478 7.6224908 12.485772 7.8183594 12.681641 C 8.014228 12.877509 8.329522 12.877509 8.5253906 12.681641 L 9.2324219 11.974609 C 9.4282905 11.778741 9.4282905 11.463447 9.2324219 11.267578 C 9.1344876 11.169644 9.0067158 11.121094 8.8789062 11.121094 z M 13.121094 11.121094 C 12.993284 11.121094 12.865512 11.169644 12.767578 11.267578 C 12.57171 11.463447 12.57171 11.778741 12.767578 11.974609 L 13.474609 12.681641 C 13.670478 12.877509 13.985772 12.877509 14.181641 12.681641 C 14.377509 12.485772 14.377509 12.170478 14.181641 11.974609 L 13.474609 11.267578 C 13.376675 11.169644 13.248903 11.121094 13.121094 11.121094 z M 10.974609 12 C 10.709695 12.013342 10.5 12.231656 10.5 12.5 L 10.5 13.5 C 10.5 13.777 10.723 14 11 14 C 11.277 14 11.5 13.777 11.5 13.5 L 11.5 12.5 C 11.5 12.223 11.277 12 11 12 C 10.991344 12 10.983155 11.99957 10.974609 12 z M 9 16 L 13 16 L 13 18 L 9 18 L 9 16 z "
     id="path1"
     style="opacity:0.3" />
</svg>
