<?xml version="1.0" encoding="UTF-8" standalone="no"?>
<svg
   width="22"
   height="22"
   version="1.1"
   id="svg1"
   sodipodi:docname="clipit-trayicon.svg"
   inkscape:version="1.4 (e7c3feb100, 2024-10-09)"
   xmlns:inkscape="http://www.inkscape.org/namespaces/inkscape"
   xmlns:sodipodi="http://sodipodi.sourceforge.net/DTD/sodipodi-0.dtd"
   xmlns="http://www.w3.org/2000/svg"
   xmlns:svg="http://www.w3.org/2000/svg">
  <sodipodi:namedview
     id="namedview1"
     pagecolor="#c8c8c8"
     bordercolor="#000000"
     borderopacity="0.25"
     inkscape:showpageshadow="2"
     inkscape:pageopacity="0.0"
     inkscape:pagecheckerboard="0"
     inkscape:deskcolor="#d1d1d1"
     inkscape:zoom="16.977273"
     inkscape:cx="-1.2369478"
     inkscape:cy="10.131191"
     inkscape:window-width="2560"
     inkscape:window-height="1411"
     inkscape:window-x="0"
     inkscape:window-y="0"
     inkscape:window-maximized="1"
     inkscape:current-layer="svg1" />
  <defs
     id="defs1">
    <style
       id="current-color-scheme"
       type="text/css">
   .ColorScheme-Text { color:#ffffff; } .ColorScheme-Highlight { color:#4285f4; }
  </style>
  </defs>
  <path
     class="ColorScheme-Text" fill="currentColor"
     d="M 6 3 C 4.892 3 4 3.892 4 5 L 4 17 C 4 18.108 4.892 19 6 19 L 17 19 C 18.108 19 19 18.108 19 17 L 19 5 C 19 3.892 18.108 3 17 3 L 6 3 z M 6 4 L 17 4 C 17.554 4 18 4.446 18 5 L 18 11 L 12 11 C 11.446 11 11 11.446 11 12 L 11 18 L 6 18 C 5.446 18 5 17.554 5 17 L 5 5 C 5 4.446 5.446 4 6 4 z M 18 12 L 18 17 C 18 17.554 17.554 18 17 18 L 12 18 L 18 12 z " />
</svg>
