<?xml version="1.0" encoding="UTF-8" standalone="no"?>
<svg
   width="16"
   height="16"
   version="1.1"
   id="svg1"
   sodipodi:docname="folder-development.svg"
   inkscape:version="1.4 (e7c3feb100, 2024-10-09)"
   xmlns:inkscape="http://www.inkscape.org/namespaces/inkscape"
   xmlns:sodipodi="http://sodipodi.sourceforge.net/DTD/sodipodi-0.dtd"
   xmlns="http://www.w3.org/2000/svg"
   xmlns:svg="http://www.w3.org/2000/svg">
  <sodipodi:namedview
     id="namedview1"
     pagecolor="#ffffff"
     bordercolor="#000000"
     borderopacity="0.25"
     inkscape:showpageshadow="2"
     inkscape:pageopacity="0.0"
     inkscape:pagecheckerboard="0"
     inkscape:deskcolor="#d1d1d1"
     inkscape:zoom="23.125"
     inkscape:cx="2.9621622"
     inkscape:cy="11.632432"
     inkscape:window-width="1920"
     inkscape:window-height="952"
     inkscape:window-x="0"
     inkscape:window-y="34"
     inkscape:window-maximized="1"
     inkscape:current-layer="svg1" />
  <defs
     id="defs1">
    <style
       id="current-color-scheme"
       type="text/css">.ColorScheme-Text { color:#363636; }</style>
    <linearGradient
       id="linear0"
       gradientUnits="userSpaceOnUse"
       x1="22.2703"
       y1="11.7297"
       x2="9.6459999"
       y2="24.354"
       gradientTransform="matrix(2,0,0,-2,0,68)">
      <stop
         offset="0"
         style="stop-color:rgb(100%,100%,100%);stop-opacity:1;"
         id="stop1" />
      <stop
         offset="0.242"
         style="stop-color:rgb(94.901961%,94.901961%,94.901961%);stop-opacity:1;"
         id="stop2" />
      <stop
         offset="1"
         style="stop-color:rgb(80%,80%,80%);stop-opacity:1;"
         id="stop3" />
    </linearGradient>
    <linearGradient
       id="linear1"
       gradientUnits="userSpaceOnUse"
       x1="10.3857"
       y1="23.6143"
       x2="20.234301"
       y2="13.7657"
       gradientTransform="matrix(2,0,0,-2,0,68)">
      <stop
         offset="0.2291"
         style="stop-color:rgb(2.352941%,41.176471%,73.72549%);stop-opacity:1;"
         id="stop4" />
      <stop
         offset="0.8045"
         style="stop-color:rgb(6.27451%,30.588235%,56.862745%);stop-opacity:1;"
         id="stop5" />
    </linearGradient>
    <linearGradient
       id="linear2"
       gradientUnits="userSpaceOnUse"
       x1="1.1849"
       y1="32.736698"
       x2="27.172701"
       y2="6.7490001"
       gradientTransform="matrix(2,0,0,-2,0,68)">
      <stop
         offset="0.1453"
         style="stop-color:rgb(54.117647%,56.862745%,59.607843%);stop-opacity:1;"
         id="stop6" />
      <stop
         offset="0.8939"
         style="stop-color:rgb(38.823529%,43.921569%,48.235294%);stop-opacity:1;"
         id="stop7" />
    </linearGradient>
  </defs>
  <path
     d="m 31.223269,0.0017971 c -0.37956,0.032046 -0.37947,0.35122 -0.51556,1.1384 a 6.9121,6.8773 0 0 0 -0.7633,0.10714 c -0.33662,-0.81051 -0.45426,-1.0939 -0.77222,-0.98662 -0.36559,0.12329 -0.27991,0.4363 -0.22318,1.2567 a 6.9121,6.8773 0 0 0 -0.70973,0.29242 c -0.56773,-0.68407 -0.76189,-0.92236 -1.0356,-0.72546 -0.30876,0.22213 -0.14378,0.49731 0.14507,1.2411 a 6.9121,6.8773 0 0 0 -0.61599,0.47322 c -0.71545,-0.52763 -0.96246,-0.70981 -1.1806,-0.45313 -0.24763,0.29127 -0.01621,0.51493 0.44861,1.1764 a 6.9121,6.8773 0 0 0 -0.46423,0.60046 c -0.74985,-0.27814 -1.0269,-0.44059 -1.2453,-0.12947 -0.19323,0.27516 0.04631,0.46784 0.73651,1.0223 a 6.9121,6.8773 0 0 0 -0.29684,0.71207 c -0.7889,-0.074569 -1.0979,-0.15678 -1.2275,0.19867 -0.11408,0.31278 0.16413,0.43842 0.95747,0.78796 a 6.9121,6.8773 0 0 0 -0.0982,0.75448 c -0.77777,0.15025 -1.0986,0.15603 -1.1226,0.5335 -0.02083,0.32783 0.27951,0.37312 1.1137,0.48216 a 6.9121,6.8773 0 0 0 0.10936,0.80358 c -0.71466,0.31243 -1.0217,0.39251 -0.96193,0.7634099 0.05321,0.33031 0.35815,0.30188 1.232,0.22099 a 6.9121,6.8773 0 0 0 0.31022,0.74109 c -0.60932,0.47117 -0.88678,0.62559 -0.73874,0.96877 0.13308,0.30851 0.42387,0.20499 1.2588,-0.08929 a 6.9121,6.8773 0 0 0 0.45083,0.5826 c -0.45954,0.67322 -0.68979,0.90066 -0.43744,1.1897 0.22011,0.25216 0.46485,0.06687 1.1628,-0.46207 a 6.9121,6.8773 0 0 0 0.61823,0.47546 c -0.27971,0.77686 -0.448,1.0561 -0.12945,1.2745 0.27899,0.19135 0.46793,-0.0524 1.0244,-0.75448 l -0.13614,-0.08036 a 6.9121,6.8773 0 0 0 0.8124,0.34598 c -0.05392,0.79768 -0.13153,1.1094 0.22988,1.23 0.31289,0.10434 0.43118,-0.1731 0.75213,-0.95314 a 6.9121,6.8773 0 0 0 0.78339,0.10492 c 0.14789,0.88252 0.19657,1.1852 0.53342,1.1518 0.37819,-0.0374 0.37164,-0.35779 0.49547,-1.1429 a 6.9121,6.8773 0 0 0 0.79008,-0.10268 c 0.32547,0.7911 0.44402,1.0715 0.75883,0.96653 0.36153,-0.12056 0.28379,-0.43164 0.22988,-1.23 a 6.9121,6.8773 0 0 0 0.71642,-0.29242 c 0.54043,0.68182 0.73108,0.92108 1.0066,0.73215 0.31275,-0.2145 0.15444,-0.49169 -0.11605,-1.2366 a 6.9121,6.8773 0 0 0 0.63831,-0.48662 c 0.66856,0.5065 0.91329,0.68277 1.1293,0.43528 0.24602,-0.28187 0.03035,-0.51256 -0.4062,-1.1473 a 6.9121,6.8773 0 0 0 0.46646,-0.59376 c 0.81632,0.2877 1.1047,0.38809 1.2364,0.08259 0.14717,-0.34116 -0.12584,-0.49521 -0.72759,-0.95983 a 6.9121,6.8773 0 0 0 0.31469,-0.75001 c 0.85862,0.07945 1.1635,0.10683 1.2164,-0.22099 0.05917,-0.3672999 -0.24424,-0.4517799 -0.94407,-0.7567099 a 6.9121,6.8773 0 0 0 0.10267,-0.81028 c 0.82479,-0.10787 1.1232,-0.15593 1.1025,-0.48216 -0.02371,-0.37332 -0.34117,-0.38352 -1.1003,-0.52903 a 6.9121,6.8773 0 0 0 -0.1049,-0.76788 c 0.77968,-0.34358 1.0551,-0.46858 0.94184,-0.77903 -0.1286,-0.35254 -0.43509,-0.27496 -1.2097,-0.2009 a 6.9121,6.8773 0 0 0 -0.29907,-0.72322 c 0.67654,-0.54355 0.91246,-0.73616 0.72089,-1.0089 -0.21756,-0.30981 -0.49379,-0.14875 -1.2364,0.12724 a 6.9121,6.8773 0 0 0 -0.47762,-0.61385 c 0.50168,-0.70733 0.67637,-0.9573 0.41735,-1.1674 -0.29102,-0.23606 -0.51319,-0.0136 -1.136,0.4442 a 6.9121,6.8773 0 0 0 -0.63161,-0.48216 c 0.33203,-0.80857 0.44816,-1.0895 0.14731,-1.2366 -0.3463,-0.16931 -0.50635,0.11088 -1.0445,0.73215 a 6.9121,6.8773 0 0 0 -0.71642,-0.29242 c 0.0744,-0.88468 0.10365,-1.1906 -0.22988,-1.2411 -0.37407,-0.056607 -0.45044,0.2522 -0.76107,0.97547 a 6.9121,6.8773 0 0 0 -0.78339,-0.095983 c -0.13234,-0.86628 -0.17683,-1.1688 -0.5111,-1.1406 z m -0.27675,2.1139 c 0.76515,-0.012789 1.6733,0.12202 1.9685,0.25 1.2846,0.3907 2.4723,1.11 3.4839,2.7813 0.18841,0.31126 0.32516,0.61259 0.38611,0.8884 0.06052,0.29002 0.03822,0.62906 -0.14954,0.8951 -0.1609,0.21157 -0.36024,0.40984 -0.63831,0.43528 -0.86537,0.080888 -2.0401,0.034547 -2.9661,0.024554 -0.15582,-0.00169 -0.30337,-0.064767 -0.34817,-0.11384 -0.27434,-0.17249 -0.45959,-0.54601 -0.76553,-0.65179 -0.48844,-0.22576 -0.68644,-0.036937 -0.96193,-0.375 -0.50749,-0.81224 -0.99777,-1.6468 -1.4485,-2.4755 -0.32656,-0.56714 -0.11276,-1.1361 0.37941,-1.442 0.19257,-0.14903 0.60103,-0.20886 1.0601,-0.21652 z m -3.4103,1.7478 c 0.03984,-0.00123 0.07996,3.687e-4 0.12052,0.00446 0.26373,0.036046 0.53542,0.11228 0.69411,0.34153 0.49534,0.71256 1.0318,1.755 1.4775,2.5647 0.075,0.13628 0.09229,0.29636 0.07142,0.35938 -0.01602,0.32314 -0.25193,0.66652 -0.19417,0.9844 0.04255,0.53538 0.30512,0.61472 0.14507,1.0201 -0.46031,0.83976 -0.95035,1.6770999 -1.453,2.4754999 -0.33503,0.5622 -0.93529,0.65271 -1.444,0.375 -0.59911,-0.25136 -1.4045,-2.1362999 -1.4574,-2.6473999 -0.28925,-1.3085 -0.24444,-2.6956 0.71866,-4.3952 0.17936,-0.31653 0.37602,-0.58176 0.58698,-0.77011 0.19564,-0.17056 0.45535,-0.30379 0.73428,-0.31251 z m 3.7026,3.5647 a 0.57136,0.57144 0 0 1 0.57136,0.57144 0.57136,0.57144 0 0 1 -0.57136,0.57144 0.57136,0.57144 0 0 1 -0.57136,-0.57144 0.57136,0.57144 0 0 1 0.57136,-0.57144 z m 3.1425,1.1965 h 0.0022 c 0.47969,0.00249 0.95912,0.011555 1.4307,0.029019 0.65554,0.00837 1.0357,0.48413 1.049,1.0625 0.08136,0.6433299 -1.1541,2.2813999 -1.5712,2.5826999 -0.99118,0.90415 -2.2166,1.5582 -4.1735,1.5759 -0.36446,0.0033 -0.69296,-0.03467 -0.96193,-0.12277 -0.28098,-0.09572 -0.56017,-0.2859 -0.69407,-0.58259 -0.10057,-0.24588 -0.17098,-0.52062 -0.05133,-0.77233 0.37086,-0.78425 1.0063,-1.7681 1.4864,-2.5580999 0.08079,-0.13294 0.21161,-0.22762 0.27675,-0.24108 0.2885,-0.14773 0.70594,-0.11484 0.953,-0.32366 0.44346,-0.30445 0.38048,-0.57177 0.8124,-0.63617 0.4788,-0.011069 0.96207,-0.015849 1.4418,-0.013393 z"
     style="fill:currentColor"
     class="ColorScheme-Text"
     id="path1" />
  <g
     id="surface1"
     transform="matrix(0.24999955,0,0,0.24999955,3.752019e-4,1.44e-5)">
    <path
       style="fill:url(#linear0);fill-rule:nonzero;stroke:none"
       d="m 50,32 c 0,9.941406 -8.058594,18 -18,18 -9.941406,0 -18,-8.058594 -18,-18 0,-9.941406 8.058594,-18 18,-18 9.941406,0 18,8.058594 18,18 z m 0,0"
       id="path7" />
    <path
       style="fill:url(#linear1);fill-rule:nonzero;stroke:none"
       d="m 44,32 c 0,6.628906 -5.371094,12 -12,12 -6.628906,0 -12,-5.371094 -12,-12 0,-6.628906 5.371094,-12 12,-12 6.628906,0 12,5.371094 12,12 z m 0,0"
       id="path8" />
    <path
       style="fill:url(#linear2);fill-rule:nonzero;stroke:none"
       d="m 63.050781,24.636719 c -3.933593,-0.02734 -7.566406,-2.117188 -9.574219,-5.5 -1.898437,-3.234375 -2,-7.21875 -0.257812,-10.542969 C 49.773438,5.570312 45.71875,3.324219 41.332031,2 39.234375,5.09375 35.738281,6.941406 32,6.929688 28.261719,6.941406 24.765625,5.09375 22.671875,2 18.28125,3.324219 14.226562,5.570312 10.78125,8.59375 c 1.742188,3.324219 1.644531,7.308594 -0.257812,10.542969 -2.007813,3.382812 -5.640626,5.472656 -9.574219,5.5 -1.128907,4.378906 -1.253907,8.960937 -0.367188,13.398437 4.066407,-0.09766 7.867188,2.007813 9.941407,5.507813 C 12.636719,47.144531 12.5,51.640625 10.167969,55.109375 13.546875,58.222656 17.550781,60.570312 21.914062,62 23.816406,58.167969 27.722656,55.746094 32,55.746094 c 4.277344,0 8.183594,2.421875 10.085938,6.253906 4.363281,-1.429688 8.367187,-3.777344 11.742187,-6.890625 -2.332031,-3.464844 -2.46875,-7.960937 -0.351563,-11.566406 2.070313,-3.5 5.875,-5.605469 9.941407,-5.507813 0.882812,-4.4375 0.757812,-9.015625 -0.367188,-13.398437 z M 32,48 c -8.835938,0 -16,-7.164062 -16,-16 0,-8.835938 7.164062,-16 16,-16 8.835938,0 16,7.164062 16,16 0,8.835938 -7.164062,16 -16,16 z m 0,0"
       id="path9" />
  </g>
</svg>
