<?xml version="1.0" encoding="UTF-8" standalone="no"?>
<svg
   width="64"
   height="64"
   version="1.1"
   viewBox="0 0 16.933 16.933"
   id="svg29"
   sodipodi:docname="folder-images.svg"
   inkscape:version="1.4 (e7c3feb100, 2024-10-09)"
   xmlns:inkscape="http://www.inkscape.org/namespaces/inkscape"
   xmlns:sodipodi="http://sodipodi.sourceforge.net/DTD/sodipodi-0.dtd"
   xmlns:xlink="http://www.w3.org/1999/xlink"
   xmlns="http://www.w3.org/2000/svg"
   xmlns:svg="http://www.w3.org/2000/svg"
   xmlns:rdf="http://www.w3.org/1999/02/22-rdf-syntax-ns#"
   xmlns:cc="http://creativecommons.org/ns#"
   xmlns:dc="http://purl.org/dc/elements/1.1/">
  <sodipodi:namedview
     id="namedview29"
     pagecolor="#505050"
     bordercolor="#eeeeee"
     borderopacity="1"
     inkscape:showpageshadow="0"
     inkscape:pageopacity="0"
     inkscape:pagecheckerboard="0"
     inkscape:deskcolor="#505050"
     inkscape:zoom="3.09375"
     inkscape:cx="1.2929293"
     inkscape:cy="34.585859"
     inkscape:window-width="1920"
     inkscape:window-height="1051"
     inkscape:window-x="0"
     inkscape:window-y="0"
     inkscape:window-maximized="1"
     inkscape:current-layer="svg29" />
  <defs
     id="defs10">
    <style
       id="current-color-scheme"
       type="text/css">.ColorScheme-Text { color:#727272; } .ColorScheme-Highlight { color:#5294e2; }</style>
    <style
       type="text/css"
       id="style1">.ColorScheme-Text { color:#727272; } .ColorScheme-Highlight { color:#5294e2; }</style>
    <linearGradient
       id="linearGradient1009"
       x1="33.949"
       x2="33.949"
       y1="31"
       y2="56"
       gradientTransform="matrix(.26458 0 0 .26458 -.04756 -.28453)"
       gradientUnits="userSpaceOnUse">
      <stop
         stop-color="#fff"
         offset="0"
         id="stop1"
         style="stop-color:#4d4d4d;stop-opacity:1" />
      <stop
         stop-color="#cde0fc"
         offset="1"
         id="stop2"
         style="stop-color:#343434;stop-opacity:1" />
    </linearGradient>
    <linearGradient
       id="linearGradient1951"
       x1="100"
       x2="133.19"
       y1="17.453"
       y2="51.606"
       gradientTransform="matrix(.26458 0 0 .26458 -20.108 -.11989)"
       gradientUnits="userSpaceOnUse">
      <stop
         stop-color="#27aee9"
         offset="0"
         id="stop3" />
      <stop
         stop-color="#0669bc"
         offset="1"
         id="stop4" />
    </linearGradient>
    <linearGradient
       id="linearGradient11110"
       x1=".52917"
       x2="16.404"
       y1="5.3815"
       y2="5.3815"
       gradientTransform="translate(-5.5e-7 .015503)"
       gradientUnits="userSpaceOnUse">
      <stop
         stop-color="#fff"
         offset="0"
         id="stop5" />
      <stop
         stop-color="#fff"
         stop-opacity="0"
         offset="1"
         id="stop6" />
    </linearGradient>
    <linearGradient
       id="linearGradient1911"
       x1="25.085"
       x2="25.085"
       y1="24.031"
       y2="26.412"
       gradientTransform="translate(-17.897 -21.369)"
       gradientUnits="userSpaceOnUse">
      <stop
         stop-color="#0272cb"
         offset="0"
         id="stop7" />
      <stop
         stop-color="#0768ba"
         offset="1"
         id="stop8" />
    </linearGradient>
    <linearGradient
       id="linearGradient29077"
       x1=".52916"
       x2="16.404"
       y1="14.179"
       y2="14.179"
       gradientUnits="userSpaceOnUse">
      <stop
         stop-color="#0a5ba8"
         stop-opacity=".99608"
         offset="0"
         id="stop9" />
      <stop
         stop-color="#104a8c"
         stop-opacity=".99608"
         offset="1"
         id="stop10" />
    </linearGradient>
    <linearGradient
       id="linearGradient969"
       x1="1.5652"
       x2="1.5652"
       y1="25.243999"
       y2="28.82"
       gradientTransform="translate(6.9012,-18.843)"
       gradientUnits="userSpaceOnUse">
      <stop
         stop-color="#505050"
         offset="0"
         id="stop9-3" />
      <stop
         stop-color="#3c3c3c"
         offset="1"
         id="stop10-2" />
    </linearGradient>
    <linearGradient
       id="linearGradient971"
       x1="-1.1093"
       x2="1.2941999"
       y1="30.48"
       y2="29.184999"
       gradientTransform="matrix(1.4311,0,0,1.4311,6.6144,-31.658)"
       gradientUnits="userSpaceOnUse">
      <stop
         stop-color="#323232"
         offset="0"
         id="stop11" />
      <stop
         stop-color="#505050"
         offset="1"
         id="stop12" />
    </linearGradient>
    <linearGradient
       id="linearGradient973"
       x1="-0.92444003"
       x2="1.2941999"
       y1="30.48"
       y2="29.184999"
       gradientTransform="matrix(-1.4311,0,0,1.4311,10.318,-31.658)"
       gradientUnits="userSpaceOnUse">
      <stop
         stop-color="#151515"
         offset="0"
         id="stop13" />
      <stop
         stop-color="#323232"
         offset="1"
         id="stop14" />
    </linearGradient>
    <linearGradient
       id="linearGradient1911-3"
       x1="25.084999"
       x2="25.084999"
       y1="24.031"
       y2="26.412001"
       gradientTransform="translate(-40.915297,-36.730531)"
       gradientUnits="userSpaceOnUse">
      <stop
         stop-color="#3c3c3c"
         offset="0"
         id="stop1-0" />
      <stop
         stop-color="#2d2d2d"
         offset="1"
         id="stop2-6" />
    </linearGradient>
    <linearGradient
       id="linearGradient4625"
       x1="0.52917999"
       x2="16.403999"
       y1="5.0665002"
       y2="5.0665002"
       gradientTransform="translate(-23.018277,-15.345489)"
       gradientUnits="userSpaceOnUse">
      <stop
         stop-color="#b78815"
         offset="0"
         id="stop3-1" />
      <stop
         stop-color="#e2b24b"
         stop-opacity="0"
         offset="1"
         id="stop4-5" />
    </linearGradient>
    <linearGradient
       id="linearGradient1951-5"
       x1="100"
       x2="133.19"
       y1="17.452999"
       y2="51.605999"
       gradientTransform="matrix(0.26458,0,0,0.26458,-43.126297,-15.480891)"
       gradientUnits="userSpaceOnUse">
      <stop
         stop-color="#646464"
         offset="0"
         id="stop5-5" />
      <stop
         stop-color="#3c3c3c"
         offset="1"
         id="stop6-4" />
    </linearGradient>
    <linearGradient
       id="linearGradient11110-9"
       x1="0.52916998"
       x2="16.403999"
       y1="5.3814998"
       y2="5.3814998"
       gradientTransform="translate(-23.018277,-15.345489)"
       gradientUnits="userSpaceOnUse">
      <stop
         stop-color="#fff"
         offset="0"
         id="stop7-7" />
      <stop
         stop-color="#fff"
         stop-opacity="0"
         offset="1"
         id="stop8-6" />
    </linearGradient>
    <linearGradient
       inkscape:collect="always"
       xlink:href="#linearGradient1009"
       id="linearGradient30"
       gradientUnits="userSpaceOnUse"
       gradientTransform="matrix(0.26458,0,0,0.26458,-0.04756,-0.28453)"
       x1="33.949"
       y1="31"
       x2="33.949"
       y2="56" />
    <filter
       style="color-interpolation-filters:sRGB;"
       inkscape:label="Blur"
       id="filter30"
       x="-0.038187495"
       y="-0.074048933"
       width="1.076375"
       height="1.1480979">
      <feGaussianBlur
         stdDeviation="0.2 0.2"
         result="blur"
         id="feGaussianBlur30" />
    </filter>
  </defs>
  <metadata
     id="metadata10">
    <rdf:RDF>
      <cc:Work
         rdf:about="">
        <dc:format>image/svg+xml</dc:format>
        <dc:type
           rdf:resource="http://purl.org/dc/dcmitype/StillImage" />
      </cc:Work>
    </rdf:RDF>
  </metadata>
  <g
     id="g29"
     transform="translate(23.018317,15.345573)">
    <path
       d="m -21.820797,-13.096631 c -0.3653,0 -0.66145,0.32575 -0.66145,0.72759 v 2.9636 c -0.0026,0.02629 -0.0072,0.052 -0.0072,0.07906 v 7.9373 c 0,0.40184 0.29614,0.72759 0.66144,0.72759 h 14.552 c 0.36531,0 0.66144,-0.32575 0.66144,-0.72759 v -9.393 c 0,-0.40184 -0.29614,-0.72759 -0.66144,-0.72759 v 5.16e-4 h -8.1993 l -0.89864,-1.1095 c 0,0 -0.36607,-0.478 -1.0583,-0.478 h -1.3229 z"
       color="#000000"
       color-rendering="auto"
       dominant-baseline="auto"
       fill="url(#linearGradient1911-3)"
       image-rendering="auto"
       shape-rendering="auto"
       solid-color="#000000"
       stop-color="#000000"
       style="font-variant-ligatures:normal;font-variant-position:normal;font-variant-caps:normal;font-variant-numeric:normal;font-variant-alternates:normal;font-variant-east-asian:normal;font-feature-settings:normal;font-variation-settings:normal;text-indent:0;text-decoration-line:none;text-decoration-style:solid;text-decoration-color:#000000;text-transform:none;text-orientation:mixed;white-space:normal;shape-padding:0;shape-margin:0;inline-size:0;isolation:auto;mix-blend-mode:normal;fill:url(#linearGradient1911-3)"
       id="path14" />
    <path
       d="m -14.657697,-11.509131 c -0.11312,0.0018 -0.30848,-0.01542 -0.51986,0.09508 -0.73647,0.37946 -0.77226,0.59366 -1.557,0.71415 h -4.9608 c -0.21986,0 -0.41824,0.08855 -0.56171,0.23202 -0.13937,0.13936 -0.22041,0.33333 -0.2253,0.54569 v 0.2775 c 0.0049,-0.21236 0.08593,-0.40633 0.2253,-0.54569 0.14347,-0.14347 0.34185,-0.23202 0.56171,-0.23202 h 4.9608 c 0.78472,-0.1205 0.82051,-0.33469 1.557,-0.71415 0.21138,-0.1105 0.40673,-0.09328 0.51986,-0.09508 h 7.3828 c 0.18216,3.65e-4 0.3472,0.08101 0.46663,0.21239 0.1197,0.13167 0.19378,0.31377 0.19378,0.51469 v -0.2775 c 0,-0.20092 -0.07408,-0.38302 -0.19378,-0.51469 -0.11943,-0.13137 -0.28447,-0.21202 -0.46663,-0.21239 h -1.1652 z m -7.8247,2.1037 c -0.0026,0.02629 -0.0067,0.05201 -0.0067,0.07906 v 0.2775 c 0,-0.02705 0.0041,-0.05277 0.0067,-0.07906 z"
       fill="url(#linearGradient4625)"
       opacity="0.00100002"
       stroke-width="0.26458"
       id="path15"
       style="fill:url(#linearGradient4625)" />
    <path
       d="m -22.489077,-1.671531 v 0.28215 c 0,0.20092 0.07357,0.3825 0.19327,0.51417 0.1197,0.13167 0.28553,0.21342 0.46818,0.21342 h 14.552 c 0.18265,0 0.34796,-0.08175 0.46766,-0.21342 0.1197,-0.13167 0.19378,-0.31325 0.19378,-0.51417 v -0.28215 c 0,0.20092 -0.07409,0.3825 -0.19378,0.51417 -0.1197,0.13167 -0.28501,0.21342 -0.46766,0.21342 h -14.552 c -0.18265,0 -0.34848,-0.08176 -0.46818,-0.21342 -0.1197,-0.13166 -0.19327,-0.31325 -0.19327,-0.51417 z"
       fill="#232323"
       stroke-width="0.26458"
       id="path16" />
    <path
       d="m -15.476297,-11.247731 c 0,0 -0.35919,0.47868 -1.1575,0.79218 -0.03271,0.0059 -0.06509,0.01158 -0.10077,0.01705 h -4.9608 c -0.21986,0 -0.41824,0.08855 -0.56171,0.23202 -0.13937,0.13936 -0.22042,0.33333 -0.2253,0.54569 v 0.51675 c -0.0026,0.026291 -0.0067,0.052014 -0.0067,0.079064 v 7.3953 c 0,0.20092 0.07357,0.3825 0.19327,0.51417 0.1197,0.13167 0.28553,0.21342 0.46818,0.21342 h 14.552 c 0.18265,0 0.34796,-0.08175 0.46766,-0.21342 0.1197,-0.13167 0.19378,-0.31325 0.19378,-0.51417 v -8.851 c 0,-0.20092 -0.07408,-0.38302 -0.19378,-0.51469 -0.11945,-0.13137 -0.28449,-0.21202 -0.46665,-0.21239 h -7.4821 z"
       fill="url(#linearGradient1951-5)"
       id="path17"
       style="fill:url(#linearGradient1951-5)" />
    <path
       d="m -15.476297,-11.247731 c 0,0 -0.35919,0.47868 -1.1575,0.79218 -0.03271,0.0059 -0.06509,0.01158 -0.10077,0.01705 h -4.9608 c -0.21986,0 -0.41824,0.08855 -0.56171,0.23202 -0.13937,0.13936 -0.22041,0.33333 -0.2253,0.54569 v 0.38446 c 0.0049,-0.21236 0.08593,-0.40633 0.2253,-0.54569 0.14347,-0.14347 0.34185,-0.23202 0.56171,-0.23202 h 4.9608 c 0.03568,-0.0055 0.06806,-0.01118 0.10077,-0.01705 0.75911,-0.26303 1.2883,-0.79218 1.2883,-0.79218 h 8.0707 c 0.18216,3.7e-4 0.34718,0.08102 0.46663,0.21239 0.1197,0.13167 0.19378,0.31377 0.19378,0.51469 v -0.38446 c 0,-0.20092 -0.07408,-0.38302 -0.19378,-0.51469 -0.11945,-0.13137 -0.28447,-0.21202 -0.46663,-0.21239 h -7.4821 z m -7.0062,2.1037 c -0.0026,0.026291 -0.0067,0.052013 -0.0067,0.079063 v 0.38447 c 0,-0.02705 0.0041,-0.052773 0.0067,-0.079063 z"
       fill="url(#linearGradient11110-9)"
       opacity="0.3"
       id="path18"
       style="fill:url(#linearGradient11110-9)" />
  </g>
  <g
     fill="#5e4aa6"
     stroke-width=".26458"
     id="g28">
    <circle
       cx="-330.35"
       cy="-328.38"
       r="0"
       id="circle13" />
    <circle
       cx="-312.11"
       cy="-326.25"
       r="0"
       id="circle14" />
    <circle
       cx="-306.02"
       cy="-333.07"
       r="0"
       id="circle15" />
    <circle
       cx="-308.84"
       cy="-326.01"
       r="0"
       id="circle16" />
    <circle
       cx="-328.8"
       cy="-330.45"
       r="0"
       id="circle17" />
    <g
       transform="translate(-1.4001e-4,5e-6)"
       id="g22">
      <circle
         cx="-330.35"
         cy="-328.38"
         r="0"
         id="circle18" />
      <circle
         cx="-312.11"
         cy="-326.25"
         r="0"
         id="circle19" />
      <circle
         cx="-306.02"
         cy="-333.07"
         r="0"
         id="circle20" />
      <circle
         cx="-308.84"
         cy="-326.01"
         r="0"
         id="circle21" />
      <circle
         cx="-328.8"
         cy="-330.45"
         r="0"
         id="circle22" />
    </g>
    <g
       transform="translate(.000295 -.00032978)"
       id="g27">
      <circle
         cx="-330.35"
         cy="-328.38"
         r="0"
         id="circle23" />
      <circle
         cx="-312.11"
         cy="-326.25"
         r="0"
         id="circle24" />
      <circle
         cx="-306.02"
         cy="-333.07"
         r="0"
         id="circle25" />
      <circle
         cx="-308.84"
         cy="-326.01"
         r="0"
         id="circle26" />
      <circle
         cx="-328.8"
         cy="-330.45"
         r="0"
         id="circle27" />
    </g>
  </g>
  <path
     d="M 14.751,14.4 8.9344,8.1275998 c -0.12964,-0.13981 -0.29899,-0.2098 -0.46818,-0.2098 -0.16919,0 -0.33854,0.069993 -0.46818,0.2098 L 2.18144,14.4 h 0.17621 z"
     fill="url(#linearGradient1009)"
     style="fill:url(#linearGradient30);paint-order:stroke fill markers;filter:url(#filter30);opacity:0.6"
     id="path30" />
  <path
     d="m14.751 14.4-5.8166-6.2724c-0.12964-0.13981-0.29899-0.2098-0.46818-0.2098-0.16919 0-0.33854 0.069993-0.46818 0.2098l-5.8166 6.2724h0.17621z"
     fill="url(#linearGradient1009)"
     style="paint-order:stroke fill markers"
     id="path29" />
  <circle
     cx="11.245"
     cy="6.4822"
     r=".66145"
     fill="#feffff"
     stroke-linecap="round"
     stroke-linejoin="round"
     stroke-width=".26458"
     style="paint-order:stroke fill markers;fill:#353535;fill-opacity:1"
     id="circle29" />
</svg>
