<?xml version="1.0" encoding="UTF-8" standalone="no"?>
<!-- Created with Inkscape (http://www.inkscape.org/) -->

<svg
   width="64"
   height="64"
   version="1.1"
   viewBox="0 0 16.933 16.933"
   id="svg19"
   sodipodi:docname="folder-html.svg"
   inkscape:version="1.4 (e7c3feb100, 2024-10-09)"
   xmlns:inkscape="http://www.inkscape.org/namespaces/inkscape"
   xmlns:sodipodi="http://sodipodi.sourceforge.net/DTD/sodipodi-0.dtd"
   xmlns:xlink="http://www.w3.org/1999/xlink"
   xmlns="http://www.w3.org/2000/svg"
   xmlns:svg="http://www.w3.org/2000/svg">
  <sodipodi:namedview
     id="namedview19"
     pagecolor="#505050"
     bordercolor="#eeeeee"
     borderopacity="1"
     inkscape:showpageshadow="0"
     inkscape:pageopacity="0"
     inkscape:pagecheckerboard="0"
     inkscape:deskcolor="#505050"
     inkscape:zoom="6.1875"
     inkscape:cx="2.9090909"
     inkscape:cy="33.454545"
     inkscape:window-width="1920"
     inkscape:window-height="1051"
     inkscape:window-x="0"
     inkscape:window-y="0"
     inkscape:window-maximized="1"
     inkscape:current-layer="svg19" />
  <defs
     id="defs12">
    <linearGradient
       id="linearGradient1911-3"
       x1="25.085"
       x2="25.085"
       y1="24.031"
       y2="26.412"
       gradientTransform="translate(-17.8977,-21.3846)"
       gradientUnits="userSpaceOnUse">
      <stop
         stop-color="#0272cb"
         offset="0"
         id="stop1" />
      <stop
         stop-color="#0768ba"
         offset="1"
         id="stop2" />
    </linearGradient>
    <linearGradient
       id="linearGradient1951-6"
       x1="100"
       x2="133.19"
       y1="17.453"
       y2="51.606"
       gradientTransform="matrix(0.26458,0,0,0.26458,-20.1077,-0.1353)"
       gradientUnits="userSpaceOnUse">
      <stop
         stop-color="#27aee9"
         offset="0"
         id="stop3" />
      <stop
         stop-color="#0669bc"
         offset="1"
         id="stop4" />
    </linearGradient>
    <linearGradient
       id="linearGradient11110-7"
       x1=".52917"
       x2="16.404"
       y1="5.3815"
       y2="5.3815"
       gradientTransform="translate(-10e-5,10e-5)"
       gradientUnits="userSpaceOnUse">
      <stop
         stop-color="#fff"
         offset="0"
         id="stop5" />
      <stop
         stop-color="#fff"
         stop-opacity="0"
         offset="1"
         id="stop6" />
    </linearGradient>
    <linearGradient
       id="linearGradient29077"
       x1=".52916"
       x2="16.404"
       y1="14.179"
       y2="14.179"
       gradientTransform="translate(-10e-5,-0.0154)"
       gradientUnits="userSpaceOnUse">
      <stop
         stop-color="#0a5ba8"
         stop-opacity=".99608"
         offset="0"
         id="stop7" />
      <stop
         stop-color="#104a8c"
         stop-opacity=".99608"
         offset="1"
         id="stop8" />
    </linearGradient>
    <linearGradient
       id="linearGradient5021"
       x1="28"
       x2="23"
       y1="35"
       y2="45"
       gradientTransform="scale(0.26458)"
       gradientUnits="userSpaceOnUse">
      <stop
         stop-color="#d5e5fc"
         offset="0"
         id="stop9"
         style="stop-color:#4d4d4d;stop-opacity:1" />
      <stop
         stop-color="#fdfeff"
         offset="1"
         id="stop10"
         style="stop-color:#353535;stop-opacity:1" />
    </linearGradient>
    <linearGradient
       id="linearGradient5010"
       x1="22"
       x2="42"
       y1="30"
       y2="38"
       gradientTransform="scale(0.26458)"
       gradientUnits="userSpaceOnUse">
      <stop
         stop-color="#fdfeff"
         offset="0"
         id="stop11"
         style="stop-color:#3e3e3e;stop-opacity:1" />
      <stop
         stop-color="#cfe1fc"
         offset="1"
         id="stop12"
         style="stop-color:#313131;stop-opacity:1" />
    </linearGradient>
    <linearGradient
       id="linearGradient1911"
       x1="25.084999"
       x2="25.084999"
       y1="24.031"
       y2="26.412001"
       gradientTransform="translate(-34.829694,-23.898254)"
       gradientUnits="userSpaceOnUse">
      <stop
         stop-color="#3c3c3c"
         offset="0"
         id="stop5-1" />
      <stop
         stop-color="#2d2d2d"
         offset="1"
         id="stop6-2" />
    </linearGradient>
    <linearGradient
       id="linearGradient4625"
       x1="0.52917999"
       x2="16.403999"
       y1="5.0665002"
       y2="5.0665002"
       gradientTransform="translate(-16.932694,-2.5134541)"
       gradientUnits="userSpaceOnUse">
      <stop
         stop-color="#b78815"
         offset="0"
         id="stop7-9" />
      <stop
         stop-color="#e2b24b"
         stop-opacity="0"
         offset="1"
         id="stop8-3" />
    </linearGradient>
    <linearGradient
       id="linearGradient1951"
       x1="100"
       x2="133.19"
       y1="17.452999"
       y2="51.605999"
       gradientTransform="matrix(0.26458,0,0,0.26458,-37.040694,-2.6488541)"
       gradientUnits="userSpaceOnUse">
      <stop
         stop-color="#646464"
         offset="0"
         id="stop9-1" />
      <stop
         stop-color="#3c3c3c"
         offset="1"
         id="stop10-9" />
    </linearGradient>
    <linearGradient
       id="linearGradient11110"
       x1="0.52916998"
       x2="16.403999"
       y1="5.3814998"
       y2="5.3814998"
       gradientTransform="translate(-16.932694,-2.5134541)"
       gradientUnits="userSpaceOnUse">
      <stop
         stop-color="#fff"
         offset="0"
         id="stop11-4" />
      <stop
         stop-color="#fff"
         stop-opacity="0"
         offset="1"
         id="stop12-7" />
    </linearGradient>
    <linearGradient
       id="linearGradient79069"
       x1="8.5258999"
       x2="8.5258999"
       y1="6.0935998"
       y2="13.269"
       gradientUnits="userSpaceOnUse"
       gradientTransform="translate(-16.932694,-2.3812541)">
      <stop
         stop-color="#323232"
         offset="0"
         id="stop13" />
      <stop
         stop-color="#141414"
         offset="1"
         id="stop14" />
    </linearGradient>
    <linearGradient
       id="linearGradient969"
       x1="1.5652"
       x2="1.5652"
       y1="25.243999"
       y2="28.82"
       gradientTransform="translate(6.9012,-18.843)"
       gradientUnits="userSpaceOnUse">
      <stop
         stop-color="#505050"
         offset="0"
         id="stop9-5" />
      <stop
         stop-color="#3c3c3c"
         offset="1"
         id="stop10-0" />
    </linearGradient>
    <linearGradient
       id="linearGradient971"
       x1="-1.1093"
       x2="1.2941999"
       y1="30.48"
       y2="29.184999"
       gradientTransform="matrix(1.4311,0,0,1.4311,6.6144,-31.658)"
       gradientUnits="userSpaceOnUse">
      <stop
         stop-color="#323232"
         offset="0"
         id="stop11-3" />
      <stop
         stop-color="#505050"
         offset="1"
         id="stop12-6" />
    </linearGradient>
    <linearGradient
       id="linearGradient973"
       x1="-0.92444003"
       x2="1.2941999"
       y1="30.48"
       y2="29.184999"
       gradientTransform="matrix(-1.4311,0,0,1.4311,10.318,-31.658)"
       gradientUnits="userSpaceOnUse">
      <stop
         stop-color="#151515"
         offset="0"
         id="stop13-1" />
      <stop
         stop-color="#323232"
         offset="1"
         id="stop14-0" />
    </linearGradient>
    <linearGradient
       inkscape:collect="always"
       xlink:href="#linearGradient5021"
       id="linearGradient22"
       gradientUnits="userSpaceOnUse"
       gradientTransform="scale(0.26458)"
       x1="28"
       y1="35"
       x2="23"
       y2="45" />
    <linearGradient
       inkscape:collect="always"
       xlink:href="#linearGradient5010"
       id="linearGradient23"
       gradientUnits="userSpaceOnUse"
       gradientTransform="scale(0.26458)"
       x1="22"
       y1="30"
       x2="42"
       y2="38" />
    <filter
       style="color-interpolation-filters:sRGB;"
       inkscape:label="Blur"
       id="filter23"
       x="-0.068823126"
       y="-0.10370247"
       width="1.1376463"
       height="1.2074049">
      <feGaussianBlur
         stdDeviation="0.2 0.3"
         result="blur"
         id="feGaussianBlur23" />
    </filter>
  </defs>
  <g
     id="g19"
     transform="translate(16.932714,2.513496)">
    <path
       d="m -15.735194,-0.2645541 c -0.3653,0 -0.66145,0.32575 -0.66145,0.72759 v 2.9636 c -0.0026,0.02629 -0.0072,0.052 -0.0072,0.07906 v 7.9373001 c 0,0.40184 0.29614,0.72759 0.66144,0.72759 h 14.552 c 0.36531,0 0.66144,-0.32575 0.66144,-0.72759 V 2.0499959 c 0,-0.40184 -0.29614,-0.72759 -0.66144,-0.72759 v 5.16e-4 h -8.1993 l -0.89864,-1.1095 c 0,0 -0.36607,-0.478 -1.0583,-0.478 h -1.3229 z"
       color="#000000"
       color-rendering="auto"
       dominant-baseline="auto"
       fill="url(#linearGradient1911)"
       image-rendering="auto"
       shape-rendering="auto"
       solid-color="#000000"
       stop-color="#000000"
       style="font-variant-ligatures:normal;font-variant-position:normal;font-variant-caps:normal;font-variant-numeric:normal;font-variant-alternates:normal;font-variant-east-asian:normal;font-feature-settings:normal;font-variation-settings:normal;text-indent:0;text-decoration-line:none;text-decoration-style:solid;text-decoration-color:#000000;text-transform:none;text-orientation:mixed;white-space:normal;shape-padding:0;shape-margin:0;inline-size:0;isolation:auto;mix-blend-mode:normal;fill:url(#linearGradient1911)"
       id="path14" />
    <path
       d="m -8.572094,1.3229459 c -0.11312,0.0018 -0.30848,-0.01542 -0.51986,0.09508 -0.73647,0.37946 -0.77226,0.59366 -1.557,0.71415 h -4.9608 c -0.21986,0 -0.41824,0.08855 -0.56171,0.23202 -0.13937,0.13936 -0.22041,0.33333 -0.2253,0.54569 v 0.2775 c 0.0049,-0.21236 0.08593,-0.40633 0.2253,-0.54569 0.14347,-0.14347 0.34185,-0.23202 0.56171,-0.23202 h 4.9608 c 0.78472,-0.1205 0.82051,-0.33469 1.557,-0.71415 0.21138,-0.1105 0.40673,-0.09328 0.51986,-0.09508 h 7.3828 c 0.18216,3.65e-4 0.3472,0.08101 0.46663,0.21239 0.1197,0.13167 0.19378,0.31377 0.19378,0.51469 v -0.2775 c 0,-0.20092 -0.07408,-0.38302 -0.19378,-0.51469 -0.11943,-0.13137 -0.28447,-0.21202 -0.46663,-0.21239 h -1.1652 z m -7.8247,2.1037 c -0.0026,0.02629 -0.0067,0.05201 -0.0067,0.07906 v 0.2775 c 0,-0.02705 0.0041,-0.05277 0.0067,-0.07906 z"
       fill="url(#linearGradient4625)"
       opacity="0.00100002"
       stroke-width="0.26458"
       id="path15"
       style="fill:url(#linearGradient4625)" />
    <path
       d="m -16.403494,11.160746 v 0.28215 c 0,0.20092 0.07357,0.3825 0.19327,0.51417 0.1197,0.13167 0.28553,0.21342 0.46818,0.21342 h 14.552 c 0.18265,0 0.34796,-0.08175 0.46766,-0.21342 0.1197,-0.13167 0.19378,-0.31325 0.19378,-0.51417 v -0.28215 c 0,0.20092 -0.07409,0.3825 -0.19378,0.51417 -0.1197,0.13167 -0.28501,0.21342 -0.46766,0.21342 h -14.552 c -0.18265,0 -0.34848,-0.08176 -0.46818,-0.21342 -0.1197,-0.13166 -0.19327,-0.31325 -0.19327,-0.51417 z"
       fill="#232323"
       stroke-width="0.26458"
       id="path16" />
    <path
       d="m -9.390694,1.5843459 c 0,0 -0.35919,0.47868 -1.1575,0.79218 -0.03271,0.00587 -0.06509,0.011575 -0.10077,0.017052 h -4.9608 c -0.21986,0 -0.41824,0.088552 -0.56171,0.23202 -0.13937,0.13936 -0.22042,0.33333 -0.2253,0.54569 v 0.51675 c -0.0026,0.026291 -0.0067,0.052014 -0.0067,0.079064 v 7.3953001 c 0,0.20092 0.07357,0.3825 0.19327,0.51417 0.1197,0.13167 0.28553,0.21342 0.46818,0.21342 h 14.552 c 0.18265,0 0.34796,-0.08175 0.46766,-0.21342 0.1197,-0.13167 0.19378,-0.31325 0.19378,-0.51417 V 2.3114019 c 0,-0.20092 -0.07408,-0.38302 -0.19378,-0.51469 -0.11945,-0.13137 -0.28449,-0.21202 -0.46665,-0.21239 h -7.4821 z"
       fill="url(#linearGradient1951)"
       id="path17-8"
       style="fill:url(#linearGradient1951)" />
    <path
       d="m -9.390694,1.5843459 c 0,0 -0.35919,0.47868 -1.1575,0.79218 -0.03271,0.00587 -0.06509,0.011575 -0.10077,0.017052 h -4.9608 c -0.21986,0 -0.41824,0.088552 -0.56171,0.23202 -0.13937,0.13936 -0.22041,0.33333 -0.2253,0.54569 v 0.38446 c 0.0049,-0.21236 0.08593,-0.40633 0.2253,-0.54569 0.14347,-0.14347 0.34185,-0.23202 0.56171,-0.23202 h 4.9608 c 0.03568,-0.00548 0.06806,-0.011184 0.10077,-0.017052 0.75911,-0.26303 1.2883,-0.79218 1.2883,-0.79218 h 8.0707 c 0.18216,3.704e-4 0.34718,0.081016 0.46663,0.21239 0.1197,0.13167 0.19378,0.31377 0.19378,0.51469 v -0.38446 c 0,-0.20092 -0.07408,-0.38302 -0.19378,-0.51469 -0.11945,-0.13137 -0.28447,-0.21202 -0.46663,-0.21239 h -7.4821 z m -7.0062,2.1037 c -0.0026,0.026291 -0.0067,0.052013 -0.0067,0.079063 v 0.38447 c 0,-0.02705 0.0041,-0.052773 0.0067,-0.079063 z"
       fill="url(#linearGradient11110)"
       opacity="0.3"
       id="path18-4"
       style="fill:url(#linearGradient11110)" />
  </g>
  <g
     id="g22"
     transform="translate(0,0.52915625)"
     style="filter:url(#filter23);opacity:0.6">
    <path
       d="m 8.1403,8.8774 c -0.7505,0.41509 -1.1174,1.2482 -1.1177,1.9053 6.17e-5,1.2014 0.96049,2.1752 2.1452,2.1752 0.55052,-6.95e-4 1.1433,-0.24916 1.5989,-0.63721 0.0055,-0.0037 0.009,-0.0046 0.01491,-0.0088 0.49021,-0.34479 0.82866,-0.86384 0.84595,-0.95006 0.01642,-0.06215 -0.05887,-0.1183 -0.08467,-0.11948 -0.0258,-0.0012 -0.05677,0.0073 -0.05677,0.0073 -0.02731,0.0064 -0.05618,0.01824 -0.086,0.03402 -0.33256,0.12925 -0.86319,0.27844 -1.1878,0.27923 -1.2741,4.8e-5 -2.408,-0.86364 -2.408,-2.0651 0.01971,-0.33612 0.23089,-0.52688 0.336,-0.62038 z"
       color="#000000"
       color-rendering="auto"
       dominant-baseline="auto"
       fill="#c4dafc"
       image-rendering="auto"
       shape-rendering="auto"
       solid-color="#000000"
       stop-color="#000000"
       style="font-variant-ligatures:normal;font-variant-position:normal;font-variant-caps:normal;font-variant-numeric:normal;font-variant-alternates:normal;font-variant-east-asian:normal;font-feature-settings:normal;font-variation-settings:normal;text-indent:0;text-decoration-line:none;text-decoration-style:solid;text-decoration-color:#000000;text-transform:none;text-orientation:mixed;white-space:normal;shape-padding:0;shape-margin:0;inline-size:0;isolation:auto;mix-blend-mode:normal;fill:#303030;fill-opacity:1"
       id="path20" />
    <path
       d="M 7.3683,7.7024 C 7.31314,7.702434 7.25796,7.7043 7.20294,7.7081 7.125243,7.7134 7.04819,7.72228 6.97143,7.73497 6.894617,7.74774 6.81864,7.7645 6.74354,7.78458 6.668458,7.80464 6.59396,7.8282 6.52134,7.85538 6.448697,7.88252 6.3779,7.91286 6.30844,7.94684 6.239012,7.98084 6.17143,8.01849 6.10587,8.05898 6.040254,8.09948 5.97679,8.14312 5.9157,8.18972 5.854682,8.23632 5.79588,8.28581 5.74,8.33803 5.684113,8.3903 5.63103,8.44499 5.58084,8.50236 5.530628,8.55968 5.483263,8.6193 5.43925,8.68116 5.395248,8.743 5.354658,8.80713 5.31729,8.87288 5.300026,8.90524 5.283805,8.93794 5.268197,8.97106 5.205727,9.21744 5.173493,9.46961 5.17208,9.72294 c 7.408e-4,0.68121 0.22434,1.3456 0.64026,1.9022 0.65497,0.87872 1.7213,1.4022 2.8593,1.403 0.13729,-0.0014 0.70807,-0.0031 0.9064,-0.11472 C 8.6029,13.06256 7.94014,12.63624 7.55954,12.19048 7.21527,11.78951 7.02683,11.28742 7.02522,10.76888 7.06274,9.81264 7.63616,9.15948 8.14042,8.87698 8.16271,8.8611 8.18625,8.84633 8.21018,8.83254 8.23405,8.8187 8.25879,8.80593 8.28408,8.7943 8.30941,8.78269 8.3351,8.77205 8.36159,8.76278 8.38807,8.75348 8.41483,8.74536 8.44221,8.73849 8.46954,8.73169 8.49746,8.72625 8.52541,8.72195 8.55344,8.71755 8.58178,8.71445 8.61016,8.71265 8.63019,8.71135 8.65001,8.71055 8.6701,8.71055 c 0.0284,-4e-6 0.057,0.0011 0.08527,0.0036 0.02829,0.0025 0.05637,0.0068 0.08423,0.01188 0.02779,0.0051 0.05508,0.01107 0.08216,0.0186 0.02716,0.0076 0.05391,0.01636 0.0801,0.02636 0.02615,0.01 0.05208,0.0213 0.077,0.03359 0.02493,0.01228 0.04889,0.02585 0.07235,0.04031 0.02347,0.01445 0.04647,0.0295 0.06821,0.04599 0.02172,0.01645 0.04222,0.03388 0.06201,0.05219 0.01979,0.01838 0.03867,0.03781 0.05633,0.05788 0.01764,0.02001 0.03427,0.04103 0.04961,0.06253 0.01537,0.02158 0.02948,0.0438 0.04237,0.06666 0.01288,0.02278 0.02433,0.04594 0.03462,0.06976 0.01026,0.02386 0.0193,0.04821 0.02687,0.07286 0.0076,0.02468 0.01376,0.04969 0.0186,0.07493 0.0014,0.0089 0.0026,0.01793 0.0036,0.02687 0.003,0.0032 0.0063,0.0051 0.0093,0.0083 C 9.50647,9.15681 9.47601,9.06972 9.34342,8.78238 9.18097,8.47565 8.93385,8.2792 8.87421,8.231 8.81462,8.18269 8.75248,8.13744 8.68818,8.09509 8.62388,8.05274 8.55761,8.01375 8.48923,7.97779 8.42083,7.94188 8.3507,7.90928 8.27891,7.88012 8.20716,7.85095 8.13371,7.82526 8.05929,7.80312 7.98481,7.78096 7.90936,7.7622 7.83295,7.74731 7.75656,7.7324 7.67952,7.72122 7.60196,7.71372 7.52442,7.70622 7.44632,7.70236 7.36839,7.70235 Z"
       fill="url(#linearGradient5021)"
       stroke-linecap="round"
       stroke-linejoin="round"
       stroke-width="0.26458"
       style="fill:url(#linearGradient22);paint-order:stroke fill markers"
       id="path21" />
    <path
       d="M 8.7373,6.0854 C 6.9162,6.0869 5.3562,7.4918 5.2261,9.2008 5.42999,8.32314 6.4095,7.7256 7.3603,7.7249 c 0.49193,8.47e-4 0.96979,0.14567 1.357,0.41184 0.53527,0.36618 0.83639,0.91489 0.81906,1.5105 -0.03223,0.27879 -0.14019,0.34118 -0.28834,0.58652 -0.02564,0.06947 -0.04058,0.13639 0.06304,0.20929 0.05362,0.03699 0.22876,0.12668 0.28731,0.14883 0.05851,0.02208 0.11864,0.04164 0.17931,0.05839 0.06072,0.01676 0.12219,0.03061 0.18448,0.04186 0.06224,0.01127 0.12491,0.01965 0.1881,0.02532 0.06325,0.0057 0.12659,0.0088 0.19017,0.0088 0.04496,-4.5e-5 0.09003,-0.0017 0.13488,-0.0047 0.06335,-0.004 0.12655,-0.01052 0.18913,-0.02015 0.06264,-0.0097 0.12478,-0.02202 0.18603,-0.03721 0.06123,-0.0152 0.12164,-0.03316 0.18086,-0.05374 0.05917,-0.02053 0.11705,-0.04406 0.17363,-0.06976 0.05666,-0.02574 0.11187,-0.05356 0.16536,-0.08423 0.38425,-0.29715 0.59057,-0.53575 0.71725,-0.95394 0.0045,-0.02356 0.05891,-0.14775 0.05891,-0.3819 C 12.14478,8.75074 12.12589,8.57146 12.01006,8.2065 11.51326,6.9352 10.20456,6.0871 8.73746,6.0852 Z"
       fill="url(#linearGradient5010)"
       stroke-linecap="round"
       stroke-linejoin="round"
       stroke-width="0.26458"
       style="fill:url(#linearGradient23);paint-order:stroke fill markers"
       id="path22" />
  </g>
  <path
     d="M 8.3603,3.821 C 8.24718,3.8228 8.05182,3.80558 7.84044,3.91608 7.10397,4.29554 7.06818,4.50974 6.28344,4.63023 h -4.9608 c -0.21986,0 -0.41824,0.08855 -0.56171,0.23202 -0.13937,0.13936 -0.22041,0.33333 -0.2253,0.54569 v 0.2775 C 0.54053,5.47308 0.62156,5.27911 0.76093,5.13975 0.9044,4.99628 1.10278,4.90773 1.32264,4.90773 h 4.9608 C 7.06816,4.78723 7.10395,4.57304 7.84044,4.19358 8.05182,4.08308 8.24717,4.1003 8.3603,4.0985 h 7.3828 c 0.18216,3.65e-4 0.3472,0.08101 0.46663,0.21239 0.1197,0.13167 0.19378,0.31377 0.19378,0.51469 v -0.2775 c 0,-0.20092 -0.07408,-0.38302 -0.19378,-0.51469 C 16.0903,3.90202 15.92526,3.82137 15.7431,3.821 H 14.5779 Z M 0.5356,5.9247 C 0.533,5.95099 0.5289,5.97671 0.5289,6.00376 v 0.2775 c 0,-0.02705 0.0041,-0.05277 0.0067,-0.07906 z"
     fill="#1e5992"
     opacity="0.00100002"
     stroke-width="0.26458"
     id="path13" />
  <g
     id="g20">
    <path
       d="m 8.1403,8.8774 c -0.7505,0.41509 -1.1174,1.2482 -1.1177,1.9053 6.17e-5,1.2014 0.96049,2.1752 2.1452,2.1752 0.55052,-6.95e-4 1.1433,-0.24916 1.5989,-0.63721 0.0055,-0.0037 0.009,-0.0046 0.01491,-0.0088 0.49021,-0.34479 0.82866,-0.86384 0.84595,-0.95006 0.01642,-0.06215 -0.05887,-0.1183 -0.08467,-0.11948 -0.0258,-0.0012 -0.05677,0.0073 -0.05677,0.0073 -0.02731,0.0064 -0.05618,0.01824 -0.086,0.03402 -0.33256,0.12925 -0.86319,0.27844 -1.1878,0.27923 -1.2741,4.8e-5 -2.408,-0.86364 -2.408,-2.0651 0.01971,-0.33612 0.23089,-0.52688 0.336,-0.62038 z"
       color="#000000"
       color-rendering="auto"
       dominant-baseline="auto"
       fill="#c4dafc"
       image-rendering="auto"
       shape-rendering="auto"
       solid-color="#000000"
       stop-color="#000000"
       style="font-variant-ligatures:normal;font-variant-position:normal;font-variant-caps:normal;font-variant-numeric:normal;font-variant-alternates:normal;font-variant-east-asian:normal;font-feature-settings:normal;font-variation-settings:normal;text-indent:0;text-decoration-line:none;text-decoration-style:solid;text-decoration-color:#000000;text-transform:none;text-orientation:mixed;white-space:normal;shape-padding:0;shape-margin:0;inline-size:0;isolation:auto;mix-blend-mode:normal;fill:#303030;fill-opacity:1"
       id="path17" />
    <path
       d="M 7.3683,7.7024 C 7.31314,7.702434 7.25796,7.7043 7.20294,7.7081 7.125243,7.7134 7.04819,7.72228 6.97143,7.73497 6.894617,7.74774 6.81864,7.7645 6.74354,7.78458 6.668458,7.80464 6.59396,7.8282 6.52134,7.85538 6.448697,7.88252 6.3779,7.91286 6.30844,7.94684 6.239012,7.98084 6.17143,8.01849 6.10587,8.05898 6.040254,8.09948 5.97679,8.14312 5.9157,8.18972 5.854682,8.23632 5.79588,8.28581 5.74,8.33803 5.684113,8.3903 5.63103,8.44499 5.58084,8.50236 5.530628,8.55968 5.483263,8.6193 5.43925,8.68116 5.395248,8.743 5.354658,8.80713 5.31729,8.87288 5.300026,8.90524 5.283805,8.93794 5.268197,8.97106 5.205727,9.21744 5.173493,9.46961 5.17208,9.72294 c 7.408e-4,0.68121 0.22434,1.3456 0.64026,1.9022 0.65497,0.87872 1.7213,1.4022 2.8593,1.403 0.13729,-0.0014 0.70807,-0.0031 0.9064,-0.11472 C 8.6029,13.06256 7.94014,12.63624 7.55954,12.19048 7.21527,11.78951 7.02683,11.28742 7.02522,10.76888 7.06274,9.81264 7.63616,9.15948 8.14042,8.87698 8.16271,8.8611 8.18625,8.84633 8.21018,8.83254 8.23405,8.8187 8.25879,8.80593 8.28408,8.7943 8.30941,8.78269 8.3351,8.77205 8.36159,8.76278 8.38807,8.75348 8.41483,8.74536 8.44221,8.73849 8.46954,8.73169 8.49746,8.72625 8.52541,8.72195 8.55344,8.71755 8.58178,8.71445 8.61016,8.71265 8.63019,8.71135 8.65001,8.71055 8.6701,8.71055 c 0.0284,-4e-6 0.057,0.0011 0.08527,0.0036 0.02829,0.0025 0.05637,0.0068 0.08423,0.01188 0.02779,0.0051 0.05508,0.01107 0.08216,0.0186 0.02716,0.0076 0.05391,0.01636 0.0801,0.02636 0.02615,0.01 0.05208,0.0213 0.077,0.03359 0.02493,0.01228 0.04889,0.02585 0.07235,0.04031 0.02347,0.01445 0.04647,0.0295 0.06821,0.04599 0.02172,0.01645 0.04222,0.03388 0.06201,0.05219 0.01979,0.01838 0.03867,0.03781 0.05633,0.05788 0.01764,0.02001 0.03427,0.04103 0.04961,0.06253 0.01537,0.02158 0.02948,0.0438 0.04237,0.06666 0.01288,0.02278 0.02433,0.04594 0.03462,0.06976 0.01026,0.02386 0.0193,0.04821 0.02687,0.07286 0.0076,0.02468 0.01376,0.04969 0.0186,0.07493 0.0014,0.0089 0.0026,0.01793 0.0036,0.02687 0.003,0.0032 0.0063,0.0051 0.0093,0.0083 C 9.50647,9.15681 9.47601,9.06972 9.34342,8.78238 9.18097,8.47565 8.93385,8.2792 8.87421,8.231 8.81462,8.18269 8.75248,8.13744 8.68818,8.09509 8.62388,8.05274 8.55761,8.01375 8.48923,7.97779 8.42083,7.94188 8.3507,7.90928 8.27891,7.88012 8.20716,7.85095 8.13371,7.82526 8.05929,7.80312 7.98481,7.78096 7.90936,7.7622 7.83295,7.74731 7.75656,7.7324 7.67952,7.72122 7.60196,7.71372 7.52442,7.70622 7.44632,7.70236 7.36839,7.70235 Z"
       fill="url(#linearGradient5021)"
       stroke-linecap="round"
       stroke-linejoin="round"
       stroke-width="0.26458"
       style="fill:url(#linearGradient5021);paint-order:stroke fill markers"
       id="path18" />
    <path
       d="M 8.7373,6.0854 C 6.9162,6.0869 5.3562,7.4918 5.2261,9.2008 5.42999,8.32314 6.4095,7.7256 7.3603,7.7249 c 0.49193,8.47e-4 0.96979,0.14567 1.357,0.41184 0.53527,0.36618 0.83639,0.91489 0.81906,1.5105 -0.03223,0.27879 -0.14019,0.34118 -0.28834,0.58652 -0.02564,0.06947 -0.04058,0.13639 0.06304,0.20929 0.05362,0.03699 0.22876,0.12668 0.28731,0.14883 0.05851,0.02208 0.11864,0.04164 0.17931,0.05839 0.06072,0.01676 0.12219,0.03061 0.18448,0.04186 0.06224,0.01127 0.12491,0.01965 0.1881,0.02532 0.06325,0.0057 0.12659,0.0088 0.19017,0.0088 0.04496,-4.5e-5 0.09003,-0.0017 0.13488,-0.0047 0.06335,-0.004 0.12655,-0.01052 0.18913,-0.02015 0.06264,-0.0097 0.12478,-0.02202 0.18603,-0.03721 0.06123,-0.0152 0.12164,-0.03316 0.18086,-0.05374 0.05917,-0.02053 0.11705,-0.04406 0.17363,-0.06976 0.05666,-0.02574 0.11187,-0.05356 0.16536,-0.08423 0.38425,-0.29715 0.59057,-0.53575 0.71725,-0.95394 0.0045,-0.02356 0.05891,-0.14775 0.05891,-0.3819 C 12.14478,8.75074 12.12589,8.57146 12.01006,8.2065 11.51326,6.9352 10.20456,6.0871 8.73746,6.0852 Z"
       fill="url(#linearGradient5010)"
       stroke-linecap="round"
       stroke-linejoin="round"
       stroke-width="0.26458"
       style="fill:url(#linearGradient5010);paint-order:stroke fill markers"
       id="path19" />
  </g>
</svg>
