<?xml version="1.0" encoding="UTF-8" standalone="no"?>
<svg
   width="64"
   height="64"
   viewBox="0 0 16.933 16.933"
   version="1.1"
   id="svg20"
   sodipodi:docname="folder-steam.svg"
   inkscape:version="1.4 (e7c3feb100, 2024-10-09)"
   xmlns:inkscape="http://www.inkscape.org/namespaces/inkscape"
   xmlns:sodipodi="http://sodipodi.sourceforge.net/DTD/sodipodi-0.dtd"
   xmlns:xlink="http://www.w3.org/1999/xlink"
   xmlns="http://www.w3.org/2000/svg"
   xmlns:svg="http://www.w3.org/2000/svg">
  <sodipodi:namedview
     id="namedview20"
     pagecolor="#505050"
     bordercolor="#eeeeee"
     borderopacity="1"
     inkscape:showpageshadow="0"
     inkscape:pageopacity="0"
     inkscape:pagecheckerboard="0"
     inkscape:deskcolor="#505050"
     inkscape:zoom="3.09375"
     inkscape:cx="94.383839"
     inkscape:cy="59.474748"
     inkscape:window-width="1920"
     inkscape:window-height="1051"
     inkscape:window-x="0"
     inkscape:window-y="0"
     inkscape:window-maximized="1"
     inkscape:current-layer="svg20" />
  <defs
     id="defs13">
    <linearGradient
       id="linearGradient39"
       x1="100"
       x2="133.19"
       y1="17.452999"
       y2="51.605999"
       gradientTransform="matrix(0.26458,0,0,0.26458,-20.10798,-0.1353581)"
       gradientUnits="userSpaceOnUse">
      <stop
         stop-color="#646464"
         offset="0"
         id="stop38"
         style="stop-color:#313131;stop-opacity:1" />
      <stop
         stop-color="#3c3c3c"
         offset="1"
         id="stop39"
         style="stop-color:#151515;stop-opacity:1" />
    </linearGradient>
    <linearGradient
       id="linearGradient34"
       x1="100"
       x2="133.19"
       y1="17.452999"
       y2="51.605999"
       gradientTransform="matrix(0.26458,0,0,0.26458,-20.10798,-0.1353581)"
       gradientUnits="userSpaceOnUse">
      <stop
         stop-color="#646464"
         offset="0"
         id="stop33"
         style="stop-color:#222222;stop-opacity:1" />
      <stop
         stop-color="#3c3c3c"
         offset="1"
         id="stop34"
         style="stop-color:#1d1d1d;stop-opacity:1" />
    </linearGradient>
    <linearGradient
       id="linearGradient32"
       x1="100"
       x2="133.19"
       y1="17.452999"
       y2="51.605999"
       gradientTransform="matrix(0.26458,0,0,0.26458,-20.10798,-0.1353581)"
       gradientUnits="userSpaceOnUse">
      <stop
         stop-color="#646464"
         offset="0"
         id="stop31"
         style="stop-color:#313131;stop-opacity:1" />
      <stop
         stop-color="#3c3c3c"
         offset="1"
         id="stop32"
         style="stop-color:#161616;stop-opacity:1" />
    </linearGradient>
    <linearGradient
       id="linearGradient30"
       x1="100"
       x2="133.19"
       y1="17.452999"
       y2="51.605999"
       gradientTransform="matrix(0.26458,0,0,0.26458,-26.458,2.5104)"
       gradientUnits="userSpaceOnUse">
      <stop
         stop-color="#fce798"
         offset="0"
         id="stop29"
         style="stop-color:#303030;stop-opacity:1" />
      <stop
         stop-color="#ffc937"
         offset="1"
         id="stop30"
         style="stop-color:#161616;stop-opacity:1" />
    </linearGradient>
    <linearGradient
       id="linearGradient16"
       x1="100"
       x2="133.19"
       y1="17.452999"
       y2="51.605999"
       gradientTransform="matrix(0.26458,0,0,0.26458,-26.458,2.5104)"
       gradientUnits="userSpaceOnUse">
      <stop
         stop-color="#fce798"
         offset="0"
         id="stop15"
         style="stop-color:#242424;stop-opacity:1" />
      <stop
         stop-color="#ffc937"
         offset="1"
         id="stop16"
         style="stop-color:#a57001;stop-opacity:1" />
    </linearGradient>
    <linearGradient
       id="linearGradient24"
       x1="100"
       x2="133.19"
       y1="17.452999"
       y2="51.605999"
       gradientTransform="matrix(0.26458,0,0,0.26458,-26.458,2.5104)"
       gradientUnits="userSpaceOnUse">
      <stop
         stop-color="#fce798"
         offset="0"
         id="stop23"
         style="stop-color:#bd8f0d;stop-opacity:1" />
      <stop
         stop-color="#ffc937"
         offset="1"
         id="stop24"
         style="stop-color:#a57001;stop-opacity:1" />
    </linearGradient>
    <linearGradient
       id="b"
       x1="445.28"
       x2="445.28"
       y1="179.28"
       y2="200.07"
       gradientTransform="matrix(0.38956,0,0,0.38184,-146.04804,-63.44)"
       gradientUnits="userSpaceOnUse">
      <stop
         stop-color="#60c0f0"
         offset="0"
         id="stop1" />
      <stop
         stop-color="#83d4fb"
         offset="1"
         id="stop2" />
    </linearGradient>
    <linearGradient
       id="c"
       x1="8.467"
       x2="8.467"
       y1="293.3"
       y2="292.77"
       gradientTransform="translate(19.471957,-280.07)"
       gradientUnits="userSpaceOnUse">
      <stop
         stop-color="#008ea2"
         stop-opacity=".25"
         offset="0"
         id="stop3" />
      <stop
         stop-color="#fff"
         stop-opacity=".15"
         offset="1"
         id="stop4" />
    </linearGradient>
    <linearGradient
       id="d"
       x1="8.467"
       x2="8.467"
       y1="294.62"
       y2="293.56"
       gradientTransform="matrix(0.99998,0,0,0.99998,19.471957,-280.06)"
       gradientUnits="userSpaceOnUse">
      <stop
         stop-color="#008ea2"
         stop-opacity=".251"
         offset="0"
         id="stop5" />
      <stop
         stop-color="#008ea2"
         stop-opacity=".15"
         offset=".757"
         id="stop6" />
      <stop
         stop-color="#fff"
         stop-opacity=".15"
         offset="1"
         id="stop7" />
    </linearGradient>
    <linearGradient
       id="a"
       x1="6.879"
       x2="6.879"
       y1="285.36"
       y2="283.77"
       gradientTransform="matrix(0.99998,0,0,0.99998,19.471957,-280.06)"
       gradientUnits="userSpaceOnUse">
      <stop
         offset="0"
         id="stop8" />
      <stop
         stop-opacity="0"
         offset="1"
         id="stop9" />
    </linearGradient>
    <linearGradient
       id="e"
       x1="1.058"
       x2="15.875"
       y1="289.59"
       y2="289.59"
       gradientTransform="translate(19.471957,-280.07)"
       gradientUnits="userSpaceOnUse">
      <stop
         stop-color="#46a2d7"
         stop-opacity=".5"
         offset="0"
         id="stop10" />
      <stop
         stop-color="#46a2d7"
         stop-opacity="0"
         offset=".108"
         id="stop11" />
      <stop
         stop-color="#46a2d7"
         stop-opacity=".096"
         offset=".894"
         id="stop12" />
      <stop
         stop-color="#46a2d7"
         stop-opacity=".5"
         offset="1"
         id="stop13" />
    </linearGradient>
    <linearGradient
       id="linearGradient1911"
       x1="25.084999"
       x2="25.084999"
       y1="24.031"
       y2="26.412001"
       gradientTransform="translate(-24.247,-18.739)"
       gradientUnits="userSpaceOnUse">
      <stop
         stop-color="#fcbc19"
         stop-opacity=".99608"
         offset="0"
         id="stop7-1" />
      <stop
         stop-color="#f4b61f"
         offset="1"
         id="stop8-7" />
    </linearGradient>
    <linearGradient
       id="linearGradient4625"
       x1="0.52917999"
       x2="16.403999"
       y1="5.0665002"
       y2="5.0665002"
       gradientTransform="translate(-6.3499,2.6458)"
       gradientUnits="userSpaceOnUse">
      <stop
         stop-color="#b78815"
         offset="0"
         id="stop9-8" />
      <stop
         stop-color="#e2b24b"
         stop-opacity="0"
         offset="1"
         id="stop10-5" />
    </linearGradient>
    <linearGradient
       id="linearGradient1951"
       x1="100"
       x2="133.19"
       y1="17.452999"
       y2="51.605999"
       gradientTransform="matrix(0.26458,0,0,0.26458,-26.458,2.5104)"
       gradientUnits="userSpaceOnUse">
      <stop
         stop-color="#fce798"
         offset="0"
         id="stop11-7" />
      <stop
         stop-color="#ffc937"
         offset="1"
         id="stop12-4" />
    </linearGradient>
    <linearGradient
       id="linearGradient11110"
       x1="0.52916998"
       x2="16.403999"
       y1="5.3814998"
       y2="5.3814998"
       gradientTransform="translate(-6.3499,2.6458)"
       gradientUnits="userSpaceOnUse">
      <stop
         stop-color="#fff"
         offset="0"
         id="stop13-1" />
      <stop
         stop-color="#fff"
         stop-opacity="0"
         offset="1"
         id="stop14" />
    </linearGradient>
    <linearGradient
       id="linearGradient1118"
       x1="20.108"
       x2="20.108"
       y1="6.3498998"
       y2="13.493"
       gradientTransform="translate(-26.358768,-0.13233805)"
       gradientUnits="userSpaceOnUse">
      <stop
         stop-color="#be900d"
         offset="0"
         id="stop5-8" />
      <stop
         stop-color="#a57001"
         offset="1"
         id="stop6-5" />
    </linearGradient>
    <linearGradient
       id="linearGradient1911-1"
       x1="25.084999"
       x2="25.084999"
       y1="24.031"
       y2="26.412001"
       gradientTransform="translate(-17.89698,-21.384758)"
       gradientUnits="userSpaceOnUse">
      <stop
         stop-color="#3c3c3c"
         offset="0"
         id="stop5-2" />
      <stop
         stop-color="#2d2d2d"
         offset="1"
         id="stop6-9" />
    </linearGradient>
    <linearGradient
       id="linearGradient4625-3"
       x1="0.52917999"
       x2="16.403999"
       y1="5.0665002"
       y2="5.0665002"
       gradientTransform="translate(2.02e-5,4.19e-5)"
       gradientUnits="userSpaceOnUse">
      <stop
         stop-color="#b78815"
         offset="0"
         id="stop7-9" />
      <stop
         stop-color="#e2b24b"
         stop-opacity="0"
         offset="1"
         id="stop8-0" />
    </linearGradient>
    <linearGradient
       id="linearGradient1951-8"
       x1="100"
       x2="133.19"
       y1="17.452999"
       y2="51.605999"
       gradientTransform="matrix(0.26458,0,0,0.26458,-20.10798,-0.1353581)"
       gradientUnits="userSpaceOnUse">
      <stop
         stop-color="#646464"
         offset="0"
         id="stop9-85" />
      <stop
         stop-color="#3c3c3c"
         offset="1"
         id="stop10-0" />
    </linearGradient>
    <linearGradient
       id="linearGradient11110-9"
       x1="0.52916998"
       x2="16.403999"
       y1="5.3814998"
       y2="5.3814998"
       gradientTransform="translate(2.02e-5,4.19e-5)"
       gradientUnits="userSpaceOnUse">
      <stop
         stop-color="#fff"
         offset="0"
         id="stop11-6" />
      <stop
         stop-color="#fff"
         stop-opacity="0"
         offset="1"
         id="stop12-3" />
    </linearGradient>
    <linearGradient
       id="linearGradient79069"
       x1="8.5258999"
       x2="8.5258999"
       y1="6.0935998"
       y2="13.269"
       gradientUnits="userSpaceOnUse"
       gradientTransform="translate(-18.141554,0.1322419)">
      <stop
         stop-color="#323232"
         offset="0"
         id="stop13-8" />
      <stop
         stop-color="#141414"
         offset="1"
         id="stop14-5" />
    </linearGradient>
    <linearGradient
       inkscape:collect="always"
       xlink:href="#linearGradient39"
       id="linearGradient38"
       x1="8.5520201"
       y1="6.4353952"
       x2="8.5520201"
       y2="13.361195"
       gradientUnits="userSpaceOnUse" />
  </defs>
  <path
     d="m 1.1975202,2.2489419 c -0.3653,0 -0.66145,0.32575 -0.66145,0.7275901 v 2.9636 c -0.0026,0.02629 -0.0072,0.052 -0.0072,0.07906 v 7.9373 c 0,0.40184 0.29614,0.72759 0.66144,0.72759 H 15.74231 c 0.36531,0 0.66144,-0.32575 0.66144,-0.72759 V 4.5634918 c 0,-0.40184 -0.29614,-0.72759 -0.66144,-0.72759 v 5.161e-4 H 7.5430102 l -0.89864,-1.1095 c 0,0 -0.36607,-0.478 -1.0583,-0.478 h -1.3229 z"
     color="#000000"
     color-rendering="auto"
     dominant-baseline="auto"
     fill="url(#linearGradient1911)"
     image-rendering="auto"
     shape-rendering="auto"
     solid-color="#000000"
     stop-color="#000000"
     style="font-variant-ligatures:normal;font-variant-position:normal;font-variant-caps:normal;font-variant-numeric:normal;font-variant-alternates:normal;font-variant-east-asian:normal;font-feature-settings:normal;font-variation-settings:normal;text-indent:0;text-decoration-line:none;text-decoration-style:solid;text-decoration-color:#000000;text-transform:none;text-orientation:mixed;white-space:normal;shape-padding:0;shape-margin:0;inline-size:0;isolation:auto;mix-blend-mode:normal;fill:url(#linearGradient1911-1)"
     id="path14" />
  <path
     d="m 8.3606202,3.836442 c -0.11312,0.0018 -0.30848,-0.01542 -0.51986,0.09508 -0.73647,0.37946 -0.77226,0.59366 -1.557,0.7141499 h -4.9608 c -0.21986,0 -0.41824,0.08855 -0.56171,0.23202 -0.13937,0.13936 -0.22041,0.33333 -0.2253,0.5456901 v 0.2775 c 0.0049,-0.2123601 0.08593,-0.4063301 0.2253,-0.5456901 0.14347,-0.14347 0.34185,-0.2320199 0.56171,-0.2320199 h 4.9608 c 0.78472,-0.1205001 0.82051,-0.33469 1.557,-0.71415 0.21138,-0.1105001 0.40673,-0.09328 0.51986,-0.09508 H 15.74342 c 0.18216,3.649e-4 0.3472,0.08101 0.46663,0.21239 0.1197,0.13167 0.19378,0.31377 0.19378,0.5146899 v -0.2775 c 0,-0.20092 -0.07408,-0.38302 -0.19378,-0.51469 C 16.09062,3.917462 15.92558,3.8368119 15.74342,3.836442 h -1.1652 z m -7.8247,2.1036999 c -0.0026,0.02629 -0.0067,0.05201 -0.0067,0.07906 v 0.2774999 c 0,-0.02705 0.0041,-0.05277 0.0067,-0.07906 z"
     fill="url(#linearGradient4625)"
     opacity="0.00100002"
     stroke-width="0.26458"
     id="path15"
     style="fill:url(#linearGradient4625-3)" />
  <path
     d="m 0.5292202,13.674242 v 0.28215 c 0,0.20092 0.07357,0.3825 0.19327,0.51417 0.1197,0.13167 0.28553,0.21342 0.46818,0.21342 H 15.74267 c 0.18265,0 0.34796,-0.08175 0.46766,-0.21342 0.1197,-0.13167 0.19378,-0.31325 0.19378,-0.51417 v -0.28215 c 0,0.20092 -0.07409,0.3825 -0.19378,0.51417 -0.1197,0.13167 -0.28501,0.21342 -0.46766,0.21342 H 1.1906702 c -0.18265,0 -0.34848,-0.08176 -0.46818,-0.21342 -0.1197,-0.13166 -0.19327,-0.31325 -0.19327,-0.51417 z"
     fill="#232323"
     stroke-width="0.26458"
     id="path16" />
  <path
     d="m 7.5420202,4.0978418 c 0,0 -0.35919,0.4786801 -1.1575,0.79218 -0.03271,0.00587 -0.06509,0.011575 -0.10077,0.017052 h -4.9608 c -0.21986,0 -0.41824,0.088552 -0.56171,0.2320201 -0.13937,0.13936 -0.22042,0.33333 -0.2253,0.54569 v 0.51675 c -0.0026,0.026291 -0.0067,0.052014 -0.0067,0.079064 v 7.3953001 c 0,0.20092 0.07357,0.3825 0.19327,0.51417 0.1197,0.13167 0.28553,0.21342 0.46818,0.21342 H 15.74269 c 0.18265,0 0.34796,-0.08175 0.46766,-0.21342 0.1197,-0.13167 0.19378,-0.31325 0.19378,-0.51417 V 4.8248978 c 0,-0.20092 -0.07408,-0.38302 -0.19378,-0.51469 -0.11945,-0.13137 -0.28449,-0.2120199 -0.46665,-0.21239 H 8.2616002 Z"
     fill="url(#linearGradient1951)"
     id="path17"
     style="fill:url(#linearGradient1951-8)" />
  <path
     d="m 7.5420202,4.0978418 c 0,0 -0.35919,0.4786801 -1.1575,0.79218 -0.03271,0.00587 -0.06509,0.011575 -0.10077,0.017052 h -4.9608 c -0.21986,0 -0.41824,0.088552 -0.56171,0.2320201 -0.13937,0.13936 -0.22041,0.33333 -0.2253,0.54569 v 0.38446 c 0.0049,-0.21236 0.08593,-0.40633 0.2253,-0.54569 0.14347,-0.14347 0.34185,-0.23202 0.56171,-0.23202 h 4.9608 c 0.03568,-0.00548 0.06806,-0.011184 0.10077,-0.017052 0.75911,-0.2630301 1.2883,-0.79218 1.2883,-0.79218 H 15.74352 c 0.18216,3.704e-4 0.34718,0.081016 0.46663,0.21239 0.1197,0.1316699 0.19378,0.3137699 0.19378,0.5146899 V 4.8249219 c 0,-0.20092 -0.07408,-0.38302 -0.19378,-0.5146899 C 16.0907,4.1788619 15.92568,4.0982118 15.74352,4.0978418 H 8.2614202 Z m -7.0062,2.1037001 c -0.0026,0.026291 -0.0067,0.052013 -0.0067,0.079063 V 6.665075 c 0,-0.02705 0.0041,-0.052773 0.0067,-0.079063 z"
     fill="url(#linearGradient11110)"
     opacity="0.3"
     id="path18"
     style="fill:url(#linearGradient11110-9)" />
  <path
     id="path19"
     style="fill:url(#linearGradient38);fill-opacity:1;stroke-width:0.286626"
     d="M 10.473056 6.4821641 A 1.7197578 1.7197578 0 0 0 8.7532986 8.2019219 A 1.7197578 1.7197578 0 0 0 9.0395804 9.1506825 L 9.0395804 11.107114 A 1.1465052 1.1465052 0 0 0 8.6887043 11.26369 L 7.0304402 10.428616 A 1.1465052 1.1465052 0 0 0 5.8868633 9.3485993 A 1.1465052 1.1465052 0 0 0 4.7401858 10.49476 A 1.1465052 1.1465052 0 0 0 5.8868633 11.641437 A 1.1465052 1.1465052 0 0 0 6.5193704 11.443004 L 8.184869 12.282213 A 1.1465052 1.1465052 0 0 0 9.3263789 13.361195 A 1.1465052 1.1465052 0 0 0 10.473056 12.214518 A 1.1465052 1.1465052 0 0 0 10.156286 11.426985 L 11.230101 9.7377152 A 1.7197578 1.7197578 0 0 0 12.192814 8.2019219 A 1.7197578 1.7197578 0 0 0 10.473056 6.4821641 z M 10.473056 7.0552444 A 1.1465052 1.1465052 0 0 1 11.619217 8.2019219 A 1.1465052 1.1465052 0 0 1 10.473056 9.3485993 A 1.1465052 1.1465052 0 0 1 9.3263789 8.2019219 A 1.1465052 1.1465052 0 0 1 10.473056 7.0552444 z M 10.473056 7.6288415 A 0.5732526 0.5732526 0 0 0 9.8994593 8.2019219 A 0.5732526 0.5732526 0 0 0 10.473056 8.7750022 A 0.5732526 0.5732526 0 0 0 11.046137 8.2019219 A 0.5732526 0.5732526 0 0 0 10.473056 7.6288415 z M 5.8868633 9.6348811 A 0.8598789 0.8598789 0 0 1 6.7162537 10.270489 L 6.1442068 9.9821399 C 5.863124 9.8405615 5.5205008 9.9519837 5.3763102 10.231732 C 5.2321195 10.511481 5.3427525 10.850299 5.6238354 10.991878 L 6.2144854 11.289528 A 0.8598789 0.8598789 0 0 1 5.8868633 11.354639 A 0.8598789 0.8598789 0 0 1 5.0269844 10.49476 A 0.8598789 0.8598789 0 0 1 5.8868633 9.6348811 z M 9.3263789 11.354639 A 0.8598789 0.8598789 0 0 1 10.186258 12.214518 A 0.8598789 0.8598789 0 0 1 9.3263789 13.074397 A 0.8598789 0.8598789 0 0 1 8.4985388 12.440339 L 9.0690353 12.727655 C 9.3501182 12.869233 9.6922246 12.757811 9.8364153 12.478062 C 9.9806059 12.198314 9.8704896 11.858979 9.5894068 11.7174 L 9.0018573 11.4213 A 0.8598789 0.8598789 0 0 1 9.3263789 11.354639 z " />
</svg>
