<?xml version="1.0" encoding="UTF-8" standalone="no"?>
<svg
   width="64"
   height="64"
   viewBox="0 0 16.933 16.933"
   version="1.1"
   id="svg18"
   sodipodi:docname="folder-projects.svg"
   inkscape:version="1.4 (e7c3feb100, 2024-10-09)"
   xmlns:inkscape="http://www.inkscape.org/namespaces/inkscape"
   xmlns:sodipodi="http://sodipodi.sourceforge.net/DTD/sodipodi-0.dtd"
   xmlns:xlink="http://www.w3.org/1999/xlink"
   xmlns="http://www.w3.org/2000/svg"
   xmlns:svg="http://www.w3.org/2000/svg">
  <sodipodi:namedview
     id="namedview18"
     pagecolor="#505050"
     bordercolor="#eeeeee"
     borderopacity="1"
     inkscape:showpageshadow="0"
     inkscape:pageopacity="0"
     inkscape:pagecheckerboard="0"
     inkscape:deskcolor="#505050"
     inkscape:zoom="4.1321553"
     inkscape:cx="24.200446"
     inkscape:cy="44.52882"
     inkscape:window-width="1920"
     inkscape:window-height="1051"
     inkscape:window-x="0"
     inkscape:window-y="0"
     inkscape:window-maximized="1"
     inkscape:current-layer="svg18" />
  <defs
     id="defs13">
    <linearGradient
       id="linearGradient1"
       inkscape:collect="always">
      <stop
         style="stop-color:#323232;stop-opacity:1"
         offset="0"
         id="stop15" />
      <stop
         style="stop-color:#151515;stop-opacity:1"
         offset="1"
         id="stop16" />
    </linearGradient>
    <linearGradient
       id="b"
       x1="445.28"
       x2="445.28"
       y1="179.28"
       y2="200.07"
       gradientTransform="matrix(0.38956,0,0,0.38184,-136.38677,-63.44)"
       gradientUnits="userSpaceOnUse">
      <stop
         stop-color="#60c0f0"
         offset="0"
         id="stop1" />
      <stop
         stop-color="#83d4fb"
         offset="1"
         id="stop2" />
    </linearGradient>
    <linearGradient
       id="c"
       x1="8.467"
       x2="8.467"
       y1="293.3"
       y2="292.77"
       gradientTransform="translate(29.133234,-280.07)"
       gradientUnits="userSpaceOnUse">
      <stop
         stop-color="#008ea2"
         stop-opacity=".25"
         offset="0"
         id="stop3" />
      <stop
         stop-color="#fff"
         stop-opacity=".15"
         offset="1"
         id="stop4" />
    </linearGradient>
    <linearGradient
       id="d"
       x1="8.467"
       x2="8.467"
       y1="294.62"
       y2="293.56"
       gradientTransform="matrix(0.99998,0,0,0.99998,29.133234,-280.06)"
       gradientUnits="userSpaceOnUse">
      <stop
         stop-color="#008ea2"
         stop-opacity=".251"
         offset="0"
         id="stop5" />
      <stop
         stop-color="#008ea2"
         stop-opacity=".15"
         offset=".757"
         id="stop6" />
      <stop
         stop-color="#fff"
         stop-opacity=".15"
         offset="1"
         id="stop7" />
    </linearGradient>
    <linearGradient
       id="a"
       x1="6.879"
       x2="6.879"
       y1="285.36"
       y2="283.77"
       gradientTransform="matrix(0.99998,0,0,0.99998,29.133234,-280.06)"
       gradientUnits="userSpaceOnUse">
      <stop
         offset="0"
         id="stop8" />
      <stop
         stop-opacity="0"
         offset="1"
         id="stop9" />
    </linearGradient>
    <linearGradient
       id="e"
       x1="1.058"
       x2="15.875"
       y1="289.59"
       y2="289.59"
       gradientTransform="translate(29.133234,-280.07)"
       gradientUnits="userSpaceOnUse">
      <stop
         stop-color="#46a2d7"
         stop-opacity=".5"
         offset="0"
         id="stop10" />
      <stop
         stop-color="#46a2d7"
         stop-opacity="0"
         offset=".108"
         id="stop11" />
      <stop
         stop-color="#46a2d7"
         stop-opacity=".096"
         offset=".894"
         id="stop12" />
      <stop
         stop-color="#46a2d7"
         stop-opacity=".5"
         offset="1"
         id="stop13" />
    </linearGradient>
    <filter
       color-interpolation-filters="sRGB"
       height="1.0264005"
       width="1.0219998"
       y="-0.013200229"
       x="-0.010999908"
       id="filter1733">
      <feGaussianBlur
         id="feGaussianBlur869"
         stdDeviation="0.072761339" />
    </filter>
    <linearGradient
       gradientUnits="userSpaceOnUse"
       gradientTransform="matrix(0.26458,0,0,0.26458,-0.79373,-39.158)"
       y2="166"
       y1="155"
       x2="25"
       x1="25"
       id="linearGradient1387">
      <stop
         id="stop850"
         offset="0"
         stop-color="#3296d7" />
      <stop
         id="stop852"
         offset="1"
         stop-color="#0a7db4" />
    </linearGradient>
    <filter
       color-interpolation-filters="sRGB"
       height="1.2969998"
       width="1.0296998"
       y="-0.14849988"
       x="-0.014849913"
       id="filter935">
      <feGaussianBlur
         id="feGaussianBlur872"
         stdDeviation="0.098224626" />
    </filter>
    <linearGradient
       gradientUnits="userSpaceOnUse"
       gradientTransform="matrix(0.26458,0,0,0.26458,-0.79374,-39.158)"
       y2="185"
       y1="185"
       x2="65"
       x1="5"
       id="linearGradient1401">
      <stop
         id="stop855"
         offset="0"
         stop-color="#3492cb" />
      <stop
         id="stop857"
         offset=".083713"
         stop-color="#6ec8fa" />
      <stop
         id="stop859"
         offset=".91237"
         stop-color="#6ec8fa" />
      <stop
         id="stop861"
         offset="1"
         stop-color="#3492cb" />
    </linearGradient>
    <linearGradient
       gradientUnits="userSpaceOnUse"
       gradientTransform="matrix(0.18168,0,0,0.40956,9.2005,-451.88)"
       y2="1140.2"
       y1="1138.4"
       x2="-9.6169996"
       x1="-9.6169996"
       id="linearGradient1438">
      <stop
         id="stop864"
         offset="0"
         stop-opacity="0"
         stop-color="#1482be" />
      <stop
         id="stop866"
         offset="1"
         stop-color="#1482be" />
    </linearGradient>
    <linearGradient
       id="linearGradient1911"
       x1="25.084999"
       x2="25.084999"
       y1="24.031"
       y2="26.412001"
       gradientTransform="translate(-24.247,-18.739)"
       gradientUnits="userSpaceOnUse">
      <stop
         stop-color="#fcbc19"
         stop-opacity=".99608"
         offset="0"
         id="stop7-8" />
      <stop
         stop-color="#f4b61f"
         offset="1"
         id="stop8-1" />
    </linearGradient>
    <linearGradient
       id="linearGradient4625"
       x1="0.52917999"
       x2="16.403999"
       y1="5.0665002"
       y2="5.0665002"
       gradientTransform="translate(-6.3499,2.6458)"
       gradientUnits="userSpaceOnUse">
      <stop
         stop-color="#b78815"
         offset="0"
         id="stop9-0" />
      <stop
         stop-color="#e2b24b"
         stop-opacity="0"
         offset="1"
         id="stop10-3" />
    </linearGradient>
    <linearGradient
       id="linearGradient1951"
       x1="100"
       x2="133.19"
       y1="17.452999"
       y2="51.605999"
       gradientTransform="matrix(0.26458,0,0,0.26458,-26.458,2.5104)"
       gradientUnits="userSpaceOnUse">
      <stop
         stop-color="#fce798"
         offset="0"
         id="stop11-0" />
      <stop
         stop-color="#ffc937"
         offset="1"
         id="stop12-4" />
    </linearGradient>
    <linearGradient
       id="linearGradient11110"
       x1="0.52916998"
       x2="16.403999"
       y1="5.3814998"
       y2="5.3814998"
       gradientTransform="translate(-6.3499,2.6458)"
       gradientUnits="userSpaceOnUse">
      <stop
         stop-color="#fff"
         offset="0"
         id="stop13-4" />
      <stop
         stop-color="#fff"
         stop-opacity="0"
         offset="1"
         id="stop14" />
    </linearGradient>
    <linearGradient
       id="linearGradient1118"
       x1="20.108"
       x2="20.108"
       y1="6.3498998"
       y2="13.493"
       gradientTransform="translate(-26.376553,-0.132338)"
       gradientUnits="userSpaceOnUse">
      <stop
         stop-color="#be900d"
         offset="0"
         id="stop5-4" />
      <stop
         stop-color="#a57001"
         offset="1"
         id="stop6-4" />
    </linearGradient>
    <linearGradient
       inkscape:collect="always"
       xlink:href="#linearGradient1"
       id="linearGradient16"
       x1="8.082963"
       y1="6.4821501"
       x2="8.082963"
       y2="13.361182"
       gradientUnits="userSpaceOnUse"
       gradientTransform="translate(0.2490147)" />
    <linearGradient
       id="linearGradient1911-2"
       x1="25.084999"
       x2="25.084999"
       y1="24.031"
       y2="26.412001"
       gradientTransform="translate(-40.4843,-29.067687)"
       gradientUnits="userSpaceOnUse">
      <stop
         stop-color="#3c3c3c"
         offset="0"
         id="stop5-0" />
      <stop
         stop-color="#2d2d2d"
         offset="1"
         id="stop6-6" />
    </linearGradient>
    <linearGradient
       id="linearGradient4625-8"
       x1="0.52917999"
       x2="16.403999"
       y1="5.0665002"
       y2="5.0665002"
       gradientTransform="translate(-22.5873,-7.6828865)"
       gradientUnits="userSpaceOnUse">
      <stop
         stop-color="#b78815"
         offset="0"
         id="stop7-9" />
      <stop
         stop-color="#e2b24b"
         stop-opacity="0"
         offset="1"
         id="stop8-2" />
    </linearGradient>
    <linearGradient
       id="linearGradient1951-6"
       x1="100"
       x2="133.19"
       y1="17.452999"
       y2="51.605999"
       gradientTransform="matrix(0.26458,0,0,0.26458,-42.6953,-7.8182865)"
       gradientUnits="userSpaceOnUse">
      <stop
         stop-color="#646464"
         offset="0"
         id="stop9-6" />
      <stop
         stop-color="#3c3c3c"
         offset="1"
         id="stop10-4" />
    </linearGradient>
    <linearGradient
       id="linearGradient11110-9"
       x1="0.52916998"
       x2="16.403999"
       y1="5.3814998"
       y2="5.3814998"
       gradientTransform="translate(-22.5873,-7.6828865)"
       gradientUnits="userSpaceOnUse">
      <stop
         stop-color="#fff"
         offset="0"
         id="stop11-5" />
      <stop
         stop-color="#fff"
         stop-opacity="0"
         offset="1"
         id="stop12-0" />
    </linearGradient>
    <linearGradient
       id="linearGradient79069"
       x1="8.5258999"
       x2="8.5258999"
       y1="6.0935998"
       y2="13.269"
       gradientUnits="userSpaceOnUse"
       gradientTransform="translate(-22.5873,-7.5506865)">
      <stop
         stop-color="#323232"
         offset="0"
         id="stop13-48" />
      <stop
         stop-color="#141414"
         offset="1"
         id="stop14-7" />
    </linearGradient>
  </defs>
  <g
     id="g1"
     transform="translate(22.58732,7.6829285)">
    <path
       d="m -21.3898,-5.4339865 c -0.3653,0 -0.66145,0.32575 -0.66145,0.72759 v 2.9636 c -0.0026,0.02629 -0.0072,0.052 -0.0072,0.07906 v 7.9372999 c 0,0.40184 0.29614,0.72759 0.66144,0.72759 h 14.5519995 c 0.36531,0 0.66144,-0.32575 0.66144,-0.72759 v -9.3929999 c 0,-0.40184 -0.29614,-0.72759 -0.66144,-0.72759 v 5.16e-4 H -15.04431 l -0.89864,-1.1095 c 0,0 -0.36607,-0.478 -1.0583,-0.478 h -1.3229 z"
       color="#000000"
       color-rendering="auto"
       dominant-baseline="auto"
       fill="url(#linearGradient1911)"
       image-rendering="auto"
       shape-rendering="auto"
       solid-color="#000000"
       stop-color="#000000"
       style="font-variant-ligatures:normal;font-variant-position:normal;font-variant-caps:normal;font-variant-numeric:normal;font-variant-alternates:normal;font-variant-east-asian:normal;font-feature-settings:normal;font-variation-settings:normal;text-indent:0;text-decoration-line:none;text-decoration-style:solid;text-decoration-color:#000000;text-transform:none;text-orientation:mixed;white-space:normal;shape-padding:0;shape-margin:0;inline-size:0;isolation:auto;mix-blend-mode:normal;fill:url(#linearGradient1911-2)"
       id="path14" />
    <path
       d="m -14.2267,-3.8464865 c -0.11312,0.0018 -0.30848,-0.01542 -0.51986,0.09508 -0.73647,0.37946 -0.77226,0.59366 -1.557,0.71415 h -4.9608 c -0.21986,0 -0.41824,0.08855 -0.56171,0.23202 -0.13937,0.13936 -0.22041,0.33333 -0.2253,0.54569 v 0.2775 c 0.0049,-0.21236 0.08593,-0.40633 0.2253,-0.54569 0.14347,-0.14347 0.34185,-0.23202 0.56171,-0.23202 h 4.9608 c 0.78472,-0.1205 0.82051,-0.33469 1.557,-0.71415 0.21138,-0.1105 0.40673,-0.09328 0.51986,-0.09508 h 7.3827995 c 0.18216,3.65e-4 0.3472,0.08101 0.46663,0.21239 0.1197,0.13167 0.19378,0.31377 0.19378,0.51469 v -0.2775 c 0,-0.20092 -0.07408,-0.38302 -0.19378,-0.51469 -0.11943,-0.13137 -0.28447,-0.21202 -0.46663,-0.21239 h -1.1652 z m -7.8247,2.1037 c -0.0026,0.02629 -0.0067,0.05201 -0.0067,0.07906 v 0.2775 c 0,-0.02705 0.0041,-0.05277 0.0067,-0.07906 z"
       fill="url(#linearGradient4625)"
       opacity="0.00100002"
       stroke-width="0.26458"
       id="path15"
       style="fill:url(#linearGradient4625-8)" />
    <path
       d="m -22.0581,5.9913134 v 0.28215 c 0,0.20092 0.07357,0.3825 0.19327,0.51417 0.1197,0.13167 0.28553,0.21342 0.46818,0.21342 h 14.5519995 c 0.18265,0 0.34796,-0.08175 0.46766,-0.21342 0.1197,-0.13167 0.19378,-0.31325 0.19378,-0.51417 v -0.28215 c 0,0.20092 -0.07409,0.3825 -0.19378,0.51417 -0.1197,0.13167 -0.28501,0.21342 -0.46766,0.21342 H -21.39665 c -0.18265,0 -0.34848,-0.08176 -0.46818,-0.21342 -0.1197,-0.13166 -0.19327,-0.31325 -0.19327,-0.51417 z"
       fill="#232323"
       stroke-width="0.26458"
       id="path16" />
    <path
       d="m -15.0453,-3.5850865 c 0,0 -0.35919,0.47868 -1.1575,0.79218 -0.03271,0.00587 -0.06509,0.011575 -0.10077,0.017052 h -4.9608 c -0.21986,0 -0.41824,0.088552 -0.56171,0.23202 -0.13937,0.13936 -0.22042,0.33333 -0.2253,0.54569 v 0.51675 c -0.0026,0.026291 -0.0067,0.052014 -0.0067,0.079064 v 7.3952999 c 0,0.20092 0.07357,0.3825 0.19327,0.51417 0.1197,0.13167 0.28553,0.21342 0.46818,0.21342 h 14.5519995 c 0.18265,0 0.34796,-0.08175 0.46766,-0.21342 0.1197,-0.13167 0.19378,-0.31325 0.19378,-0.51417 v -8.8509999 c 0,-0.20092 -0.07408,-0.38302 -0.19378,-0.51469 -0.11945,-0.13137 -0.28449,-0.21202 -0.46665,-0.21239 H -14.32572 Z"
       fill="url(#linearGradient1951)"
       id="path17"
       style="fill:url(#linearGradient1951-6)" />
    <path
       d="m -15.0453,-3.5850865 c 0,0 -0.35919,0.47868 -1.1575,0.79218 -0.03271,0.00587 -0.06509,0.011575 -0.10077,0.017052 h -4.9608 c -0.21986,0 -0.41824,0.088552 -0.56171,0.23202 -0.13937,0.13936 -0.22041,0.33333 -0.2253,0.54569 v 0.38446 c 0.0049,-0.21236 0.08593,-0.40633 0.2253,-0.54569 0.14347,-0.14347 0.34185,-0.23202 0.56171,-0.23202 h 4.9608 c 0.03568,-0.00548 0.06806,-0.011184 0.10077,-0.017052 0.75911,-0.26303 1.2883,-0.79218 1.2883,-0.79218 h 8.0706995 c 0.18216,3.704e-4 0.34718,0.081016 0.46663,0.21239 0.1197,0.13167 0.19378,0.31377 0.19378,0.51469 v -0.38446 c 0,-0.20092 -0.07408,-0.38302 -0.19378,-0.51469 -0.11945,-0.13137 -0.28447,-0.21202 -0.46663,-0.21239 H -14.3259 Z m -7.0062,2.1037 c -0.0026,0.026291 -0.0067,0.052013 -0.0067,0.079063 v 0.38447 c 0,-0.02705 0.0041,-0.052773 0.0067,-0.079063 z"
       fill="url(#linearGradient11110)"
       opacity="0.3"
       id="path18"
       style="fill:url(#linearGradient11110-9)" />
  </g>
  <path
     class="st0"
     d="m 11.404754,10.74977 0.212764,0.212766 c 0.05599,0.05599 0.05599,0.145576 0,0.201567 l -0.173572,0.172451 c 0.0448,0.08958 0.08399,0.184769 0.106383,0.285553 h 0.223963 c 0.07839,0 0.145576,0.06719 0.145576,0.145576 v 0.302351 c 0,0.07839 -0.06719,0.145576 -0.145576,0.145576 h -0.240761 c -0.02799,0.09407 -0.07279,0.189249 -0.123178,0.273235 l 0.156774,0.156775 c 0.05599,0.05599 0.05599,0.145576 0,0.201566 l -0.212765,0.212765 c -0.05599,0.05599 -0.145575,0.05599 -0.201568,0 L 10.980343,12.88526 c -0.08958,0.0448 -0.184769,0.08399 -0.285553,0.106383 v 0.223963 c 0,0.07839 -0.06719,0.145576 -0.145576,0.145576 h -0.30235 c -0.07839,0 -0.145577,-0.06719 -0.145577,-0.145576 v -0.24636 A 1.2094015,1.2094015 0 0 1 9.8280526,12.846067 L 9.671278,13.002841 c -0.055987,0.05599 -0.1455762,0.05599 -0.2015661,0 L 9.2569464,12.790076 a 0.14221666,0.14221666 0 0 1 0,-0.201567 L 9.430518,12.416057 A 1.2463554,1.2463554 0 0 1 9.3241347,12.130503 h -0.223964 c -0.07839,0 -0.1455762,-0.06719 -0.1455762,-0.145575 v -0.30235 c 0,-0.07839 0.067188,-0.145577 0.1455762,-0.145577 H 9.3409318 A 1.2094015,1.2094015 0 0 1 9.4641111,11.263766 L 9.3129363,11.112592 a 0.14221666,0.14221666 0 0 1 0,-0.201568 l 0.2127645,-0.212765 c 0.055987,-0.05599 0.1455761,-0.05599 0.2015671,0 l 0.1735717,0.174692 c 0.089581,-0.0448 0.1847694,-0.08399 0.2844334,-0.106384 v -0.223963 c 0,-0.07839 0.06719,-0.145576 0.145577,-0.145576 h 0.302351 c 0.07839,0 0.145575,0.06719 0.145575,0.145576 v 0.240761 c 0.09518,0.02799 0.190369,0.07279 0.274355,0.12318 l 0.156775,-0.156775 c 0.0448,-0.05599 0.138856,-0.05599 0.194848,0 z m -3.5789332,0.329226 c -0.07839,0 -0.1399764,-0.07839 -0.1399764,-0.167972 0,-0.09407 0.061587,-0.167973 0.1399764,-0.167973 h 0.6942867 c 0.07839,0 0.1388573,0.07839 0.1388573,0.167973 0,0.09518 -0.061587,0.167972 -0.1399775,0.167972 z m 0.2071669,1.683084 a 0.1679725,0.1679725 0 0 1 0,0.335945 H 5.9075756 A 0.39865457,0.39865457 0 0 1 5.5111612,12.701611 V 6.8785652 c 0,-0.1119816 0.044796,-0.2060462 0.1164605,-0.2788342 0.071673,-0.072788 0.167973,-0.1175807 0.2799539,-0.1175807 H 10.75638 a 0.39865457,0.39865457 0 0 1 0.397534,0.3975348 V 9.5806817 A 0.16797243,0.16797243 0 0 1 10.985943,9.7486542 0.16797243,0.16797243 0 0 1 10.81797,9.5806817 V 6.8796851 a 0.05039172,0.05039172 0 0 0 -0.0168,-0.039194 0.05039172,0.05039172 0 0 0 -0.0392,-0.016797 H 5.9075691 a 0.05039172,0.05039172 0 0 0 -0.039195,0.016797 c -0.011202,0.0056 -0.016792,0.022397 -0.016792,0.039194 v 5.8331229 c 0,0.01679 0.00563,0.02799 0.016792,0.03919 0.011202,0.0112 0.022392,0.01679 0.039195,0.01679 H 8.0329812 Z M 6.5615492,10.626591 H 7.160651 c 0.033594,0 0.055987,0.02239 0.055987,0.05599 v 0.515116 c 0,0.03359 -0.022393,0.05599 -0.055987,0.05599 H 6.5615492 c -0.033594,0 -0.055987,-0.02239 -0.055987,-0.05599 v -0.515116 c 0,-0.03359 0.022392,-0.05599 0.055987,-0.05599 z m 0,-2.9585553 H 7.160651 c 0.033594,0 0.055987,0.022397 0.055987,0.055991 v 0.5151154 c 0,0.033594 -0.022393,0.055991 -0.055987,0.055991 H 6.5615492 c -0.033594,0 -0.055987,-0.022397 -0.055987,-0.055991 V 7.7240265 c 0,-0.033594 0.022392,-0.055991 0.055987,-0.055991 z m 1.2642716,0.4524057 c -0.07839,0 -0.1399764,-0.078387 -0.1399764,-0.1679724 0,-0.094065 0.061587,-0.1679725 0.1399764,-0.1679725 h 1.9406421 c 0.07839,0 0.1399764,0.078387 0.1399764,0.1679725 0,0.096304 -0.061587,0.1679724 -0.1399764,0.1679724 z m -1.090701,1.5722219 c -0.039195,0.027995 -0.089581,0.022397 -0.128778,-0.016797 L 6.5951401,9.6646678 6.4159698,9.4798982 c -0.038068,-0.039194 -0.026878,-0.1007836 0.017918,-0.1455761 0.04927,-0.039194 0.1164615,-0.044793 0.1567745,-0.0056 l 0.094066,0.1007836 0.313548,-0.2519588 c 0.039195,-0.033594 0.1063834,-0.016797 0.1399775,0.033594 0.039195,0.050391 0.033594,0.1231799 -0.011202,0.1567742 z M 7.7317572,9.5470872 c -0.07839,0 -0.1410977,-0.078387 -0.1410977,-0.1679724 0,-0.095184 0.061587,-0.1679725 0.1399775,-0.1679725 h 1.940641 c 0.07839,0 0.1399775,0.078387 0.1399775,0.1679725 0,0.095184 -0.061587,0.1679724 -0.1399775,0.1679724 z m 2.7054748,1.7390748 a 0.59350306,0.59350306 0 1 1 0,1.187006 0.59350306,0.59350306 0 0 1 0,-1.187006 z"
     clip-rule="evenodd"
     fill-rule="evenodd"
     opacity="0.15"
     id="path1"
     style="opacity:1;fill:url(#linearGradient16);fill-opacity:1;stroke-width:1.11982" />
</svg>
