<?xml version="1.0" encoding="UTF-8" standalone="no"?>
<svg
   width="64"
   height="64"
   viewBox="0 0 16.933 16.933"
   version="1.1"
   id="svg18"
   sodipodi:docname="folder-games.svg"
   inkscape:version="1.4 (e7c3feb100, 2024-10-09)"
   xmlns:inkscape="http://www.inkscape.org/namespaces/inkscape"
   xmlns:sodipodi="http://sodipodi.sourceforge.net/DTD/sodipodi-0.dtd"
   xmlns:xlink="http://www.w3.org/1999/xlink"
   xmlns="http://www.w3.org/2000/svg"
   xmlns:svg="http://www.w3.org/2000/svg">
  <sodipodi:namedview
     id="namedview18"
     pagecolor="#505050"
     bordercolor="#eeeeee"
     borderopacity="1"
     inkscape:showpageshadow="0"
     inkscape:pageopacity="0"
     inkscape:pagecheckerboard="0"
     inkscape:deskcolor="#505050"
     inkscape:zoom="4.1321553"
     inkscape:cx="22.26441"
     inkscape:cy="56.145035"
     inkscape:window-width="1920"
     inkscape:window-height="1051"
     inkscape:window-x="0"
     inkscape:window-y="0"
     inkscape:window-maximized="1"
     inkscape:current-layer="svg18" />
  <defs
     id="defs13">
    <linearGradient
       id="linearGradient16"
       x1="100"
       x2="133.19"
       y1="17.452999"
       y2="51.605999"
       gradientTransform="matrix(0.26458,0,0,0.26458,-26.458,2.5104)"
       gradientUnits="userSpaceOnUse">
      <stop
         stop-color="#fce798"
         offset="0"
         id="stop15"
         style="stop-color:#313131;stop-opacity:1" />
      <stop
         stop-color="#ffc937"
         offset="1"
         id="stop16"
         style="stop-color:#151515;stop-opacity:1" />
    </linearGradient>
    <linearGradient
       id="b"
       x1="445.28"
       x2="445.28"
       y1="179.28"
       y2="200.07"
       gradientTransform="matrix(0.38956,0,0,0.38184,-144.10474,-63.44)"
       gradientUnits="userSpaceOnUse">
      <stop
         stop-color="#60c0f0"
         offset="0"
         id="stop1" />
      <stop
         stop-color="#83d4fb"
         offset="1"
         id="stop2" />
    </linearGradient>
    <linearGradient
       id="c"
       x1="8.467"
       x2="8.467"
       y1="293.3"
       y2="292.77"
       gradientTransform="translate(21.415265,-280.07)"
       gradientUnits="userSpaceOnUse">
      <stop
         stop-color="#008ea2"
         stop-opacity=".25"
         offset="0"
         id="stop3" />
      <stop
         stop-color="#fff"
         stop-opacity=".15"
         offset="1"
         id="stop4" />
    </linearGradient>
    <linearGradient
       id="d"
       x1="8.467"
       x2="8.467"
       y1="294.62"
       y2="293.56"
       gradientTransform="matrix(0.99998,0,0,0.99998,21.415265,-280.06)"
       gradientUnits="userSpaceOnUse">
      <stop
         stop-color="#008ea2"
         stop-opacity=".251"
         offset="0"
         id="stop5" />
      <stop
         stop-color="#008ea2"
         stop-opacity=".15"
         offset=".757"
         id="stop6" />
      <stop
         stop-color="#fff"
         stop-opacity=".15"
         offset="1"
         id="stop7" />
    </linearGradient>
    <linearGradient
       id="a"
       x1="6.879"
       x2="6.879"
       y1="285.36"
       y2="283.77"
       gradientTransform="matrix(0.99998,0,0,0.99998,21.415265,-280.06)"
       gradientUnits="userSpaceOnUse">
      <stop
         offset="0"
         id="stop8" />
      <stop
         stop-opacity="0"
         offset="1"
         id="stop9" />
    </linearGradient>
    <linearGradient
       id="e"
       x1="1.058"
       x2="15.875"
       y1="289.59"
       y2="289.59"
       gradientTransform="translate(21.415265,-280.07)"
       gradientUnits="userSpaceOnUse">
      <stop
         stop-color="#46a2d7"
         stop-opacity=".5"
         offset="0"
         id="stop10" />
      <stop
         stop-color="#46a2d7"
         stop-opacity="0"
         offset=".108"
         id="stop11" />
      <stop
         stop-color="#46a2d7"
         stop-opacity=".096"
         offset=".894"
         id="stop12" />
      <stop
         stop-color="#46a2d7"
         stop-opacity=".5"
         offset="1"
         id="stop13" />
    </linearGradient>
    <filter
       color-interpolation-filters="sRGB"
       height="1.0264005"
       width="1.0219998"
       y="-0.013200229"
       x="-0.010999908"
       id="filter1733">
      <feGaussianBlur
         id="feGaussianBlur869"
         stdDeviation="0.072761339" />
    </filter>
    <linearGradient
       gradientUnits="userSpaceOnUse"
       gradientTransform="matrix(0.26458,0,0,0.26458,-0.79373,-39.158)"
       y2="166"
       y1="155"
       x2="25"
       x1="25"
       id="linearGradient1387">
      <stop
         id="stop850"
         offset="0"
         stop-color="#3296d7" />
      <stop
         id="stop852"
         offset="1"
         stop-color="#0a7db4" />
    </linearGradient>
    <filter
       color-interpolation-filters="sRGB"
       height="1.2969998"
       width="1.0296998"
       y="-0.14849988"
       x="-0.014849913"
       id="filter935">
      <feGaussianBlur
         id="feGaussianBlur872"
         stdDeviation="0.098224626" />
    </filter>
    <linearGradient
       gradientUnits="userSpaceOnUse"
       gradientTransform="matrix(0.26458,0,0,0.26458,-0.79374,-39.158)"
       y2="185"
       y1="185"
       x2="65"
       x1="5"
       id="linearGradient1401">
      <stop
         id="stop855"
         offset="0"
         stop-color="#3492cb" />
      <stop
         id="stop857"
         offset=".083713"
         stop-color="#6ec8fa" />
      <stop
         id="stop859"
         offset=".91237"
         stop-color="#6ec8fa" />
      <stop
         id="stop861"
         offset="1"
         stop-color="#3492cb" />
    </linearGradient>
    <linearGradient
       gradientUnits="userSpaceOnUse"
       gradientTransform="matrix(0.18168,0,0,0.40956,9.2005,-451.88)"
       y2="1140.2"
       y1="1138.4"
       x2="-9.6169996"
       x1="-9.6169996"
       id="linearGradient1438">
      <stop
         id="stop864"
         offset="0"
         stop-opacity="0"
         stop-color="#1482be" />
      <stop
         id="stop866"
         offset="1"
         stop-color="#1482be" />
    </linearGradient>
    <linearGradient
       id="linearGradient1911"
       x1="25.084999"
       x2="25.084999"
       y1="24.031"
       y2="26.412001"
       gradientTransform="translate(-24.247,-18.739)"
       gradientUnits="userSpaceOnUse">
      <stop
         stop-color="#fcbc19"
         stop-opacity=".99608"
         offset="0"
         id="stop7-9" />
      <stop
         stop-color="#f4b61f"
         offset="1"
         id="stop8-0" />
    </linearGradient>
    <linearGradient
       id="linearGradient4625"
       x1="0.52917999"
       x2="16.403999"
       y1="5.0665002"
       y2="5.0665002"
       gradientTransform="translate(-6.3499,2.6458)"
       gradientUnits="userSpaceOnUse">
      <stop
         stop-color="#b78815"
         offset="0"
         id="stop9-8" />
      <stop
         stop-color="#e2b24b"
         stop-opacity="0"
         offset="1"
         id="stop10-8" />
    </linearGradient>
    <linearGradient
       id="linearGradient1951"
       x1="100"
       x2="133.19"
       y1="17.452999"
       y2="51.605999"
       gradientTransform="matrix(0.26458,0,0,0.26458,-26.458,2.5104)"
       gradientUnits="userSpaceOnUse">
      <stop
         stop-color="#fce798"
         offset="0"
         id="stop11-5" />
      <stop
         stop-color="#ffc937"
         offset="1"
         id="stop12-0" />
    </linearGradient>
    <linearGradient
       id="linearGradient11110"
       x1="0.52916998"
       x2="16.403999"
       y1="5.3814998"
       y2="5.3814998"
       gradientTransform="translate(-6.3499,2.6458)"
       gradientUnits="userSpaceOnUse">
      <stop
         stop-color="#fff"
         offset="0"
         id="stop13-9" />
      <stop
         stop-color="#fff"
         stop-opacity="0"
         offset="1"
         id="stop14" />
    </linearGradient>
    <linearGradient
       id="linearGradient1118"
       x1="20.108"
       x2="20.108"
       y1="6.3498998"
       y2="13.493"
       gradientTransform="translate(-25.109424,-0.13233803)"
       gradientUnits="userSpaceOnUse">
      <stop
         stop-color="#be900d"
         offset="0"
         id="stop5-6" />
      <stop
         stop-color="#a57001"
         offset="1"
         id="stop6-3" />
    </linearGradient>
    <linearGradient
       inkscape:collect="always"
       xlink:href="#linearGradient16"
       id="linearGradient1"
       x1="8.3582325"
       y1="7.5404625"
       x2="8.3582325"
       y2="13.361181"
       gradientUnits="userSpaceOnUse"
       gradientTransform="matrix(1.1503917,0,0,1.1503917,-1.2732911,-2.0094104)" />
    <linearGradient
       id="linearGradient1911-2"
       x1="25.084999"
       x2="25.084999"
       y1="24.031"
       y2="26.412001"
       gradientTransform="translate(-40.650412,-27.073192)"
       gradientUnits="userSpaceOnUse">
      <stop
         stop-color="#3c3c3c"
         offset="0"
         id="stop5-0" />
      <stop
         stop-color="#2d2d2d"
         offset="1"
         id="stop6-2" />
    </linearGradient>
    <linearGradient
       id="linearGradient4625-3"
       x1="0.52917999"
       x2="16.403999"
       y1="5.0665002"
       y2="5.0665002"
       gradientTransform="translate(-22.753412,-5.6883916)"
       gradientUnits="userSpaceOnUse">
      <stop
         stop-color="#b78815"
         offset="0"
         id="stop7-7" />
      <stop
         stop-color="#e2b24b"
         stop-opacity="0"
         offset="1"
         id="stop8-5" />
    </linearGradient>
    <linearGradient
       id="linearGradient1951-9"
       x1="100"
       x2="133.19"
       y1="17.452999"
       y2="51.605999"
       gradientTransform="matrix(0.26458,0,0,0.26458,-42.861412,-5.8237916)"
       gradientUnits="userSpaceOnUse">
      <stop
         stop-color="#646464"
         offset="0"
         id="stop9-2" />
      <stop
         stop-color="#3c3c3c"
         offset="1"
         id="stop10-2" />
    </linearGradient>
    <linearGradient
       id="linearGradient11110-8"
       x1="0.52916998"
       x2="16.403999"
       y1="5.3814998"
       y2="5.3814998"
       gradientTransform="translate(-22.753412,-5.6883916)"
       gradientUnits="userSpaceOnUse">
      <stop
         stop-color="#fff"
         offset="0"
         id="stop11-9" />
      <stop
         stop-color="#fff"
         stop-opacity="0"
         offset="1"
         id="stop12-7" />
    </linearGradient>
    <linearGradient
       id="linearGradient79069"
       x1="8.5258999"
       x2="8.5258999"
       y1="6.0935998"
       y2="13.269"
       gradientUnits="userSpaceOnUse"
       gradientTransform="translate(-22.753412,-5.5561916)">
      <stop
         stop-color="#323232"
         offset="0"
         id="stop13-3" />
      <stop
         stop-color="#141414"
         offset="1"
         id="stop14-6" />
    </linearGradient>
  </defs>
  <g
     id="g1"
     transform="translate(22.753432,5.6884336)">
    <path
       d="m -21.555912,-3.4394916 c -0.3653,0 -0.66145,0.32575 -0.66145,0.72759 v 2.9636 c -0.0026,0.02629 -0.0072,0.052 -0.0072,0.07906 v 7.9373 c 0,0.40184 0.29614,0.72759 0.66144,0.72759 h 14.552 c 0.36531,0 0.66144,-0.32575 0.66144,-0.72759 v -9.393 c 0,-0.40184 -0.29614,-0.72759 -0.66144,-0.72759 v 5.16e-4 h -8.1993 l -0.89864,-1.1095 c 0,0 -0.36607,-0.478 -1.0583,-0.478 h -1.3229 z"
       color="#000000"
       color-rendering="auto"
       dominant-baseline="auto"
       fill="url(#linearGradient1911)"
       image-rendering="auto"
       shape-rendering="auto"
       solid-color="#000000"
       stop-color="#000000"
       style="font-variant-ligatures:normal;font-variant-position:normal;font-variant-caps:normal;font-variant-numeric:normal;font-variant-alternates:normal;font-variant-east-asian:normal;font-feature-settings:normal;font-variation-settings:normal;text-indent:0;text-decoration-line:none;text-decoration-style:solid;text-decoration-color:#000000;text-transform:none;text-orientation:mixed;white-space:normal;shape-padding:0;shape-margin:0;inline-size:0;isolation:auto;mix-blend-mode:normal;fill:url(#linearGradient1911-2)"
       id="path14" />
    <path
       d="m -14.392812,-1.8519916 c -0.11312,0.0018 -0.30848,-0.01542 -0.51986,0.09508 -0.73647,0.37946 -0.77226,0.59366 -1.557,0.71415 h -4.9608 c -0.21986,0 -0.41824,0.08855 -0.56171,0.23202 -0.13937,0.13936 -0.22041,0.33333 -0.2253,0.54569 v 0.2775 c 0.0049,-0.21236 0.08593,-0.40633 0.2253,-0.54569 0.14347,-0.14347 0.34185,-0.23202 0.56171,-0.23202 h 4.9608 c 0.78472,-0.1205 0.82051,-0.33469 1.557,-0.71415 0.21138,-0.1105 0.40673,-0.09328 0.51986,-0.09508 h 7.3828 c 0.18216,3.65e-4 0.3472,0.08101 0.46663,0.21239 0.1197,0.13167 0.19378,0.31377 0.19378,0.51469 v -0.2775 c 0,-0.20092 -0.07408,-0.38302 -0.19378,-0.51469 -0.11943,-0.13137 -0.28447,-0.21202 -0.46663,-0.21239 h -1.1652 z m -7.8247,2.1037 c -0.0026,0.02629 -0.0067,0.05201 -0.0067,0.07906 v 0.2775 c 0,-0.02705 0.0041,-0.05277 0.0067,-0.07906 z"
       fill="url(#linearGradient4625)"
       opacity="0.00100002"
       stroke-width="0.26458"
       id="path15"
       style="fill:url(#linearGradient4625-3)" />
    <path
       d="m -22.224212,7.9858084 v 0.28215 c 0,0.20092 0.07357,0.3825 0.19327,0.51417 0.1197,0.13167 0.28553,0.21342 0.46818,0.21342 h 14.552 c 0.18265,0 0.34796,-0.08175 0.46766,-0.21342 0.1197,-0.13167 0.19378,-0.31325 0.19378,-0.51417 v -0.28215 c 0,0.20092 -0.07409,0.3825 -0.19378,0.51417 -0.1197,0.13167 -0.28501,0.21342 -0.46766,0.21342 h -14.552 c -0.18265,0 -0.34848,-0.08176 -0.46818,-0.21342 -0.1197,-0.13166 -0.19327,-0.31325 -0.19327,-0.51417 z"
       fill="#232323"
       stroke-width="0.26458"
       id="path16" />
    <path
       d="m -15.211412,-1.5905916 c 0,0 -0.35919,0.47868 -1.1575,0.79218 -0.03271,0.00587 -0.06509,0.011575 -0.10077,0.017052 h -4.9608 c -0.21986,0 -0.41824,0.088552 -0.56171,0.23202 -0.13937,0.13936 -0.22042,0.33333 -0.2253,0.54569 v 0.51675 c -0.0026,0.026291 -0.0067,0.052014 -0.0067,0.079064 v 7.3953 c 0,0.20092 0.07357,0.3825 0.19327,0.51417 0.1197,0.13167 0.28553,0.21342 0.46818,0.21342 h 14.552 c 0.18265,0 0.34796,-0.08175 0.46766,-0.21342 0.1197,-0.13167 0.19378,-0.31325 0.19378,-0.51417 v -8.851 c 0,-0.20092 -0.07408,-0.38302 -0.19378,-0.51469 -0.11945,-0.13137 -0.28449,-0.21202 -0.46665,-0.21239 h -7.4821 z"
       fill="url(#linearGradient1951)"
       id="path17"
       style="fill:url(#linearGradient1951-9)" />
    <path
       d="m -15.211412,-1.5905916 c 0,0 -0.35919,0.47868 -1.1575,0.79218 -0.03271,0.00587 -0.06509,0.011575 -0.10077,0.017052 h -4.9608 c -0.21986,0 -0.41824,0.088552 -0.56171,0.23202 -0.13937,0.13936 -0.22041,0.33333 -0.2253,0.54569 v 0.38446 c 0.0049,-0.21236 0.08593,-0.40633 0.2253,-0.54569 0.14347,-0.14347 0.34185,-0.23202 0.56171,-0.23202 h 4.9608 c 0.03568,-0.00548 0.06806,-0.011184 0.10077,-0.017052 0.75911,-0.26303 1.2883,-0.79218 1.2883,-0.79218 h 8.0707 c 0.18216,3.704e-4 0.34718,0.081016 0.46663,0.21239 0.1197,0.13167 0.19378,0.31377 0.19378,0.51469 v -0.38446 c 0,-0.20092 -0.07408,-0.38302 -0.19378,-0.51469 -0.11945,-0.13137 -0.28447,-0.21202 -0.46663,-0.21239 h -7.4821 z m -7.0062,2.1037 c -0.0026,0.026291 -0.0067,0.052013 -0.0067,0.079063 v 0.38447 c 0,-0.02705 0.0041,-0.052773 0.0067,-0.079063 z"
       fill="url(#linearGradient11110)"
       opacity="0.3"
       id="path18"
       style="fill:url(#linearGradient11110-8)" />
  </g>
  <path
     class="cls-1"
     d="M 7.5918723,10.152938 7.3357188,10.409091 V 9.9015275 Z M 11.497026,8.1570748 h 0.01897 a 0.17669847,0.17669847 0 0 1 0.135192,0.064038 c 0.798108,0.8265695 1.221473,2.6208312 1.128974,3.8233302 A 2.4061825,2.4061825 0 0 1 12.580931,12.8888 c -0.122147,0.252596 -0.298846,0.417435 -0.536025,0.461313 -0.301219,0.05575 -0.677147,-0.103179 -1.130159,-0.563301 L 10.733308,12.606556 A 5.246403,5.246403 0 0 1 10.111901,11.916365 H 6.8222261 A 5.1444158,5.1444158 0 0 1 6.1996308,12.608929 C 6.1379641,12.668221 6.0774835,12.727518 6.0193745,12.786812 5.5675483,13.248126 5.1892475,13.407037 4.889216,13.350113 4.6520367,13.308607 4.4741523,13.14021 4.3520051,12.891172 A 2.4097403,2.4097403 0 0 1 4.1527747,12.045627 C 4.0602748,10.8372 4.4860114,9.032266 5.2959782,8.2116261 a 0.17432667,0.17432667 0 0 1 0.1257049,-0.053365 h 0.018975 c 0.4992622,-0.6866337 1.6199336,-0.693749 2.1191959,0 H 8.1172242 C 8.0733461,7.1051853 8.3662624,6.8419165 8.7979284,6.8122692 a 2.1891636,2.1891636 0 0 1 0.4921467,0.045064 C 9.6173826,6.911885 9.9802669,6.9711797 10.237606,6.7173977 a 0.17432667,0.17432667 0 0 1 0.249037,0 0.17551258,0.17551258 0 0 1 0,0.2490381 C 10.101227,7.3506658 9.6410998,7.2747684 9.2331521,7.2071724 A 1.9602857,1.9602857 0 0 0 8.8180887,7.1656663 C 8.585653,7.1810827 8.4303008,7.3767555 8.4658775,8.1594467 h 0.9095822 c 0.4980767,-0.6890054 1.6199323,-0.6913773 2.1180083,0 z M 6.9004952,9.2670734 V 9.7366879 H 7.368924 c 0.5312812,0 0.5312812,0.8028521 0,0.8028521 H 6.9004952 v 0.46843 c 0,0.53128 -0.8028516,0.53128 -0.8028516,0 V 10.53954 H 5.6292148 c -0.5312812,0 -0.5312812,-0.8028521 0,-0.8028521 H 6.0976436 V 9.2670734 c 0,-0.5300956 0.8028516,-0.5300956 0.8028516,0 z M 10.567284,8.8591252 a 0.36999948,0.36999948 0 1 1 -0.524165,0 0.36999948,0.36999948 0 0 1 0.524165,0 z m 0,1.6151908 a 0.36999948,0.36999948 0 1 1 -0.524165,0 0.36999948,0.36999948 0 0 1 0.524165,0 z m 0.889421,-0.8443592 a 0.36999948,0.36999948 0 1 1 -0.524166,0 0.37118538,0.37118538 0 0 1 0.522981,0 z m -1.7788422,0 a 0.36999948,0.36999948 0 1 1 -0.5241656,0 0.36999948,0.36999948 0 0 1 0.5241656,0 z M 6.5091495,9.0749583 6.7653031,9.3299258 H 6.2565538 L 6.5127072,9.0749583 Z M 5.4359138,10.154124 5.6896956,10.409091 V 9.9015275 L 5.4347279,10.156495 Z m 1.0767934,1.075608 0.2549676,-0.256154 H 6.2577397 Z"
     fill-rule="evenodd"
     opacity="0.15"
     id="path1"
     style="opacity:1;fill:url(#linearGradient1);fill-opacity:1;stroke-width:1.1859" />
</svg>
