<?xml version="1.0" encoding="UTF-8" standalone="no"?>
<svg
   width="64"
   height="64"
   viewBox="0 0 16.933 16.933"
   version="1.1"
   id="svg20"
   sodipodi:docname="folder-steam.svg"
   inkscape:version="1.4 (e7c3feb100, 2024-10-09)"
   xmlns:inkscape="http://www.inkscape.org/namespaces/inkscape"
   xmlns:sodipodi="http://sodipodi.sourceforge.net/DTD/sodipodi-0.dtd"
   xmlns:xlink="http://www.w3.org/1999/xlink"
   xmlns="http://www.w3.org/2000/svg"
   xmlns:svg="http://www.w3.org/2000/svg">
  <sodipodi:namedview
     id="namedview20"
     pagecolor="#505050"
     bordercolor="#eeeeee"
     borderopacity="1"
     inkscape:showpageshadow="0"
     inkscape:pageopacity="0"
     inkscape:pagecheckerboard="0"
     inkscape:deskcolor="#505050"
     inkscape:zoom="6.1875"
     inkscape:cx="-4.8484848"
     inkscape:cy="39.272727"
     inkscape:window-width="1920"
     inkscape:window-height="1051"
     inkscape:window-x="0"
     inkscape:window-y="0"
     inkscape:window-maximized="1"
     inkscape:current-layer="svg20" />
  <defs
     id="defs13">
    <linearGradient
       id="linearGradient18"
       x1="100"
       x2="133.19"
       y1="17.452999"
       y2="51.605999"
       gradientTransform="matrix(0.26458,0,0,0.26458,-42.332256,-5.0145072)"
       gradientUnits="userSpaceOnUse">
      <stop
         stop-color="#78c494"
         offset="0"
         id="stop17"
         style="stop-color:#ffffff;stop-opacity:1;" />
      <stop
         stop-color="#007680"
         offset="1"
         id="stop18"
         style="stop-color:#9bd3af;stop-opacity:0.4509804" />
    </linearGradient>
    <linearGradient
       id="linearGradient39"
       x1="100"
       x2="133.19"
       y1="17.452999"
       y2="51.605999"
       gradientTransform="matrix(0.26458,0,0,0.26458,-20.10798,-0.1353581)"
       gradientUnits="userSpaceOnUse">
      <stop
         stop-color="#646464"
         offset="0"
         id="stop38"
         style="stop-color:#ffffff;stop-opacity:1" />
      <stop
         stop-color="#3c3c3c"
         offset="1"
         id="stop39"
         style="stop-color:#9bd3b0;stop-opacity:1" />
    </linearGradient>
    <linearGradient
       id="linearGradient34"
       x1="100"
       x2="133.19"
       y1="17.452999"
       y2="51.605999"
       gradientTransform="matrix(0.26458,0,0,0.26458,-20.10798,-0.1353581)"
       gradientUnits="userSpaceOnUse">
      <stop
         stop-color="#646464"
         offset="0"
         id="stop33"
         style="stop-color:#222222;stop-opacity:1" />
      <stop
         stop-color="#3c3c3c"
         offset="1"
         id="stop34"
         style="stop-color:#1d1d1d;stop-opacity:1" />
    </linearGradient>
    <linearGradient
       id="linearGradient32"
       x1="100"
       x2="133.19"
       y1="17.452999"
       y2="51.605999"
       gradientTransform="matrix(0.26458,0,0,0.26458,-20.10798,-0.1353581)"
       gradientUnits="userSpaceOnUse">
      <stop
         stop-color="#646464"
         offset="0"
         id="stop31"
         style="stop-color:#313131;stop-opacity:1" />
      <stop
         stop-color="#3c3c3c"
         offset="1"
         id="stop32"
         style="stop-color:#161616;stop-opacity:1" />
    </linearGradient>
    <linearGradient
       id="linearGradient30"
       x1="100"
       x2="133.19"
       y1="17.452999"
       y2="51.605999"
       gradientTransform="matrix(0.26458,0,0,0.26458,-26.458,2.5104)"
       gradientUnits="userSpaceOnUse">
      <stop
         stop-color="#fce798"
         offset="0"
         id="stop29"
         style="stop-color:#303030;stop-opacity:1" />
      <stop
         stop-color="#ffc937"
         offset="1"
         id="stop30"
         style="stop-color:#161616;stop-opacity:1" />
    </linearGradient>
    <linearGradient
       id="linearGradient16"
       x1="100"
       x2="133.19"
       y1="17.452999"
       y2="51.605999"
       gradientTransform="matrix(0.26458,0,0,0.26458,-26.458,2.5104)"
       gradientUnits="userSpaceOnUse">
      <stop
         stop-color="#fce798"
         offset="0"
         id="stop15"
         style="stop-color:#242424;stop-opacity:1" />
      <stop
         stop-color="#ffc937"
         offset="1"
         id="stop16"
         style="stop-color:#a57001;stop-opacity:1" />
    </linearGradient>
    <linearGradient
       id="linearGradient24"
       x1="100"
       x2="133.19"
       y1="17.452999"
       y2="51.605999"
       gradientTransform="matrix(0.26458,0,0,0.26458,-26.458,2.5104)"
       gradientUnits="userSpaceOnUse">
      <stop
         stop-color="#fce798"
         offset="0"
         id="stop23"
         style="stop-color:#bd8f0d;stop-opacity:1" />
      <stop
         stop-color="#ffc937"
         offset="1"
         id="stop24"
         style="stop-color:#a57001;stop-opacity:1" />
    </linearGradient>
    <linearGradient
       id="b"
       x1="445.28"
       x2="445.28"
       y1="179.28"
       y2="200.07"
       gradientTransform="matrix(0.38956,0,0,0.38184,-146.04804,-63.44)"
       gradientUnits="userSpaceOnUse">
      <stop
         stop-color="#60c0f0"
         offset="0"
         id="stop1" />
      <stop
         stop-color="#83d4fb"
         offset="1"
         id="stop2" />
    </linearGradient>
    <linearGradient
       id="c"
       x1="8.467"
       x2="8.467"
       y1="293.3"
       y2="292.77"
       gradientTransform="translate(19.471957,-280.07)"
       gradientUnits="userSpaceOnUse">
      <stop
         stop-color="#008ea2"
         stop-opacity=".25"
         offset="0"
         id="stop3" />
      <stop
         stop-color="#fff"
         stop-opacity=".15"
         offset="1"
         id="stop4" />
    </linearGradient>
    <linearGradient
       id="d"
       x1="8.467"
       x2="8.467"
       y1="294.62"
       y2="293.56"
       gradientTransform="matrix(0.99998,0,0,0.99998,19.471957,-280.06)"
       gradientUnits="userSpaceOnUse">
      <stop
         stop-color="#008ea2"
         stop-opacity=".251"
         offset="0"
         id="stop5" />
      <stop
         stop-color="#008ea2"
         stop-opacity=".15"
         offset=".757"
         id="stop6" />
      <stop
         stop-color="#fff"
         stop-opacity=".15"
         offset="1"
         id="stop7" />
    </linearGradient>
    <linearGradient
       id="a"
       x1="6.879"
       x2="6.879"
       y1="285.36"
       y2="283.77"
       gradientTransform="matrix(0.99998,0,0,0.99998,19.471957,-280.06)"
       gradientUnits="userSpaceOnUse">
      <stop
         offset="0"
         id="stop8" />
      <stop
         stop-opacity="0"
         offset="1"
         id="stop9" />
    </linearGradient>
    <linearGradient
       id="e"
       x1="1.058"
       x2="15.875"
       y1="289.59"
       y2="289.59"
       gradientTransform="translate(19.471957,-280.07)"
       gradientUnits="userSpaceOnUse">
      <stop
         stop-color="#46a2d7"
         stop-opacity=".5"
         offset="0"
         id="stop10" />
      <stop
         stop-color="#46a2d7"
         stop-opacity="0"
         offset=".108"
         id="stop11" />
      <stop
         stop-color="#46a2d7"
         stop-opacity=".096"
         offset=".894"
         id="stop12" />
      <stop
         stop-color="#46a2d7"
         stop-opacity=".5"
         offset="1"
         id="stop13" />
    </linearGradient>
    <linearGradient
       id="linearGradient1911"
       x1="25.084999"
       x2="25.084999"
       y1="24.031"
       y2="26.412001"
       gradientTransform="translate(-24.247,-18.739)"
       gradientUnits="userSpaceOnUse">
      <stop
         stop-color="#fcbc19"
         stop-opacity=".99608"
         offset="0"
         id="stop7-1" />
      <stop
         stop-color="#f4b61f"
         offset="1"
         id="stop8-7" />
    </linearGradient>
    <linearGradient
       id="linearGradient4625"
       x1="0.52917999"
       x2="16.403999"
       y1="5.0665002"
       y2="5.0665002"
       gradientTransform="translate(-6.3499,2.6458)"
       gradientUnits="userSpaceOnUse">
      <stop
         stop-color="#b78815"
         offset="0"
         id="stop9-8" />
      <stop
         stop-color="#e2b24b"
         stop-opacity="0"
         offset="1"
         id="stop10-5" />
    </linearGradient>
    <linearGradient
       id="linearGradient1951"
       x1="100"
       x2="133.19"
       y1="17.452999"
       y2="51.605999"
       gradientTransform="matrix(0.26458,0,0,0.26458,-26.458,2.5104)"
       gradientUnits="userSpaceOnUse">
      <stop
         stop-color="#fce798"
         offset="0"
         id="stop11-7" />
      <stop
         stop-color="#ffc937"
         offset="1"
         id="stop12-4" />
    </linearGradient>
    <linearGradient
       id="linearGradient11110"
       x1="0.52916998"
       x2="16.403999"
       y1="5.3814998"
       y2="5.3814998"
       gradientTransform="translate(-6.3499,2.6458)"
       gradientUnits="userSpaceOnUse">
      <stop
         stop-color="#fff"
         offset="0"
         id="stop13-1" />
      <stop
         stop-color="#fff"
         stop-opacity="0"
         offset="1"
         id="stop14" />
    </linearGradient>
    <linearGradient
       id="linearGradient1118"
       x1="20.108"
       x2="20.108"
       y1="6.3498998"
       y2="13.493"
       gradientTransform="translate(-26.358768,-0.13233805)"
       gradientUnits="userSpaceOnUse">
      <stop
         stop-color="#be900d"
         offset="0"
         id="stop5-8" />
      <stop
         stop-color="#a57001"
         offset="1"
         id="stop6-5" />
    </linearGradient>
    <linearGradient
       id="linearGradient1911-1"
       x1="25.084999"
       x2="25.084999"
       y1="24.031"
       y2="26.412001"
       gradientTransform="translate(-17.89698,-21.384758)"
       gradientUnits="userSpaceOnUse">
      <stop
         stop-color="#3c3c3c"
         offset="0"
         id="stop5-2" />
      <stop
         stop-color="#2d2d2d"
         offset="1"
         id="stop6-9" />
    </linearGradient>
    <linearGradient
       id="linearGradient4625-3"
       x1="0.52917999"
       x2="16.403999"
       y1="5.0665002"
       y2="5.0665002"
       gradientTransform="translate(2.02e-5,4.19e-5)"
       gradientUnits="userSpaceOnUse">
      <stop
         stop-color="#b78815"
         offset="0"
         id="stop7-9" />
      <stop
         stop-color="#e2b24b"
         stop-opacity="0"
         offset="1"
         id="stop8-0" />
    </linearGradient>
    <linearGradient
       id="linearGradient1951-8"
       x1="100"
       x2="133.19"
       y1="17.452999"
       y2="51.605999"
       gradientTransform="matrix(0.26458,0,0,0.26458,-20.10798,-0.1353581)"
       gradientUnits="userSpaceOnUse">
      <stop
         stop-color="#646464"
         offset="0"
         id="stop9-85" />
      <stop
         stop-color="#3c3c3c"
         offset="1"
         id="stop10-0" />
    </linearGradient>
    <linearGradient
       id="linearGradient11110-9"
       x1="0.52916998"
       x2="16.403999"
       y1="5.3814998"
       y2="5.3814998"
       gradientTransform="translate(2.02e-5,4.19e-5)"
       gradientUnits="userSpaceOnUse">
      <stop
         stop-color="#fff"
         offset="0"
         id="stop11-6" />
      <stop
         stop-color="#fff"
         stop-opacity="0"
         offset="1"
         id="stop12-3" />
    </linearGradient>
    <linearGradient
       id="linearGradient79069"
       x1="8.5258999"
       x2="8.5258999"
       y1="6.0935998"
       y2="13.269"
       gradientUnits="userSpaceOnUse"
       gradientTransform="translate(-18.141554,0.1322419)">
      <stop
         stop-color="#323232"
         offset="0"
         id="stop13-8" />
      <stop
         stop-color="#141414"
         offset="1"
         id="stop14-5" />
    </linearGradient>
    <linearGradient
       id="linearGradient1911-3"
       x1="25.084999"
       x2="25.084999"
       y1="24.031"
       y2="26.412001"
       gradientTransform="translate(-3.610525,-26.015179)"
       gradientUnits="userSpaceOnUse">
      <stop
         stop-color="#0272cb"
         offset="0"
         id="stop5-85" />
      <stop
         stop-color="#0768ba"
         offset="1"
         id="stop6-0" />
    </linearGradient>
    <linearGradient
       id="linearGradient1951-6"
       x1="100"
       x2="133.19"
       y1="17.452999"
       y2="51.605999"
       gradientTransform="matrix(0.26458,0,0,0.26458,-5.820525,-4.7654791)"
       gradientUnits="userSpaceOnUse">
      <stop
         stop-color="#27aee9"
         offset="0"
         id="stop7-6" />
      <stop
         stop-color="#0669bc"
         offset="1"
         id="stop8-4" />
    </linearGradient>
    <linearGradient
       id="linearGradient11110-7"
       x1="0.52916998"
       x2="16.403999"
       y1="5.3814998"
       y2="5.3814998"
       gradientTransform="translate(14.287376,-4.6300795)"
       gradientUnits="userSpaceOnUse">
      <stop
         stop-color="#fff"
         offset="0"
         id="stop9-6" />
      <stop
         stop-color="#fff"
         stop-opacity="0"
         offset="1"
         id="stop10-2" />
    </linearGradient>
    <linearGradient
       id="linearGradient29077"
       x1="0.52916002"
       x2="16.403999"
       y1="14.179"
       y2="14.179"
       gradientTransform="translate(14.287376,-4.6455791)"
       gradientUnits="userSpaceOnUse">
      <stop
         stop-color="#0a5ba8"
         stop-opacity=".99608"
         offset="0"
         id="stop11-5" />
      <stop
         stop-color="#104a8c"
         stop-opacity=".99608"
         offset="1"
         id="stop12-8" />
    </linearGradient>
    <linearGradient
       id="linearGradient1006"
       x1="8.5258999"
       x2="8.5258999"
       y1="6.0935998"
       y2="13.269"
       gradientTransform="translate(14.287403,-4.6301791)"
       gradientUnits="userSpaceOnUse">
      <stop
         stop-color="#fff"
         offset="0"
         id="stop13-6" />
      <stop
         stop-color="#c5e7f5"
         offset="1"
         id="stop14-2" />
    </linearGradient>
    <linearGradient
       id="linearGradient1911-6"
       x1="25.084999"
       x2="25.084999"
       y1="24.031"
       y2="26.412001"
       gradientTransform="translate(-40.121256,-26.279657)"
       gradientUnits="userSpaceOnUse">
      <stop
         stop-color="#047e5c"
         stop-opacity=".99608"
         offset="0"
         id="stop7-15" />
      <stop
         stop-color="#05614d"
         stop-opacity=".99608"
         offset="1"
         id="stop8-5" />
    </linearGradient>
    <linearGradient
       id="linearGradient1951-4"
       x1="100"
       x2="133.19"
       y1="17.452999"
       y2="51.605999"
       gradientTransform="matrix(0.26458,0,0,0.26458,-42.332256,-5.0145072)"
       gradientUnits="userSpaceOnUse">
      <stop
         stop-color="#78c494"
         offset="0"
         id="stop9-7" />
      <stop
         stop-color="#007680"
         offset="1"
         id="stop10-6" />
    </linearGradient>
    <linearGradient
       id="linearGradient973"
       x1="0.52907997"
       x2="16.403999"
       y1="5.3969998"
       y2="5.3969998"
       gradientTransform="translate(-22.224236,-4.8946152)"
       gradientUnits="userSpaceOnUse">
      <stop
         stop-color="#fff"
         offset="0"
         id="stop11-56" />
      <stop
         stop-color="#fff"
         stop-opacity="0"
         offset="1"
         id="stop12-9" />
    </linearGradient>
    <linearGradient
       id="linearGradient1006-1-1"
       x1="8.5258999"
       x2="8.5258999"
       y1="6.0935998"
       y2="13.269"
       gradientTransform="matrix(0.99999,0,0,0.99999,-22.224063,-4.8946309)"
       gradientUnits="userSpaceOnUse">
      <stop
         stop-color="#fff"
         offset="0"
         id="stop5-3" />
      <stop
         stop-color="#98d2ad"
         offset="1"
         id="stop6-7" />
    </linearGradient>
    <linearGradient
       inkscape:collect="always"
       xlink:href="#linearGradient11965"
       id="linearGradient11967"
       x1="6.3490257"
       y1="2.6703045"
       x2="6.3490257"
       y2="4.7511697"
       gradientUnits="userSpaceOnUse"
       gradientTransform="translate(-21.165944,-3.4395666)" />
    <linearGradient
       inkscape:collect="always"
       id="linearGradient11965">
      <stop
         style="stop-color:#434c5e;stop-opacity:1"
         offset="0"
         id="stop11961" />
      <stop
         style="stop-color:#2d3246;stop-opacity:1"
         offset="1"
         id="stop11963" />
    </linearGradient>
    <linearGradient
       inkscape:collect="always"
       xlink:href="#linearGradient4625-4"
       id="linearGradient23865"
       gradientUnits="userSpaceOnUse"
       gradientTransform="translate(-21.165944,-3.5717666)"
       x1="0.52917999"
       y1="5.0665002"
       x2="16.403999"
       y2="5.0665002" />
    <linearGradient
       id="linearGradient4625-4"
       x1="0.52917999"
       x2="16.403999"
       y1="5.0665002"
       y2="5.0665002"
       gradientTransform="translate(0,-0.1322)"
       gradientUnits="userSpaceOnUse">
      <stop
         stop-color="#b78815"
         offset="0"
         id="stop17-9" />
      <stop
         stop-color="#e2b24b"
         stop-opacity="0"
         offset="1"
         id="stop19-0" />
    </linearGradient>
    <linearGradient
       inkscape:collect="always"
       xlink:href="#linearGradient22682"
       id="linearGradient22684"
       x1="6.4576998"
       y1="4.4376154"
       x2="15.465975"
       y2="13.44589"
       gradientUnits="userSpaceOnUse"
       gradientTransform="translate(-21.165944,-3.4395666)" />
    <linearGradient
       inkscape:collect="always"
       id="linearGradient22682">
      <stop
         style="stop-color:#4c566a;stop-opacity:1"
         offset="0"
         id="stop22678" />
      <stop
         style="stop-color:#3b4252;stop-opacity:1"
         offset="1"
         id="stop22680" />
    </linearGradient>
    <linearGradient
       inkscape:collect="always"
       xlink:href="#linearGradient11110-91"
       id="linearGradient23867"
       gradientUnits="userSpaceOnUse"
       gradientTransform="translate(-21.165944,-3.5717666)"
       x1="0.52916998"
       y1="5.3814998"
       x2="16.403999"
       y2="5.3814998" />
    <linearGradient
       id="linearGradient11110-91"
       x1="0.52916998"
       x2="16.403999"
       y1="5.3814998"
       y2="5.3814998"
       gradientTransform="translate(0,-0.1322)"
       gradientUnits="userSpaceOnUse">
      <stop
         stop-color="#fff"
         offset="0"
         id="stop27" />
      <stop
         stop-color="#fff"
         stop-opacity="0"
         offset="1"
         id="stop29-7" />
    </linearGradient>
  </defs>
  <g
     id="g1"
     transform="translate(21.165829,3.5718088)">
    <path
       d="m -19.968444,-1.3228666 c -0.3653,0 -0.66145,0.32575 -0.66145,0.72759 v 2.9636 c -0.0026,0.02629 -0.0072,0.052 -0.0072,0.07906 v 7.9372996 c 0,0.40184 0.29614,0.72759 0.66144,0.72759 h 14.552 c 0.36531,0 0.66144,-0.32575 0.66144,-0.72759 V 0.9916834 c 0,-0.40184 -0.29614,-0.72759 -0.66144,-0.72759 v 5.16e-4 h -8.1993 l -0.89864,-1.1095 c 0,0 -0.36607,-0.478 -1.0583,-0.478 h -1.3229 z"
       color="#000000"
       color-rendering="auto"
       dominant-baseline="auto"
       image-rendering="auto"
       shape-rendering="auto"
       solid-color="#000000"
       stop-color="#000000"
       style="font-variant-ligatures:normal;font-variant-position:normal;font-variant-caps:normal;font-variant-numeric:normal;font-variant-alternates:normal;font-variant-east-asian:normal;font-feature-settings:normal;font-variation-settings:normal;text-indent:0;text-decoration-line:none;text-decoration-style:solid;text-decoration-color:#000000;text-transform:none;text-orientation:mixed;white-space:normal;shape-padding:0;shape-margin:0;inline-size:0;isolation:auto;mix-blend-mode:normal;fill:url(#linearGradient11967);fill-opacity:1"
       id="path41" />
    <path
       d="m -12.805344,0.2646334 c -0.11312,0.0018 -0.30848,-0.01542 -0.51986,0.09508 -0.73647,0.37946 -0.77226,0.59366 -1.557,0.71415 h -4.9608 c -0.21986,0 -0.41824,0.08855 -0.56171,0.23202 -0.13937,0.13936 -0.22041,0.33333 -0.2253,0.54569 v 0.2775 c 0.0049,-0.21236 0.08593,-0.40633 0.2253,-0.54569 0.14347,-0.14347 0.34185,-0.23202 0.56171,-0.23202 h 4.9608 c 0.78472,-0.1205 0.82051,-0.33469 1.557,-0.71415 0.21138,-0.1105 0.40673,-0.09328 0.51986,-0.09508 h 7.3828 c 0.18216,3.65e-4 0.3472,0.08101 0.46663,0.21239 0.1197,0.13167 0.19378,0.31377 0.19378,0.51469 v -0.2775 c 0,-0.20092 -0.07408,-0.38302 -0.19378,-0.51469 -0.11943,-0.13137 -0.28447,-0.21202 -0.46663,-0.21239 h -1.1652 z m -7.8247,2.1037 c -0.0026,0.02629 -0.0067,0.05201 -0.0067,0.07906 v 0.2775 c 0,-0.02705 0.0041,-0.05277 0.0067,-0.07906 z"
       fill="url(#linearGradient4625)"
       opacity="0.00100002"
       stroke-width="0.26458"
       id="path43"
       style="fill:url(#linearGradient23865)" />
    <path
       d="m -20.636744,10.102433 v 0.28215 c 0,0.20092 0.07357,0.3825 0.19327,0.51417 0.1197,0.13167 0.28553,0.21342 0.46818,0.21342 h 14.552 c 0.18265,0 0.34796,-0.08175 0.46766,-0.21342 0.1197,-0.13167 0.19378,-0.31325 0.19378,-0.51417 v -0.28215 c 0,0.20092 -0.07409,0.3825 -0.19378,0.51417 -0.1197,0.13167 -0.28501,0.21342 -0.46766,0.21342 h -14.552 c -0.18265,0 -0.34848,-0.08176 -0.46818,-0.21342 -0.1197,-0.13166 -0.19327,-0.31325 -0.19327,-0.51417 z"
       stroke-width="0.26458"
       id="path45"
       style="fill:#2d3246;fill-opacity:1" />
    <path
       id="path47"
       style="fill:url(#linearGradient22684);fill-opacity:1"
       d="m -13.623917,0.5260048 c 0,0 -0.359222,0.478685 -1.15753,0.7921841 -0.03271,0.00587 -0.06509,0.011576 -0.100766,0.017053 h -4.96084 c -0.21986,0 -0.418243,0.088555 -0.561712,0.2320227 -0.13937,0.1393592 -0.220425,0.333333 -0.225305,0.5456921 v 0.5167542 c -0.0026,0.026291 -0.0067,0.052013 -0.0067,0.079063 v 7.3952691 c 0,0.200917 0.07357,0.3825 0.193266,0.51417 0.1197,0.13167 0.28553,0.213419 0.468179,0.213419 h 14.552314 c 0.18265,0 0.347963,-0.08175 0.467663,-0.213419 0.1197,-0.13167 0.193783,-0.313253 0.193783,-0.51417 V 1.2530778 c 0,-0.2009194 -0.07408,-0.3830174 -0.193783,-0.5146871 C -5.074816,0.607021 -5.240352,0.5263745 -5.422512,0.5260048 h -7.482083 z" />
    <path
       d="m -13.623944,0.5260334 c 0,0 -0.35919,0.47868 -1.1575,0.79218 -0.03271,0.00587 -0.06509,0.011575 -0.10077,0.017052 h -4.9608 c -0.21986,0 -0.41824,0.088552 -0.56171,0.23202 -0.13937,0.13936 -0.22041,0.33333 -0.2253,0.54569 v 0.38446 c 0.0049,-0.21236 0.08593,-0.40633 0.2253,-0.54569 0.14347,-0.14347 0.34185,-0.23202 0.56171,-0.23202 h 4.9608 c 0.03568,-0.00548 0.06806,-0.011184 0.10077,-0.017052 0.75911,-0.26303 1.2883,-0.79218 1.2883,-0.79218 h 8.0707 c 0.18216,3.704e-4 0.34718,0.081016 0.46663,0.21239 0.1197,0.13167 0.19378,0.31377 0.19378,0.51469 v -0.38446 c 0,-0.20092 -0.07408,-0.38302 -0.19378,-0.51469 -0.11945,-0.13137 -0.28447,-0.21202 -0.46663,-0.21239 h -7.4821 z m -7.0062,2.1037 c -0.0026,0.026291 -0.0067,0.052013 -0.0067,0.079063 v 0.38447 c 0,-0.02705 0.0041,-0.052773 0.0067,-0.079063 z"
       fill="url(#linearGradient11110)"
       opacity="0.3"
       id="path49"
       style="fill:url(#linearGradient23867)" />
  </g>
  <path
     id="path19"
     style="fill:#23283c;fill-opacity:1;stroke-width:0.286626"
     d="M 10.473056 6.4821641 A 1.7197578 1.7197578 0 0 0 8.7532986 8.2019219 A 1.7197578 1.7197578 0 0 0 9.0395804 9.1506825 L 9.0395804 11.107114 A 1.1465052 1.1465052 0 0 0 8.6887043 11.26369 L 7.0304402 10.428616 A 1.1465052 1.1465052 0 0 0 5.8868633 9.3485993 A 1.1465052 1.1465052 0 0 0 4.7401858 10.49476 A 1.1465052 1.1465052 0 0 0 5.8868633 11.641437 A 1.1465052 1.1465052 0 0 0 6.5193704 11.443004 L 8.184869 12.282213 A 1.1465052 1.1465052 0 0 0 9.3263789 13.361195 A 1.1465052 1.1465052 0 0 0 10.473056 12.214518 A 1.1465052 1.1465052 0 0 0 10.156286 11.426985 L 11.230101 9.7377152 A 1.7197578 1.7197578 0 0 0 12.192814 8.2019219 A 1.7197578 1.7197578 0 0 0 10.473056 6.4821641 z M 10.473056 7.0552444 A 1.1465052 1.1465052 0 0 1 11.619217 8.2019219 A 1.1465052 1.1465052 0 0 1 10.473056 9.3485993 A 1.1465052 1.1465052 0 0 1 9.3263789 8.2019219 A 1.1465052 1.1465052 0 0 1 10.473056 7.0552444 z M 10.473056 7.6288415 A 0.5732526 0.5732526 0 0 0 9.8994593 8.2019219 A 0.5732526 0.5732526 0 0 0 10.473056 8.7750022 A 0.5732526 0.5732526 0 0 0 11.046137 8.2019219 A 0.5732526 0.5732526 0 0 0 10.473056 7.6288415 z M 5.8868633 9.6348811 A 0.8598789 0.8598789 0 0 1 6.7162537 10.270489 L 6.1442068 9.9821399 C 5.863124 9.8405615 5.5205008 9.9519837 5.3763102 10.231732 C 5.2321195 10.511481 5.3427525 10.850299 5.6238354 10.991878 L 6.2144854 11.289528 A 0.8598789 0.8598789 0 0 1 5.8868633 11.354639 A 0.8598789 0.8598789 0 0 1 5.0269844 10.49476 A 0.8598789 0.8598789 0 0 1 5.8868633 9.6348811 z M 9.3263789 11.354639 A 0.8598789 0.8598789 0 0 1 10.186258 12.214518 A 0.8598789 0.8598789 0 0 1 9.3263789 13.074397 A 0.8598789 0.8598789 0 0 1 8.4985388 12.440339 L 9.0690353 12.727655 C 9.3501182 12.869233 9.6922246 12.757811 9.8364153 12.478062 C 9.9806059 12.198314 9.8704896 11.858979 9.5894068 11.7174 L 9.0018573 11.4213 A 0.8598789 0.8598789 0 0 1 9.3263789 11.354639 z " />
</svg>
