<?xml version="1.0" encoding="UTF-8" standalone="no"?>
<svg
   width="16"
   height="16"
   version="1.1"
   id="svg1"
   sodipodi:docname="audio-volume-muted-symbolic.svg"
   inkscape:version="1.4 (e7c3feb100, 2024-10-09)"
   xmlns:inkscape="http://www.inkscape.org/namespaces/inkscape"
   xmlns:sodipodi="http://sodipodi.sourceforge.net/DTD/sodipodi-0.dtd"
   xmlns="http://www.w3.org/2000/svg"
   xmlns:svg="http://www.w3.org/2000/svg">
  <defs
     id="defs1" />
  <sodipodi:namedview
     id="namedview1"
     pagecolor="#c8c8c8"
     bordercolor="#000000"
     borderopacity="0.25"
     inkscape:showpageshadow="2"
     inkscape:pageopacity="0.0"
     inkscape:pagecheckerboard="0"
     inkscape:deskcolor="#d1d1d1"
     inkscape:zoom="16.860077"
     inkscape:cx="13.582382"
     inkscape:cy="5.72358"
     inkscape:window-width="1920"
     inkscape:window-height="1017"
     inkscape:window-x="0"
     inkscape:window-y="34"
     inkscape:window-maximized="1"
     inkscape:current-layer="svg1"
     showgrid="true">
    <inkscape:grid
       id="grid1"
       units="px"
       originx="0"
       originy="0"
       spacingx="1"
       spacingy="1"
       empcolor="#0099e5"
       empopacity="0.30196078"
       color="#0099e5"
       opacity="0.14901961"
       empspacing="5"
       enabled="true"
       visible="true" />
  </sodipodi:namedview>
  <g
     id="g5-3-5"
     transform="translate(0.04553,-3.9834962e-4)">
    <path
       class="ColorScheme-Text" fill="currentColor"
       d="M 7.3411887 1.5003983 C 7.1540487 1.4888983 6.7812825 1.6400208 6.6497825 1.7582108 L 4.0462669 5.0003983 L 1.5911887 5.0003983 C 0.6846488 5.0003983 -0.04553 5.7556783 -0.04553 6.7503983 L -0.04553 9.2503983 C -0.04553 10.245118 0.6846488 11.000398 1.5911887 11.000398 L 4.0462669 11.000398 L 6.8314231 14.334383 C 6.9629031 14.452593 7.1540988 14.511938 7.3411887 14.500398 C 7.6529887 14.481098 7.95447 14.262905 7.95447 13.785555 L 7.95447 2.2152421 C 7.95447 1.7378921 7.6530988 1.5197183 7.3411887 1.5003983 z M 6.95447 2.9515702 L 6.95447 3.1761796 L 6.95447 12.758211 L 6.95447 13.031648 L 4.4681419 10.000398 L 1.7884544 10.000398 C 1.7313544 10.000398 1.6742556 9.9934182 1.6204856 9.9828202 L 1.6185325 9.9828202 C 1.5648325 9.9719202 1.5136156 9.9566452 1.4642356 9.9359452 L 1.4622825 9.9359452 C 1.4123825 9.9149452 1.3659775 9.8877202 1.3216575 9.8578202 C 1.2773575 9.8279202 1.2362605 9.7939172 1.1986106 9.7562577 C 1.1609106 9.7185577 1.1269076 9.6775607 1.0970481 9.6332108 C 1.0671481 9.5889108 1.0399231 9.5425058 1.0189231 9.4925858 L 1.0189231 9.4906327 C 0.99822312 9.4412327 0.98304813 9.3900758 0.97204813 9.3363358 L 0.97204813 9.3343827 C 0.96604813 9.3071827 0.96127625 9.2804515 0.95837625 9.2523515 C 0.95537625 9.2242515 0.95447 9.195214 0.95447 9.166414 L 0.95447 6.8343827 C 0.95447 6.7773827 0.96144802 6.720194 0.97204813 6.666414 L 0.97204813 6.6644608 C 0.98294812 6.6107608 0.99822312 6.559554 1.0189231 6.510164 L 1.0189231 6.5082108 C 1.0399231 6.4583108 1.0671481 6.4119058 1.0970481 6.3675858 C 1.1269481 6.3232858 1.1609501 6.2821889 1.1986106 6.244539 C 1.2363106 6.206839 1.2773076 6.172837 1.3216575 6.1429765 C 1.3659575 6.1130765 1.4123625 6.0858515 1.4622825 6.0648515 L 1.4642356 6.0648515 C 1.5136356 6.0441515 1.5647925 6.0289765 1.6185325 6.0179765 C 1.6728292 6.0068703 1.7307544 6.0003983 1.7884544 6.0003983 L 4.4681419 6.0003983 L 6.95447 2.9515702 z M 9.79822 4.6722733 C 9.67041 4.6722733 9.5426394 4.7208232 9.4447044 4.8187577 C 9.2488364 5.0146263 9.2488354 5.3299205 9.4447044 5.525789 L 11.919314 8.0003983 L 9.4447044 10.475008 C 9.2488354 10.670877 9.2488364 10.986171 9.4447044 11.182039 C 9.6405734 11.377908 9.9558666 11.377907 10.151736 11.182039 L 12.626345 8.7074296 L 15.100954 11.182039 C 15.296823 11.377907 15.612117 11.377907 15.807986 11.182039 C 16.003854 10.98617 16.003854 10.670877 15.807986 10.475008 L 13.333376 8.0003983 L 15.807986 5.525789 C 16.003855 5.3299204 16.003855 5.0146263 15.807986 4.8187577 C 15.612118 4.6228892 15.296822 4.6228892 15.100954 4.8187577 L 12.626345 7.2933671 L 10.151736 4.8187577 C 10.053802 4.7208234 9.926029 4.6722733 9.79822 4.6722733 z " opacity=".30" />
  </g>
</svg>
