<?xml version="1.0" encoding="UTF-8" standalone="no"?>
<svg
   width="16"
   height="16"
   enable-background="new"
   version="1.1"
   id="svg5"
   sodipodi:docname="audio-volume-high-symbolic.svg"
   inkscape:version="1.4 (e7c3feb100, 2024-10-09)"
   xmlns:inkscape="http://www.inkscape.org/namespaces/inkscape"
   xmlns:sodipodi="http://sodipodi.sourceforge.net/DTD/sodipodi-0.dtd"
   xmlns="http://www.w3.org/2000/svg"
   xmlns:svg="http://www.w3.org/2000/svg">
  <defs
     id="defs5" />
  <sodipodi:namedview
     id="namedview5"
     pagecolor="#c8c8c8"
     bordercolor="#000000"
     borderopacity="0.25"
     inkscape:showpageshadow="2"
     inkscape:pageopacity="0.0"
     inkscape:pagecheckerboard="0"
     inkscape:deskcolor="#d1d1d1"
     showgrid="true"
     inkscape:zoom="35.04598"
     inkscape:cx="15.008854"
     inkscape:cy="7.3474904"
     inkscape:window-width="1920"
     inkscape:window-height="1017"
     inkscape:window-x="0"
     inkscape:window-y="34"
     inkscape:window-maximized="1"
     inkscape:current-layer="svg5">
    <inkscape:grid
       id="grid5"
       units="px"
       originx="0"
       originy="0"
       spacingx="1"
       spacingy="1"
       empcolor="#0099e5"
       empopacity="0.30196078"
       color="#0099e5"
       opacity="0.14901961"
       empspacing="5"
       dotted="false"
       gridanglex="30"
       gridanglez="30"
       visible="true" />
  </sodipodi:namedview>
  <g
     id="g5">
    <path
       transform="translate(0 -.00047914)" fill="#currentColor"
       d="M 7.3867188 1.5 C 7.1995787 1.4885 6.8268125 1.6396225 6.6953125 1.7578125 L 4.0917969 5 L 1.6367188 5 C 0.73017875 5 -2.9605947e-16 5.75528 0 6.75 L 0 9.25 C 0 10.24472 0.73017875 11 1.6367188 11 L 4.0917969 11 L 6.8769531 14.333984 C 7.0084331 14.452194 7.1996288 14.51154 7.3867188 14.5 C 7.6985188 14.4807 8 14.262506 8 13.785156 L 8 2.2148438 C 8 1.7374938 7.6986288 1.51932 7.3867188 1.5 z M 13.347656 2.7304688 C 12.95204 2.74236 12.705389 3.2641013 13.091797 3.6445312 C 14.306497 4.7771313 14.9974 6.3626375 15 8.0234375 C 14.998 9.6888375 14.304044 11.278509 13.083984 12.412109 C 12.615634 12.858339 13.257442 13.558805 13.763672 13.140625 C 15.186672 11.819025 15.9967 9.9655375 16 8.0234375 C 15.998 6.0851375 15.192601 4.2344094 13.775391 2.9121094 C 13.628538 2.7783894 13.479528 2.726505 13.347656 2.7304688 z M 7 2.9511719 L 7 3.1757812 L 7 12.755859 L 7 13.029297 L 4.5136719 10 L 1.8339844 10 C 1.7768844 10 1.7197856 9.9930219 1.6660156 9.9824219 L 1.6640625 9.9824219 C 1.6103625 9.9715219 1.5591456 9.9542938 1.5097656 9.9335938 L 1.5078125 9.9335938 C 1.4579125 9.9125938 1.4115075 9.8873219 1.3671875 9.8574219 C 1.3228875 9.8275219 1.2817906 9.7935194 1.2441406 9.7558594 C 1.2064406 9.7181594 1.1724381 9.6771625 1.1425781 9.6328125 C 1.1126781 9.5885125 1.0854531 9.5421075 1.0644531 9.4921875 C 1.0642231 9.4916275 1.0646931 9.4892813 1.0644531 9.4882812 C 1.0437531 9.4388813 1.0285781 9.3877244 1.0175781 9.3339844 L 1.0175781 9.3320312 C 1.0115781 9.3048312 1.0068063 9.2781 1.0039062 9.25 C 1.0009063 9.2219 1 9.1928625 1 9.1640625 L 1 6.8339844 C 1 6.7769844 1.0069781 6.7197956 1.0175781 6.6660156 L 1.0175781 6.6640625 C 1.0284781 6.6103625 1.0437531 6.5591556 1.0644531 6.5097656 L 1.0644531 6.5078125 C 1.0854531 6.4579125 1.1126781 6.4115075 1.1425781 6.3671875 C 1.1724781 6.3228875 1.2064806 6.2817906 1.2441406 6.2441406 C 1.2818406 6.2064406 1.3228375 6.1724381 1.3671875 6.1425781 C 1.4114875 6.1126781 1.4578925 6.0854531 1.5078125 6.0644531 L 1.5097656 6.0644531 C 1.5591656 6.0437531 1.6103225 6.0285781 1.6640625 6.0175781 C 1.7183625 6.0064781 1.7762844 6 1.8339844 6 L 4.5136719 6 L 7 2.9511719 z M 10.017578 4.1992188 C 9.6415497 4.2156039 9.37293 4.7128731 9.7265625 5.0957031 C 10.537012 5.8507131 10.9981 6.908025 11 8.015625 C 10.999 9.125925 10.535996 10.185706 9.7226562 10.941406 C 9.2500662 11.371336 9.8622238 12.093605 10.402344 11.671875 C 11.419144 10.727625 11.9978 9.403225 12 8.015625 C 11.998 6.631225 11.422576 5.3094344 10.410156 4.3652344 C 10.279919 4.2418119 10.142921 4.193757 10.017578 4.1992188 z " />
  </g>
</svg>
