<?xml version="1.0" encoding="UTF-8" standalone="no"?>
<svg
   width="64"
   height="64"
   version="1.1"
   id="svg29"
   sodipodi:docname="video-television.svg"
   inkscape:version="1.4 (e7c3feb100, 2024-10-09)"
   xmlns:inkscape="http://www.inkscape.org/namespaces/inkscape"
   xmlns:sodipodi="http://sodipodi.sourceforge.net/DTD/sodipodi-0.dtd"
   xmlns:xlink="http://www.w3.org/1999/xlink"
   xmlns="http://www.w3.org/2000/svg"
   xmlns:svg="http://www.w3.org/2000/svg">
  <sodipodi:namedview
     id="namedview29"
     pagecolor="#505050"
     bordercolor="#eeeeee"
     borderopacity="1"
     inkscape:showpageshadow="0"
     inkscape:pageopacity="0"
     inkscape:pagecheckerboard="0"
     inkscape:deskcolor="#505050"
     inkscape:zoom="2.28125"
     inkscape:cx="23.232877"
     inkscape:cy="66.630137"
     inkscape:window-width="2560"
     inkscape:window-height="1411"
     inkscape:window-x="0"
     inkscape:window-y="0"
     inkscape:window-maximized="1"
     inkscape:current-layer="svg29" />
  <defs
     id="defs14">
    <linearGradient
       id="k"
       x1="33"
       x2="24"
       y1="21"
       y2="12"
       gradientTransform="translate(377.71 494.8)scale(1.2857)"
       gradientUnits="userSpaceOnUse">
      <stop
         offset="0"
         stop-color="#ee6406"
         id="stop1" />
      <stop
         offset="1"
         stop-color="#ffce0d"
         id="stop2" />
    </linearGradient>
    <linearGradient
       id="e"
       x1="23.844"
       x2="23.816"
       y1="17.574"
       y2="85.151"
       gradientUnits="userSpaceOnUse">
      <stop
         offset="0"
         stop-color="#1bd2fa"
         id="stop3" />
      <stop
         offset="1"
         stop-color="#1c7ef2"
         id="stop4" />
    </linearGradient>
    <linearGradient
       id="g"
       x1="174.79"
       x2="174.86"
       y1="109.47"
       y2="118.12"
       gradientUnits="userSpaceOnUse">
      <stop
         offset="0"
         stop-color="#909090"
         id="stop5" />
      <stop
         offset="1"
         stop-color="#727272"
         stop-opacity="0"
         id="stop6" />
    </linearGradient>
    <linearGradient
       id="a">
      <stop
         offset="0"
         stop-color="#909090"
         id="stop7" />
      <stop
         offset="1"
         stop-color="#636363"
         stop-opacity="0"
         id="stop8" />
    </linearGradient>
    <linearGradient
       xlink:href="#a"
       id="j"
       x1="183.06"
       x2="183.06"
       y1="129.42"
       y2="127.06"
       gradientUnits="userSpaceOnUse" />
    <radialGradient
       id="c"
       cx="199.22"
       cy="60.978"
       r="62.148"
       gradientTransform="matrix(1.0119,0,0,5.0958,-134.28,-251.23)"
       gradientUnits="userSpaceOnUse">
      <stop
         offset="0"
         stop-color="#e6e6e8"
         id="stop9" />
      <stop
         offset="1"
         stop-color="#cbccce"
         id="stop10" />
    </radialGradient>
    <radialGradient
       id="d"
       cx="199.22"
       cy="60.978"
       r="62.148"
       gradientTransform="matrix(1.3103,0,0,3.6151,-193.73,-160.94)"
       gradientUnits="userSpaceOnUse">
      <stop
         offset="0"
         stop-color="#ececef"
         id="stop11" />
      <stop
         offset="1"
         stop-color="#cbccce"
         stop-opacity="0"
         id="stop12" />
    </radialGradient>
    <radialGradient
       xlink:href="#a"
       id="h"
       cx="178.79"
       cy="120.7"
       r="22.055"
       gradientTransform="matrix(3.8591,0,0,0.1388,-511.17,103.95)"
       gradientUnits="userSpaceOnUse" />
    <filter
       id="b"
       width="1.0289622"
       height="1.034632"
       x="-0.014481094"
       y="-0.017316018"
       color-interpolation-filters="sRGB">
      <feGaussianBlur
         stdDeviation=".75"
         id="feGaussianBlur12" />
    </filter>
    <filter
       id="f"
       width="1.1609397"
       height="1.4909204"
       x="-0.080469841"
       y="-0.2454602"
       color-interpolation-filters="sRGB">
      <feGaussianBlur
         stdDeviation="1.479"
         id="feGaussianBlur13" />
    </filter>
    <filter
       id="i"
       width="1.0499366"
       height="2.0066496"
       x="-0.024968283"
       y="-0.50332482"
       color-interpolation-filters="sRGB">
      <feGaussianBlur
         stdDeviation=".328"
         id="feGaussianBlur14" />
    </filter>
    <linearGradient
       id="linearGradient29240"
       x1="32"
       x2="32"
       y1="44"
       y2="52"
       gradientTransform="matrix(0.79998,0,0,1,6.4007,0)"
       gradientUnits="userSpaceOnUse">
      <stop
         stop-color="#818990"
         offset="0"
         id="stop1-7" />
      <stop
         stop-color="#9fa8b0"
         offset="1"
         id="stop2-5" />
    </linearGradient>
    <linearGradient
       id="linearGradient1455"
       x1="4"
       x2="60"
       y1="27"
       y2="27"
       gradientTransform="matrix(1,0,0,1.0556,236.16,501.64)"
       gradientUnits="userSpaceOnUse">
      <stop
         stop-color="#555a5f"
         offset="0"
         id="stop3-3" />
      <stop
         stop-color="#4b4f53"
         offset="1"
         id="stop4-5" />
    </linearGradient>
    <linearGradient
       id="linearGradient17498"
       x1="4"
       x2="60"
       y1="9"
       y2="45"
       gradientTransform="matrix(0.96428,0,0,1,237.3,503.14)"
       gradientUnits="userSpaceOnUse">
      <stop
         stop-color="#3fe3e7"
         offset="0"
         id="stop5-6" />
      <stop
         stop-color="#066bbc"
         offset="1"
         id="stop6-2" />
    </linearGradient>
    <linearGradient
       inkscape:collect="always"
       xlink:href="#k"
       id="linearGradient33"
       gradientUnits="userSpaceOnUse"
       gradientTransform="matrix(1.2857,0,0,1.2857,377.71,494.8)"
       x1="33"
       y1="21"
       x2="24"
       y2="12" />
    <linearGradient
       inkscape:collect="always"
       xlink:href="#k"
       id="linearGradient34"
       gradientUnits="userSpaceOnUse"
       gradientTransform="matrix(1.2857,0,0,1.2857,377.71,494.8)"
       x1="33"
       y1="21"
       x2="24"
       y2="12" />
  </defs>
  <g
     transform="translate(-376.58,-491.796)"
     id="g11">
    <g
       transform="translate(140.42,-10.614)"
       id="g10">
      <path
         d="m 243.16,510.68 c -1.662,0 -3,1.338 -3,3 v 1 c 0,-1.662 1.338,-3 3,-3 h 50 c 1.662,0 3,1.338 3,3 v -1 c 0,-1.662 -1.338,-3 -3,-3 z"
         fill="#b8c2cc"
         id="path6" />
      <g
         transform="translate(236.16,502.14)"
         shape-rendering="auto"
         id="g9">
        <path
           d="m 20.667,51 h 22.667 l 2.6667,3 h -28 z"
           color="#000000"
           color-rendering="auto"
           dominant-baseline="auto"
           fill="#bcc5cf"
           image-rendering="optimizeSpeed"
           solid-color="#000000"
           stop-color="#000000"
           stroke-width="5.7734"
           style="font-variant-ligatures:normal;font-variant-position:normal;font-variant-caps:normal;font-variant-numeric:normal;font-variant-alternates:normal;font-variant-east-asian:normal;font-feature-settings:normal;font-variation-settings:normal;text-indent:0;text-decoration-line:none;text-decoration-style:solid;text-decoration-color:#000000;text-transform:none;text-orientation:mixed;white-space:normal;shape-padding:0;shape-margin:0;inline-size:0;isolation:auto;mix-blend-mode:normal"
           id="path7" />
        <path
           d="M 28.001,44.222 H 36 v 7.7779 h -7.999 z"
           color="#000000"
           color-rendering="auto"
           dominant-baseline="auto"
           fill="url(#linearGradient29240)"
           image-rendering="optimizeSpeed"
           solid-color="#000000"
           stop-color="#000000"
           stroke-width="5.4429"
           style="font-variant-ligatures:normal;font-variant-position:normal;font-variant-caps:normal;font-variant-numeric:normal;font-variant-alternates:normal;font-variant-east-asian:normal;font-feature-settings:normal;font-variation-settings:normal;text-indent:0;text-decoration-line:none;text-decoration-style:solid;text-decoration-color:#000000;text-transform:none;text-orientation:mixed;white-space:normal;shape-padding:0;shape-margin:0;inline-size:0;isolation:auto;mix-blend-mode:normal;fill:url(#linearGradient29240)"
           id="path8" />
        <path
           d="m 18,54 h 28 v 2 H 18 Z"
           color="#000000"
           color-rendering="auto"
           dominant-baseline="auto"
           fill="#44484c"
           fill-opacity="0.99608"
           image-rendering="optimizeSpeed"
           solid-color="#000000"
           stop-color="#000000"
           stroke-width="6.6666"
           style="font-variant-ligatures:normal;font-variant-position:normal;font-variant-caps:normal;font-variant-numeric:normal;font-variant-alternates:normal;font-variant-east-asian:normal;font-feature-settings:normal;font-variation-settings:normal;text-indent:0;text-decoration-line:none;text-decoration-style:solid;text-decoration-color:#000000;text-transform:none;text-orientation:mixed;white-space:normal;shape-padding:0;shape-margin:0;inline-size:0;isolation:auto;mix-blend-mode:normal"
           id="path9" />
      </g>
      <rect
         x="240.16"
         y="511.14001"
         width="56"
         height="38"
         ry="3"
         fill="url(#linearGradient1455)"
         stroke-linecap="round"
         stroke-linejoin="round"
         stroke-width="0.82192"
         id="rect9"
         style="fill:url(#linearGradient1455)" />
      <rect
         x="241.16"
         y="512.14001"
         width="54"
         height="36"
         ry="2"
         fill="url(#linearGradient17498)"
         stroke-linecap="round"
         stroke-linejoin="round"
         stroke-width="0.78558"
         id="rect10"
         style="fill:url(#linearGradient17498)" />
    </g>
  </g>
  <g
     stroke-width="2.058"
     transform="matrix(0.48966,0,0,0.48209,-112.62829,-1.39)"
     id="g24">
    <rect
       width="124.3"
       height="103.95"
       x="5.1560001"
       y="8.7790003"
       fill="#1a1a1a"
       filter="url(#b)"
       opacity="0.887"
       rx="5.6620002"
       id="rect14" />
    <rect
       width="124.3"
       height="103.95"
       x="5.1560001"
       y="8.7790003"
       fill="url(#c)"
       rx="5.6620002"
       id="rect15"
       style="fill:url(#c)" />
    <rect
       width="124.3"
       height="103.95"
       x="5.1560001"
       y="8.7790003"
       fill="url(#d)"
       rx="5.6620002"
       id="rect16"
       style="fill:url(#d)" />
    <path
       fill="#080808"
       d="M 10.818,8.778 A 5.65,5.65 0 0 0 5.156,14.44 v 75.664 h 124.3 V 14.44 a 5.65,5.65 0 0 0 -5.662,-5.662 z"
       id="path16" />
    <path
       fill="url(#e)"
       d="m 10.318,12.353 h 113.49 V 85.682 H 10.318 Z"
       id="path17"
       style="fill:url(#e)" />
    <path
       fill="#afafaf"
       d="m 5.156,106.01 v 1.057 a 5.65,5.65 0 0 0 5.662,5.662 h 112.97 a 5.65,5.65 0 0 0 5.662,-5.662 v -1.057 a 5.65,5.65 0 0 1 -5.662,5.662 H 10.818 A 5.65,5.65 0 0 1 5.156,106.01"
       id="path18" />
    <g
       transform="translate(-111.48,-1.474)"
       id="g23">
      <path
         d="m 194.34,114.95 c -0.088,3.7 -0.946,7.822 4.95,11.334 4.707,2.926 -2.61,3.127 -4.429,3.127 h -32.145 c -1.818,0 -9.136,-0.201 -4.43,-3.127 5.898,-3.513 5.04,-7.635 4.951,-11.334 z"
         filter="url(#f)"
         id="path19" />
      <path
         fill="#e0e1e6"
         d="m 194.34,113.47 c -0.088,3.7 -0.946,7.822 4.95,11.334 4.707,2.926 -2.61,3.127 -4.429,3.127 -10.492,0.462 -21.162,0.762 -32.145,0 -1.818,0 -9.136,-0.201 -4.43,-3.127 5.898,-3.513 5.04,-7.635 4.951,-11.334 z"
         id="path20" />
      <path
         fill="url(#g)"
         d="m 194.34,113.47 c -0.088,3.7 -0.946,7.822 4.95,11.334 4.707,2.926 -2.61,3.127 -4.429,3.127 h -32.145 c -1.818,0 -9.136,-0.201 -4.43,-3.127 5.898,-3.513 5.04,-7.635 4.951,-11.334 z"
         id="path21"
         style="fill:url(#g)" />
      <path
         fill="url(#h)"
         d="m 194.34,113.47 c -0.088,3.7 -0.946,7.822 4.95,11.334 4.707,2.926 -2.61,3.127 -4.429,3.127 h -32.145 c -1.818,0 -9.136,-0.201 -4.43,-3.127 5.898,-3.513 5.04,-7.635 4.951,-11.334 z"
         id="path22"
         style="fill:url(#h)" />
      <ellipse
         cx="178.28999"
         cy="127.15"
         fill="#ffffff"
         filter="url(#i)"
         opacity="0.887"
         rx="15.764"
         ry="0.78200001"
         id="ellipse22" />
      <path
         fill="url(#j)"
         d="m 194.34,113.47 c -0.088,3.7 -0.946,7.822 4.95,11.334 4.707,2.926 -2.61,3.127 -4.429,3.127 h -32.145 c -1.818,0 -9.136,-0.201 -4.43,-3.127 5.898,-3.513 5.04,-7.635 4.951,-11.334 z"
         id="path23"
         style="fill:url(#j)" />
    </g>
  </g>
  <path
     fill="#1e1f28"
     d="m -77.580233,48.217 a 3,3 0 0 1 -0.279,0.493 2.5,2.5 0 0 1 -0.358,0.427 0.7,0.7 0 0 1 -0.462,0.2 q -0.177,0 -0.426,-0.1 a 1.2,1.2 0 0 0 -0.458,-0.1 q -0.22,0 -0.472,0.1 a 1.3,1.3 0 0 1 -0.407,0.105 q -0.237,0.01 -0.472,-0.205 a 2.6,2.6 0 0 1 -0.375,-0.442 3,3 0 0 1 -0.397,-0.776 2.8,2.8 0 0 1 -0.167,-0.925 q 0,-0.513 0.225,-0.884 a 1.31,1.31 0 0 1 1.11,-0.647 q 0.188,0 0.494,0.113 0.305,0.113 0.391,0.113 0.065,0 0.434,-0.133 0.35,-0.124 0.59,-0.103 0.654,0.05 0.981,0.508 -0.584,0.35 -0.579,0.976 0.006,0.49 0.36,0.812 0.16,0.15 0.358,0.232 a 4,4 0 0 1 -0.091,0.236 m -1,-3.873 q 0,0.383 -0.283,0.713 c -0.228,0.263 -0.503,0.414 -0.802,0.39 a 1,1 0 0 1 -0.006,-0.097 c 0,-0.244 0.108,-0.507 0.3,-0.72 q 0.145,-0.165 0.367,-0.272 a 1.1,1.1 0 0 1 0.419,-0.116 1,1 0 0 1 0.005,0.102"
     id="path24" />
  <path
     fill-opacity="0.212"
     d="m -107.45723,4.565 v 35.351 h 55.571996 V 4.565 Z m 0.271,0.245 h 55.076996 v 34.884 h -55.076996 z"
     id="path25" />
  <path
     fill="#080808"
     d="m -107.33123,2.962 c -1.536,0 -2.772,1.218 -2.772,2.73 v 36.356 h 60.863997 V 5.692 c 0,-1.513 -1.236,-2.73 -2.772,-2.73 z m -0.245,2.568 h 55.571997 v 34.386 h -55.571997 z"
     id="path26" />
  <g
     id="g34"
     transform="translate(3.6621094e-6,4.7300146)">
    <path
       fill="#ffffff"
       fill-opacity="0.453"
       d="m 32,14 c -4.986,0 -9,4.014 -9,9 0,4.986 4.014,9 9,9 4.986,0 9,-4.014 9,-9 0,-4.986 -4.014,-9 -9,-9 m 0,1 a 8,8 0 0 1 8,8 8,8 0 0 1 -8,8 8,8 0 0 1 -8,-8 8,8 0 0 1 8,-8"
       opacity="0.85"
       id="path27" />
    <path
       fill="url(#k)"
       d="m 408.57,512.8 v 1 a 8,8 0 0 1 8,8 h 1 c 0,-4.986 -4.014,-9 -9,-9"
       opacity="0.85"
       transform="translate(-376.57,-498.8)"
       id="path28"
       style="fill:url(#linearGradient34)" />
    <g
       transform="translate(-376.57,-500.8)"
       id="g29">
      <rect
         width="5.9089999"
         height="6"
         x="405.62"
         y="520.79999"
         opacity="0.8"
         rx="2.954"
         ry="3"
         id="rect28" />
      <path
         fill="#ffffff"
         fill-rule="evenodd"
         d="m 410.34,523.8 -2.954,-1.8 v 3.6 z"
         id="path29" />
    </g>
  </g>
  <g
     id="g33"
     transform="translate(-111.67123)">
    <path
       fill="#ffffff"
       fill-opacity="0.453"
       d="m 32,14 c -4.986,0 -9,4.014 -9,9 0,4.986 4.014,9 9,9 4.986,0 9,-4.014 9,-9 0,-4.986 -4.014,-9 -9,-9 m 0,1 a 8,8 0 0 1 8,8 8,8 0 0 1 -8,8 8,8 0 0 1 -8,-8 8,8 0 0 1 8,-8"
       opacity="0.85"
       id="path30" />
    <path
       fill="url(#k)"
       d="m 408.57,512.8 v 1 a 8,8 0 0 1 8,8 h 1 c 0,-4.986 -4.014,-9 -9,-9"
       opacity="0.85"
       transform="translate(-376.57,-498.8)"
       id="path31"
       style="fill:url(#linearGradient33)" />
    <g
       transform="translate(-376.57,-500.8)"
       id="g32">
      <rect
         width="5.9089999"
         height="6"
         x="405.62"
         y="520.79999"
         opacity="0.8"
         rx="2.954"
         ry="3"
         id="rect31" />
      <path
         fill="#ffffff"
         fill-rule="evenodd"
         d="m 410.34,523.8 -2.954,-1.8 v 3.6 z"
         id="path32" />
    </g>
  </g>
</svg>
