<?xml version="1.0" encoding="UTF-8" standalone="no"?>
<svg
   width="64"
   height="64"
   version="1.1"
   id="svg2"
   sodipodi:docname="add-times.svg"
   inkscape:version="1.4 (e7c3feb100, 2024-10-09)"
   xmlns:inkscape="http://www.inkscape.org/namespaces/inkscape"
   xmlns:sodipodi="http://sodipodi.sourceforge.net/DTD/sodipodi-0.dtd"
   xmlns="http://www.w3.org/2000/svg"
   xmlns:svg="http://www.w3.org/2000/svg">
  <sodipodi:namedview
     id="namedview2"
     pagecolor="#505050"
     bordercolor="#eeeeee"
     borderopacity="1"
     inkscape:showpageshadow="0"
     inkscape:pageopacity="0"
     inkscape:pagecheckerboard="0"
     inkscape:deskcolor="#505050"
     inkscape:zoom="6.485495"
     inkscape:cx="11.872648"
     inkscape:cy="34.692803"
     inkscape:window-width="2560"
     inkscape:window-height="1411"
     inkscape:window-x="0"
     inkscape:window-y="0"
     inkscape:window-maximized="1"
     inkscape:current-layer="svg2" />
  <defs
     id="defs2">
    <linearGradient
       id="a"
       x1="7.937"
       x2="7.937"
       y1="15.081"
       y2="1.852"
       gradientTransform="matrix(3.7796,0,0,3.7796,-113.93596,0.319)"
       gradientUnits="userSpaceOnUse">
      <stop
         offset="0"
         stop-color="teal"
         id="stop1" />
      <stop
         offset="1"
         stop-color="teal"
         id="stop2" />
    </linearGradient>
    <linearGradient
       id="linearGradient963"
       x1="400.39999"
       x2="400.39999"
       y1="545.62"
       y2="517.62"
       gradientTransform="matrix(1.5861847,0,0,1.5861847,-741.14015,-703.83377)"
       gradientUnits="userSpaceOnUse">
      <stop
         stop-color="#d3d3d3"
         offset="0"
         id="stop1-3" />
      <stop
         stop-color="#fcf9f9"
         offset="1"
         id="stop2-6" />
    </linearGradient>
    <linearGradient
       id="linearGradient965"
       x1="400.39999"
       x2="400.39999"
       y1="545.62"
       y2="517.62"
       gradientTransform="matrix(1.638192,0,0,1.638192,-815.78725,-709.35198)"
       gradientUnits="userSpaceOnUse">
      <stop
         stop-color="#8d3aff"
         offset="0"
         id="stop3" />
      <stop
         stop-color="#ff3680"
         offset="1"
         id="stop4" />
    </linearGradient>
    <linearGradient
       id="linearGradient1634"
       x1="-54.827999"
       x2="-63.444"
       y1="-1.7294"
       y2="-11.074"
       gradientTransform="matrix(4.1231656,0,0,4.1231656,275.52411,59.008474)"
       gradientUnits="userSpaceOnUse">
      <stop
         stop-color="#00999f"
         offset="0"
         id="stop5" />
      <stop
         stop-color="#31c891"
         offset="1"
         id="stop6" />
    </linearGradient>
    <linearGradient
       id="linearGradient987"
       x1="-54.827999"
       x2="-63.444"
       y1="-1.7294"
       y2="-11.074"
       gradientTransform="matrix(3.4523228,0,0,3.4523228,149.91459,24.422476)"
       gradientUnits="userSpaceOnUse">
      <stop
         stop-color="#232223"
         offset="0"
         id="stop7" />
      <stop
         stop-color="#49484d"
         offset="1"
         id="stop8" />
    </linearGradient>
    <linearGradient
       id="linearGradient1034"
       x1="-54.827999"
       x2="-63.444"
       y1="-1.7294"
       y2="-11.074"
       gradientTransform="matrix(1.4086569,0,0,1.4086569,29.214141,11.032218)"
       gradientUnits="userSpaceOnUse">
      <stop
         stop-color="#d2d2d2"
         offset="0"
         id="stop9" />
      <stop
         stop-color="#fff"
         offset="1"
         id="stop10" />
    </linearGradient>
    <linearGradient
       id="linearGradient1044"
       x1="-54.827999"
       x2="-63.444"
       y1="-1.7294"
       y2="-11.074"
       gradientTransform="matrix(0.53893316,0,0,0.53893316,-22.153646,5.3363608)"
       gradientUnits="userSpaceOnUse">
      <stop
         stop-color="#232223"
         offset="0"
         id="stop11" />
      <stop
         stop-color="#49484d"
         offset="1"
         id="stop12" />
    </linearGradient>
  </defs>
  <path
     d="m 61.999762,31.999452 c 0,3.596403 -0.633045,7.044419 -1.793949,10.240449 -0.806945,2.221195 -1.868559,4.321216 -3.151884,6.263553 -0.537535,0.816696 -1.115511,1.605385 -1.728978,2.363308 -1.964069,2.425672 -4.298161,4.538166 -6.91818,6.252592 -0.964932,0.631836 -1.967811,1.20985 -3.006105,1.727731 -4.032077,2.017853 -8.583849,3.152942 -13.40095,3.152942 -4.8171,0 -9.368872,-1.135089 -13.400949,-3.153018 -1.038408,-0.517994 -2.042496,-1.095932 -3.00739,-1.72773 C 12.937871,55.381721 10.575847,53.236118 8.596093,50.770307 7.981454,50.006223 7.40465,49.210277 6.867115,48.386248 5.618108,46.476076 4.583481,44.415023 3.792486,42.236839 2.631771,39.042057 1.999822,35.595326 1.999822,32.00017 c 0,-16.568632 13.431564,-30.000197 30.000197,-30.000197 8.317009,0 15.842571,3.384519 21.27688,8.850312 1.566077,1.574619 2.958406,3.323327 4.143575,5.213958 1.120463,1.780456 2.057123,3.688134 2.785679,5.695101 1.161018,3.195954 1.794025,6.644159 1.794025,10.240449 z"
     fill="url(#linearGradient1634)"
     stroke-width="0.11719"
     id="path26"
     style="fill:url(#linearGradient1634)" />
  <path
     fill="#fff"
     d="M12.822 42.49h5.237v-5.255a1.746 1.752 0 0 1 3.492 0v5.255h5.237a1.746 1.752 0 0 1 0 3.503h-5.237v5.255a1.746 1.752 0 0 1-3.492 0v-5.255h-5.237a1.746 1.752 0 0 1 0-3.503m20.949-19.268v8.033l4.726 4.742a1.746 1.752 0 1 1-2.469 2.476l-5.237-5.255a1.746 1.752 0 0 1-.512-1.238v-8.758a1.746 1.752 0 0 1 3.492 0m-6.508 25.615A17.432 17.49 0 1 0 15.217 36.76a1.746 1.752 0 1 1-3.36.95 20.93 21 0 1 1 14.449 14.497 1.746 1.752 0 1 1 .95-3.37z"
     id="path2" />
  <circle
     cx="-1417.099"
     cy="-1267.9506"
     r="0"
     id="circle21"
     style="fill:#5e4aa6;stroke-width:1.00001" />
  <circle
     cx="-1348.1589"
     cy="-1259.9"
     r="0"
     id="circle22"
     style="fill:#5e4aa6;stroke-width:1.00001" />
  <circle
     cx="-1325.1412"
     cy="-1285.677"
     r="0"
     id="circle23"
     style="fill:#5e4aa6;stroke-width:1.00001" />
  <circle
     cx="-1335.7997"
     cy="-1258.9929"
     r="0"
     id="circle24"
     style="fill:#5e4aa6;stroke-width:1.00001" />
  <circle
     cx="-105.76898"
     cy="139.72005"
     r="0"
     fill="url(#linearGradient963)"
     image-rendering="optimizeSpeed"
     stroke-width="1.00001"
     id="circle25"
     style="fill:url(#linearGradient963)" />
  <circle
     cx="-159.55798"
     cy="161.87605"
     r="0"
     fill="none"
     image-rendering="optimizeSpeed"
     stroke="url(#linearGradient965)"
     stroke-width="2.12969"
     id="circle26"
     style="stroke:url(#linearGradient965)" />
</svg>
