<?xml version="1.0" encoding="UTF-8"?>
<svg xmlns="http://www.w3.org/2000/svg" xmlns:xlink="http://www.w3.org/1999/xlink" width="64" height="64" viewBox="0 0 64 64" version="1.1">
<defs>
<filter id="alpha" filterUnits="objectBoundingBox" x="0%" y="0%" width="100%" height="100%">
  <feColorMatrix type="matrix" in="SourceGraphic" values="0 0 0 0 1 0 0 0 0 1 0 0 0 0 1 0 0 0 1 0"/>
</filter>
<mask id="mask0">
  <g filter="url(#alpha)">
<rect x="0" y="0" width="64" height="64" style="fill:rgb(0%,0%,0%);fill-opacity:0.2;stroke:none;"/>
  </g>
</mask>
<clipPath id="clip1">
  <rect x="0" y="0" width="64" height="64"/>
</clipPath>
<g id="surface5" clip-path="url(#clip1)">
<path style=" stroke:none;fill-rule:nonzero;fill:rgb(0%,0%,0%);fill-opacity:1;" d="M 10.5625 4 L 55.4375 4 C 56.855469 4 58 5.140625 58 6.558594 L 58 51.6875 C 58 53.109375 56.855469 54 55.4375 54 L 26.054688 54 L 20.5 61 L 14.945312 54 L 10.5625 54 C 9.144531 54 8 53.109375 8 51.6875 L 8 6.558594 C 8 5.140625 9.144531 4 10.5625 4 Z M 10.5625 4 "/>
</g>
<mask id="mask1">
  <g filter="url(#alpha)">
<rect x="0" y="0" width="64" height="64" style="fill:rgb(0%,0%,0%);fill-opacity:0.101961;stroke:none;"/>
  </g>
</mask>
<clipPath id="clip2">
  <rect x="0" y="0" width="64" height="64"/>
</clipPath>
<g id="surface8" clip-path="url(#clip2)">
<path style=" stroke:none;fill-rule:nonzero;fill:rgb(0%,0%,0%);fill-opacity:1;" d="M 15.097656 12 C 14.503906 12 14 12.503906 14 13.097656 L 14 16.902344 C 14 17.496094 14.503906 18 15.097656 18 L 18.902344 18 C 19.496094 18 20 17.496094 20 16.902344 L 20 13.097656 C 20 12.503906 19.496094 12 18.902344 12 Z M 29 12 C 27.917969 11.984375 26.910156 12.554688 26.367188 13.488281 C 25.820312 14.421875 25.820312 15.578125 26.367188 16.511719 C 26.910156 17.445312 27.917969 18.015625 29 18 L 49 18 C 50.082031 18.015625 51.089844 17.445312 51.632812 16.511719 C 52.179688 15.578125 52.179688 14.421875 51.632812 13.488281 C 51.089844 12.554688 50.082031 11.984375 49 12 Z M 15.097656 40 C 14.503906 40 14 40.503906 14 41.097656 L 14 44.902344 C 14 45.496094 14.503906 46 15.097656 46 L 18.902344 46 C 19.496094 46 20 45.496094 20 44.902344 L 20 41.097656 C 20 40.503906 19.496094 40 18.902344 40 Z M 29 40 C 27.917969 39.984375 26.910156 40.554688 26.367188 41.488281 C 25.820312 42.421875 25.820312 43.578125 26.367188 44.511719 C 26.910156 45.445312 27.917969 46.015625 29 46 L 49 46 C 50.082031 46.015625 51.089844 45.445312 51.632812 44.511719 C 52.179688 43.578125 52.179688 42.421875 51.632812 41.488281 C 51.089844 40.554688 50.082031 39.984375 49 40 Z M 29 40 "/>
</g>
<mask id="mask2">
  <g filter="url(#alpha)">
<rect x="0" y="0" width="64" height="64" style="fill:rgb(0%,0%,0%);fill-opacity:0.2;stroke:none;"/>
  </g>
</mask>
<clipPath id="clip3">
  <rect x="0" y="0" width="64" height="64"/>
</clipPath>
<g id="surface11" clip-path="url(#clip3)">
<path style=" stroke:none;fill-rule:nonzero;fill:rgb(0%,0%,0%);fill-opacity:1;" d="M 15.097656 26 C 14.503906 26 14 26.503906 14 27.097656 L 14 30.902344 C 14 31.496094 14.503906 32 15.097656 32 L 18.902344 32 C 19.496094 32 20 31.496094 20 30.902344 L 20 27.097656 C 20 26.503906 19.496094 26 18.902344 26 Z M 29 26 C 27.917969 25.984375 26.910156 26.554688 26.367188 27.488281 C 25.820312 28.421875 25.820312 29.578125 26.367188 30.511719 C 26.910156 31.445312 27.917969 32.015625 29 32 L 49 32 C 50.082031 32.015625 51.089844 31.445312 51.632812 30.511719 C 52.179688 29.578125 52.179688 28.421875 51.632812 27.488281 C 51.089844 26.554688 50.082031 25.984375 49 26 Z M 29 26 "/>
</g>
<mask id="mask3">
  <g filter="url(#alpha)">
<rect x="0" y="0" width="64" height="64" style="fill:rgb(0%,0%,0%);fill-opacity:0.2;stroke:none;"/>
  </g>
</mask>
<clipPath id="clip4">
  <rect x="0" y="0" width="64" height="64"/>
</clipPath>
<g id="surface14" clip-path="url(#clip4)">
<path style=" stroke:none;fill-rule:nonzero;fill:rgb(100%,100%,100%);fill-opacity:1;" d="M 10.5625 2 C 9.140625 2 8 3.140625 8 4.558594 L 8 6.558594 C 8 5.140625 9.140625 4 10.5625 4 L 55.4375 4 C 56.859375 4 58 5.140625 58 6.558594 L 58 4.558594 C 58 3.140625 56.859375 2 55.4375 2 Z M 10.5625 2 "/>
</g>
</defs>
<g id="surface1">
<use xlink:href="#surface5" mask="url(#mask0)"/>
<path style=" stroke:none;fill-rule:nonzero;fill:rgb(89.411765%,89.411765%,89.411765%);fill-opacity:1;" d="M 10.5625 2 L 55.4375 2 C 56.855469 2 58 3.140625 58 4.558594 L 58 49.6875 C 58 51.109375 56.855469 52 55.4375 52 L 26.054688 52 L 20.5 59 L 14.945312 52 L 10.5625 52 C 9.144531 52 8 51.109375 8 49.6875 L 8 4.558594 C 8 3.140625 9.144531 2 10.5625 2 Z M 10.5625 2 "/>
<use xlink:href="#surface8" mask="url(#mask1)"/>
<path style=" stroke:none;fill-rule:nonzero;fill:rgb(0%,78.039216%,77.254902%);fill-opacity:1;" d="M 8 20 L 58 20 L 58 34 L 8 34 Z M 8 20 "/>
<use xlink:href="#surface11" mask="url(#mask2)"/>
<path style=" stroke:none;fill-rule:nonzero;fill:rgb(100%,100%,100%);fill-opacity:1;" d="M 15.097656 24 C 14.5 24 14 24.503906 14 25.097656 L 14 28.902344 C 14 29.5 14.5 30 15.097656 30 L 18.902344 30 C 19.5 30 20 29.5 20 28.902344 L 20 25.097656 C 20 24.503906 19.5 24 18.902344 24 Z M 15.097656 24 "/>
<path style=" stroke:none;fill-rule:nonzero;fill:rgb(53.72549%,53.72549%,53.72549%);fill-opacity:1;" d="M 15.097656 10 C 14.5 10 14 10.503906 14 11.097656 L 14 14.902344 C 14 15.5 14.5 16 15.097656 16 L 18.902344 16 C 19.5 16 20 15.5 20 14.902344 L 20 11.097656 C 20 10.503906 19.5 10 18.902344 10 Z M 15.097656 10 "/>
<path style="fill:none;stroke-width:3;stroke-linecap:round;stroke-linejoin:miter;stroke:rgb(100%,100%,100%);stroke-opacity:1;stroke-miterlimit:4;" d="M 14.5 13.5 L 24.5 13.5 " transform="matrix(2,0,0,2,0,0)"/>
<path style="fill:none;stroke-width:3;stroke-linecap:round;stroke-linejoin:miter;stroke:rgb(53.72549%,53.72549%,53.72549%);stroke-opacity:1;stroke-miterlimit:4;" d="M 14.5 6.5 L 24.5 6.5 " transform="matrix(2,0,0,2,0,0)"/>
<path style=" stroke:none;fill-rule:nonzero;fill:rgb(53.72549%,53.72549%,53.72549%);fill-opacity:1;" d="M 15.097656 38 C 14.5 38 14 38.503906 14 39.097656 L 14 42.902344 C 14 43.5 14.5 44 15.097656 44 L 18.902344 44 C 19.5 44 20 43.5 20 42.902344 L 20 39.097656 C 20 38.503906 19.5 38 18.902344 38 Z M 15.097656 38 "/>
<path style="fill:none;stroke-width:3;stroke-linecap:round;stroke-linejoin:miter;stroke:rgb(53.72549%,53.72549%,53.72549%);stroke-opacity:1;stroke-miterlimit:4;" d="M 14.5 20.5 L 24.5 20.5 " transform="matrix(2,0,0,2,0,0)"/>
<use xlink:href="#surface14" mask="url(#mask3)"/>
</g>
</svg>
