<?xml version="1.0" encoding="UTF-8" standalone="no"?>
<svg
   width="64"
   height="64"
   version="1.1"
   id="svg7"
   sodipodi:docname="alvr.svg"
   xml:space="preserve"
   inkscape:version="1.4 (e7c3feb100, 2024-10-09)"
   xmlns:inkscape="http://www.inkscape.org/namespaces/inkscape"
   xmlns:sodipodi="http://sodipodi.sourceforge.net/DTD/sodipodi-0.dtd"
   xmlns:xlink="http://www.w3.org/1999/xlink"
   xmlns="http://www.w3.org/2000/svg"
   xmlns:svg="http://www.w3.org/2000/svg"><sodipodi:namedview
     id="namedview7"
     pagecolor="#505050"
     bordercolor="#eeeeee"
     borderopacity="1"
     inkscape:showpageshadow="0"
     inkscape:pageopacity="0"
     inkscape:pagecheckerboard="0"
     inkscape:deskcolor="#505050"
     inkscape:zoom="2.2929688"
     inkscape:cx="66.289608"
     inkscape:cy="122.54855"
     inkscape:window-width="2560"
     inkscape:window-height="1411"
     inkscape:window-x="0"
     inkscape:window-y="0"
     inkscape:window-maximized="1"
     inkscape:current-layer="svg7" /><defs
     id="defs4"><linearGradient
       id="a"><stop
         offset="0"
         stop-color="#3ed5e0"
         id="stop1" /><stop
         offset="1"
         stop-color="#1e8bce"
         id="stop2" /></linearGradient><linearGradient
       xlink:href="#a"
       id="i"
       x1="-35.991"
       x2="-62.841"
       y1="-10.677"
       y2="16.173"
       gradientUnits="userSpaceOnUse" /><linearGradient
       xlink:href="#a"
       id="j"
       x1="-33.277"
       x2="-62.841"
       y1="-13.39"
       y2="16.173"
       gradientUnits="userSpaceOnUse" /><linearGradient
       xlink:href="#a"
       id="g"
       x1="20.867"
       x2="55.871"
       y1="32.999"
       y2="32.999"
       gradientUnits="userSpaceOnUse" /><linearGradient
       id="c"
       x1="38.634"
       x2="38.742"
       y1="3.969"
       y2="59.971"
       gradientUnits="userSpaceOnUse"
       gradientTransform="translate(-60.001999,-31.97)"><stop
         offset="0"
         stop-color="#f1f1f1"
         id="stop3" /><stop
         offset="1"
         stop-color="#e5e5e5"
         id="stop4" /></linearGradient><filter
       id="d"
       width="1.1694909"
       height="1.1307505"
       x="-0.092880494"
       y="-0.065375252"
       color-interpolation-filters="sRGB"><feGaussianBlur
         stdDeviation=".594"
         id="feGaussianBlur4" /></filter></defs><g
     id="g8"
     transform="translate(-6.2361417,-3.343082)"><g
       fill="none"
       stroke="#000000"
       stroke-width="3"
       filter="url(#d)"
       opacity="0.15"
       transform="matrix(1.146474,0,0,1.146474,-1.850711,-1.1795384)"
       id="g5"><circle
         cx="32"
         cy="32.999001"
         r="11.133"
         stroke-linejoin="round"
         opacity="0.621"
         id="circle4" /><path
         stroke-linecap="square"
         d="M 20.022,21.019 A 16.94,16.94 0 0 1 38.485,17.347 16.94,16.94 0 0 1 48.944,32.999 16.94,16.94 0 0 1 38.484,48.652 16.94,16.94 0 0 1 20.02,44.98"
         opacity="0.621"
         id="path4" /><path
         stroke-linecap="square"
         stroke-miterlimit="3.9"
         d="M 16.184,17.182 A 22.37,22.37 0 0 1 40.562,12.332 22.37,22.37 0 0 1 54.37,33 22.37,22.37 0 0 1 40.56,53.667 22.37,22.37 0 0 1 16.182,48.818"
         opacity="0.621"
         id="path5" /></g><g
       fill="none"
       stroke-width="3"
       transform="matrix(1.146474,0,0,1.146474,-1.850711,-2.3019365)"
       id="g7"><circle
         cx="32"
         cy="32.999001"
         r="11.133"
         stroke="url(#g)"
         stroke-linejoin="round"
         id="circle5"
         style="stroke:url(#g)" /><path
         stroke="url(#i)"
         stroke-linecap="square"
         d="M -29.02,-0.705 A 16.94,16.94 0 0 1 -39.479,14.947 16.94,16.94 0 0 1 -57.942,11.275 16.94,16.94 0 0 1 -61.615,-7.19 16.94,16.94 0 0 1 -45.962,-17.649"
         transform="rotate(-135)"
         id="path6"
         style="stroke:url(#i)" /><path
         stroke="url(#j)"
         stroke-linecap="square"
         stroke-miterlimit="3.9"
         d="m -23.593,-0.706 a 22.37,22.37 0 0 1 -13.809,20.667 22.37,22.37 0 0 1 -24.378,-4.849 22.37,22.37 0 0 1 -4.849,-24.378 22.37,22.37 0 0 1 20.667,-13.81"
         transform="rotate(-135)"
         id="path7"
         style="stroke:url(#j)" /></g></g></svg>
