<?xml version="1.0" encoding="UTF-8" standalone="no"?>
<svg
   width="64"
   height="64"
   viewBox="0 0 16.933 16.933"
   version="1.1"
   id="svg12"
   sodipodi:docname="baobab.svg"
   inkscape:version="1.4 (e7c3feb100, 2024-10-09)"
   xmlns:inkscape="http://www.inkscape.org/namespaces/inkscape"
   xmlns:sodipodi="http://sodipodi.sourceforge.net/DTD/sodipodi-0.dtd"
   xmlns="http://www.w3.org/2000/svg"
   xmlns:svg="http://www.w3.org/2000/svg">
  <sodipodi:namedview
     id="namedview12"
     pagecolor="#505050"
     bordercolor="#eeeeee"
     borderopacity="1"
     inkscape:showpageshadow="0"
     inkscape:pageopacity="0"
     inkscape:pagecheckerboard="0"
     inkscape:deskcolor="#505050"
     inkscape:zoom="9.8621378"
     inkscape:cx="28.594206"
     inkscape:cy="31.737541"
     inkscape:window-width="2560"
     inkscape:window-height="1411"
     inkscape:window-x="0"
     inkscape:window-y="0"
     inkscape:window-maximized="1"
     inkscape:current-layer="svg12" />
  <defs
     id="defs4">
    <linearGradient
       id="linearGradient20"
       x1="68"
       x2="128"
       y1="62"
       y2="2"
       gradientTransform="matrix(0.24252553,0,0,0.24252553,-15.301056,0.7056298)"
       gradientUnits="userSpaceOnUse">
      <stop
         stop-color="#e0e4e9"
         offset="0"
         id="stop19"
         style="stop-color:#e2e6eb;stop-opacity:1" />
      <stop
         stop-color="#fefeff"
         offset="1"
         id="stop20"
         style="stop-color:#e67476;stop-opacity:1;" />
    </linearGradient>
    <linearGradient
       id="linearGradient14"
       x1="68"
       x2="128"
       y1="62"
       y2="2"
       gradientTransform="matrix(0.24252553,0,0,0.24252553,-15.301056,0.7056298)"
       gradientUnits="userSpaceOnUse">
      <stop
         stop-color="#e0e4e9"
         offset="0"
         id="stop13"
         style="stop-color:#e2e6eb;stop-opacity:1" />
      <stop
         stop-color="#fefeff"
         offset="1"
         id="stop14"
         style="stop-color:#737476;stop-opacity:1" />
    </linearGradient>
    <linearGradient
       id="b"
       x1="12"
       x2="12"
       y1="48"
       y2="10"
       gradientTransform="matrix(1.1111 0 0 1.0969 -3.556 -2.65)"
       gradientUnits="userSpaceOnUse">
      <stop
         offset="0"
         stop-color="#eef1f2"
         id="stop1" />
      <stop
         offset="1"
         stop-color="#f9fafb"
         id="stop2" />
    </linearGradient>
    <linearGradient
       id="a"
       x1="27.5"
       x2="27.5"
       y1="4"
       y2="60"
       gradientTransform="matrix(0.26458,0,0,0.26458,-24.766977,0)"
       gradientUnits="userSpaceOnUse">
      <stop
         offset="0"
         stop-color="#c8cbd1"
         id="stop3" />
      <stop
         offset="1"
         stop-color="#adb3ba"
         id="stop4" />
    </linearGradient>
    <linearGradient
       id="linearGradient1053"
       x1="68"
       x2="128"
       y1="62"
       y2="2"
       gradientTransform="matrix(0.24252553,0,0,0.24252553,-15.301056,0.7056298)"
       gradientUnits="userSpaceOnUse">
      <stop
         stop-color="#e0e4e9"
         offset="0"
         id="stop3-3" />
      <stop
         stop-color="#fefeff"
         offset="1"
         id="stop4-6" />
    </linearGradient>
  </defs>
  <rect
     x="1.1906021"
     y="1.1906021"
     width="14.551796"
     height="14.551796"
     ry="0.72758985"
     fill="url(#linearGradient1053)"
     stroke-width="0.916658"
     id="rect5-3"
     style="fill:url(#linearGradient1053)" />
  <g
     id="g12"
     transform="translate(0,-0.13240198)">
    <path
       d="m 5.82076,14.28732 c -0.5863093,0 -1.05832,0.472011 -1.05832,1.05832 v 0.52916 h 7.40824 v -0.52916 c 0,-0.586309 -0.472011,-1.05832 -1.05832,-1.05832 z"
       opacity="0.5"
       id="path5"
       style="stroke-width:0.52916" />
    <rect
       width="3.1749599"
       height="0.52916002"
       x="5.8207598"
       y="14.81648"
       fill="#f6b44d"
       fill-rule="evenodd"
       rx="0.26458001"
       ry="0.26458001"
       style="stroke-width:0.52916;paint-order:stroke fill markers"
       id="rect6" />
    <rect
       width="1.5874799"
       height="0.52916002"
       x="9.5248804"
       y="14.81648"
       fill="#f6b44d"
       fill-rule="evenodd"
       rx="0.26458001"
       ry="0.26458001"
       style="stroke-width:0.52916;paint-order:stroke fill markers"
       id="rect7" />
  </g>
  <path
     fill="url(#b)"
     d="m 5.8207,2.1505062 c -1.461011,0 -2.6458,1.1694436 -2.6458,2.6119338 v 2.6458 c 0.373587,0.3296667 0.587367,0.8281354 0.587896,1.3229 0,0.4947646 -0.214309,0.9932333 -0.587896,1.3229 v 1.58748 L 4.76238,13.229 h 7.40824 l 1.58748,-1.58748 v -1.58748 c -0.373587,-0.3296667 -0.587368,-0.8281354 -0.587897,-1.3229 0,-0.4947646 0.21431,-0.9932333 0.587897,-1.3229 v -2.6458 c 0,-1.4424902 -1.184789,-2.6119338 -2.6458,-2.6119338 z"
     id="path6"
     style="fill:#d6dcde;fill-opacity:1;stroke-width:0.52916" />
  <rect
     style="fill:#d6dcde;fill-opacity:1;stroke-width:0.410276"
     id="rect12"
     width="4.1027918"
     height="4.0502763"
     x="3.1749001"
     y="2.1505063"
     rx="0.5411166"
     ry="0.5411166" />
  <rect
     style="fill:#d6dcde;fill-opacity:1;stroke-width:0.410276"
     id="rect13"
     width="4.1027918"
     height="4.0502763"
     x="9.6553078"
     y="2.1505063"
     rx="0.5411166"
     ry="0.5411166" />
  <g
     stroke-width=".549"
     id="g9">
    <path
       fill="#e38c53"
       d="M8.185 11.358a3.95 3.95 0 0 1-3.817-2.927 3.95 3.95 0 0 1 1.841-4.445 3.95 3.95 0 0 1 4.77.628L8.184 7.408"
       id="path7" />
    <path
       fill="#59a3c8"
       d="M11.543 4.896a3.95 3.95 0 0 1 .919 4.145L8.749 7.69"
       id="path8" />
    <path
       fill="#a8cf36"
       d="M12.196 9.51a3.67 3.67 0 0 1-3.447 2.413V8.254z"
       id="path9" />
  </g>
  <circle
     cx="11.906"
     cy="3.969"
     r=".265"
     opacity=".35"
     id="circle9" />
  <circle
     cx="5.027"
     cy="11.377"
     r=".265"
     opacity=".35"
     id="circle10" />
  <circle
     cx="11.906"
     cy="11.377"
     r=".265"
     opacity=".35"
     id="circle11" />
  <circle
     cx="5.027"
     cy="3.969"
     r=".265"
     opacity=".35"
     id="circle12" />
</svg>
