<?xml version="1.0" encoding="UTF-8"?>
<svg width="64" height="64" version="1.1" viewBox="0 0 16.933 16.933" xmlns="http://www.w3.org/2000/svg" xmlns:cc="http://creativecommons.org/ns#" xmlns:dc="http://purl.org/dc/elements/1.1/" xmlns:rdf="http://www.w3.org/1999/02/22-rdf-syntax-ns#" xmlns:xlink="http://www.w3.org/1999/xlink">
 <defs>
  <linearGradient id="linearGradient1455-3" x1="4" x2="60" y1="27" y2="27" gradientTransform="matrix(.26458 0 0 .27929 0 -.20428)" gradientUnits="userSpaceOnUse">
   <stop stop-color="#555a5f" offset="0"/>
   <stop stop-color="#4b4f53" offset="1"/>
  </linearGradient>
  <linearGradient id="linearGradient17498-6" x1="4" x2="60" y1="9" y2="45" gradientTransform="matrix(.25513 0 0 .26458 .30236 .19259)" gradientUnits="userSpaceOnUse">
   <stop stop-color="#3fe3e7" offset="0"/>
   <stop stop-color="#066bbc" offset="1"/>
  </linearGradient>
  <linearGradient id="linearGradient929" x1="32" x2="32" y1="44" y2="52" gradientTransform="matrix(.21166 0 0 .26458 1.6935 -.071991)" gradientUnits="userSpaceOnUse">
   <stop stop-color="#818990" offset="0"/>
   <stop stop-color="#9fa8b0" offset="1"/>
  </linearGradient>
  <linearGradient id="linearGradient1465" x1="53.237" x2="66.207" y1="14.657" y2="27.627" gradientTransform="matrix(.19999 0 0 .19999 -3.248 4.0374)" gradientUnits="userSpaceOnUse">
   <stop stop-color="#2cbbd9" offset="0"/>
   <stop stop-color="#178ec9" offset="1"/>
  </linearGradient>
 </defs>
 <metadata>
  <rdf:RDF>
   <cc:Work rdf:about="">
    <dc:format>image/svg+xml</dc:format>
    <dc:type rdf:resource="http://purl.org/dc/dcmitype/StillImage"/>
   </cc:Work>
  </rdf:RDF>
 </metadata>
 <path d="m1.852 2.1886c-0.43973 0-0.79374 0.35401-0.79374 0.79373v0.26458c0-0.43973 0.35401-0.79373 0.79374-0.79373h13.229c0.43973 0 0.79373 0.35401 0.79373 0.79373v-0.26458c0-0.43973-0.354-0.79373-0.79373-0.79373z" fill="#b8c2cc" stroke-width=".26458"/>
 <g shape-rendering="auto">
  <path d="m5.468 13.421h5.9972l0.70555 0.79373h-7.4082z" color="#000000" color-rendering="auto" dominant-baseline="auto" fill="#bcc5cf" image-rendering="optimizeSpeed" solid-color="#000000" stop-color="#000000" stroke-width="1.5275" style="font-feature-settings:normal;font-variant-alternates:normal;font-variant-caps:normal;font-variant-east-asian:normal;font-variant-ligatures:normal;font-variant-numeric:normal;font-variant-position:normal;font-variation-settings:normal;inline-size:0;isolation:auto;mix-blend-mode:normal;shape-margin:0;shape-padding:0;text-decoration-color:#000000;text-decoration-line:none;text-decoration-style:solid;text-indent:0;text-orientation:mixed;text-transform:none;white-space:normal"/>
  <path d="m7.4085 11.628h2.1164v2.0579h-2.1164z" color="#000000" color-rendering="auto" dominant-baseline="auto" fill="url(#linearGradient929)" image-rendering="optimizeSpeed" solid-color="#000000" stop-color="#000000" stroke-width="1.4401" style="font-feature-settings:normal;font-variant-alternates:normal;font-variant-caps:normal;font-variant-east-asian:normal;font-variant-ligatures:normal;font-variant-numeric:normal;font-variant-position:normal;font-variation-settings:normal;inline-size:0;isolation:auto;mix-blend-mode:normal;shape-margin:0;shape-padding:0;text-decoration-color:#000000;text-decoration-line:none;text-decoration-style:solid;text-indent:0;text-orientation:mixed;text-transform:none;white-space:normal"/>
  <path d="m4.7624 14.215h7.4082v0.52916h-7.4082z" color="#000000" color-rendering="auto" dominant-baseline="auto" fill="#44484c" fill-opacity=".99608" image-rendering="optimizeSpeed" solid-color="#000000" stop-color="#000000" stroke-width="1.7638" style="font-feature-settings:normal;font-variant-alternates:normal;font-variant-caps:normal;font-variant-east-asian:normal;font-variant-ligatures:normal;font-variant-numeric:normal;font-variant-position:normal;font-variation-settings:normal;inline-size:0;isolation:auto;mix-blend-mode:normal;shape-margin:0;shape-padding:0;text-decoration-color:#000000;text-decoration-line:none;text-decoration-style:solid;text-indent:0;text-orientation:mixed;text-transform:none;white-space:normal"/>
 </g>
 <rect x="1.0583" y="2.3092" width="14.816" height="10.054" ry=".79373" fill="url(#linearGradient1455-3)" stroke-linecap="round" stroke-linejoin="round" stroke-width=".21746"/>
 <rect x="1.3229" y="2.5738" width="14.287" height="9.5248" ry=".52916" fill="url(#linearGradient17498-6)" stroke-linecap="round" stroke-linejoin="round" stroke-width=".20785"/>
 <rect x="3.8364" y="4.5206" width="9.2602" height="6.0853" ry=".77938" fill="#f1f3f7" stroke-width=".024357"/>
 <rect x="4.3654" y="5.8412" width="8.2019" height="4.2333" ry=".53222" fill="#fcfcfd" stroke-width=".019119"/>
 <g stroke-width=".031078">
  <circle cx="12.301" cy="5.1961" r=".27397" fill="#1c99cc"/>
  <circle cx="11.341" cy="5.1961" r=".27397" fill="#20a1cf"/>
  <circle cx="10.382" cy="5.1961" r=".27397" fill="#23a9d2"/>
 </g>
 <path d="m8.8862 6.6098a0.10037 0.097852 0 0 0-0.00996 9.6e-4 0.10037 0.097852 0 0 0-0.00986 0.00174 0.10037 0.097852 0 0 0-0.00966 0.00272 0.10037 0.097852 0 0 0-0.00926 0.00368 0.10037 0.097852 0 0 0-0.00887 0.00467 0.10037 0.097852 0 0 0-0.00308 0.00174 0.10037 0.097852 0 0 0-0.00827 0.00563 0.10037 0.097852 0 0 0-0.00757 0.00631 0.10037 0.097852 0 0 0-0.00697 0.00709 0.10037 0.097852 0 0 0-0.00618 0.00767 0.10037 0.097852 0 0 0-0.00539 0.00826 0.10037 0.097852 0 0 0-0.00448 0.00874 0.10037 0.097852 0 0 0-0.00359 0.00913 0.10037 0.097852 0 0 0-0.00259 0.00952 0.33724 0.32878 0 0 1-0.00458 0.018357 0.33724 0.32878 0 0 1-0.01056 0.03118 0.33724 0.32878 0 0 1-0.013648 0.03011 0.33724 0.32878 0 0 1-0.016738 0.028555 0.33724 0.32878 0 0 1-0.019427 0.026807 0.33724 0.32878 0 0 1-0.022217 0.024767 0.33724 0.32878 0 0 1-0.024609 0.022437 0.33724 0.32878 0 0 1-0.0267 0.020008 0.33724 0.32878 0 0 1-0.028692 0.017287 0.33724 0.32878 0 0 1-0.030287 0.014375 0.33724 0.32878 0 0 1-0.031681 0.011364 0.33724 0.32878 0 0 1-0.032579 0.00826 0.33724 0.32878 0 0 1-0.033377 0.00496 0.33724 0.32878 0 0 1-0.033676 0.00181 0.33724 0.32878 0 0 1-0.018033-5.819e-4 0.33724 0.32878 0 0 1-0.033577-0.00359 0.33724 0.32878 0 0 1-0.03298-0.00671 0.33724 0.32878 0 0 1-0.032081-0.010008 0.33724 0.32878 0 0 1-0.030985-0.013015 0.33724 0.32878 0 0 1-0.029492-0.016027 0.33724 0.32878 0 0 1-0.027599-0.018743 0.33724 0.32878 0 0 1-0.025605-0.021369 0.33724 0.32878 0 0 1-0.023313-0.023797 0.33724 0.32878 0 0 1-0.020723-0.025837 0.33724 0.32878 0 0 1-0.018033-0.02778 0.33724 0.32878 0 0 1-0.015043-0.029428 0.33724 0.32878 0 0 1-0.011952-0.030787 0.33724 0.32878 0 0 1-0.00877-0.031666 0.10037 0.097852 0 0 0-4e-4 -0.00196 0.10037 0.097852 0 0 0-0.00269-0.00942 0.10037 0.097852 0 0 0-0.00359-0.00913 0.10037 0.097852 0 0 0-0.00448-0.00874 0.10037 0.097852 0 0 0-0.00548-0.00826 0.10037 0.097852 0 0 0-0.00618-0.00767 0.10037 0.097852 0 0 0-0.00697-0.00709 0.10037 0.097852 0 0 0-0.00767-0.00631 0.10037 0.097852 0 0 0-0.00827-0.00553 0.09686 0.094428 0 0 0-0.00458-0.00263 0.09686 0.094428 0 0 0-0.00877-0.00398 0.09686 0.094428 0 0 0-0.00917-0.0032 0.09686 0.094428 0 0 0-0.00936-0.00223 0.09686 0.094428 0 0 0-0.00956-0.00126 0.09686 0.094428 0 0 0-0.00976-4.8e-4 0.09686 0.094428 0 0 0-0.00966 5.781e-4 0.09686 0.094428 0 0 0-0.00956 0.00156 0.09686 0.094428 0 0 0-0.00926 0.00244 1.5859 1.5461 0 0 0-0.091563 0.029913 1.5859 1.5461 0 0 0-0.14576 0.060802 1.5859 1.5461 0 0 0-0.13879 0.07469 1.5859 1.5461 0 0 0-0.13042 0.087804 1.5859 1.5461 0 0 0-0.12085 0.10004 0.10037 0.097852 0 0 0-0.0015 0.00126 0.10037 0.097852 0 0 0-0.00678 0.00728 0.10037 0.097852 0 0 0-0.00598 0.00796 0.10037 0.097852 0 0 0-0.00508 0.00835 0.10037 0.097852 0 0 0-0.00428 0.00874 0.10037 0.097852 0 0 0-0.0034 0.00923 0.10037 0.097852 0 0 0-0.00239 0.00952 0.10037 0.097852 0 0 0-0.00132 0.00971 0.10037 0.097852 0 0 0-4e-4 0.0098 0.10037 0.097852 0 0 0 0 0.00156 0.10037 0.097852 0 0 0 5.999e-4 0.0098 0.10037 0.097852 0 0 0 0.00162 0.00961 0.10037 0.097852 0 0 0 0.00248 0.00942 0.10037 0.097852 0 0 0 0.00359 0.00923 0.10037 0.097852 0 0 0 0.00438 0.00875 0.10037 0.097852 0 0 0 0.00539 0.00826 0.10037 0.097852 0 0 0 0.00618 0.00776 0.10037 0.097852 0 0 0 0.00688 0.00709 0.33524 0.32684 0 0 1 0.00349 0.00311 0.33524 0.32684 0 0 1 0.023313 0.023505 0.33524 0.32684 0 0 1 0.020724 0.025641 0.33524 0.32684 0 0 1 0.018034 0.027586 0.33524 0.32684 0 0 1 0.015142 0.02914 0.33524 0.32684 0 0 1 0.012055 0.0305 0.33524 0.32684 0 0 1 0.00887 0.031468 0.33524 0.32684 0 0 1 0.00558 0.032247 0.33524 0.32684 0 0 1 0.00229 0.03254 0.33524 0.32684 0 0 1-0.00102 0.032635 0.33524 0.32684 0 0 1-0.00438 0.032441 0.33524 0.32684 0 0 1-0.00776 0.031762 0.33524 0.32684 0 0 1-0.01086 0.030887 0.33524 0.32684 0 0 1-0.014047 0.029722 0.33524 0.32684 0 0 1-0.017037 0.028167 0.33524 0.32684 0 0 1-0.019725 0.026321 0.33524 0.32684 0 0 1-0.022417 0.024285 0.33524 0.32684 0 0 1-0.02471 0.022047 0.33524 0.32684 0 0 1-0.026901 0.019425 0.33524 0.32684 0 0 1-0.028793 0.016805 0.33524 0.32684 0 0 1-0.030388 0.01389 0.33524 0.32684 0 0 1-0.031583 0.010872 0.33524 0.32684 0 0 1-0.03258 0.00776 0.33524 0.32684 0 0 1-0.033177 0.00448 0.33524 0.32684 0 0 1-0.033476 0.00126 0.33524 0.32684 0 0 1-0.033386-0.00194 0.33524 0.32684 0 0 1-0.033076-0.00524 0.33524 0.32684 0 0 1-0.03238-0.00845 0.10037 0.097852 0 0 0-0.00479-0.00133 0.10037 0.097852 0 0 0-0.00976-0.00203 0.10037 0.097852 0 0 0-0.010068-0.00118 0.10037 0.097852 0 0 0-0.00996-9.73e-5 0.10037 0.097852 0 0 0-0.010068 8.8e-4 0.10037 0.097852 0 0 0-0.00986 0.00181 0.10037 0.097852 0 0 0-0.00956 0.00272 0.10037 0.097852 0 0 0-0.00926 0.00368 0.10037 0.097852 0 0 0-0.00887 0.00457 0.10037 0.097852 0 0 0-0.00836 0.00544 0.10037 0.097852 0 0 0-0.00776 0.00622 0.10037 0.097852 0 0 0-0.00707 0.0069 0.10037 0.097852 0 0 0-0.00637 0.00757 0.10037 0.097852 0 0 0-0.00548 0.00816 0.10037 0.097852 0 0 0-0.00469 0.00864 0.10037 0.097852 0 0 0-0.00378 0.00913 0.10037 0.097852 0 0 0-0.0028 0.00932 1.5437 1.505 0 0 0-0.022816 0.10636 1.5437 1.505 0 0 0-0.018531 0.14938 1.5437 1.505 0 0 0-0.00308 0.15035 1.5437 1.505 0 0 0 0.012354 0.14997 1.5437 1.505 0 0 0 0.027596 0.14802 0.10037 0.097852 0 0 0 0.0011 0.00446 0.10037 0.097852 0 0 0 0.00319 0.00932 0.10037 0.097852 0 0 0 0.00409 0.00894 0.10037 0.097852 0 0 0 0.00498 0.00845 0.10037 0.097852 0 0 0 0.00588 0.00797 0.10037 0.097852 0 0 0 0.00658 0.00738 0.10037 0.097852 0 0 0 0.00737 0.00671 0.10037 0.097852 0 0 0 0.00797 0.00592 0.10037 0.097852 0 0 0 0.00847 0.00515 0.10037 0.097852 0 0 0 0.00906 0.00418 0.10037 0.097852 0 0 0 0.00947 0.0034 0.10037 0.097852 0 0 0 0.00966 0.00242 0.10037 0.097852 0 0 0 0.00996 0.00145 0.10037 0.097852 0 0 0 0.00996 4.8e-4 0.10037 0.097852 0 0 0 0.010068-4.8e-4 0.10037 0.097852 0 0 0 0.00996-0.00145 0.10037 0.097852 0 0 0 0.00966-0.00232 0.33524 0.32684 0 0 1 0.00508-0.00157 0.33524 0.32684 0 0 1 0.03258-0.00767 0.33524 0.32684 0 0 1 0.033177-0.00448 0.33524 0.32684 0 0 1 0.033475-0.00118 0.33524 0.32684 0 0 1 0.033475 0.00203 0.33524 0.32684 0 0 1 0.033076 0.00534 0.33524 0.32684 0 0 1 0.03238 0.00845 0.33524 0.32684 0 0 1 0.031284 0.011556 0.33524 0.32684 0 0 1 0.029988 0.014665 0.33524 0.32684 0 0 1 0.028396 0.017386 0.33524 0.32684 0 0 1 0.0264 0.020106 0.33524 0.32684 0 0 1 0.02421 0.022631 0.33524 0.32684 0 0 1 0.02182 0.024767 0.33524 0.32684 0 0 1 0.019129 0.026807 0.33524 0.32684 0 0 1 0.016239 0.028555 0.33524 0.32684 0 0 1 0.01335 0.030012 0.33524 0.32684 0 0 1 0.010056 0.031082 0.33524 0.32684 0 0 1 0.00697 0.032052 0.33524 0.32684 0 0 1 0.00359 0.03244 0.33524 0.32684 0 0 1 3.021e-4 0.032635 0.33524 0.32684 0 0 1-0.00308 0.03254 0.33524 0.32684 0 0 1-0.00647 0.032052 0.33524 0.32684 0 0 1-0.00956 0.031372 0.33524 0.32684 0 0 1-0.012853 0.030108 0.33524 0.32684 0 0 1-0.015841 0.028846 0.33524 0.32684 0 0 1-0.018732 0.027101 0.33524 0.32684 0 0 1-0.021321 0.025156 0.33524 0.32684 0 0 1-0.023911 0.022921 0.10037 0.097852 0 0 0-2e-3 0.00174 0.10037 0.097852 0 0 0-0.00688 0.00709 0.10037 0.097852 0 0 0-0.00628 0.00767 0.10037 0.097852 0 0 0-0.00539 0.00826 0.10037 0.097852 0 0 0-0.00448 0.00864 0.10037 0.097852 0 0 0-0.00359 0.00913 0.10037 0.097852 0 0 0-0.00269 0.00952 0.10037 0.097852 0 0 0-0.00169 0.00961 0.10037 0.097852 0 0 0-6e-4 0.00971 0.10037 0.097852 0 0 0 0 0.00253 0.10037 0.097852 0 0 0 6e-4 0.0098 0.10037 0.097852 0 0 0 0.00162 0.00961 0.10037 0.097852 0 0 0 0.00248 0.00942 0.10037 0.097852 0 0 0 0.00359 0.00923 0.10037 0.097852 0 0 0 0.00438 0.00874 0.10037 0.097852 0 0 0 0.00539 0.00826 0.10037 0.097852 0 0 0 0.00618 0.00776 0.10037 0.097852 0 0 0 0.00688 0.00709 1.5944 1.5544 0 0 0 0.06685 0.059247 1.5944 1.5544 0 0 0 0.12593 0.095185 1.5944 1.5544 0 0 0 0.135 0.082558 1.5944 1.5544 0 0 0 0.14287 0.068864 1.5944 1.5544 0 0 0 0.14915 0.054682 0.10037 0.097852 0 0 0 0.0028 9.04e-4 0.10037 0.097852 0 0 0 0.00977 0.00216 0.10037 0.097852 0 0 0 0.00996 0.0012 0.10037 0.097852 0 0 0 0.00996 2.999e-4 0.10037 0.097852 0 0 0 0.010068-7.799e-4 0.10037 0.097852 0 0 0 0.00986-0.00174 0.10037 0.097852 0 0 0 0.00966-0.00264 0.10037 0.097852 0 0 0 0.00926-0.0036 0.10037 0.097852 0 0 0 0.00896-0.00444 0.10037 0.097852 0 0 0 0.00359-0.00198 0.10037 0.097852 0 0 0 0.00836-0.00546 0.10037 0.097852 0 0 0 0.00776-0.00612 0.10037 0.097852 0 0 0 0.00707-0.0069 0.10037 0.097852 0 0 0 0.00648-0.00757 0.10037 0.097852 0 0 0 0.00548-0.00806 0.10037 0.097852 0 0 0 0.00479-0.00864 0.10037 0.097852 0 0 0 0.00378-0.00912 0.10037 0.097852 0 0 0 0.00289-0.00932 0.33676 0.32828 0 0 1 0.00359-0.014279 0.33676 0.32828 0 0 1 0.01056-0.031181 0.33676 0.32828 0 0 1 0.013648-0.030012 0.33676 0.32828 0 0 1 0.016639-0.028457 0.33676 0.32828 0 0 1 0.019427-0.026806 0.33676 0.32828 0 0 1 0.022117-0.024671 0.33676 0.32828 0 0 1 0.024509-0.022533 0.33676 0.32828 0 0 1 0.026801-0.019912 0.33676 0.32828 0 0 1 0.028596-0.017287 0.33676 0.32828 0 0 1 0.030286-0.014375 0.33676 0.32828 0 0 1 0.031582-0.011364 0.33676 0.32828 0 0 1 0.03258-0.00826 0.33676 0.32828 0 0 1 0.033276-0.00496 0.33676 0.32828 0 0 1 0.033578-0.00181h0.00398a0.33676 0.32828 0 0 1 0.019129 8.801e-4 0.33676 0.32828 0 0 1 0.033475 0.00398 0.33676 0.32828 0 0 1 0.03278 0.00719 0.33676 0.32828 0 0 1 0.03198 0.010296 0.33676 0.32828 0 0 1 0.030687 0.013501 0.33676 0.32828 0 0 1 0.02919 0.016315 0.33676 0.32828 0 0 1 0.027399 0.019133 0.33676 0.32828 0 0 1 0.025306 0.021657 0.33676 0.32828 0 0 1 0.022914 0.023991 0.33676 0.32828 0 0 1 0.020326 0.026127 0.33676 0.32828 0 0 1 0.017633 0.027972 0.33676 0.32828 0 0 1 0.014545 0.029626 0.33676 0.32828 0 0 1 0.011556 0.030791 0.33676 0.32828 0 0 1 0.00827 0.031763 0.10037 0.097852 0 0 0 5.999e-4 0.0027 0.10037 0.097852 0 0 0 0.00269 0.00942 0.10037 0.097852 0 0 0 0.00368 0.00912 0.10037 0.097852 0 0 0 0.00458 0.00864 0.10037 0.097852 0 0 0 0.00539 0.00826 0.10037 0.097852 0 0 0 0.00628 0.00767 0.10037 0.097852 0 0 0 0.00707 7e-3 0.10037 0.097852 0 0 0 0.00767 0.00631 0.10037 0.097852 0 0 0 0.00827 0.00546 0.10037 0.097852 0 0 0 0.00458 0.00264 0.10037 0.097852 0 0 0 0.00907 0.00426 0.10037 0.097852 0 0 0 0.00936 0.00342 0.10037 0.097852 0 0 0 0.00976 0.0024 0.10037 0.097852 0 0 0 0.00986 0.00144 0.10037 0.097852 0 0 0 0.010068 5.801e-4 0.10037 0.097852 0 0 0 0.00917-9.6e-4 0.10037 0.097852 0 0 0 0.00986-0.00204 0.10037 0.097852 0 0 0 0.00956-0.00294 1.5884 1.5485 0 0 0 0.08997-0.027779 1.5884 1.5485 0 0 0 0.14705-0.058474 1.5884 1.5485 0 0 0 0.14038-0.072362 1.5884 1.5485 0 0 0 0.13221-0.085764 1.5884 1.5485 0 0 0 0.12275-0.098097 0.10037 0.097852 0 0 0 0.00208-0.00193 0.10037 0.097852 0 0 0 0.00696-0.00709 0.10037 0.097852 0 0 0 0.00608-0.00776 0.10037 0.097852 0 0 0 0.00528-0.00826 0.10037 0.097852 0 0 0 0.00448-0.00884 0.10037 0.097852 0 0 0 0.00352-0.00913 0.10037 0.097852 0 0 0 0.00256-0.00942 0.10037 0.097852 0 0 0 0.0016-0.00971 0.10037 0.097852 0 0 0 5e-4 -0.00971 0.10037 0.097852 0 0 0 0-0.0032 0.10037 0.097852 0 0 0-7.8e-4 -0.00971 0.10037 0.097852 0 0 0-0.00184-0.00961 0.10037 0.097852 0 0 0-0.0028-0.00942 0.10037 0.097852 0 0 0-0.00368-0.00913 0.10037 0.097852 0 0 0-0.00472-0.00864 0.10037 0.097852 0 0 0-0.00544-0.00816 0.10037 0.097852 0 0 0-0.00624-0.00757 0.10037 0.097852 0 0 0-0.00704-7e-3 0.33574 0.32732 0 0 1-0.00728-0.00671 0.33574 0.32732 0 0 1-0.022713-0.024087 0.33574 0.32732 0 0 1-0.020121-0.026082 0.33574 0.32732 0 0 1-0.017433-0.027972 0.33574 0.32732 0 0 1-0.01444-0.029526 0.33574 0.32732 0 0 1-0.011352-0.030788 0.33574 0.32732 0 0 1-0.00806-0.031762 0.33574 0.32732 0 0 1-0.00488-0.03244 0.33574 0.32732 0 0 1-0.0015-0.032635 0.33574 0.32732 0 0 1 0.00191-0.032732 0.33574 0.32732 0 0 1 0.00518-0.032247 0.33574 0.32732 0 0 1 0.00847-0.031665 0.33574 0.32732 0 0 1 0.011748-0.030691 0.33574 0.32732 0 0 1 0.014744-0.02943 0.33574 0.32732 0 0 1 0.017632-0.02778 0.33574 0.32732 0 0 1 0.02052-0.025932 0.33574 0.32732 0 0 1 0.023016-0.023794 0.33574 0.32732 0 0 1 0.025305-0.021466 0.33574 0.32732 0 0 1 0.027401-0.018841 0.33574 0.32732 0 0 1 0.029193-0.016121 0.33574 0.32732 0 0 1 0.030689-0.01321 0.33574 0.32732 0 0 1 0.031881-0.0102 0.33574 0.32732 0 0 1 0.03288-7e-3 0.33574 0.32732 0 0 1 0.033273-0.00378 0.33574 0.32732 0 0 1 0.03358-4.8e-4 0.33574 0.32732 0 0 1 0.03347 0.00282 0.33574 0.32732 0 0 1 0.03298 0.00602 0.33574 0.32732 0 0 1 0.03218 0.00913 0.10037 0.097852 0 0 0 3e-3 9.759e-4 0.10037 0.097852 0 0 0 0.0097 0.00253 0.10037 0.097852 0 0 0 0.0099 0.00157 0.10037 0.097852 0 0 0 0.01007 5.798e-4 0.10037 0.097852 0 0 0 0.01-3.998e-4 0.10037 0.097852 0 0 0 0.01-0.00136 0.10037 0.097852 0 0 0 0.0098-0.00232 0.10037 0.097852 0 0 0 0.0095-0.0032 0.10037 0.097852 0 0 0 0.0091-0.00418 0.10037 0.097852 0 0 0 0.0027-0.00155 0.10037 0.097852 0 0 0 0.0085-0.00524 0.10037 0.097852 0 0 0 0.0078-0.00612 0.10037 0.097852 0 0 0 0.0072-0.00679 0.10037 0.097852 0 0 0 0.0065-0.00748 0.10037 0.097852 0 0 0 0.0057-0.00806 0.10037 0.097852 0 0 0 0.0049-0.00854 0.10037 0.097852 0 0 0 0.0039-0.00904 0.10037 0.097852 0 0 0 3e-3 -0.00932 1.5613 1.5221 0 0 0 0.02322-0.10179 1.5613 1.5221 0 0 0 0.02092-0.15074 1.5613 1.5221 0 0 0 0.0054-0.1521 1.5613 1.5221 0 0 0-0.01026-0.15181 1.5613 1.5221 0 0 0-0.0257-0.15006 0.10037 0.097852 0 0 0-7.2e-4 -0.00282 0.10037 0.097852 0 0 0-0.0027-0.00942 0.10037 0.097852 0 0 0-0.0038-0.00904 0.10037 0.097852 0 0 0-0.0048-0.00864 0.10037 0.097852 0 0 0-0.0054-0.00816 0.10037 0.097852 0 0 0-0.0064-0.00757 0.10037 0.097852 0 0 0-0.0072-0.0069 0.10037 0.097852 0 0 0-0.0078-0.00612 0.10037 0.097852 0 0 0-0.0084-0.00544 0.10037 0.097852 0 0 0-0.0025-0.00133 0.10037 0.097852 0 0 0-0.0091-0.00418 0.10037 0.097852 0 0 0-0.0094-0.0034 0.10037 0.097852 0 0 0-0.0098-0.00232 0.10037 0.097852 0 0 0-0.0099-0.00146 0.10037 0.097852 0 0 0-0.01007-4.8e-4 0.10037 0.097852 0 0 0-0.01007 4.8e-4 0.10037 0.097852 0 0 0-0.0099 0.00146 0.10037 0.097852 0 0 0-0.0098 0.00253 0.33574 0.32732 0 0 1-0.01624 0.00467 0.33574 0.32732 0 0 1-0.03278 0.00679 0.33574 0.32732 0 0 1-0.03338 0.0037 0.33574 0.32732 0 0 1-0.03358 4.001e-4 0.33574 0.32732 0 0 1-0.03337-0.00289 0.33574 0.32732 0 0 1-0.032977-0.00612 0.33574 0.32732 0 0 1-0.032176-0.00932 0.33574 0.32732 0 0 1-0.031073-0.012321 0.33574 0.32732 0 0 1-0.029592-0.015348 0.33574 0.32732 0 0 1-0.027993-0.018162 0.33574 0.32732 0 0 1-0.025905-0.020785 0.33574 0.32732 0 0 1-0.023616-0.023213 0.33574 0.32732 0 0 1-0.021225-0.025446 0.33574 0.32732 0 0 1-0.018432-0.027292 0.33574 0.32732 0 0 1-0.015537-0.029041 0.33574 0.32732 0 0 1-0.012552-0.030303 0.33574 0.32732 0 0 1-0.00937-0.03147 0.33574 0.32732 0 0 1-0.00608-0.032148 0.33574 0.32732 0 0 1-0.00272-0.032636 0.33574 0.32732 0 0 1 5.001e-4 -0.032636 0.33574 0.32732 0 0 1 0.00392-0.03254 0.33574 0.32732 0 0 1 0.00728-0.031955 0.33574 0.32732 0 0 1 0.010452-0.031081 0.33574 0.32732 0 0 1 0.013648-0.029916 0.33574 0.32732 0 0 1 0.016545-0.028361 0.33574 0.32732 0 0 1 0.019425-0.026711 0.33574 0.32732 0 0 1 0.022121-0.024671 0.33574 0.32732 0 0 1 0.024513-0.02234 0.10338 0.10079 0 0 0 6e-4 -5.818e-4 0.10338 0.10079 0 0 0 0.00736-7e-3 0.10338 0.10079 0 0 0 0.00656-0.00776 0.10338 0.10079 0 0 0 0.00576-0.00835 0.10338 0.10079 0 0 0 0.00488-0.00883 0.10338 0.10079 0 0 0 4e-3 -0.00932 0.10338 0.10079 0 0 0 0.00304-0.00971 0.10338 0.10079 0 0 0 2e-3 -0.0098 0.10338 0.10079 0 0 0 8.8e-4 -0.010104 0.10037 0.097852 0 0 0 1.001e-4 -0.00253 0.10037 0.097852 0 0 0-5.001e-4 -0.0098 0.10037 0.097852 0 0 0-0.00152-0.00971 0.10037 0.097852 0 0 0-0.0024-0.00942 0.10037 0.097852 0 0 0-0.00336-0.00923 0.10037 0.097852 0 0 0-0.0044-0.00883 0.10037 0.097852 0 0 0-0.0052-0.00835 0.10037 0.097852 0 0 0-0.00608-0.00776 0.10037 0.097852 0 0 0-0.0068-0.00727 1.5949 1.5549 0 0 0-0.097466-0.085483 1.5949 1.5549 0 0 0-0.12768-0.093049 1.5949 1.5549 0 0 0-0.13659-0.08013 1.5949 1.5549 0 0 0-0.14407-0.066434 1.5949 1.5549 0 0 0-0.15024-0.052157 0.10037 0.097852 0 0 0-0.00289-7.799e-4 0.10037 0.097852 0 0 0-0.00976-0.00204 0.10037 0.097852 0 0 0-0.00996-0.00106 0.10037 0.097852 0 0 0-0.010056-9.67e-5zm-1.6297 1.7011a0.536 0.52254 0 0 1 0.051908 0.013111 0.536 0.52254 0 0 1 0.050314 0.018066 0.536 0.52254 0 0 0-0.050314-0.018066 0.536 0.52254 0 0 0-0.051908-0.013111zm0.15034 0.054003a0.536 0.52254 0 0 1 0.045631 0.02739 0.536 0.52254 0 0 1 0.042543 0.031762 0.536 0.52254 0 0 0-0.042543-0.031762 0.536 0.52254 0 0 0-0.045631-0.02739zm1.1516 0.69533a0.53899 0.52547 0 0 1 0.052006 0.01389 0.53899 0.52547 0 0 0-0.052006-0.01389zm0.10222 0.032827a0.53899 0.52547 0 0 1 0.048123 0.023698 0.53899 0.52547 0 0 0-0.048123-0.023698zm0.1358 0.0845a0.53899 0.52547 0 0 1 0.038756 0.036521 0.53899 0.52547 0 0 0-0.038756-0.036521zm-1.1078 0.037977a1.3786 1.344 0 0 0 0.11766 0.070029 1.3786 1.344 0 0 1-0.11766-0.070029z" fill="url(#linearGradient1465)" stroke-width=".19999"/>
</svg>
