<?xml version="1.0" encoding="UTF-8" standalone="no"?>
<svg
   width="64"
   height="64"
   version="1.1"
   id="svg4"
   sodipodi:docname="com.github.maoschanz.DynamicWallpaperEditor.svg"
   inkscape:version="1.3.2 (091e20ef0f, 2023-11-25, custom)"
   xmlns:inkscape="http://www.inkscape.org/namespaces/inkscape"
   xmlns:sodipodi="http://sodipodi.sourceforge.net/DTD/sodipodi-0.dtd"
   xmlns="http://www.w3.org/2000/svg"
   xmlns:svg="http://www.w3.org/2000/svg">
  <defs
     id="defs4">
    <linearGradient
       id="linearGradient29240"
       x1="32"
       x2="32"
       y1="44"
       y2="52"
       gradientTransform="matrix(0.79998,0,0,1,6.4007,0)"
       gradientUnits="userSpaceOnUse">
      <stop
         stop-color="#818990"
         offset="0"
         id="stop265" />
      <stop
         stop-color="#9fa8b0"
         offset="1"
         id="stop267" />
    </linearGradient>
    <linearGradient
       id="linearGradient1455"
       x1="4"
       x2="60"
       y1="27"
       y2="27"
       gradientTransform="matrix(1,0,0,1.0556,-67.767389,-0.5)"
       gradientUnits="userSpaceOnUse">
      <stop
         stop-color="#555a5f"
         offset="0"
         id="stop255" />
      <stop
         stop-color="#4b4f53"
         offset="1"
         id="stop257" />
    </linearGradient>
    <linearGradient
       id="linearGradient17498"
       x1="15.408"
       x2="60"
       y1="19"
       y2="45"
       gradientTransform="matrix(0.96428,0,0,1,-66.62459,1)"
       gradientUnits="userSpaceOnUse">
      <stop
         stop-color="#0082e5"
         offset="0"
         id="stop260" />
      <stop
         stop-color="#42b7ff"
         offset="1"
         id="stop262" />
    </linearGradient>
    <linearGradient
       id="linearGradient929"
       x1="32"
       x2="32"
       y1="44"
       y2="52"
       gradientTransform="matrix(0.21166,0,0,0.26458,1.6935,-0.071991)"
       gradientUnits="userSpaceOnUse">
      <stop
         stop-color="#818990"
         offset="0"
         id="stop5" />
      <stop
         stop-color="#9fa8b0"
         offset="1"
         id="stop6" />
    </linearGradient>
    <linearGradient
       id="linearGradient1455-3"
       x1="4"
       x2="60"
       y1="27"
       y2="27"
       gradientTransform="matrix(1.0000071,0,0,1.055605,1.8e-5,-0.771644)"
       gradientUnits="userSpaceOnUse">
      <stop
         stop-color="#555a5f"
         offset="0"
         id="stop1" />
      <stop
         stop-color="#4b4f53"
         offset="1"
         id="stop2" />
    </linearGradient>
    <linearGradient
       id="linearGradient17498-6"
       x1="4"
       x2="60"
       y1="9"
       y2="45"
       gradientTransform="matrix(0.96428986,0,0,1.0000071,1.1431752,0.7283665)"
       gradientUnits="userSpaceOnUse">
      <stop
         stop-color="#3fe3e7"
         offset="0"
         id="stop3" />
      <stop
         stop-color="#066bbc"
         offset="1"
         id="stop4" />
    </linearGradient>
    <linearGradient
       id="linearGradient1465"
       x1="53.237"
       x2="66.207001"
       y1="14.657"
       y2="27.627001"
       gradientTransform="matrix(0.7558826,0,0,0.7558826,-12.276129,15.260218)"
       gradientUnits="userSpaceOnUse">
      <stop
         stop-color="#2cbbd9"
         offset="0"
         id="stop7" />
      <stop
         stop-color="#178ec9"
         offset="1"
         id="stop8" />
    </linearGradient>
  </defs>
  <sodipodi:namedview
     id="namedview4"
     pagecolor="#ffffff"
     bordercolor="#000000"
     borderopacity="0.25"
     inkscape:showpageshadow="2"
     inkscape:pageopacity="0.0"
     inkscape:pagecheckerboard="0"
     inkscape:deskcolor="#d1d1d1"
     inkscape:zoom="3.0781251"
     inkscape:cx="-79.91878"
     inkscape:cy="39.634517"
     inkscape:window-width="1920"
     inkscape:window-height="995"
     inkscape:window-x="0"
     inkscape:window-y="0"
     inkscape:window-maximized="1"
     inkscape:current-layer="svg4" />
  <path
     d="m 6.999841,8.2724899 c -1.662004,0 -3.000021,1.3380169 -3.000021,2.9999831 v 1.000008 c 0,-1.662005 1.338017,-2.999984 3.000021,-2.999984 H 57.0002 c 1.662,0 2.99998,1.338017 2.99998,2.999984 v -1.000008 c 0,-1.662004 -1.33798,-2.9999831 -2.99998,-2.9999831 z"
     fill="#b8c2cc"
     stroke-width="1.00001"
     id="path8" />
  <g
     shape-rendering="auto"
     id="g11"
     transform="matrix(3.779602,0,0,3.779602,1.8e-5,4.53e-4)">
    <path
       d="m 5.468,13.421 h 5.9972 l 0.70555,0.79373 h -7.4082 z"
       color="#000000"
       color-rendering="auto"
       dominant-baseline="auto"
       fill="#bcc5cf"
       image-rendering="optimizeSpeed"
       solid-color="#000000"
       stop-color="#000000"
       stroke-width="1.5275"
       style="font-variant-ligatures:normal;font-variant-position:normal;font-variant-caps:normal;font-variant-numeric:normal;font-variant-alternates:normal;font-variant-east-asian:normal;font-feature-settings:normal;font-variation-settings:normal;text-indent:0;text-decoration-line:none;text-decoration-style:solid;text-decoration-color:#000000;text-transform:none;text-orientation:mixed;white-space:normal;shape-padding:0;shape-margin:0;inline-size:0;isolation:auto;mix-blend-mode:normal"
       id="path9" />
    <path
       d="m 7.4085,11.628 h 2.1164 v 2.0579 H 7.4085 Z"
       color="#000000"
       color-rendering="auto"
       dominant-baseline="auto"
       fill="url(#linearGradient929)"
       image-rendering="optimizeSpeed"
       solid-color="#000000"
       stop-color="#000000"
       stroke-width="1.4401"
       style="font-variant-ligatures:normal;font-variant-position:normal;font-variant-caps:normal;font-variant-numeric:normal;font-variant-alternates:normal;font-variant-east-asian:normal;font-feature-settings:normal;font-variation-settings:normal;text-indent:0;text-decoration-line:none;text-decoration-style:solid;text-decoration-color:#000000;text-transform:none;text-orientation:mixed;white-space:normal;shape-padding:0;shape-margin:0;inline-size:0;isolation:auto;mix-blend-mode:normal;fill:url(#linearGradient929)"
       id="path10" />
    <path
       d="m 4.7624,14.215 h 7.4082 v 0.52916 H 4.7624 Z"
       color="#000000"
       color-rendering="auto"
       dominant-baseline="auto"
       fill="#44484c"
       fill-opacity="0.99608"
       image-rendering="optimizeSpeed"
       solid-color="#000000"
       stop-color="#000000"
       stroke-width="1.7638"
       style="font-variant-ligatures:normal;font-variant-position:normal;font-variant-caps:normal;font-variant-numeric:normal;font-variant-alternates:normal;font-variant-east-asian:normal;font-feature-settings:normal;font-variation-settings:normal;text-indent:0;text-decoration-line:none;text-decoration-style:solid;text-decoration-color:#000000;text-transform:none;text-orientation:mixed;white-space:normal;shape-padding:0;shape-margin:0;inline-size:0;isolation:auto;mix-blend-mode:normal"
       id="path11" />
  </g>
  <rect
     x="3.9999726"
     y="8.7283096"
     width="55.998585"
     height="38.000118"
     ry="2.9999835"
     fill="url(#linearGradient1455-3)"
     stroke-linecap="round"
     stroke-linejoin="round"
     stroke-width="0.821912"
     id="rect11"
     style="fill:url(#linearGradient1455-3)" />
  <rect
     x="5.0004139"
     y="9.7283926"
     width="53.999172"
     height="35.999954"
     ry="2.0000143"
     fill="url(#linearGradient17498-6)"
     stroke-linecap="round"
     stroke-linejoin="round"
     stroke-width="0.78559"
     id="rect12"
     style="fill:url(#linearGradient17498-6)" />
  <g
     id="g12"
     transform="translate(-96.08756,2.2283811)">
    <path
       fill="#ffffff"
       d="m 141.58756,18 a 0.25,0.25 0 0 0 -0.25,0.25 v 1.5 c 0,0.139 0.112,0.25 0.25,0.25 h 0.5 a 0.25,0.25 0 0 0 0.25,-0.25 v -1.5 a 0.25,0.25 0 0 0 -0.25,-0.25 z m -4.699,1.947 a 0.25,0.25 0 0 0 -0.178,0.073 l -0.353,0.353 a 0.25,0.25 0 0 0 0,0.354 l 1.06,1.06 a 0.25,0.25 0 0 0 0.354,0 l 0.353,-0.353 a 0.25,0.25 0 0 0 0,-0.354 l -1.06,-1.06 a 0.246,0.246 0 0 0 -0.176,-0.073 z m 9.898,0 a 0.246,0.246 0 0 0 -0.175,0.073 l -1.06,1.06 a 0.25,0.25 0 0 0 0,0.354 l 0.353,0.353 a 0.25,0.25 0 0 0 0.353,0 l 1.06,-1.06 a 0.25,0.25 0 0 0 0,-0.354 l -0.353,-0.353 a 0.25,0.25 0 0 0 -0.178,-0.073 z m -4.949,2.053 a 3.5,3.5 0 1 0 0,7 3.5,3.5 0 0 0 0,-7 z m -7.25,3 a 0.25,0.25 0 0 0 -0.25,0.25 v 0.5 c 0,0.139 0.112,0.25 0.25,0.25 h 1.5 a 0.25,0.25 0 0 0 0.25,-0.25 v -0.5 a 0.25,0.25 0 0 0 -0.25,-0.25 z m 13,0 a 0.25,0.25 0 0 0 -0.25,0.25 v 0.5 c 0,0.139 0.112,0.25 0.25,0.25 h 1.5 a 0.25,0.25 0 0 0 0.25,-0.25 v -0.5 a 0.25,0.25 0 0 0 -0.25,-0.25 z m -9.992,4.139 a 0.252,0.252 0 0 0 -0.178,0.074 l -1.06,1.06 a 0.25,0.25 0 0 0 0,0.354 l 0.353,0.353 a 0.25,0.25 0 0 0 0.354,0 l 1.06,-1.06 a 0.25,0.25 0 0 0 0,-0.354 l -0.353,-0.353 a 0.248,0.248 0 0 0 -0.176,-0.074 z m 8.484,0 a 0.248,0.248 0 0 0 -0.175,0.074 l -0.354,0.353 a 0.25,0.25 0 0 0 0,0.354 l 1.06,1.06 a 0.25,0.25 0 0 0 0.354,0 l 0.354,-0.353 a 0.25,0.25 0 0 0 0,-0.354 l -1.06,-1.06 a 0.252,0.252 0 0 0 -0.179,-0.074 z m -4.492,1.861 a 0.25,0.25 0 0 0 -0.25,0.25 v 1.5 c 0,0.139 0.112,0.25 0.25,0.25 h 0.5 a 0.25,0.25 0 0 0 0.25,-0.25 v -1.5 a 0.25,0.25 0 0 0 -0.25,-0.25 z"
       color="#000000"
       overflow="visible"
       style="isolation:auto;mix-blend-mode:normal"
       id="path4" />
    <path
       fill="#ffffff"
       d="m 114.30056,18 a 7.5,7.5 0 0 0 -7.463,7.5 7.5,7.5 0 0 0 7.5,7.5 7.5,7.5 0 0 0 3.834,-1.055 6.5,6.5 0 0 1 -0.834,0.055 6.5,6.5 0 0 1 -6.5,-6.5 6.5,6.5 0 0 1 6.5,-6.5 6.5,6.5 0 0 1 0.832,0.055 7.5,7.5 0 0 0 -3.832,-1.055 7.5,7.5 0 0 0 -0.037,0 z"
       id="path12" />
  </g>
  <path
     id="path15"
     style="opacity:0.1;fill:#000000;fill-opacity:1;stroke-width:1.33334"
     d="M 6.8075832,9.7285156 C 5.806176,9.7285156 5,10.620509 5,11.728516 v 32 c 0,1.108006 0.806176,2 1.8075832,2 H 32.000774 V 9.7285156 Z" />
</svg>
