<?xml version="1.0" encoding="UTF-8"?>
<svg xmlns="http://www.w3.org/2000/svg" xmlns:xlink="http://www.w3.org/1999/xlink" width="64" height="64" viewBox="0 0 64 64" version="1.1">
<defs>
<linearGradient id="linear0" gradientUnits="userSpaceOnUse" x1="0" y1="27" x2="32" y2="27" gradientTransform="matrix(2,0,0,2,0,0)">
<stop offset="0" style="stop-color:rgb(5.882353%,31.372549%,40.392157%);stop-opacity:1;"/>
<stop offset="1" style="stop-color:rgb(1.176471%,21.176471%,36.862745%);stop-opacity:1;"/>
</linearGradient>
<linearGradient id="linear1" gradientUnits="userSpaceOnUse" x1="7.2736" y1="0.4343" x2="24.5255" y2="30.3154" gradientTransform="matrix(2,0,0,2,0,0)">
<stop offset="0" style="stop-color:rgb(25.882353%,89.019608%,90.588235%);stop-opacity:1;"/>
<stop offset="1" style="stop-color:rgb(3.529412%,43.529412%,74.509804%);stop-opacity:1;"/>
</linearGradient>
</defs>
<g id="surface1">
<path style=" stroke:none;fill-rule:nonzero;fill:url(#linear0);" d="M 0 52 L 64 52 L 64 53 C 64 54.65625 62.65625 56 61 56 L 3 56 C 1.34375 56 0 54.65625 0 53 Z M 0 52 "/>
<path style=" stroke:none;fill-rule:nonzero;fill:rgb(100%,100%,100%);fill-opacity:1;" d="M 45.09375 52.5 L 46.90625 52.5 C 47.234375 52.5 47.5 52.765625 47.5 53.09375 L 47.5 54.90625 C 47.5 55.234375 47.234375 55.5 46.90625 55.5 L 45.09375 55.5 C 44.765625 55.5 44.5 55.234375 44.5 54.90625 L 44.5 53.09375 C 44.5 52.765625 44.765625 52.5 45.09375 52.5 Z M 45.09375 52.5 "/>
<path style=" stroke:none;fill-rule:nonzero;fill:rgb(100%,100%,100%);fill-opacity:1;" d="M 53.09375 52.5 L 54.90625 52.5 C 55.234375 52.5 55.5 52.765625 55.5 53.09375 L 55.5 54.90625 C 55.5 55.234375 55.234375 55.5 54.90625 55.5 L 53.09375 55.5 C 52.765625 55.5 52.5 55.234375 52.5 54.90625 L 52.5 53.09375 C 52.5 52.765625 52.765625 52.5 53.09375 52.5 Z M 53.09375 52.5 "/>
<path style=" stroke:none;fill-rule:nonzero;fill:url(#linear1);" d="M 3 8 L 61 8 C 62.65625 8 64 9.34375 64 11 L 64 52 L 0 52 L 0 11 C 0 9.34375 1.34375 8 3 8 Z M 3 8 "/>
<path style=" stroke:none;fill-rule:nonzero;fill:rgb(100%,100%,100%);fill-opacity:1;" d="M 7 24 L 11 24 C 11.550781 24 12 24.449219 12 25 L 12 29 C 12 29.550781 11.550781 30 11 30 L 7 30 C 6.449219 30 6 29.550781 6 29 L 6 25 C 6 24.449219 6.449219 24 7 24 Z M 7 24 "/>
<path style=" stroke:none;fill-rule:nonzero;fill:rgb(100%,100%,100%);fill-opacity:1;" d="M 7 14 L 11 14 C 11.550781 14 12 14.449219 12 15 L 12 19 C 12 19.550781 11.550781 20 11 20 L 7 20 C 6.449219 20 6 19.550781 6 19 L 6 15 C 6 14.449219 6.449219 14 7 14 Z M 7 14 "/>
</g>
</svg>
