<?xml version="1.0" encoding="UTF-8"?>
<svg xmlns="http://www.w3.org/2000/svg" xmlns:xlink="http://www.w3.org/1999/xlink" width="64" height="64" viewBox="0 0 64 64" version="1.1">
<defs>
<linearGradient id="linear0" gradientUnits="userSpaceOnUse" x1="6.5" y1="7" x2="6.5" y2="10" gradientTransform="matrix(2,0,0,2,0,0)">
<stop offset="0" style="stop-color:rgb(0%,0%,0%);stop-opacity:0;"/>
<stop offset="1" style="stop-color:rgb(0%,0%,0%);stop-opacity:0.2;"/>
</linearGradient>
<linearGradient id="linear1" gradientUnits="userSpaceOnUse" x1="3.6224" y1="5.4027" x2="29.5973" y2="31.3776" gradientTransform="matrix(2,0,0,2,0,0)">
<stop offset="0" style="stop-color:rgb(100%,84.313725%,38.039216%);stop-opacity:1;"/>
<stop offset="1" style="stop-color:rgb(96.470588%,70.980392%,1.568627%);stop-opacity:1;"/>
</linearGradient>
<linearGradient id="linear2" gradientUnits="userSpaceOnUse" x1="-13.9403" y1="28.2221" x2="-9.1444" y2="25.4532" gradientTransform="matrix(7.5592,0,0,-7.5592,118.4344,254.4538)">
<stop offset="0" style="stop-color:rgb(7.843137%,57.647059%,87.45098%);stop-opacity:1;"/>
<stop offset="1" style="stop-color:rgb(0%,38.431373%,70.588235%);stop-opacity:1;"/>
</linearGradient>
<filter id="alpha" filterUnits="objectBoundingBox" x="0%" y="0%" width="100%" height="100%">
  <feColorMatrix type="matrix" in="SourceGraphic" values="0 0 0 0 1 0 0 0 0 1 0 0 0 0 1 0 0 0 1 0"/>
</filter>
<mask id="mask0">
  <g filter="url(#alpha)">
<rect x="0" y="0" width="64" height="64" style="fill:rgb(0%,0%,0%);fill-opacity:0.301961;stroke:none;"/>
  </g>
</mask>
<linearGradient id="linear3" gradientUnits="userSpaceOnUse" x1="8.1786" y1="0.8465" x2="23.666" y2="16.334" gradientTransform="matrix(2,0,0,2,0,0)">
<stop offset="0" style="stop-color:rgb(100%,100%,100%);stop-opacity:1;"/>
<stop offset="1" style="stop-color:rgb(96.470588%,70.980392%,1.568627%);stop-opacity:0;"/>
</linearGradient>
<clipPath id="clip1">
  <rect x="0" y="0" width="64" height="64"/>
</clipPath>
<g id="surface5" clip-path="url(#clip1)">
<path style=" stroke:none;fill-rule:nonzero;fill:url(#linear3);" d="M 62 12 L 27.035156 12 C 26.371094 12 25.738281 12.261719 25.269531 12.730469 L 22 16 L 3.5 16 C 1.566406 16 0 17.566406 0 19.5 L 0 21.5 C 0 19.566406 1.566406 18 3.5 18 L 22 18 L 25.261719 14.738281 C 25.734375 14.265625 26.375 14 27.042969 14 L 62 14 C 63.105469 14 64 14.894531 64 16 L 64 14 C 64 12.894531 63.105469 12 62 12 Z M 62 12 "/>
</g>
</defs>
<g id="surface1">
<path style=" stroke:none;fill-rule:nonzero;fill:rgb(87.843137%,62.352941%,0%);fill-opacity:1;" d="M 61.5 10 L 28 10 L 23.167969 5.167969 C 22.421875 4.421875 21.40625 4 20.347656 4 L 3 4 C 1.34375 4 0 5.34375 0 7 L 0 20 L 64 20 L 64 12.5 C 64 11.121094 62.878906 10 61.5 10 Z M 61.5 10 "/>
<path style=" stroke:none;fill-rule:nonzero;fill:url(#linear0);" d="M 0 14 L 26 14 L 26 20 L 0 20 Z M 0 14 "/>
<path style=" stroke:none;fill-rule:nonzero;fill:url(#linear1);" d="M 62 12 L 27.035156 12 C 26.371094 12 25.738281 12.261719 25.269531 12.730469 L 22 16 L 3.5 16 C 1.566406 16 0 17.566406 0 19.5 L 0 56.5 C 0 58.433594 1.566406 60 3.5 60 L 60.5 60 C 62.433594 60 64 58.433594 64 56.5 L 64 14 C 64 12.894531 63.105469 12 62 12 Z M 62 12 "/>
<path style=" stroke:none;fill-rule:nonzero;fill:url(#linear2);" d="M 17 42 C 15.671875 41.996094 14.398438 42.523438 13.460938 43.460938 C 12.523438 44.398438 11.996094 45.671875 12 47 L 12 60 L 52 60 L 52 47 C 52.003906 45.671875 51.476562 44.398438 50.539062 43.460938 C 49.601562 42.523438 48.328125 41.996094 47 42 Z M 17 42 "/>
<path style=" stroke:none;fill-rule:nonzero;fill:rgb(6.666667%,29.019608%,54.509804%);fill-opacity:1;" d="M 21.199219 50 L 42.800781 50 C 43.40625 49.949219 43.941406 50.394531 44 51 C 43.941406 51.605469 43.40625 52.050781 42.800781 52 L 21.199219 52 C 20.59375 52.050781 20.058594 51.605469 20 51 C 20.058594 50.394531 20.59375 49.949219 21.199219 50 Z M 21.199219 50 "/>
<use xlink:href="#surface5" mask="url(#mask0)"/>
</g>
</svg>
