<?xml version="1.0" encoding="UTF-8"?>
<svg xmlns="http://www.w3.org/2000/svg" xmlns:xlink="http://www.w3.org/1999/xlink" width="64px" height="64px" viewBox="0 0 64 64" version="1.1">
<defs>
<linearGradient id="linear0" gradientUnits="userSpaceOnUse" x1="27" y1="18.098" x2="27" y2="2.759" gradientTransform="matrix(1.333333,0,0,-1.333333,0,66.666667)">
<stop offset="0.014" style="stop-color:rgb(89.803922%,64.705882%,1.960784%);stop-opacity:1;"/>
<stop offset="0.063" style="stop-color:rgb(91.372549%,65.882353%,1.568627%);stop-opacity:1;"/>
<stop offset="0.128" style="stop-color:rgb(95.686275%,69.411765%,0.784314%);stop-opacity:1;"/>
<stop offset="0.169" style="stop-color:rgb(98.431373%,71.372549%,0%);stop-opacity:1;"/>
<stop offset="0.323" style="stop-color:rgb(99.215686%,71.764706%,0%);stop-opacity:1;"/>
</linearGradient>
<filter id="alpha" filterUnits="objectBoundingBox" x="0%" y="0%" width="100%" height="100%">
  <feColorMatrix type="matrix" in="SourceGraphic" values="0 0 0 0 1 0 0 0 0 1 0 0 0 0 1 0 0 0 1 0"/>
</filter>
<mask id="mask0">
  <g filter="url(#alpha)">
<rect x="0" y="0" width="64" height="64" style="fill:rgb(0%,0%,0%);fill-opacity:0.0509804;stroke:none;"/>
  </g>
</mask>
<clipPath id="clip1">
  <rect x="0" y="0" width="64" height="64"/>
</clipPath>
<g id="surface5" clip-path="url(#clip1)">
<path style=" stroke:none;fill-rule:nonzero;fill:rgb(0%,0%,0%);fill-opacity:1;" d="M 34.121094 17.332031 C 33.09375 16.839844 32.039062 16.480469 30.972656 16.265625 C 30.558594 16.171875 30.148438 16.105469 29.734375 16.066406 C 24.773438 18.425781 21.332031 23.480469 21.332031 29.332031 C 21.332031 35.160156 24.746094 40.199219 29.667969 42.574219 C 30.09375 42.535156 30.519531 42.464844 30.945312 42.386719 C 34.851562 41.585938 38.375 39.039062 40.253906 35.160156 C 43.492188 28.535156 40.746094 20.558594 34.121094 17.332031 Z M 36 26.667969 C 34.535156 26.667969 33.332031 25.464844 33.332031 24 C 33.332031 22.535156 34.535156 21.332031 36 21.332031 C 37.464844 21.332031 38.667969 22.535156 38.667969 24 C 38.667969 25.464844 37.464844 26.667969 36 26.667969 Z M 36 26.667969 "/>
</g>
<mask id="mask1">
  <g filter="url(#alpha)">
<rect x="0" y="0" width="64" height="64" style="fill:rgb(0%,0%,0%);fill-opacity:0.0705882;stroke:none;"/>
  </g>
</mask>
<clipPath id="clip2">
  <rect x="0" y="0" width="64" height="64"/>
</clipPath>
<g id="surface8" clip-path="url(#clip2)">
<path style=" stroke:none;fill-rule:nonzero;fill:rgb(0%,0%,0%);fill-opacity:1;" d="M 34.121094 17.332031 C 33.09375 16.839844 32.039062 16.480469 30.972656 16.265625 C 25.734375 18.292969 22 23.386719 22 29.332031 C 22 35.265625 25.71875 40.359375 30.945312 42.386719 C 34.851562 41.585938 38.375 39.039062 40.253906 35.160156 C 43.492188 28.535156 40.746094 20.558594 34.121094 17.332031 Z M 36 27.332031 C 34.160156 27.332031 32.667969 25.839844 32.667969 24 C 32.667969 22.160156 34.160156 20.667969 36 20.667969 C 37.839844 20.667969 39.332031 22.160156 39.332031 24 C 39.332031 25.839844 37.839844 27.332031 36 27.332031 Z M 36 27.332031 "/>
</g>
<linearGradient id="linear1" gradientUnits="userSpaceOnUse" x1="22.304" y1="36.832" x2="31.696" y2="19.168" gradientTransform="matrix(1.333333,0,0,-1.333333,0,66.666667)">
<stop offset="0" style="stop-color:rgb(99.607843%,87.058824%,0%);stop-opacity:1;"/>
<stop offset="1" style="stop-color:rgb(100%,81.568627%,0%);stop-opacity:1;"/>
</linearGradient>
<linearGradient id="linear2" gradientUnits="userSpaceOnUse" x1="15.816" y1="63.86" x2="17.996" y2="55.91" gradientTransform="matrix(1.333333,0,0,-1.333333,0,66.666667)">
<stop offset="0" style="stop-color:rgb(98.823529%,98.823529%,98.823529%);stop-opacity:1;"/>
<stop offset="0.495" style="stop-color:rgb(95.686275%,95.686275%,95.686275%);stop-opacity:1;"/>
<stop offset="0.946" style="stop-color:rgb(90.980392%,90.980392%,90.980392%);stop-opacity:1;"/>
<stop offset="1" style="stop-color:rgb(90.980392%,90.980392%,90.980392%);stop-opacity:1;"/>
</linearGradient>
<mask id="mask2">
  <g filter="url(#alpha)">
<rect x="0" y="0" width="64" height="64" style="fill:rgb(0%,0%,0%);fill-opacity:0.0705882;stroke:none;"/>
  </g>
</mask>
<clipPath id="clip3">
  <rect x="0" y="0" width="64" height="64"/>
</clipPath>
<g id="surface11" clip-path="url(#clip3)">
<path style=" stroke:none;fill-rule:nonzero;fill:rgb(0%,0%,0%);fill-opacity:1;" d="M 32.667969 24 C 32.667969 23.878906 32.679688 23.746094 32.679688 23.625 C 32.464844 23.691406 32.238281 23.761719 32.011719 23.800781 C 32 23.867188 32 23.933594 32 24 C 32 24.132812 32.011719 24.265625 32.027344 24.398438 C 32.09375 25.132812 32.359375 25.800781 32.773438 26.359375 C 33.011719 26.308594 33.253906 26.253906 33.480469 26.171875 C 32.972656 25.601562 32.667969 24.828125 32.667969 24 Z M 32.667969 24 "/>
</g>
<mask id="mask3">
  <g filter="url(#alpha)">
<rect x="0" y="0" width="64" height="64" style="fill:rgb(0%,0%,0%);fill-opacity:0.0509804;stroke:none;"/>
  </g>
</mask>
<clipPath id="clip4">
  <rect x="0" y="0" width="64" height="64"/>
</clipPath>
<g id="surface14" clip-path="url(#clip4)">
<path style=" stroke:none;fill-rule:nonzero;fill:rgb(0%,0%,0%);fill-opacity:1;" d="M 33.332031 24 C 33.332031 23.785156 33.359375 23.585938 33.398438 23.386719 C 33.171875 23.492188 32.921875 23.574219 32.679688 23.625 C 32.464844 23.691406 32.238281 23.761719 32.011719 23.800781 C 32 23.867188 32 23.933594 32 24 C 32 24.132812 32.011719 24.265625 32.027344 24.398438 C 32.09375 25.132812 32.359375 25.800781 32.773438 26.359375 C 33.011719 26.308594 33.253906 26.253906 33.480469 26.171875 C 33.71875 26.105469 33.960938 26.039062 34.1875 25.945312 C 33.667969 25.453125 33.332031 24.761719 33.332031 24 Z M 33.332031 24 "/>
</g>
</defs>
<g id="surface1">
<path style=" stroke:none;fill-rule:nonzero;fill:rgb(89.019608%,65.098039%,0%);fill-opacity:1;" d="M 27.777344 39.460938 L 18.703125 58.070312 C 18.519531 58.441406 18.261719 58.761719 17.929688 59.015625 L 16.714844 59.949219 C 16.3125 60.257812 15.773438 60.304688 15.316406 60.085938 L 12.007812 58.46875 C 11.550781 58.246094 11.257812 57.792969 11.25 57.285156 L 11.242188 55.753906 C 11.238281 55.335938 11.328125 54.9375 11.507812 54.5625 L 12.402344 52.730469 C 13.214844 52.828125 14.097656 52.296875 14.480469 51.515625 C 14.859375 50.738281 14.734375 49.714844 14.15625 49.132812 L 15.328125 46.738281 C 16.136719 46.835938 17.019531 46.300781 17.402344 45.523438 C 17.78125 44.746094 17.65625 43.71875 17.078125 43.140625 L 20.585938 35.949219 Z M 27.777344 39.460938 "/>
<path style=" stroke:none;fill-rule:nonzero;fill:rgb(92.941176%,74.509804%,0%);fill-opacity:1;" d="M 34.121094 17.332031 C 27.496094 14.101562 19.519531 16.847656 16.289062 23.472656 C 13.058594 30.09375 15.808594 38.070312 22.429688 41.300781 C 29.050781 44.53125 37.027344 41.785156 40.257812 35.164062 C 43.488281 28.539062 40.742188 20.5625 34.121094 17.332031 Z M 34.121094 17.332031 "/>
<path style=" stroke:none;fill-rule:nonzero;fill:rgb(92.941176%,74.509804%,0%);fill-opacity:1;" d="M 34.121094 17.332031 C 33.09375 16.839844 32.039062 16.480469 30.972656 16.265625 C 30.558594 16.171875 30.148438 16.105469 29.734375 16.066406 C 26.617188 15.722656 23.492188 16.496094 20.914062 18.191406 L 19.417969 17.761719 L 18.804688 19.921875 C 17.804688 20.929688 16.949219 22.117188 16.292969 23.464844 C 13.066406 30.09375 15.8125 38.066406 22.425781 41.304688 C 24.761719 42.4375 27.265625 42.839844 29.667969 42.570312 C 30.09375 42.53125 30.519531 42.464844 30.945312 42.386719 C 34.851562 41.585938 38.375 39.039062 40.253906 35.160156 C 43.492188 28.535156 40.746094 20.558594 34.121094 17.332031 Z M 34.121094 17.332031 "/>
<path style=" stroke:none;fill-rule:nonzero;fill:url(#linear0);" d="M 40 38.667969 L 40 59.375 C 40 59.785156 39.90625 60.1875 39.71875 60.558594 L 39.039062 61.933594 C 38.8125 62.386719 38.347656 62.667969 37.839844 62.667969 L 34.160156 62.667969 C 33.652344 62.667969 33.1875 62.386719 32.960938 61.933594 L 32.28125 60.558594 C 32.09375 60.1875 32 59.785156 32 59.375 L 32 57.332031 C 32.773438 57.066406 33.332031 56.199219 33.332031 55.332031 C 33.332031 54.464844 32.773438 53.601562 32 53.332031 L 32 50.667969 C 32.773438 50.398438 33.332031 49.535156 33.332031 48.667969 C 33.332031 47.800781 32.773438 46.933594 32 46.667969 L 32 38.667969 Z M 40 38.667969 "/>
<use xlink:href="#surface5" mask="url(#mask0)"/>
<use xlink:href="#surface8" mask="url(#mask1)"/>
<path style=" stroke:none;fill-rule:nonzero;fill:url(#linear1);" d="M 36 16 C 28.632812 16 22.667969 21.964844 22.667969 29.332031 C 22.667969 36.703125 28.632812 42.667969 36 42.667969 C 43.367188 42.667969 49.332031 36.703125 49.332031 29.332031 C 49.332031 21.964844 43.367188 16 36 16 Z M 36 28 C 33.792969 28 32 26.207031 32 24 C 32 21.792969 33.792969 20 36 20 C 38.207031 20 40 21.792969 40 24 C 40 26.207031 38.207031 28 36 28 Z M 36 28 "/>
<path style=" stroke:none;fill-rule:nonzero;fill:url(#linear2);" d="M 30 1.332031 C 23.011719 1.332031 17.332031 7.011719 17.332031 14 C 17.332031 16.148438 17.847656 18.171875 18.792969 19.933594 C 19.433594 19.265625 20.15625 18.6875 20.914062 18.191406 C 20.316406 16.914062 20 15.492188 20 14 C 20 8.480469 24.480469 4 30 4 C 35.519531 4 40 8.480469 40 14 C 40 14.867188 39.894531 15.71875 39.667969 16.519531 C 39.332031 17.839844 38.734375 19.054688 37.921875 20.09375 C 37.839844 20.1875 37.773438 20.28125 37.691406 20.375 C 36.28125 22.09375 34.28125 23.332031 32.011719 23.800781 C 32 23.867188 32 23.933594 32 24 C 32 24.878906 32.292969 25.707031 32.773438 26.359375 C 35.480469 25.761719 37.839844 24.292969 39.585938 22.265625 L 39.601562 22.253906 C 40.773438 20.90625 41.667969 19.292969 42.160156 17.519531 C 42.492188 16.398438 42.667969 15.226562 42.667969 14 C 42.667969 7.011719 36.988281 1.332031 30 1.332031 Z M 30 1.332031 "/>
<use xlink:href="#surface11" mask="url(#mask2)"/>
<use xlink:href="#surface14" mask="url(#mask3)"/>
</g>
</svg>
