<?xml version="1.0" encoding="UTF-8"?>
<svg width="64" height="64" version="1.1" viewBox="0 0 16.933 16.933" xmlns="http://www.w3.org/2000/svg" xmlns:cc="http://creativecommons.org/ns#" xmlns:dc="http://purl.org/dc/elements/1.1/" xmlns:rdf="http://www.w3.org/1999/02/22-rdf-syntax-ns#">
 <defs>
  <linearGradient id="linearGradient1465" x1="53.237" x2="66.207" y1="14.657" y2="27.627" gradientTransform="matrix(.75 0 0 .75 -37.383 -2.5998)" gradientUnits="userSpaceOnUse">
   <stop stop-color="#869099" offset="0"/>
   <stop stop-color="#4c6068" offset="1"/>
  </linearGradient>
  <linearGradient id="linearGradient1481" x1="55.678" x2="61.884" y1="6.314" y2="12.52" gradientTransform="matrix(.75 0 0 .75 -38.244 4.8801)" gradientUnits="userSpaceOnUse">
   <stop stop-color="#d2d7dc" offset="0"/>
   <stop stop-color="#fff" offset="1"/>
  </linearGradient>
  <linearGradient id="linearGradient1491" x1="55.678" x2="61.884" y1="6.314" y2="12.52" gradientTransform="matrix(.53097 0 0 .53097 -25.163 7.1429)" gradientUnits="userSpaceOnUse">
   <stop stop-color="#006ec8" offset="0"/>
   <stop stop-color="#0a327d" offset="1"/>
  </linearGradient>
 </defs>
 <metadata>
  <rdf:RDF>
   <cc:Work rdf:about="">
    <dc:format>image/svg+xml</dc:format>
    <dc:type rdf:resource="http://purl.org/dc/dcmitype/StillImage"/>
   </cc:Work>
  </rdf:RDF>
 </metadata>
 <g transform="matrix(1.3333 0 0 1.3333 -.26347 -8.3712)" stroke-width=".75">
  <path d="m8.1225 7.0475a0.37642 0.36696 0 0 0-0.037361 0.0036 0.37642 0.36696 0 0 0-0.03699 0.00652 0.37642 0.36696 0 0 0-0.036248 0.0102 0.37642 0.36696 0 0 0-0.034748 0.013845 0.37642 0.36696 0 0 0-0.033255 0.017482 0.37642 0.36696 0 0 0-0.01158 0.00652 0.37642 0.36696 0 0 0-0.031013 0.02112 0.37642 0.36696 0 0 0-0.028395 0.023678 0.37642 0.36696 0 0 0-0.026153 0.026587 0.37642 0.36696 0 0 0-0.023168 0.028778 0.37642 0.36696 0 0 0-0.020182 0.030961 0.37642 0.36696 0 0 0-0.016807 0.032783 0.37642 0.36696 0 0 0-0.013455 0.034231 0.37642 0.36696 0 0 0-0.00972 0.0357 1.2647 1.233 0 0 1-0.017182 0.068843 1.2647 1.233 0 0 1-0.039608 0.11693 1.2647 1.233 0 0 1-0.051188 0.11291 1.2647 1.233 0 0 1-0.062768 0.10709 1.2647 1.233 0 0 1-0.072856 0.10053 1.2647 1.233 0 0 1-0.083318 0.092881 1.2647 1.233 0 0 1-0.092288 0.084143 1.2647 1.233 0 0 1-0.10013 0.075037 1.2647 1.233 0 0 1-0.1076 0.06483 1.2647 1.233 0 0 1-0.11358 0.05391 1.2647 1.233 0 0 1-0.11881 0.042615 1.2647 1.233 0 0 1-0.12218 0.030961 1.2647 1.233 0 0 1-0.12517 0.018577 1.2647 1.233 0 0 1-0.12629 0.00682 1.2647 1.233 0 0 1-0.067628-0.00218 1.2647 1.233 0 0 1-0.12592-0.013457 1.2647 1.233 0 0 1-0.12368-0.025133 1.2647 1.233 0 0 1-0.12031-0.037515 1.2647 1.233 0 0 1-0.1162-0.04881 1.2647 1.233 0 0 1-0.1106-0.060105 1.2647 1.233 0 0 1-0.1035-0.07029 1.2647 1.233 0 0 1-0.096023-0.080138 1.2647 1.233 0 0 1-0.087428-0.089243 1.2647 1.233 0 0 1-0.077716-0.096893 1.2647 1.233 0 0 1-0.067628-0.10418 1.2647 1.233 0 0 1-0.056415-0.11036 1.2647 1.233 0 0 1-0.044835-0.11546 1.2647 1.233 0 0 1-0.032881-0.11875 0.37642 0.36696 0 0 0-0.0015-0.00735 0.37642 0.36696 0 0 0-0.010087-0.035341 0.37642 0.36696 0 0 0-0.01344-0.03423 0.37642 0.36696 0 0 0-0.016807-0.032783 0.37642 0.36696 0 0 0-0.02055-0.030961 0.37642 0.36696 0 0 0-0.023168-0.028778 0.37642 0.36696 0 0 0-0.026152-0.026587 0.37642 0.36696 0 0 0-0.028771-0.023677 0.37642 0.36696 0 0 0-0.031013-0.02076 0.36324 0.35412 0 0 0-0.01719-0.00983 0.36324 0.35412 0 0 0-0.03288-0.01494 0.36324 0.35412 0 0 0-0.034366-0.012022 0.36324 0.35412 0 0 0-0.035115-0.00837 0.36324 0.35412 0 0 0-0.035866-0.00473 0.36324 0.35412 0 0 0-0.036608-0.0018 0.36324 0.35412 0 0 0-0.036241 0.00217 0.36324 0.35412 0 0 0-0.035865 0.00585 0.36324 0.35412 0 0 0-0.034748 0.00911 5.9474 5.798 0 0 0-0.34337 0.11219 5.9474 5.798 0 0 0-0.54662 0.22802 5.9474 5.798 0 0 0-0.52047 0.2801 5.9474 5.798 0 0 0-0.48909 0.32928 5.9474 5.798 0 0 0-0.45321 0.37517 0.37642 0.36696 0 0 0-0.00562 0.00472 0.37642 0.36696 0 0 0-0.025411 0.027331 0.37642 0.36696 0 0 0-0.022417 0.029866 0.37642 0.36696 0 0 0-0.019057 0.031321 0.37642 0.36696 0 0 0-0.016065 0.032783 0.37642 0.36696 0 0 0-0.012705 0.034598 0.37642 0.36696 0 0 0-0.00897 0.0357 0.37642 0.36696 0 0 0-0.00495 0.036421 0.37642 0.36696 0 0 0-0.0015 0.036788 0.37642 0.36696 0 0 0 0 0.00585 0.37642 0.36696 0 0 0 0.00225 0.036788 0.37642 0.36696 0 0 0 0.00607 0.036068 0.37642 0.36696 0 0 0 0.00934 0.035341 0.37642 0.36696 0 0 0 0.01344 0.034598 0.37642 0.36696 0 0 0 0.01644 0.032791 0.37642 0.36696 0 0 0 0.020182 0.03096 0.37642 0.36696 0 0 0 0.023168 0.029138 0.37642 0.36696 0 0 0 0.025785 0.026588 1.2572 1.2257 0 0 1 0.013087 0.011655 1.2572 1.2257 0 0 1 0.087428 0.088148 1.2572 1.2257 0 0 1 0.077716 0.096158 1.2572 1.2257 0 0 1 0.067628 0.10345 1.2572 1.2257 0 0 1 0.056783 0.10928 1.2572 1.2257 0 0 1 0.04521 0.11438 1.2572 1.2257 0 0 1 0.033256 0.11801 1.2572 1.2257 0 0 1 0.020925 0.12093 1.2572 1.2257 0 0 1 0.00859 0.12203 1.2572 1.2257 0 0 1-0.00382 0.12239 1.2572 1.2257 0 0 1-0.01644 0.12166 1.2572 1.2257 0 0 1-0.029146 0.11911 1.2572 1.2257 0 0 1-0.040725 0.11583 1.2572 1.2257 0 0 1-0.05268 0.11146 1.2572 1.2257 0 0 1-0.063893 0.10563 1.2572 1.2257 0 0 1-0.073972 0.09871 1.2572 1.2257 0 0 1-0.084068 0.09107 1.2572 1.2257 0 0 1-0.092663 0.08268 1.2572 1.2257 0 0 1-0.10088 0.07285 1.2572 1.2257 0 0 1-0.10798 0.06302 1.2572 1.2257 0 0 1-0.11396 0.05209 1.2572 1.2257 0 0 1-0.11844 0.04079 1.2572 1.2257 0 0 1-0.12218 0.02914 1.2572 1.2257 0 0 1-0.12442 0.01676 1.2572 1.2257 0 0 1-0.12554 0.0047 1.2572 1.2257 0 0 1-0.1252-0.0073 1.2572 1.2257 0 0 1-0.12404-0.01967 1.2572 1.2257 0 0 1-0.12143-0.03169 0.37642 0.36696 0 0 0-0.017932-5e-3 0.37642 0.36696 0 0 0-0.036608-0.0076 0.37642 0.36696 0 0 0-0.03774-0.0044 0.37642 0.36696 0 0 0-0.037358-3.65e-4 0.37642 0.36696 0 0 0-0.037741 0.0033 0.37642 0.36696 0 0 0-0.03699 0.0068 0.37642 0.36696 0 0 0-0.035866 0.01019 0.37642 0.36696 0 0 0-0.034748 0.01384 0.37642 0.36696 0 0 0-0.033255 0.01713 0.37642 0.36696 0 0 0-0.031388 0.02041 0.37642 0.36696 0 0 0-0.029146 0.02332 0.37642 0.36696 0 0 0-0.026528 0.02586 0.37642 0.36696 0 0 0-0.023902 0.02841 0.37642 0.36696 0 0 0-0.02055 0.0306 0.37642 0.36696 0 0 0-0.017565 0.03242 0.37642 0.36696 0 0 0-0.014197 0.03424 0.37642 0.36696 0 0 0-0.010462 0.03497 5.7893 5.6439 0 0 0-0.085565 0.39886 5.7893 5.6439 0 0 0-0.069495 0.56021 5.7893 5.6439 0 0 0-0.01158 0.56385 5.7893 5.6439 0 0 0 0.046328 0.5624 5.7893 5.6439 0 0 0 0.10349 0.55511 0.37642 0.36696 0 0 0 0.00412 0.01675 0.37642 0.36696 0 0 0 0.011962 0.03497 0.37642 0.36696 0 0 0 0.015322 0.03351 0.37642 0.36696 0 0 0 0.018682 0.03169 0.37642 0.36696 0 0 0 0.022042 0.02987 0.37642 0.36696 0 0 0 0.02466 0.02768 0.37642 0.36696 0 0 0 0.027646 0.02514 0.37642 0.36696 0 0 0 0.029881 0.02221 0.37642 0.36696 0 0 0 0.03177 0.01931 0.37642 0.36696 0 0 0 0.033998 0.01566 0.37642 0.36696 0 0 0 0.035498 0.01276 0.37642 0.36696 0 0 0 0.036241 0.0091 0.37642 0.36696 0 0 0 0.037365 0.0055 0.37642 0.36696 0 0 0 0.037358 0.0018 0.37642 0.36696 0 0 0 0.03774-0.0018 0.37642 0.36696 0 0 0 0.037366-0.0055 0.37642 0.36696 0 0 0 0.036248-0.0087 1.2572 1.2257 0 0 1 0.019057-0.0059 1.2572 1.2257 0 0 1 0.12218-0.02878 1.2572 1.2257 0 0 1 0.12442-0.01676 1.2572 1.2257 0 0 1 0.12554-0.0044 1.2572 1.2257 0 0 1 0.12554 0.0076 1.2572 1.2257 0 0 1 0.12404 0.02003 1.2572 1.2257 0 0 1 0.12143 0.03169 1.2572 1.2257 0 0 1 0.11732 0.04335 1.2572 1.2257 0 0 1 0.11246 0.055 1.2572 1.2257 0 0 1 0.10649 0.0652 1.2572 1.2257 0 0 1 0.099008 0.0754 1.2572 1.2257 0 0 1 0.090796 0.08487 1.2572 1.2257 0 0 1 0.081826 0.09288 1.2572 1.2257 0 0 1 0.071738 0.10053 1.2572 1.2257 0 0 1 0.0609 0.10709 1.2572 1.2257 0 0 1 0.050063 0.11255 1.2572 1.2257 0 0 1 0.037733 0.11656 1.2572 1.2257 0 0 1 0.026153 0.1202 1.2572 1.2257 0 0 1 0.01344 0.12166 1.2572 1.2257 0 0 1 0.00113 0.12239 1.2572 1.2257 0 0 1-0.01158 0.12203 1.2572 1.2257 0 0 1-0.024285 0.1202 1.2572 1.2257 0 0 1-0.035858 0.11765 1.2572 1.2257 0 0 1-0.048203 0.11291 1.2572 1.2257 0 0 1-0.059408 0.10818 1.2572 1.2257 0 0 1-0.070245 0.10163 1.2572 1.2257 0 0 1-0.079957 0.09434 1.2572 1.2257 0 0 1-0.089671 0.08596 0.37642 0.36696 0 0 0-0.0075 0.0065 0.37642 0.36696 0 0 0-0.025778 0.02659 0.37642 0.36696 0 0 0-0.023542 0.02878 0.37642 0.36696 0 0 0-0.020175 0.03096 0.37642 0.36696 0 0 0-0.016815 0.03242 0.37642 0.36696 0 0 0-0.01344 0.03423 0.37642 0.36696 0 0 0-0.010087 0.0357 0.37642 0.36696 0 0 0-0.00637 0.03606 0.37642 0.36696 0 0 0-0.00225 0.03642 0.37642 0.36696 0 0 0 0 0.0095 0.37642 0.36696 0 0 0 0.00225 0.03679 0.37642 0.36696 0 0 0 0.00608 0.03607 0.37642 0.36696 0 0 0 0.00934 0.03534 0.37642 0.36696 0 0 0 0.013455 0.0346 0.37642 0.36696 0 0 0 0.01644 0.03278 0.37642 0.36696 0 0 0 0.020175 0.03096 0.37642 0.36696 0 0 0 0.023167 0.02914 0.37642 0.36696 0 0 0 0.025786 0.02659 5.9794 5.8292 0 0 0 0.2507 0.22219 5.9794 5.8292 0 0 0 0.47227 0.35696 5.9794 5.8292 0 0 0 0.50627 0.30961 5.9794 5.8292 0 0 0 0.53579 0.25825 5.9794 5.8292 0 0 0 0.55932 0.20507 0.37642 0.36696 0 0 0 0.010462 0.0033 0.37642 0.36696 0 0 0 0.036615 8e-3 0.37642 0.36696 0 0 0 0.037358 0.0044 0.37642 0.36696 0 0 0 0.037366 0.0011 0.37642 0.36696 0 0 0 0.03774-0.0029 0.37642 0.36696 0 0 0 0.03699-0.0065 0.37642 0.36696 0 0 0 0.036248-0.0098 0.37642 0.36696 0 0 0 0.034748-0.01347 0.37642 0.36696 0 0 0 0.03363-0.01676 0.37642 0.36696 0 0 0 0.013447-0.0074 0.37642 0.36696 0 0 0 0.031388-0.02041 0.37642 0.36696 0 0 0 0.029146-0.02295 0.37642 0.36696 0 0 0 0.026527-0.02585 0.37642 0.36696 0 0 0 0.024286-0.02841 0.37642 0.36696 0 0 0 0.02055-0.03023 0.37642 0.36696 0 0 0 0.017932-0.03242 0.37642 0.36696 0 0 0 0.014197-0.03423 0.37642 0.36696 0 0 0 0.010845-0.03497 1.2629 1.2311 0 0 1 0.01344-0.05354 1.2629 1.2311 0 0 1 0.039608-0.11693 1.2629 1.2311 0 0 1 0.05118-0.11255 1.2629 1.2311 0 0 1 0.0624-0.10672 1.2629 1.2311 0 0 1 0.072856-0.10053 1.2629 1.2311 0 0 1 0.082943-0.09252 1.2629 1.2311 0 0 1 0.091913-0.0845 1.2629 1.2311 0 0 1 0.10051-0.07467 1.2629 1.2311 0 0 1 0.10724-0.06483 1.2629 1.2311 0 0 1 0.11358-0.05391 1.2629 1.2311 0 0 1 0.11844-0.04262 1.2629 1.2311 0 0 1 0.12218-0.03096 1.2629 1.2311 0 0 1 0.12479-0.01857 1.2629 1.2311 0 0 1 0.12592-0.0068h0.014947a1.2629 1.2311 0 0 1 0.071738 0.0033 1.2629 1.2311 0 0 1 0.12554 0.01494 1.2629 1.2311 0 0 1 0.12293 0.02695 1.2629 1.2311 0 0 1 0.11993 0.03861 1.2629 1.2311 0 0 1 0.11508 0.05063 1.2629 1.2311 0 0 1 0.10947 0.06119 1.2629 1.2311 0 0 1 0.10275 0.07175 1.2629 1.2311 0 0 1 0.094898 0.08122 1.2629 1.2311 0 0 1 0.085936 0.08997 1.2629 1.2311 0 0 1 0.076224 0.09798 1.2629 1.2311 0 0 1 0.066128 0.1049 1.2629 1.2311 0 0 1 0.054548 0.1111 1.2629 1.2311 0 0 1 0.043335 0.11547 1.2629 1.2311 0 0 1 0.031013 0.11911 0.37642 0.36696 0 0 0 0.00225 0.01019 0.37642 0.36696 0 0 0 0.010087 0.03534 0.37642 0.36696 0 0 0 0.013815 0.03423 0.37642 0.36696 0 0 0 0.01719 0.03242 0.37642 0.36696 0 0 0 0.020175 0.03096 0.37642 0.36696 0 0 0 0.023543 0.02878 0.37642 0.36696 0 0 0 0.026527 0.02623 0.37642 0.36696 0 0 0 0.028771 0.02368 0.37642 0.36696 0 0 0 0.031013 0.02041 0.37642 0.36696 0 0 0 0.01719 0.0098 0.37642 0.36696 0 0 0 0.034006 0.01602 0.37642 0.36696 0 0 0 0.035116 0.01276 0.37642 0.36696 0 0 0 0.036608 0.0091 0.37642 0.36696 0 0 0 0.03699 0.0055 0.37642 0.36696 0 0 0 0.037741 0.0022 0.37642 0.36696 0 0 0 0.034366-0.0037 0.37642 0.36696 0 0 0 0.036991-0.0076 0.37642 0.36696 0 0 0 0.035861-0.01093 5.9568 5.8072 0 0 0 0.33739-0.10418 5.9568 5.8072 0 0 0 0.55148-0.21928 5.9568 5.8072 0 0 0 0.52644-0.27137 5.9568 5.8072 0 0 0 0.49581-0.32163 5.9568 5.8072 0 0 0 0.46032-0.36788 0.37642 0.36696 0 0 0 0.0078-0.0073 0.37642 0.36696 0 0 0 0.02615-0.02659 0.37642 0.36696 0 0 0 0.02279-0.02914 0.37642 0.36696 0 0 0 0.01981-0.03096 0.37642 0.36696 0 0 0 0.01682-0.03316 0.37642 0.36696 0 0 0 0.01308-0.03423 0.37642 0.36696 0 0 0 0.0097-0.03534 0.37642 0.36696 0 0 0 0.0061-0.03642 0.37642 0.36696 0 0 0 0.0019-0.03643 0.37642 0.36696 0 0 0 0-0.01201 0.37642 0.36696 0 0 0-3e-3 -0.03642 0.37642 0.36696 0 0 0-0.0068-0.03606 0.37642 0.36696 0 0 0-0.01046-0.03534 0.37642 0.36696 0 0 0-0.01382-0.03423 0.37642 0.36696 0 0 0-0.01757-0.03242 0.37642 0.36696 0 0 0-0.02055-0.0306 0.37642 0.36696 0 0 0-0.02354-0.02841 0.37642 0.36696 0 0 0-0.02653-0.02623 1.2591 1.2275 0 0 1-0.02728-0.02515 1.2591 1.2275 0 0 1-0.08518-0.09033 1.2591 1.2275 0 0 1-0.07547-0.09781 1.2591 1.2275 0 0 1-0.06538-0.1049 1.2591 1.2275 0 0 1-0.05417-0.11073 1.2591 1.2275 0 0 1-0.04258-0.11546 1.2591 1.2275 0 0 1-0.03026-0.11911 1.2591 1.2275 0 0 1-0.01831-0.12166 1.2591 1.2275 0 0 1-0.0056-0.12239 1.2591 1.2275 0 0 1 0.0071-0.12275 1.2591 1.2275 0 0 1 0.01943-0.12093 1.2591 1.2275 0 0 1 0.03176-0.11875 1.2591 1.2275 0 0 1 0.04408-0.1151 1.2591 1.2275 0 0 1 0.0553-0.11037 1.2591 1.2275 0 0 1 0.06613-0.10418 1.2591 1.2275 0 0 1 0.07696-0.09725 1.2591 1.2275 0 0 1 0.08631-0.08923 1.2591 1.2275 0 0 1 0.0949-0.0805 1.2591 1.2275 0 0 1 0.10275-0.07066 1.2591 1.2275 0 0 1 0.10947-0.06046 1.2591 1.2275 0 0 1 0.11508-0.04954 1.2591 1.2275 0 0 1 0.11956-0.03824 1.2591 1.2275 0 0 1 0.1233-0.02623 1.2591 1.2275 0 0 1 0.12479-0.0142 1.2591 1.2275 0 0 1 0.12591-0.0018 1.2591 1.2275 0 0 1 0.12554 0.01057 1.2591 1.2275 0 0 1 0.12368 0.02258 1.2591 1.2275 0 0 1 0.12068 0.03423 0.37642 0.36696 0 0 0 0.0112 0.0037 0.37642 0.36696 0 0 0 0.03625 0.0095 0.37642 0.36696 0 0 0 0.03699 0.0059 0.37642 0.36696 0 0 0 0.03773 0.0022 0.37642 0.36696 0 0 0 0.03736-0.0015 0.37642 0.36696 0 0 0 0.03736-0.0051 0.37642 0.36696 0 0 0 0.03661-0.0087 0.37642 0.36696 0 0 0 0.0355-0.01202 0.37642 0.36696 0 0 0 0.034-0.01566 0.37642 0.36696 0 0 0 0.01046-0.0058 0.37642 0.36696 0 0 0 0.03177-0.01966 0.37642 0.36696 0 0 0 0.02952-0.02295 0.37642 0.36696 0 0 0 0.0269-0.02548 0.37642 0.36696 0 0 0 0.02429-0.02805 0.37642 0.36696 0 0 0 0.02131-0.03023 0.37642 0.36696 0 0 0 0.01831-0.03205 0.37642 0.36696 0 0 0 0.01458-0.03387 0.37642 0.36696 0 0 0 0.0112-0.03497 5.8551 5.7081 0 0 0 0.08706-0.38173 5.8551 5.7081 0 0 0 0.07846-0.56531 5.8551 5.7081 0 0 0 0.02018-0.57041 5.8551 5.7081 0 0 0-0.03848-0.56932 5.8551 5.7081 0 0 0-0.0964-0.56276 0.37642 0.36696 0 0 0-0.0026-0.01057 0.37642 0.36696 0 0 0-0.01046-0.03533 0.37642 0.36696 0 0 0-0.01419-0.03387 0.37642 0.36696 0 0 0-0.01793-0.03242 0.37642 0.36696 0 0 0-0.02055-0.0306 0.37642 0.36696 0 0 0-0.0239-0.02841 0.37642 0.36696 0 0 0-0.0269-0.02585 0.37642 0.36696 0 0 0-0.02914-0.02295 0.37642 0.36696 0 0 0-0.03139-0.02041 0.37642 0.36696 0 0 0-0.0093-5e-3 0.37642 0.36696 0 0 0-0.034-0.01566 0.37642 0.36696 0 0 0-0.03511-0.01276 0.37642 0.36696 0 0 0-0.03661-0.0087 0.37642 0.36696 0 0 0-0.03699-0.0055 0.37642 0.36696 0 0 0-0.03773-0.0018 0.37642 0.36696 0 0 0-0.03774 0.0018 0.37642 0.36696 0 0 0-0.03699 0.0055 0.37642 0.36696 0 0 0-0.03662 0.0095 1.2591 1.2275 0 0 1-0.0609 0.01748 1.2591 1.2275 0 0 1-0.12293 0.02548 1.2591 1.2275 0 0 1-0.12517 0.01385 1.2591 1.2275 0 0 1-0.12591 0.0015 1.2591 1.2275 0 0 1-0.12527-0.01093 1.2591 1.2275 0 0 1-0.12368-0.02295 1.2591 1.2275 0 0 1-0.12068-0.03497 1.2591 1.2275 0 0 1-0.11657-0.04626 1.2591 1.2275 0 0 1-0.11097-0.05756 1.2591 1.2275 0 0 1-0.10499-0.06811 1.2591 1.2275 0 0 1-0.09714-0.07795 1.2591 1.2275 0 0 1-0.08855-0.08705 1.2591 1.2275 0 0 1-0.07958-0.09543 1.2591 1.2275 0 0 1-0.06912-0.10235 1.2591 1.2275 0 0 1-0.05828-0.10891 1.2591 1.2275 0 0 1-0.04707-0.11364 1.2591 1.2275 0 0 1-0.03512-0.11802 1.2591 1.2275 0 0 1-0.02279-0.12056 1.2591 1.2275 0 0 1-0.01009-0.12239 1.2591 1.2275 0 0 1 0.0019-0.12239 1.2591 1.2275 0 0 1 0.01495-0.12203 1.2591 1.2275 0 0 1 0.02728-0.11984 1.2591 1.2275 0 0 1 0.03923-0.11656 1.2591 1.2275 0 0 1 0.05119-0.11219 1.2591 1.2275 0 0 1 0.06203-0.10636 1.2591 1.2275 0 0 1 0.07285-0.10017 1.2591 1.2275 0 0 1 0.08295-0.092521 1.2591 1.2275 0 0 1 0.09191-0.083776 0.38771 0.37797 0 0 0 0.0023-0.00218 0.38771 0.37797 0 0 0 0.02764-0.026227 0.38771 0.37797 0 0 0 0.02466-0.029146 0.38771 0.37797 0 0 0 0.02167-0.031328 0.38771 0.37797 0 0 0 0.01831-0.033143 0.38771 0.37797 0 0 0 0.01495-0.034973 0.38771 0.37797 0 0 0 0.0112-0.036421 0.38771 0.37797 0 0 0 0.0075-0.036788 0.38771 0.37797 0 0 0 0.0034-0.037876 0.37642 0.36696 0 0 0 3.77e-4 -0.00948 0.37642 0.36696 0 0 0-0.0019-0.036788 0.37642 0.36696 0 0 0-0.0056-0.036428 0.37642 0.36696 0 0 0-9e-3 -0.035333 0.37642 0.36696 0 0 0-0.01271-0.034598 0.37642 0.36696 0 0 0-0.01643-0.033143 0.37642 0.36696 0 0 0-0.01942-0.031328 0.37642 0.36696 0 0 0-0.02279-0.029137 0.37642 0.36696 0 0 0-0.02559-0.027309 5.9813 5.8311 0 0 0-0.36504-0.32053 5.9813 5.8311 0 0 0-0.479-0.34895 5.9813 5.8311 0 0 0-0.51225-0.3005 5.9813 5.8311 0 0 0-0.54027-0.24914 5.9813 5.8311 0 0 0-0.56344-0.1956 0.37642 0.36696 0 0 0-0.01084-0.00292 0.37642 0.36696 0 0 0-0.036611-0.00764 0.37642 0.36696 0 0 0-0.037371-0.00397 0.37642 0.36696 0 0 0-0.037731-3.63e-4zm-6.1115 6.3794a2.0101 1.9596 0 0 1 0.19466 0.04917 2.0101 1.9596 0 0 1 0.18869 0.06775 2.0101 1.9596 0 0 0-0.18869-0.06775 2.0101 1.9596 0 0 0-0.19466-0.04917zm0.56381 0.20252a2.0101 1.9596 0 0 1 0.17112 0.10272 2.0101 1.9596 0 0 1 0.15954 0.11911 2.0101 1.9596 0 0 0-0.15954-0.11911 2.0101 1.9596 0 0 0-0.17112-0.10272zm4.3188 2.6076a2.0213 1.9706 0 0 1 0.19503 0.05209 2.0213 1.9706 0 0 0-0.19503-0.05209zm0.38334 0.12311a2.0213 1.9706 0 0 1 0.18047 0.08887 2.0213 1.9706 0 0 0-0.18047-0.08887zm0.50926 0.31689a2.0213 1.9706 0 0 1 0.14534 0.13696 2.0213 1.9706 0 0 0-0.14534-0.13696zm-4.1544 0.14242a5.1701 5.0403 0 0 0 0.44126 0.26262 5.1701 5.0403 0 0 1-0.44126-0.26262z" fill="url(#linearGradient1465)"/>
  <circle cx="6.5483" cy="12.628" r="3.0404" fill="url(#linearGradient1481)" opacity=".8"/>
  <circle cx="6.5483" cy="12.628" r="2.1525" fill="url(#linearGradient1491)" opacity=".8"/>
 </g>
</svg>
