<?xml version="1.0" encoding="UTF-8"?>
<svg xmlns="http://www.w3.org/2000/svg" xmlns:xlink="http://www.w3.org/1999/xlink" width="64" height="64" viewBox="0 0 64 64" version="1.1">
<defs>
<linearGradient id="linear0" gradientUnits="userSpaceOnUse" x1="2.3431" y1="2.3431" x2="13.6569" y2="13.6569" gradientTransform="matrix(4,0,0,4,0,0)">
<stop offset="0" style="stop-color:rgb(10.980392%,68.235294%,100%);stop-opacity:1;"/>
<stop offset="1" style="stop-color:rgb(0%,39.607843%,69.019608%);stop-opacity:1;"/>
</linearGradient>
</defs>
<g id="surface1">
<path style=" stroke:none;fill-rule:nonzero;fill:url(#linear0);" d="M 64 32 C 64 49.671875 49.671875 64 32 64 C 14.328125 64 0 49.671875 0 32 C 0 14.328125 14.328125 0 32 0 C 49.671875 0 64 14.328125 64 32 Z M 64 32 "/>
<path style=" stroke:none;fill-rule:nonzero;fill:rgb(100%,100%,100%);fill-opacity:1;" d="M 4.890625 35.710938 C 3.835938 34.65625 3.835938 32.945312 4.890625 31.890625 L 11.191406 25.589844 C 12.246094 24.535156 13.953125 24.535156 15.007812 25.589844 L 21.308594 31.890625 C 22.363281 32.945312 22.363281 34.65625 21.308594 35.710938 C 20.253906 36.761719 18.546875 36.761719 17.492188 35.710938 L 15.941406 34.160156 C 16.800781 40.53125 21.339844 45.792969 27.515625 47.570312 C 33.691406 49.347656 40.335938 47.308594 44.449219 42.367188 C 45.402344 41.222656 47.105469 41.070312 48.25 42.023438 C 49.394531 42.980469 49.550781 44.683594 48.59375 45.828125 C 43 52.542969 33.90625 55.226562 25.5625 52.621094 C 17.21875 50.015625 11.265625 42.640625 10.484375 33.933594 L 8.710938 35.710938 C 7.65625 36.761719 5.945312 36.761719 4.890625 35.710938 Z M 15.75 21.976562 C 14.605469 21.019531 14.449219 19.316406 15.40625 18.171875 C 21 11.457031 30.09375 8.773438 38.4375 11.378906 C 46.78125 13.984375 52.734375 21.359375 53.515625 30.066406 L 55.289062 28.289062 C 56.34375 27.238281 58.054688 27.238281 59.109375 28.289062 C 60.164062 29.34375 60.164062 31.054688 59.109375 32.109375 L 52.808594 38.410156 C 51.753906 39.464844 50.046875 39.464844 48.992188 38.410156 L 42.691406 32.109375 C 41.636719 31.054688 41.636719 29.34375 42.691406 28.289062 C 43.746094 27.238281 45.453125 27.238281 46.507812 28.289062 L 48.058594 29.839844 C 47.199219 23.46875 42.660156 18.210938 36.484375 16.433594 C 30.308594 14.652344 23.664062 16.695312 19.550781 21.628906 C 18.597656 22.777344 16.894531 22.929688 15.75 21.976562 Z M 15.75 21.976562 "/>
</g>
</svg>
