<?xml version="1.0" encoding="UTF-8"?>
<svg width="64" height="64" version="1.1" viewBox="0 0 64 64" xmlns="http://www.w3.org/2000/svg" xmlns:xlink="http://www.w3.org/1999/xlink">
 <defs>
  <linearGradient id="linear0" x1="5.5119" x2="25.935" y1="-81.126" y2="-59.461" gradientTransform="matrix(2,0,0,2,0,172)" gradientUnits="userSpaceOnUse">
   <stop stop-color="#7dd7f3" offset="0"/>
   <stop stop-color="#45b0cf" offset="1"/>
  </linearGradient>
  <filter id="alpha" x="0" y="0" width="1" height="1">
   <feColorMatrix in="SourceGraphic" values="0 0 0 0 1 0 0 0 0 1 0 0 0 0 1 0 0 0 1 0"/>
  </filter>
  <mask id="mask0">
   <g filter="url(#alpha)">
    <rect width="64" height="64" fill-opacity=".90196"/>
   </g>
  </mask>
  <clipPath id="clip1">
   <rect width="64" height="64"/>
  </clipPath>
  <g id="surface5" clip-path="url(#clip1)">
   <path d="m22.852 14h22.297c0.46875 0 0.85156 0.38281 0.85156 0.85156v2.2969c0 0.46875-0.38281 0.85156-0.85156 0.85156h-22.297c-0.46875 0-0.85156-0.38281-0.85156-0.85156v-2.2969c0-0.46875 0.38281-0.85156 0.85156-0.85156z" fill="#047093"/>
  </g>
  <mask id="mask1">
   <g filter="url(#alpha)">
    <rect width="64" height="64" fill-opacity=".90196"/>
   </g>
  </mask>
  <clipPath id="clip2">
   <rect width="64" height="64"/>
  </clipPath>
  <g id="surface8" clip-path="url(#clip2)">
   <path d="m22.852 22h22.297c0.46875 0 0.85156 0.38281 0.85156 0.85156v2.2969c0 0.46875-0.38281 0.85156-0.85156 0.85156h-22.297c-0.46875 0-0.85156-0.38281-0.85156-0.85156v-2.2969c0-0.46875 0.38281-0.85156 0.85156-0.85156z" fill="#047093"/>
  </g>
  <mask id="mask2">
   <g filter="url(#alpha)">
    <rect width="64" height="64" fill-opacity=".90196"/>
   </g>
  </mask>
  <clipPath id="clip3">
   <rect width="64" height="64"/>
  </clipPath>
  <g id="surface11" clip-path="url(#clip3)">
   <path d="m22.852 30h22.297c0.46875 0 0.85156 0.38281 0.85156 0.85156v2.2969c0 0.46875-0.38281 0.85156-0.85156 0.85156h-22.297c-0.46875 0-0.85156-0.38281-0.85156-0.85156v-2.2969c0-0.46875 0.38281-0.85156 0.85156-0.85156z" fill="#047093"/>
  </g>
  <mask id="mask3">
   <g filter="url(#alpha)">
    <rect width="64" height="64" fill-opacity=".90196"/>
   </g>
  </mask>
  <clipPath id="clip4">
   <rect width="64" height="64"/>
  </clipPath>
  <g id="surface14" clip-path="url(#clip4)">
   <path d="m22.852 38h22.297c0.46875 0 0.85156 0.38281 0.85156 0.85156v2.2969c0 0.46875-0.38281 0.85156-0.85156 0.85156h-22.297c-0.46875 0-0.85156-0.38281-0.85156-0.85156v-2.2969c0-0.46875 0.38281-0.85156 0.85156-0.85156z" fill="#047093"/>
  </g>
  <mask id="mask4">
   <g filter="url(#alpha)">
    <rect width="64" height="64" fill-opacity=".90196"/>
   </g>
  </mask>
  <clipPath id="clip5">
   <rect width="64" height="64"/>
  </clipPath>
  <g id="surface17" clip-path="url(#clip5)">
   <path d="m22.852 46h22.297c0.46875 0 0.85156 0.38281 0.85156 0.85156v2.2969c0 0.46875-0.38281 0.85156-0.85156 0.85156h-22.297c-0.46875 0-0.85156-0.38281-0.85156-0.85156v-2.2969c0-0.46875 0.38281-0.85156 0.85156-0.85156z" fill="#047093"/>
  </g>
  <linearGradient id="linear1" x1="-93.655" x2="28.041" y1="-192.5" y2="-52.925" gradientTransform="matrix(2,0,0,2,0,172)" gradientUnits="userSpaceOnUse">
   <stop stop-color="#ffd91b" offset="0"/>
   <stop stop-color="#fdb704" offset="1"/>
  </linearGradient>
  <radialGradient id="radial0" cx="17.858" cy="-67.535" r="2.0988" gradientTransform="matrix(5.4546 0 0 6.0094 -54.237 447.7)" gradientUnits="userSpaceOnUse">
   <stop stop-color="#4b4b4b" offset="0"/>
   <stop stop-color="#383838" offset=".531"/>
   <stop stop-color="#252525" offset="1"/>
  </radialGradient>
  <radialGradient id="radial1" cx="21.158" cy="26.974" r="3.9836" gradientTransform="scale(2)" gradientUnits="userSpaceOnUse">
   <stop stop-color="#4b4b4b" offset="0"/>
   <stop stop-color="#383838" offset=".531"/>
   <stop stop-color="#252525" offset="1"/>
  </radialGradient>
 </defs>
 <g transform="matrix(1.037 0 0 1.037 -4.2963 -3.1904)">
  <path d="m49.332 56h-34.664c-0.76172-0.05078-1.4727-0.40234-1.9727-0.98047-0.5-0.57422-0.75-1.3242-0.69531-2.0859v-41.867c-0.054688-0.76172 0.19531-1.5117 0.69531-2.0859 0.5-0.57812 1.2109-0.92969 1.9727-0.98047h34.664c0.76172 0.050781 1.4727 0.40234 1.9727 0.98047 0.5 0.57422 0.75 1.3242 0.69531 2.0859v41.867c0.05469 0.76172-0.19531 1.5117-0.69531 2.0859-0.5 0.57812-1.2109 0.92969-1.9727 0.98047z" fill="url(#linear0)"/>
  <g fill="#026e91">
   <path d="m10 14h4c1.1055 0 2 0.89453 2 2s-0.89453 2-2 2h-4c-1.1055 0-2-0.89453-2-2s0.89453-2 2-2z"/>
   <path d="m10 22h4c1.1055 0 2 0.89453 2 2s-0.89453 2-2 2h-4c-1.1055 0-2-0.89453-2-2s0.89453-2 2-2z"/>
   <path d="m10 30h4c1.1055 0 2 0.89453 2 2s-0.89453 2-2 2h-4c-1.1055 0-2-0.89453-2-2s0.89453-2 2-2z"/>
   <path d="m10 38h4c1.1055 0 2 0.89453 2 2s-0.89453 2-2 2h-4c-1.1055 0-2-0.89453-2-2s0.89453-2 2-2z"/>
   <path d="m10 46h4c1.1055 0 2 0.89453 2 2s-0.89453 2-2 2h-4c-1.1055 0-2-0.89453-2-2s0.89453-2 2-2z"/>
  </g>
  <use width="100%" height="100%" mask="url(#mask0)" xlink:href="#surface5"/>
  <use width="100%" height="100%" mask="url(#mask1)" xlink:href="#surface8"/>
  <use width="100%" height="100%" mask="url(#mask2)" xlink:href="#surface11"/>
  <use width="100%" height="100%" mask="url(#mask3)" xlink:href="#surface14"/>
  <use width="100%" height="100%" mask="url(#mask4)" xlink:href="#surface17"/>
  <g>
   <path d="m61.727 57.734-13.5-21.066c-0.26562-0.4375-0.75391-0.69531-1.2656-0.66797-0.51172 0.03125-0.96875 0.33594-1.1875 0.80078l-13.5 20.934c-0.16016 0.23828-0.25391 0.51172-0.27344 0.80078 0.01172 0.74219 0.62109 1.3398 1.3633 1.332h27.273c0.74219 0.007812 1.3555-0.58984 1.3633-1.332-0.01953-0.28906-0.11328-0.5625-0.27344-0.80078z" fill="url(#linear1)"/>
   <path d="m48.637 42.602-0.41016 9.6133c-0.0078 0.13281-0.07031 0.25781-0.17578 0.34375-0.10156 0.08594-0.23438 0.125-0.36719 0.10938h-1.5c-0.25781-0.02344-0.47656-0.20312-0.54688-0.45312l-0.27344-9.6133c0.0078-0.30859 0.23828-0.5625 0.54688-0.60156h2.1797c0.15625-0.0078 0.30859 0.05469 0.41406 0.17188 0.10938 0.11719 0.15625 0.27344 0.13281 0.42969z" fill="url(#radial0)"/>
   <path d="m49 56c0 1.1055-0.89453 2-2 2s-2-0.89453-2-2 0.89453-2 2-2 2 0.89453 2 2z" fill="url(#radial1)"/>
  </g>
 </g>
</svg>
