<?xml version="1.0" encoding="UTF-8"?>
<svg width="64" height="64" version="1.1" viewBox="0 0 16.933 16.933" xmlns="http://www.w3.org/2000/svg" xmlns:cc="http://creativecommons.org/ns#" xmlns:dc="http://purl.org/dc/elements/1.1/" xmlns:rdf="http://www.w3.org/1999/02/22-rdf-syntax-ns#">
 <defs>
  <style type="text/css"/>
  <style type="text/css"/>
  <style type="text/css"/>
  <style type="text/css"/>
  <style type="text/css"/>
  <linearGradient id="linearGradient1911-3-3-3" x1="25.085" x2="25.085" y1="24.031" y2="26.412" gradientTransform="matrix(.99999 0 0 .99999 -17.897 -21.384)" gradientUnits="userSpaceOnUse">
   <stop stop-color="#8755ca" offset="0"/>
   <stop stop-color="#642bbb" offset="1"/>
  </linearGradient>
  <linearGradient id="linearGradient1951-6-6-6" x1="100" x2="133.19" y1="17.453" y2="51.606" gradientTransform="matrix(.26458 0 0 .26458 -20.108 -.13522)" gradientUnits="userSpaceOnUse">
   <stop stop-color="#9667cf" offset="0"/>
   <stop stop-color="#613699" offset="1"/>
  </linearGradient>
  <linearGradient id="linearGradient11110-7-5-5" x1=".52917" x2="16.404" y1="5.3815" y2="5.3815" gradientTransform="matrix(.99999 0 0 .99999 7.8313e-5 .00014235)" gradientUnits="userSpaceOnUse">
   <stop stop-color="#fff" offset="0"/>
   <stop stop-color="#fff" stop-opacity="0" offset="1"/>
  </linearGradient>
  <linearGradient id="linearGradient29077-6-6" x1=".52916" x2="16.404" y1="14.179" y2="14.179" gradientTransform="matrix(.99999 0 0 .99999 7.8313e-5 -.015424)" gradientUnits="userSpaceOnUse">
   <stop stop-color="#3d1474" offset="0"/>
   <stop stop-color="#330c68" offset="1"/>
  </linearGradient>
  <linearGradient id="linearGradient1006-1-1" x1="8.5259" x2="8.5259" y1="6.0936" y2="13.269" gradientTransform="matrix(.99999 0 0 .99999 .00019315 2.6307e-5)" gradientUnits="userSpaceOnUse">
   <stop stop-color="#fff" offset="0"/>
   <stop stop-color="#bc9de1" offset="1"/>
  </linearGradient>
 </defs>
 <metadata>
  <rdf:RDF>
   <cc:Work rdf:about="">
    <dc:format>image/svg+xml</dc:format>
    <dc:type rdf:resource="http://purl.org/dc/dcmitype/StillImage"/>
   </cc:Work>
  </rdf:RDF>
 </metadata>
 <g fill="#5e4aa6" stroke-width=".26458">
  <circle cx="-330.35" cy="-328.38" r="0"/>
  <circle cx="-312.11" cy="-326.25" r="0"/>
  <circle cx="-306.02" cy="-333.07" r="0"/>
  <circle cx="-308.84" cy="-326.01" r="0"/>
  <circle cx="-328.8" cy="-330.45" r="0"/>
  <g transform="translate(.000295 -.00032978)">
   <circle cx="-330.35" cy="-328.38" r="0"/>
   <circle cx="-312.11" cy="-326.25" r="0"/>
   <circle cx="-306.02" cy="-333.07" r="0"/>
   <circle cx="-308.84" cy="-326.01" r="0"/>
   <circle cx="-328.8" cy="-330.45" r="0"/>
  </g>
  <circle cx="-330.35" cy="-328.38" r="0"/>
  <circle cx="-312.11" cy="-326.25" r="0"/>
  <circle cx="-306.02" cy="-333.07" r="0"/>
  <circle cx="-308.84" cy="-326.01" r="0"/>
  <circle cx="-328.8" cy="-330.45" r="0"/>
  <g transform="translate(2.95e-4,-3.2978e-4)">
   <circle cx="-330.35" cy="-328.38" r="0"/>
   <circle cx="-312.11" cy="-326.25" r="0"/>
   <circle cx="-306.02" cy="-333.07" r="0"/>
   <circle cx="-308.84" cy="-326.01" r="0"/>
   <circle cx="-328.8" cy="-330.45" r="0"/>
  </g>
 </g>
 <path d="m1.1978 2.2491c-0.36529 0-0.66144 0.32575-0.66144 0.7276v2.9635c-0.002998 0.026299-0.006999 0.051998-0.006999 0.079099v7.9372c0 0.40184 0.29615 0.7276 0.66144 0.7276h14.552c0.36531 0 0.66144-0.32576 0.66144-0.7276v-9.393c0-0.40184-0.29614-0.72758-0.66144-0.72758v4.835e-4h-8.1993l-0.89863-1.1095s-0.36607-0.478-1.0583-0.478h-1.3229z" color="#000000" color-rendering="auto" dominant-baseline="auto" fill="url(#linearGradient1911-3-3-3)" image-rendering="auto" shape-rendering="auto" solid-color="#000000" stop-color="#000000" stroke-width=".99999" style="font-feature-settings:normal;font-variant-alternates:normal;font-variant-caps:normal;font-variant-east-asian:normal;font-variant-ligatures:normal;font-variant-numeric:normal;font-variant-position:normal;font-variation-settings:normal;inline-size:0;isolation:auto;mix-blend-mode:normal;shape-margin:0;shape-padding:0;text-decoration-color:#000000;text-decoration-line:none;text-decoration-style:solid;text-indent:0;text-orientation:mixed;text-transform:none;white-space:normal"/>
 <path d="m8.3604 3.821c-0.11312 0.0019944-0.30847-0.0154-0.51986 0.095098-0.73646 0.37945-0.77225 0.59365-1.557 0.71414h-4.9607c-0.21986 0-0.41824 0.088499-0.56171 0.23203-0.13936 0.13936-0.22041 0.33332-0.22529 0.54569v0.27749c0.0050044-0.21236 0.085898-0.40633 0.22529-0.54569 0.14348-0.14347 0.34185-0.23202 0.56171-0.23202h4.9607c0.78471-0.12051 0.8205-0.33469 1.557-0.71415 0.21139-0.1105 0.40673-0.093296 0.51986-0.095095h7.3827c0.18215 3.626e-4 0.3472 0.080998 0.46663 0.21238 0.11969 0.13167 0.19377 0.31377 0.19377 0.51469v-0.2775c0-0.20091-0.0741-0.38302-0.19377-0.51468-0.11943-0.13137-0.28448-0.21201-0.46663-0.21238h-1.1652zm-7.8247 2.1036c-0.002998 0.0263-0.006999 0.051998-0.006999 0.079099v0.27749c0-0.0271 0.004001-0.052799 0.006999-0.079097z" fill="#1e5992" opacity=".001" stroke-width=".26458"/>
 <g stroke-width=".99999">
  <path d="m7.5425 4.098s-0.35919 0.47868-1.1575 0.79217c-0.032699 6e-3 -0.065098 0.011604-0.10078 0.0171h-4.9607c-0.21986 0-0.41824 0.088497-0.5617 0.23202-0.13937 0.13935-0.22043 0.33333-0.22531 0.54569v0.51675c-0.002998 0.026299-0.006999 0.051998-0.006999 0.079097v7.3953c0 0.20092 0.073598 0.3825 0.19326 0.51416 0.1197 0.13166 0.28554 0.21342 0.46817 0.21342h14.552c0.18264 0 0.34796-0.0817 0.46765-0.21342 0.11969-0.13167 0.19377-0.31326 0.19377-0.51416v-8.8509c0-0.20092-0.0741-0.38302-0.19377-0.5147-0.11945-0.13136-0.28449-0.21201-0.46665-0.21238h-7.482z" fill="url(#linearGradient1951-6-6-6)"/>
  <path d="m7.5425 4.098s-0.35919 0.47868-1.1575 0.79217c-0.032699 6e-3 -0.065098 0.011604-0.10078 0.0171h-4.9607c-0.21986 0-0.41824 0.088497-0.5617 0.23202-0.13937 0.13935-0.22042 0.33333-0.22531 0.54569v0.38445c0.0050044-0.21236 0.085898-0.40632 0.22531-0.54569 0.14347-0.14347 0.34184-0.23203 0.5617-0.23203h4.9607c0.035698-6e-3 0.068098-0.011193 0.10078-0.0171 0.7591-0.26302 1.2882-0.79216 1.2882-0.79216h8.0706c0.18215 3.626e-4 0.34718 0.080997 0.46663 0.21238 0.11969 0.13167 0.19377 0.31378 0.19377 0.51468v-0.38445c0-0.20092-0.0741-0.38302-0.19377-0.5147-0.11945-0.13136-0.28448-0.21201-0.46663-0.21238h-7.482zm-7.0062 2.1036c-0.002998 0.0263-0.006999 0.051999-0.006999 0.079099v0.38447c0-0.0271 0.004001-0.052799 0.006999-0.079099z" fill="url(#linearGradient11110-7-5-5)" opacity=".3"/>
  <path d="m0.5293 13.658v0.28215c0 0.20092 0.073598 0.38249 0.19326 0.51416 0.1197 0.13167 0.28554 0.21342 0.46817 0.21342h14.552c0.18264 0 0.34796-0.0817 0.46765-0.21342 0.11969-0.13167 0.19377-0.31324 0.19377-0.51416v-0.28215c0 0.20092-0.0741 0.3825-0.19377 0.51416-0.11969 0.13166-0.28501 0.21342-0.46765 0.21342h-14.552c-0.18265 0-0.34847-0.0818-0.46817-0.21342-0.11969-0.13166-0.19326-0.31326-0.19326-0.51416z" color="#000000" color-rendering="auto" dominant-baseline="auto" fill="url(#linearGradient29077-6-6)" image-rendering="auto" shape-rendering="auto" solid-color="#000000" stop-color="#000000" style="font-feature-settings:normal;font-variant-alternates:normal;font-variant-caps:normal;font-variant-east-asian:normal;font-variant-ligatures:normal;font-variant-numeric:normal;font-variant-position:normal;font-variation-settings:normal;inline-size:0;isolation:auto;mix-blend-mode:normal;shape-margin:0;shape-padding:0;text-decoration-color:#000000;text-decoration-line:none;text-decoration-style:solid;text-indent:0;text-orientation:mixed;text-transform:none;white-space:normal"/>
 </g>
 <path d="m11.953 9.2515c-0.50622 0.61668-1.3698 1.5962-1.3698 1.5962s0.11446 1.1566 0.19648 1.9205c0.0356 0.38894-0.24465 0.55695-0.56236 0.40548-0.6041-0.30368-1.5439-0.89727-1.7508-1.0031-0.21049 0.10506-1.1193 0.69075-1.7295 0.99371-0.32129 0.15111-0.6048-0.0169-0.56884-0.40513 0.083098-0.76239 0.18176-1.9115 0.18176-1.9115s-0.85636-0.98415-1.3687-1.6001c-0.18097-0.2238-0.064799-0.54185 0.29216-0.60013 0.72822-0.13779 1.8562-0.18094 1.8562-0.18094s0.61704-1.3137 1.0074-2.0106c0.21478-0.42384 0.36339-0.37491 0.38893-0.3623 0.066199 0.022701 0.17091 0.10506 0.30726 0.36267 0.38606 0.69763 0.95626 2.0102 0.95626 2.0102s1.155 0.045999 1.8745 0.18381c0.3526 0.058998 0.46772 0.37743 0.28892 0.60122z" fill="url(#linearGradient1006-1-1)" stroke-width=".0070318" p-id="13941"/>
</svg>
