<?xml version="1.0" encoding="UTF-8" standalone="no"?>
<svg
   width="64"
   height="64"
   viewBox="0 0 16.933 16.933"
   version="1.1"
   id="svg18"
   sodipodi:docname="folder-projects.svg"
   inkscape:version="1.4 (e7c3feb100, 2024-10-09)"
   xmlns:inkscape="http://www.inkscape.org/namespaces/inkscape"
   xmlns:sodipodi="http://sodipodi.sourceforge.net/DTD/sodipodi-0.dtd"
   xmlns:xlink="http://www.w3.org/1999/xlink"
   xmlns="http://www.w3.org/2000/svg"
   xmlns:svg="http://www.w3.org/2000/svg">
  <sodipodi:namedview
     id="namedview18"
     pagecolor="#505050"
     bordercolor="#eeeeee"
     borderopacity="1"
     inkscape:showpageshadow="0"
     inkscape:pageopacity="0"
     inkscape:pagecheckerboard="0"
     inkscape:deskcolor="#505050"
     inkscape:zoom="4.1321553"
     inkscape:cx="-30.97657"
     inkscape:cy="26.136481"
     inkscape:window-width="1920"
     inkscape:window-height="1051"
     inkscape:window-x="0"
     inkscape:window-y="0"
     inkscape:window-maximized="1"
     inkscape:current-layer="svg18" />
  <defs
     id="defs13">
    <linearGradient
       id="linearGradient1"
       inkscape:collect="always">
      <stop
         style="stop-color:#feffff;stop-opacity:1"
         offset="0"
         id="stop15" />
      <stop
         style="stop-color:#bea0e2;stop-opacity:1"
         offset="1"
         id="stop16" />
    </linearGradient>
    <linearGradient
       id="b"
       x1="445.28"
       x2="445.28"
       y1="179.28"
       y2="200.07"
       gradientTransform="matrix(0.38956,0,0,0.38184,-136.38677,-63.44)"
       gradientUnits="userSpaceOnUse">
      <stop
         stop-color="#60c0f0"
         offset="0"
         id="stop1" />
      <stop
         stop-color="#83d4fb"
         offset="1"
         id="stop2" />
    </linearGradient>
    <linearGradient
       id="c"
       x1="8.467"
       x2="8.467"
       y1="293.3"
       y2="292.77"
       gradientTransform="translate(29.133234,-280.07)"
       gradientUnits="userSpaceOnUse">
      <stop
         stop-color="#008ea2"
         stop-opacity=".25"
         offset="0"
         id="stop3" />
      <stop
         stop-color="#fff"
         stop-opacity=".15"
         offset="1"
         id="stop4" />
    </linearGradient>
    <linearGradient
       id="d"
       x1="8.467"
       x2="8.467"
       y1="294.62"
       y2="293.56"
       gradientTransform="matrix(0.99998,0,0,0.99998,29.133234,-280.06)"
       gradientUnits="userSpaceOnUse">
      <stop
         stop-color="#008ea2"
         stop-opacity=".251"
         offset="0"
         id="stop5" />
      <stop
         stop-color="#008ea2"
         stop-opacity=".15"
         offset=".757"
         id="stop6" />
      <stop
         stop-color="#fff"
         stop-opacity=".15"
         offset="1"
         id="stop7" />
    </linearGradient>
    <linearGradient
       id="a"
       x1="6.879"
       x2="6.879"
       y1="285.36"
       y2="283.77"
       gradientTransform="matrix(0.99998,0,0,0.99998,29.133234,-280.06)"
       gradientUnits="userSpaceOnUse">
      <stop
         offset="0"
         id="stop8" />
      <stop
         stop-opacity="0"
         offset="1"
         id="stop9" />
    </linearGradient>
    <linearGradient
       id="e"
       x1="1.058"
       x2="15.875"
       y1="289.59"
       y2="289.59"
       gradientTransform="translate(29.133234,-280.07)"
       gradientUnits="userSpaceOnUse">
      <stop
         stop-color="#46a2d7"
         stop-opacity=".5"
         offset="0"
         id="stop10" />
      <stop
         stop-color="#46a2d7"
         stop-opacity="0"
         offset=".108"
         id="stop11" />
      <stop
         stop-color="#46a2d7"
         stop-opacity=".096"
         offset=".894"
         id="stop12" />
      <stop
         stop-color="#46a2d7"
         stop-opacity=".5"
         offset="1"
         id="stop13" />
    </linearGradient>
    <filter
       color-interpolation-filters="sRGB"
       height="1.0264005"
       width="1.0219998"
       y="-0.013200229"
       x="-0.010999908"
       id="filter1733">
      <feGaussianBlur
         id="feGaussianBlur869"
         stdDeviation="0.072761339" />
    </filter>
    <linearGradient
       gradientUnits="userSpaceOnUse"
       gradientTransform="matrix(0.26458,0,0,0.26458,-0.79373,-39.158)"
       y2="166"
       y1="155"
       x2="25"
       x1="25"
       id="linearGradient1387">
      <stop
         id="stop850"
         offset="0"
         stop-color="#3296d7" />
      <stop
         id="stop852"
         offset="1"
         stop-color="#0a7db4" />
    </linearGradient>
    <filter
       color-interpolation-filters="sRGB"
       height="1.2969998"
       width="1.0296998"
       y="-0.14849988"
       x="-0.014849913"
       id="filter935">
      <feGaussianBlur
         id="feGaussianBlur872"
         stdDeviation="0.098224626" />
    </filter>
    <linearGradient
       gradientUnits="userSpaceOnUse"
       gradientTransform="matrix(0.26458,0,0,0.26458,-0.79374,-39.158)"
       y2="185"
       y1="185"
       x2="65"
       x1="5"
       id="linearGradient1401">
      <stop
         id="stop855"
         offset="0"
         stop-color="#3492cb" />
      <stop
         id="stop857"
         offset=".083713"
         stop-color="#6ec8fa" />
      <stop
         id="stop859"
         offset=".91237"
         stop-color="#6ec8fa" />
      <stop
         id="stop861"
         offset="1"
         stop-color="#3492cb" />
    </linearGradient>
    <linearGradient
       gradientUnits="userSpaceOnUse"
       gradientTransform="matrix(0.18168,0,0,0.40956,9.2005,-451.88)"
       y2="1140.2"
       y1="1138.4"
       x2="-9.6169996"
       x1="-9.6169996"
       id="linearGradient1438">
      <stop
         id="stop864"
         offset="0"
         stop-opacity="0"
         stop-color="#1482be" />
      <stop
         id="stop866"
         offset="1"
         stop-color="#1482be" />
    </linearGradient>
    <linearGradient
       id="linearGradient1911"
       x1="25.084999"
       x2="25.084999"
       y1="24.031"
       y2="26.412001"
       gradientTransform="translate(-24.247,-18.739)"
       gradientUnits="userSpaceOnUse">
      <stop
         stop-color="#fcbc19"
         stop-opacity=".99608"
         offset="0"
         id="stop7-8" />
      <stop
         stop-color="#f4b61f"
         offset="1"
         id="stop8-1" />
    </linearGradient>
    <linearGradient
       id="linearGradient4625"
       x1="0.52917999"
       x2="16.403999"
       y1="5.0665002"
       y2="5.0665002"
       gradientTransform="translate(-6.3499,2.6458)"
       gradientUnits="userSpaceOnUse">
      <stop
         stop-color="#b78815"
         offset="0"
         id="stop9-0" />
      <stop
         stop-color="#e2b24b"
         stop-opacity="0"
         offset="1"
         id="stop10-3" />
    </linearGradient>
    <linearGradient
       id="linearGradient1951"
       x1="100"
       x2="133.19"
       y1="17.452999"
       y2="51.605999"
       gradientTransform="matrix(0.26458,0,0,0.26458,-26.458,2.5104)"
       gradientUnits="userSpaceOnUse">
      <stop
         stop-color="#fce798"
         offset="0"
         id="stop11-0" />
      <stop
         stop-color="#ffc937"
         offset="1"
         id="stop12-4" />
    </linearGradient>
    <linearGradient
       id="linearGradient11110"
       x1="0.52916998"
       x2="16.403999"
       y1="5.3814998"
       y2="5.3814998"
       gradientTransform="translate(-6.3499,2.6458)"
       gradientUnits="userSpaceOnUse">
      <stop
         stop-color="#fff"
         offset="0"
         id="stop13-4" />
      <stop
         stop-color="#fff"
         stop-opacity="0"
         offset="1"
         id="stop14" />
    </linearGradient>
    <linearGradient
       id="linearGradient1118"
       x1="20.108"
       x2="20.108"
       y1="6.3498998"
       y2="13.493"
       gradientTransform="translate(-26.376553,-0.132338)"
       gradientUnits="userSpaceOnUse">
      <stop
         stop-color="#be900d"
         offset="0"
         id="stop5-4" />
      <stop
         stop-color="#a57001"
         offset="1"
         id="stop6-4" />
    </linearGradient>
    <linearGradient
       inkscape:collect="always"
       xlink:href="#linearGradient1"
       id="linearGradient16"
       x1="8.082963"
       y1="6.4821501"
       x2="8.082963"
       y2="13.361182"
       gradientUnits="userSpaceOnUse"
       gradientTransform="translate(0.2490147)" />
    <linearGradient
       id="linearGradient1911-2"
       x1="25.084999"
       x2="25.084999"
       y1="24.031"
       y2="26.412001"
       gradientTransform="translate(-40.4843,-29.067687)"
       gradientUnits="userSpaceOnUse">
      <stop
         stop-color="#3c3c3c"
         offset="0"
         id="stop5-0" />
      <stop
         stop-color="#2d2d2d"
         offset="1"
         id="stop6-6" />
    </linearGradient>
    <linearGradient
       id="linearGradient4625-8"
       x1="0.52917999"
       x2="16.403999"
       y1="5.0665002"
       y2="5.0665002"
       gradientTransform="translate(-22.5873,-7.6828865)"
       gradientUnits="userSpaceOnUse">
      <stop
         stop-color="#b78815"
         offset="0"
         id="stop7-9" />
      <stop
         stop-color="#e2b24b"
         stop-opacity="0"
         offset="1"
         id="stop8-2" />
    </linearGradient>
    <linearGradient
       id="linearGradient1951-6"
       x1="100"
       x2="133.19"
       y1="17.452999"
       y2="51.605999"
       gradientTransform="matrix(0.26458,0,0,0.26458,-42.6953,-7.8182865)"
       gradientUnits="userSpaceOnUse">
      <stop
         stop-color="#646464"
         offset="0"
         id="stop9-6" />
      <stop
         stop-color="#3c3c3c"
         offset="1"
         id="stop10-4" />
    </linearGradient>
    <linearGradient
       id="linearGradient11110-9"
       x1="0.52916998"
       x2="16.403999"
       y1="5.3814998"
       y2="5.3814998"
       gradientTransform="translate(-22.5873,-7.6828865)"
       gradientUnits="userSpaceOnUse">
      <stop
         stop-color="#fff"
         offset="0"
         id="stop11-5" />
      <stop
         stop-color="#fff"
         stop-opacity="0"
         offset="1"
         id="stop12-0" />
    </linearGradient>
    <linearGradient
       id="linearGradient79069"
       x1="8.5258999"
       x2="8.5258999"
       y1="6.0935998"
       y2="13.269"
       gradientUnits="userSpaceOnUse"
       gradientTransform="translate(-22.5873,-7.5506865)">
      <stop
         stop-color="#323232"
         offset="0"
         id="stop13-48" />
      <stop
         stop-color="#141414"
         offset="1"
         id="stop14-7" />
    </linearGradient>
    <linearGradient
       id="linearGradient1911-3"
       x1="25.084999"
       x2="25.084999"
       y1="24.031"
       y2="26.412001"
       gradientTransform="translate(-45.943025,-28.131804)"
       gradientUnits="userSpaceOnUse">
      <stop
         stop-color="#0272cb"
         offset="0"
         id="stop5-2" />
      <stop
         stop-color="#0768ba"
         offset="1"
         id="stop6-2" />
    </linearGradient>
    <linearGradient
       id="linearGradient1951-6-4"
       x1="100"
       x2="133.19"
       y1="17.452999"
       y2="51.605999"
       gradientTransform="matrix(0.26458,0,0,0.26458,-48.153025,-6.8821041)"
       gradientUnits="userSpaceOnUse">
      <stop
         stop-color="#27aee9"
         offset="0"
         id="stop7-7" />
      <stop
         stop-color="#0669bc"
         offset="1"
         id="stop8-7" />
    </linearGradient>
    <linearGradient
       id="linearGradient11110-7"
       x1="0.52916998"
       x2="16.403999"
       y1="5.3814998"
       y2="5.3814998"
       gradientTransform="translate(-28.045124,-6.7467045)"
       gradientUnits="userSpaceOnUse">
      <stop
         stop-color="#fff"
         offset="0"
         id="stop9-5" />
      <stop
         stop-color="#fff"
         stop-opacity="0"
         offset="1"
         id="stop10-48" />
    </linearGradient>
    <linearGradient
       id="linearGradient29077"
       x1="0.52916002"
       x2="16.403999"
       y1="14.179"
       y2="14.179"
       gradientTransform="translate(-28.045124,-6.7622041)"
       gradientUnits="userSpaceOnUse">
      <stop
         stop-color="#0a5ba8"
         stop-opacity=".99608"
         offset="0"
         id="stop11-1" />
      <stop
         stop-color="#104a8c"
         stop-opacity=".99608"
         offset="1"
         id="stop12-2" />
    </linearGradient>
    <linearGradient
       id="linearGradient1006"
       x1="8.5258999"
       x2="8.5258999"
       y1="6.0935998"
       y2="13.269"
       gradientTransform="translate(-28.045097,-6.7468041)"
       gradientUnits="userSpaceOnUse">
      <stop
         stop-color="#fff"
         offset="0"
         id="stop13-8" />
      <stop
         stop-color="#c5e7f5"
         offset="1"
         id="stop14-9" />
    </linearGradient>
    <linearGradient
       id="linearGradient1911-3-3-3"
       x1="25.084999"
       x2="25.084999"
       y1="24.031"
       y2="26.412001"
       gradientTransform="matrix(0.99999,0,0,0.99999,-42.766889,-28.924465)"
       gradientUnits="userSpaceOnUse">
      <stop
         stop-color="#8755ca"
         offset="0"
         id="stop5-9" />
      <stop
         stop-color="#642bbb"
         offset="1"
         id="stop6-22" />
    </linearGradient>
    <linearGradient
       id="linearGradient1951-6-6-6"
       x1="100"
       x2="133.19"
       y1="17.452999"
       y2="51.605999"
       gradientTransform="matrix(0.26458,0,0,0.26458,-20.108,-0.13522)"
       gradientUnits="userSpaceOnUse">
      <stop
         stop-color="#9667cf"
         offset="0"
         id="stop7-89" />
      <stop
         stop-color="#613699"
         offset="1"
         id="stop8-73" />
    </linearGradient>
    <linearGradient
       id="linearGradient11110-7-5-5"
       x1="0.52916998"
       x2="16.403999"
       y1="5.3814998"
       y2="5.3814998"
       gradientTransform="matrix(0.99999,0,0,0.99999,7.8313e-5,1.4235e-4)"
       gradientUnits="userSpaceOnUse">
      <stop
         stop-color="#fff"
         offset="0"
         id="stop9-61" />
      <stop
         stop-color="#fff"
         stop-opacity="0"
         offset="1"
         id="stop10-2" />
    </linearGradient>
    <linearGradient
       id="linearGradient29077-6-6"
       x1="0.52916002"
       x2="16.403999"
       y1="14.179"
       y2="14.179"
       gradientTransform="matrix(0.99999,0,0,0.99999,7.8313e-5,-0.015424)"
       gradientUnits="userSpaceOnUse">
      <stop
         stop-color="#3d1474"
         offset="0"
         id="stop11-9" />
      <stop
         stop-color="#330c68"
         offset="1"
         id="stop12-3" />
    </linearGradient>
    <linearGradient
       id="linearGradient1006-1-1"
       x1="8.5258999"
       x2="8.5258999"
       y1="6.0935998"
       y2="13.269"
       gradientTransform="matrix(0.99999,0,0,0.99999,-24.869696,-7.5404387)"
       gradientUnits="userSpaceOnUse">
      <stop
         stop-color="#fff"
         offset="0"
         id="stop13-1" />
      <stop
         stop-color="#bc9de1"
         offset="1"
         id="stop14-94" />
    </linearGradient>
  </defs>
  <g
     id="g1"
     transform="translate(24.869858,7.5404642)">
    <path
       d="m -23.672089,-5.291365 c -0.36529,0 -0.66144,0.32575 -0.66144,0.7276 v 2.9635 c -0.003,0.026299 -0.007,0.051998 -0.007,0.079099 v 7.9372 c 0,0.40184 0.29615,0.7276 0.66144,0.7276 h 14.552 c 0.36531,0 0.66144,-0.32576 0.66144,-0.7276 v -9.393 c 0,-0.40184 -0.29614,-0.72758 -0.66144,-0.72758 v 4.835e-4 h -8.1993 l -0.89863,-1.1095 c 0,0 -0.36607,-0.478 -1.0583,-0.478 h -1.3229 z"
       color="#000000"
       color-rendering="auto"
       dominant-baseline="auto"
       fill="url(#linearGradient1911-3-3-3)"
       image-rendering="auto"
       shape-rendering="auto"
       solid-color="#000000"
       stop-color="#000000"
       stroke-width="0.99999"
       style="font-variant-ligatures:normal;font-variant-position:normal;font-variant-caps:normal;font-variant-numeric:normal;font-variant-alternates:normal;font-variant-east-asian:normal;font-feature-settings:normal;font-variation-settings:normal;text-indent:0;text-decoration-line:none;text-decoration-style:solid;text-decoration-color:#000000;text-transform:none;text-orientation:mixed;white-space:normal;shape-padding:0;shape-margin:0;inline-size:0;isolation:auto;mix-blend-mode:normal;fill:url(#linearGradient1911-3-3-3)"
       id="path34" />
    <path
       d="m -16.509489,-3.719465 c -0.11312,0.00199 -0.30847,-0.0154 -0.51986,0.095098 -0.73646,0.37945 -0.77225,0.59365 -1.557,0.71414 h -4.9607 c -0.21986,0 -0.41824,0.088499 -0.56171,0.23203 -0.13936,0.13936 -0.22041,0.33332 -0.22529,0.54569 v 0.27749 c 0.005,-0.21236 0.0859,-0.40633 0.22529,-0.54569 0.14348,-0.14347 0.34185,-0.23202 0.56171,-0.23202 h 4.9607 c 0.78471,-0.12051 0.8205,-0.33469 1.557,-0.71415 0.21139,-0.1105 0.40673,-0.093296 0.51986,-0.095095 h 7.3827 c 0.18215,3.626e-4 0.3472,0.080998 0.46663,0.21238 0.11969,0.13167 0.19377,0.31377 0.19377,0.51469 v -0.2775 c 0,-0.20091 -0.0741,-0.38302 -0.19377,-0.51468 -0.11943,-0.13137 -0.28448,-0.21201 -0.46663,-0.21238 h -1.1652 z m -7.8247,2.1036 c -0.003,0.0263 -0.007,0.051998 -0.007,0.079099 v 0.27749 c 0,-0.0271 0.004,-0.052799 0.007,-0.079097 z"
       fill="#1e5992"
       opacity="0.00100002"
       stroke-width="0.26458"
       id="path35" />
    <g
       stroke-width="0.99999"
       id="g38"
       transform="translate(-24.869889,-7.540465)">
      <path
         d="m 7.5425,4.098 c 0,0 -0.35919,0.47868 -1.1575,0.79217 -0.032699,0.006 -0.065098,0.011604 -0.10078,0.0171 h -4.9607 c -0.21986,0 -0.41824,0.088497 -0.5617,0.23202 C 0.62245,5.27864 0.54139,5.47262 0.53651,5.68498 V 6.20173 C 0.533512,6.228029 0.529511,6.253728 0.529511,6.280827 v 7.3953 c 0,0.20092 0.073598,0.3825 0.19326,0.51416 0.1197,0.13166 0.28554,0.21342 0.46817,0.21342 h 14.552 c 0.18264,0 0.34796,-0.0817 0.46765,-0.21342 0.11969,-0.13167 0.19377,-0.31326 0.19377,-0.51416 v -8.8509 c 0,-0.20092 -0.0741,-0.38302 -0.19377,-0.5147 -0.11945,-0.13136 -0.28449,-0.21201 -0.46665,-0.21238 h -7.482 z"
         fill="url(#linearGradient1951-6-6-6)"
         id="path36"
         style="fill:url(#linearGradient1951-6-6-6)" />
      <path
         d="m 7.5425,4.098 c 0,0 -0.35919,0.47868 -1.1575,0.79217 -0.032699,0.006 -0.065098,0.011604 -0.10078,0.0171 h -4.9607 c -0.21986,0 -0.41824,0.088497 -0.5617,0.23202 C 0.62245,5.27864 0.5414,5.47262 0.53651,5.68498 V 6.06943 C 0.5415144,5.85707 0.622408,5.66311 0.76182,5.52374 0.90529,5.38027 1.10366,5.29171 1.32352,5.29171 h 4.9607 C 6.319918,5.28571 6.352318,5.280517 6.385,5.27461 7.1441,5.01159 7.6732,4.48245 7.6732,4.48245 h 8.0706 c 0.18215,3.626e-4 0.34718,0.080997 0.46663,0.21238 0.11969,0.13167 0.19377,0.31378 0.19377,0.51468 V 4.82506 c 0,-0.20092 -0.0741,-0.38302 -0.19377,-0.5147 C 16.09098,4.179 15.92595,4.09835 15.7438,4.09798 H 8.2618 Z M 0.5363,6.2016 C 0.533302,6.2279 0.529301,6.253599 0.529301,6.280699 v 0.38447 c 0,-0.0271 0.004001,-0.052799 0.006999,-0.079099 z"
         fill="url(#linearGradient11110-7-5-5)"
         opacity="0.3"
         id="path37"
         style="fill:url(#linearGradient11110-7-5-5)" />
      <path
         d="m 0.5293,13.658 v 0.28215 c 0,0.20092 0.073598,0.38249 0.19326,0.51416 0.1197,0.13167 0.28554,0.21342 0.46817,0.21342 h 14.552 c 0.18264,0 0.34796,-0.0817 0.46765,-0.21342 0.11969,-0.13167 0.19377,-0.31324 0.19377,-0.51416 V 13.658 c 0,0.20092 -0.0741,0.3825 -0.19377,0.51416 -0.11969,0.13166 -0.28501,0.21342 -0.46765,0.21342 h -14.552 c -0.18265,0 -0.34847,-0.0818 -0.46817,-0.21342 C 0.60287,14.0405 0.5293,13.8589 0.5293,13.658 Z"
         color="#000000"
         color-rendering="auto"
         dominant-baseline="auto"
         fill="url(#linearGradient29077-6-6)"
         image-rendering="auto"
         shape-rendering="auto"
         solid-color="#000000"
         stop-color="#000000"
         style="font-variant-ligatures:normal;font-variant-position:normal;font-variant-caps:normal;font-variant-numeric:normal;font-variant-alternates:normal;font-variant-east-asian:normal;font-feature-settings:normal;font-variation-settings:normal;text-indent:0;text-decoration-line:none;text-decoration-style:solid;text-decoration-color:#000000;text-transform:none;text-orientation:mixed;white-space:normal;shape-padding:0;shape-margin:0;inline-size:0;isolation:auto;mix-blend-mode:normal;fill:url(#linearGradient29077-6-6)"
         id="path38" />
    </g>
  </g>
  <path
     class="st0"
     d="m 11.404754,10.74977 0.212764,0.212766 c 0.05599,0.05599 0.05599,0.145576 0,0.201567 l -0.173572,0.172451 c 0.0448,0.08958 0.08399,0.184769 0.106383,0.285553 h 0.223963 c 0.07839,0 0.145576,0.06719 0.145576,0.145576 v 0.302351 c 0,0.07839 -0.06719,0.145576 -0.145576,0.145576 h -0.240761 c -0.02799,0.09407 -0.07279,0.189249 -0.123178,0.273235 l 0.156774,0.156775 c 0.05599,0.05599 0.05599,0.145576 0,0.201566 l -0.212765,0.212765 c -0.05599,0.05599 -0.145575,0.05599 -0.201568,0 L 10.980343,12.88526 c -0.08958,0.0448 -0.184769,0.08399 -0.285553,0.106383 v 0.223963 c 0,0.07839 -0.06719,0.145576 -0.145576,0.145576 h -0.30235 c -0.07839,0 -0.145577,-0.06719 -0.145577,-0.145576 v -0.24636 A 1.2094015,1.2094015 0 0 1 9.8280526,12.846067 L 9.671278,13.002841 c -0.055987,0.05599 -0.1455762,0.05599 -0.2015661,0 L 9.2569464,12.790076 a 0.14221666,0.14221666 0 0 1 0,-0.201567 L 9.430518,12.416057 A 1.2463554,1.2463554 0 0 1 9.3241347,12.130503 h -0.223964 c -0.07839,0 -0.1455762,-0.06719 -0.1455762,-0.145575 v -0.30235 c 0,-0.07839 0.067188,-0.145577 0.1455762,-0.145577 H 9.3409318 A 1.2094015,1.2094015 0 0 1 9.4641111,11.263766 L 9.3129363,11.112592 a 0.14221666,0.14221666 0 0 1 0,-0.201568 l 0.2127645,-0.212765 c 0.055987,-0.05599 0.1455761,-0.05599 0.2015671,0 l 0.1735717,0.174692 c 0.089581,-0.0448 0.1847694,-0.08399 0.2844334,-0.106384 v -0.223963 c 0,-0.07839 0.06719,-0.145576 0.145577,-0.145576 h 0.302351 c 0.07839,0 0.145575,0.06719 0.145575,0.145576 v 0.240761 c 0.09518,0.02799 0.190369,0.07279 0.274355,0.12318 l 0.156775,-0.156775 c 0.0448,-0.05599 0.138856,-0.05599 0.194848,0 z m -3.5789332,0.329226 c -0.07839,0 -0.1399764,-0.07839 -0.1399764,-0.167972 0,-0.09407 0.061587,-0.167973 0.1399764,-0.167973 h 0.6942867 c 0.07839,0 0.1388573,0.07839 0.1388573,0.167973 0,0.09518 -0.061587,0.167972 -0.1399775,0.167972 z m 0.2071669,1.683084 a 0.1679725,0.1679725 0 0 1 0,0.335945 H 5.9075756 A 0.39865457,0.39865457 0 0 1 5.5111612,12.701611 V 6.8785652 c 0,-0.1119816 0.044796,-0.2060462 0.1164605,-0.2788342 0.071673,-0.072788 0.167973,-0.1175807 0.2799539,-0.1175807 H 10.75638 a 0.39865457,0.39865457 0 0 1 0.397534,0.3975348 V 9.5806817 A 0.16797243,0.16797243 0 0 1 10.985943,9.7486542 0.16797243,0.16797243 0 0 1 10.81797,9.5806817 V 6.8796851 a 0.05039172,0.05039172 0 0 0 -0.0168,-0.039194 0.05039172,0.05039172 0 0 0 -0.0392,-0.016797 H 5.9075691 a 0.05039172,0.05039172 0 0 0 -0.039195,0.016797 c -0.011202,0.0056 -0.016792,0.022397 -0.016792,0.039194 v 5.8331229 c 0,0.01679 0.00563,0.02799 0.016792,0.03919 0.011202,0.0112 0.022392,0.01679 0.039195,0.01679 H 8.0329812 Z M 6.5615492,10.626591 H 7.160651 c 0.033594,0 0.055987,0.02239 0.055987,0.05599 v 0.515116 c 0,0.03359 -0.022393,0.05599 -0.055987,0.05599 H 6.5615492 c -0.033594,0 -0.055987,-0.02239 -0.055987,-0.05599 v -0.515116 c 0,-0.03359 0.022392,-0.05599 0.055987,-0.05599 z m 0,-2.9585553 H 7.160651 c 0.033594,0 0.055987,0.022397 0.055987,0.055991 v 0.5151154 c 0,0.033594 -0.022393,0.055991 -0.055987,0.055991 H 6.5615492 c -0.033594,0 -0.055987,-0.022397 -0.055987,-0.055991 V 7.7240265 c 0,-0.033594 0.022392,-0.055991 0.055987,-0.055991 z m 1.2642716,0.4524057 c -0.07839,0 -0.1399764,-0.078387 -0.1399764,-0.1679724 0,-0.094065 0.061587,-0.1679725 0.1399764,-0.1679725 h 1.9406421 c 0.07839,0 0.1399764,0.078387 0.1399764,0.1679725 0,0.096304 -0.061587,0.1679724 -0.1399764,0.1679724 z m -1.090701,1.5722219 c -0.039195,0.027995 -0.089581,0.022397 -0.128778,-0.016797 L 6.5951401,9.6646678 6.4159698,9.4798982 c -0.038068,-0.039194 -0.026878,-0.1007836 0.017918,-0.1455761 0.04927,-0.039194 0.1164615,-0.044793 0.1567745,-0.0056 l 0.094066,0.1007836 0.313548,-0.2519588 c 0.039195,-0.033594 0.1063834,-0.016797 0.1399775,0.033594 0.039195,0.050391 0.033594,0.1231799 -0.011202,0.1567742 z M 7.7317572,9.5470872 c -0.07839,0 -0.1410977,-0.078387 -0.1410977,-0.1679724 0,-0.095184 0.061587,-0.1679725 0.1399775,-0.1679725 h 1.940641 c 0.07839,0 0.1399775,0.078387 0.1399775,0.1679725 0,0.095184 -0.061587,0.1679724 -0.1399775,0.1679724 z m 2.7054748,1.7390748 a 0.59350306,0.59350306 0 1 1 0,1.187006 0.59350306,0.59350306 0 0 1 0,-1.187006 z"
     clip-rule="evenodd"
     fill-rule="evenodd"
     opacity="0.15"
     id="path1"
     style="opacity:1;fill:url(#linearGradient16);fill-opacity:1;stroke-width:1.11982" />
</svg>
