<?xml version="1.0" encoding="UTF-8" standalone="no"?>
<svg
   width="64"
   height="64"
   viewBox="0 0 16.933 16.933"
   version="1.1"
   id="svg18"
   sodipodi:docname="folder-games.svg"
   inkscape:version="1.4 (e7c3feb100, 2024-10-09)"
   xmlns:inkscape="http://www.inkscape.org/namespaces/inkscape"
   xmlns:sodipodi="http://sodipodi.sourceforge.net/DTD/sodipodi-0.dtd"
   xmlns:xlink="http://www.w3.org/1999/xlink"
   xmlns="http://www.w3.org/2000/svg"
   xmlns:svg="http://www.w3.org/2000/svg">
  <sodipodi:namedview
     id="namedview18"
     pagecolor="#505050"
     bordercolor="#eeeeee"
     borderopacity="1"
     inkscape:showpageshadow="0"
     inkscape:pageopacity="0"
     inkscape:pagecheckerboard="0"
     inkscape:deskcolor="#505050"
     inkscape:zoom="5.8437501"
     inkscape:cx="-2.9090909"
     inkscape:cy="28.235294"
     inkscape:window-width="1920"
     inkscape:window-height="1051"
     inkscape:window-x="0"
     inkscape:window-y="0"
     inkscape:window-maximized="1"
     inkscape:current-layer="svg18" />
  <defs
     id="defs13">
    <linearGradient
       id="linearGradient16"
       x1="100"
       x2="133.19"
       y1="17.452999"
       y2="51.605999"
       gradientTransform="matrix(0.26458,0,0,0.26458,-26.458,2.5104)"
       gradientUnits="userSpaceOnUse">
      <stop
         stop-color="#fce798"
         offset="0"
         id="stop15"
         style="stop-color:#feffff;stop-opacity:0.87058824" />
      <stop
         stop-color="#ffc937"
         offset="1"
         id="stop16"
         style="stop-color:#bea0e2;stop-opacity:1" />
    </linearGradient>
    <linearGradient
       id="b"
       x1="445.28"
       x2="445.28"
       y1="179.28"
       y2="200.07"
       gradientTransform="matrix(0.38956,0,0,0.38184,-144.10474,-63.44)"
       gradientUnits="userSpaceOnUse">
      <stop
         stop-color="#60c0f0"
         offset="0"
         id="stop1" />
      <stop
         stop-color="#83d4fb"
         offset="1"
         id="stop2" />
    </linearGradient>
    <linearGradient
       id="c"
       x1="8.467"
       x2="8.467"
       y1="293.3"
       y2="292.77"
       gradientTransform="translate(21.415265,-280.07)"
       gradientUnits="userSpaceOnUse">
      <stop
         stop-color="#008ea2"
         stop-opacity=".25"
         offset="0"
         id="stop3" />
      <stop
         stop-color="#fff"
         stop-opacity=".15"
         offset="1"
         id="stop4" />
    </linearGradient>
    <linearGradient
       id="d"
       x1="8.467"
       x2="8.467"
       y1="294.62"
       y2="293.56"
       gradientTransform="matrix(0.99998,0,0,0.99998,21.415265,-280.06)"
       gradientUnits="userSpaceOnUse">
      <stop
         stop-color="#008ea2"
         stop-opacity=".251"
         offset="0"
         id="stop5" />
      <stop
         stop-color="#008ea2"
         stop-opacity=".15"
         offset=".757"
         id="stop6" />
      <stop
         stop-color="#fff"
         stop-opacity=".15"
         offset="1"
         id="stop7" />
    </linearGradient>
    <linearGradient
       id="a"
       x1="6.879"
       x2="6.879"
       y1="285.36"
       y2="283.77"
       gradientTransform="matrix(0.99998,0,0,0.99998,21.415265,-280.06)"
       gradientUnits="userSpaceOnUse">
      <stop
         offset="0"
         id="stop8" />
      <stop
         stop-opacity="0"
         offset="1"
         id="stop9" />
    </linearGradient>
    <linearGradient
       id="e"
       x1="1.058"
       x2="15.875"
       y1="289.59"
       y2="289.59"
       gradientTransform="translate(21.415265,-280.07)"
       gradientUnits="userSpaceOnUse">
      <stop
         stop-color="#46a2d7"
         stop-opacity=".5"
         offset="0"
         id="stop10" />
      <stop
         stop-color="#46a2d7"
         stop-opacity="0"
         offset=".108"
         id="stop11" />
      <stop
         stop-color="#46a2d7"
         stop-opacity=".096"
         offset=".894"
         id="stop12" />
      <stop
         stop-color="#46a2d7"
         stop-opacity=".5"
         offset="1"
         id="stop13" />
    </linearGradient>
    <filter
       color-interpolation-filters="sRGB"
       height="1.0264005"
       width="1.0219998"
       y="-0.013200229"
       x="-0.010999908"
       id="filter1733">
      <feGaussianBlur
         id="feGaussianBlur869"
         stdDeviation="0.072761339" />
    </filter>
    <linearGradient
       gradientUnits="userSpaceOnUse"
       gradientTransform="matrix(0.26458,0,0,0.26458,-0.79373,-39.158)"
       y2="166"
       y1="155"
       x2="25"
       x1="25"
       id="linearGradient1387">
      <stop
         id="stop850"
         offset="0"
         stop-color="#3296d7" />
      <stop
         id="stop852"
         offset="1"
         stop-color="#0a7db4" />
    </linearGradient>
    <filter
       color-interpolation-filters="sRGB"
       height="1.2969998"
       width="1.0296998"
       y="-0.14849988"
       x="-0.014849913"
       id="filter935">
      <feGaussianBlur
         id="feGaussianBlur872"
         stdDeviation="0.098224626" />
    </filter>
    <linearGradient
       gradientUnits="userSpaceOnUse"
       gradientTransform="matrix(0.26458,0,0,0.26458,-0.79374,-39.158)"
       y2="185"
       y1="185"
       x2="65"
       x1="5"
       id="linearGradient1401">
      <stop
         id="stop855"
         offset="0"
         stop-color="#3492cb" />
      <stop
         id="stop857"
         offset=".083713"
         stop-color="#6ec8fa" />
      <stop
         id="stop859"
         offset=".91237"
         stop-color="#6ec8fa" />
      <stop
         id="stop861"
         offset="1"
         stop-color="#3492cb" />
    </linearGradient>
    <linearGradient
       gradientUnits="userSpaceOnUse"
       gradientTransform="matrix(0.18168,0,0,0.40956,9.2005,-451.88)"
       y2="1140.2"
       y1="1138.4"
       x2="-9.6169996"
       x1="-9.6169996"
       id="linearGradient1438">
      <stop
         id="stop864"
         offset="0"
         stop-opacity="0"
         stop-color="#1482be" />
      <stop
         id="stop866"
         offset="1"
         stop-color="#1482be" />
    </linearGradient>
    <linearGradient
       id="linearGradient1911"
       x1="25.084999"
       x2="25.084999"
       y1="24.031"
       y2="26.412001"
       gradientTransform="translate(-24.247,-18.739)"
       gradientUnits="userSpaceOnUse">
      <stop
         stop-color="#fcbc19"
         stop-opacity=".99608"
         offset="0"
         id="stop7-9" />
      <stop
         stop-color="#f4b61f"
         offset="1"
         id="stop8-0" />
    </linearGradient>
    <linearGradient
       id="linearGradient4625"
       x1="0.52917999"
       x2="16.403999"
       y1="5.0665002"
       y2="5.0665002"
       gradientTransform="translate(-6.3499,2.6458)"
       gradientUnits="userSpaceOnUse">
      <stop
         stop-color="#b78815"
         offset="0"
         id="stop9-8" />
      <stop
         stop-color="#e2b24b"
         stop-opacity="0"
         offset="1"
         id="stop10-8" />
    </linearGradient>
    <linearGradient
       id="linearGradient1951"
       x1="100"
       x2="133.19"
       y1="17.452999"
       y2="51.605999"
       gradientTransform="matrix(0.26458,0,0,0.26458,-26.458,2.5104)"
       gradientUnits="userSpaceOnUse">
      <stop
         stop-color="#fce798"
         offset="0"
         id="stop11-5" />
      <stop
         stop-color="#ffc937"
         offset="1"
         id="stop12-0" />
    </linearGradient>
    <linearGradient
       id="linearGradient11110"
       x1="0.52916998"
       x2="16.403999"
       y1="5.3814998"
       y2="5.3814998"
       gradientTransform="translate(-6.3499,2.6458)"
       gradientUnits="userSpaceOnUse">
      <stop
         stop-color="#fff"
         offset="0"
         id="stop13-9" />
      <stop
         stop-color="#fff"
         stop-opacity="0"
         offset="1"
         id="stop14" />
    </linearGradient>
    <linearGradient
       id="linearGradient1118"
       x1="20.108"
       x2="20.108"
       y1="6.3498998"
       y2="13.493"
       gradientTransform="translate(-25.109424,-0.13233803)"
       gradientUnits="userSpaceOnUse">
      <stop
         stop-color="#be900d"
         offset="0"
         id="stop5-6" />
      <stop
         stop-color="#a57001"
         offset="1"
         id="stop6-3" />
    </linearGradient>
    <linearGradient
       inkscape:collect="always"
       xlink:href="#linearGradient16"
       id="linearGradient1"
       x1="8.3582325"
       y1="7.5404625"
       x2="8.3582325"
       y2="13.361181"
       gradientUnits="userSpaceOnUse"
       gradientTransform="matrix(1.1503917,0,0,1.1503917,-1.2732911,-2.0094104)" />
    <linearGradient
       id="linearGradient1911-2"
       x1="25.084999"
       x2="25.084999"
       y1="24.031"
       y2="26.412001"
       gradientTransform="translate(-40.650412,-27.073192)"
       gradientUnits="userSpaceOnUse">
      <stop
         stop-color="#3c3c3c"
         offset="0"
         id="stop5-0" />
      <stop
         stop-color="#2d2d2d"
         offset="1"
         id="stop6-2" />
    </linearGradient>
    <linearGradient
       id="linearGradient4625-3"
       x1="0.52917999"
       x2="16.403999"
       y1="5.0665002"
       y2="5.0665002"
       gradientTransform="translate(-22.753412,-5.6883916)"
       gradientUnits="userSpaceOnUse">
      <stop
         stop-color="#b78815"
         offset="0"
         id="stop7-7" />
      <stop
         stop-color="#e2b24b"
         stop-opacity="0"
         offset="1"
         id="stop8-5" />
    </linearGradient>
    <linearGradient
       id="linearGradient1951-9"
       x1="100"
       x2="133.19"
       y1="17.452999"
       y2="51.605999"
       gradientTransform="matrix(0.26458,0,0,0.26458,-42.861412,-5.8237916)"
       gradientUnits="userSpaceOnUse">
      <stop
         stop-color="#646464"
         offset="0"
         id="stop9-2" />
      <stop
         stop-color="#3c3c3c"
         offset="1"
         id="stop10-2" />
    </linearGradient>
    <linearGradient
       id="linearGradient11110-8"
       x1="0.52916998"
       x2="16.403999"
       y1="5.3814998"
       y2="5.3814998"
       gradientTransform="translate(-22.753412,-5.6883916)"
       gradientUnits="userSpaceOnUse">
      <stop
         stop-color="#fff"
         offset="0"
         id="stop11-9" />
      <stop
         stop-color="#fff"
         stop-opacity="0"
         offset="1"
         id="stop12-7" />
    </linearGradient>
    <linearGradient
       id="linearGradient79069"
       x1="8.5258999"
       x2="8.5258999"
       y1="6.0935998"
       y2="13.269"
       gradientUnits="userSpaceOnUse"
       gradientTransform="translate(-22.753412,-5.5561916)">
      <stop
         stop-color="#323232"
         offset="0"
         id="stop13-3" />
      <stop
         stop-color="#141414"
         offset="1"
         id="stop14-6" />
    </linearGradient>
    <linearGradient
       id="linearGradient1911-3"
       x1="25.084999"
       x2="25.084999"
       y1="24.031"
       y2="26.412001"
       gradientTransform="translate(-40.916041,-23.898554)"
       gradientUnits="userSpaceOnUse">
      <stop
         stop-color="#0272cb"
         offset="0"
         id="stop5-64" />
      <stop
         stop-color="#0768ba"
         offset="1"
         id="stop6-30" />
    </linearGradient>
    <linearGradient
       id="linearGradient1951-6"
       x1="100"
       x2="133.19"
       y1="17.452999"
       y2="51.605999"
       gradientTransform="matrix(0.26458,0,0,0.26458,-43.126041,-2.6488541)"
       gradientUnits="userSpaceOnUse">
      <stop
         stop-color="#27aee9"
         offset="0"
         id="stop7-3" />
      <stop
         stop-color="#0669bc"
         offset="1"
         id="stop8-09" />
    </linearGradient>
    <linearGradient
       id="linearGradient11110-7"
       x1="0.52916998"
       x2="16.403999"
       y1="5.3814998"
       y2="5.3814998"
       gradientTransform="translate(-23.01814,-2.5134545)"
       gradientUnits="userSpaceOnUse">
      <stop
         stop-color="#fff"
         offset="0"
         id="stop9-25" />
      <stop
         stop-color="#fff"
         stop-opacity="0"
         offset="1"
         id="stop10-4" />
    </linearGradient>
    <linearGradient
       id="linearGradient29077"
       x1="0.52916002"
       x2="16.403999"
       y1="14.179"
       y2="14.179"
       gradientTransform="translate(-23.01814,-2.5289541)"
       gradientUnits="userSpaceOnUse">
      <stop
         stop-color="#0a5ba8"
         stop-opacity=".99608"
         offset="0"
         id="stop11-0" />
      <stop
         stop-color="#104a8c"
         stop-opacity=".99608"
         offset="1"
         id="stop12-5" />
    </linearGradient>
    <linearGradient
       id="linearGradient1006"
       x1="8.5258999"
       x2="8.5258999"
       y1="6.0935998"
       y2="13.269"
       gradientTransform="translate(-23.018113,-2.5135541)"
       gradientUnits="userSpaceOnUse">
      <stop
         stop-color="#fff"
         offset="0"
         id="stop13-94" />
      <stop
         stop-color="#c5e7f5"
         offset="1"
         id="stop14-69" />
    </linearGradient>
    <linearGradient
       id="linearGradient1911-3-3-3"
       x1="25.084999"
       x2="25.084999"
       y1="24.031"
       y2="26.412001"
       gradientTransform="matrix(0.99999,0,0,0.99999,-36.900196,-28.865232)"
       gradientUnits="userSpaceOnUse">
      <stop
         stop-color="#8755ca"
         offset="0"
         id="stop5-60" />
      <stop
         stop-color="#642bbb"
         offset="1"
         id="stop6-6" />
    </linearGradient>
    <linearGradient
       id="linearGradient1951-6-6-6"
       x1="100"
       x2="133.19"
       y1="17.452999"
       y2="51.605999"
       gradientTransform="matrix(0.26458,0,0,0.26458,-20.108,-0.13522)"
       gradientUnits="userSpaceOnUse">
      <stop
         stop-color="#9667cf"
         offset="0"
         id="stop7-2" />
      <stop
         stop-color="#613699"
         offset="1"
         id="stop8-6" />
    </linearGradient>
    <linearGradient
       id="linearGradient11110-7-5-5"
       x1="0.52916998"
       x2="16.403999"
       y1="5.3814998"
       y2="5.3814998"
       gradientTransform="matrix(0.99999,0,0,0.99999,7.8313e-5,1.4235e-4)"
       gradientUnits="userSpaceOnUse">
      <stop
         stop-color="#fff"
         offset="0"
         id="stop9-1" />
      <stop
         stop-color="#fff"
         stop-opacity="0"
         offset="1"
         id="stop10-87" />
    </linearGradient>
    <linearGradient
       id="linearGradient29077-6-6"
       x1="0.52916002"
       x2="16.403999"
       y1="14.179"
       y2="14.179"
       gradientTransform="matrix(0.99999,0,0,0.99999,7.8313e-5,-0.015424)"
       gradientUnits="userSpaceOnUse">
      <stop
         stop-color="#3d1474"
         offset="0"
         id="stop11-92" />
      <stop
         stop-color="#330c68"
         offset="1"
         id="stop12-02" />
    </linearGradient>
    <linearGradient
       id="linearGradient1006-1-1"
       x1="8.5258999"
       x2="8.5258999"
       y1="6.0935998"
       y2="13.269"
       gradientTransform="matrix(0.99999,0,0,0.99999,-19.003003,-7.4812062)"
       gradientUnits="userSpaceOnUse">
      <stop
         stop-color="#fff"
         offset="0"
         id="stop13-37" />
      <stop
         stop-color="#bc9de1"
         offset="1"
         id="stop14-5" />
    </linearGradient>
  </defs>
  <g
     id="g1"
     transform="translate(19.003165,7.4812317)">
    <path
       d="m -17.805396,-5.2321325 c -0.36529,0 -0.66144,0.32575 -0.66144,0.7276 v 2.9635 c -0.003,0.026299 -0.007,0.051998 -0.007,0.079099 v 7.9372 c 0,0.40184 0.29615,0.7276 0.66144,0.7276 h 14.5520005 c 0.36531,0 0.66144,-0.32576 0.66144,-0.7276 v -9.393 c 0,-0.40184 -0.29614,-0.72758 -0.66144,-0.72758 v 4.835e-4 h -8.1993005 l -0.89863,-1.1095 c 0,0 -0.36607,-0.478 -1.0583,-0.478 h -1.3229 z"
       color="#000000"
       color-rendering="auto"
       dominant-baseline="auto"
       fill="url(#linearGradient1911-3-3-3)"
       image-rendering="auto"
       shape-rendering="auto"
       solid-color="#000000"
       stop-color="#000000"
       stroke-width="0.99999"
       style="font-variant-ligatures:normal;font-variant-position:normal;font-variant-caps:normal;font-variant-numeric:normal;font-variant-alternates:normal;font-variant-east-asian:normal;font-feature-settings:normal;font-variation-settings:normal;text-indent:0;text-decoration-line:none;text-decoration-style:solid;text-decoration-color:#000000;text-transform:none;text-orientation:mixed;white-space:normal;shape-padding:0;shape-margin:0;inline-size:0;isolation:auto;mix-blend-mode:normal;fill:url(#linearGradient1911-3-3-3)"
       id="path34" />
    <path
       d="m -10.642796,-3.6602325 c -0.11312,0.00199 -0.30847,-0.0154 -0.51986,0.095098 -0.73646,0.37945 -0.77225,0.59365 -1.557,0.71414 h -4.9607 c -0.21986,0 -0.41824,0.088499 -0.56171,0.23203 -0.13936,0.13936 -0.22041,0.33332 -0.22529,0.54569 v 0.27749 c 0.005,-0.21236 0.0859,-0.40633 0.22529,-0.54569 0.14348,-0.14347 0.34185,-0.23202 0.56171,-0.23202 h 4.9607 c 0.78471,-0.12051 0.8205,-0.33469 1.557,-0.71415 0.21139,-0.1105 0.40673,-0.093296 0.51986,-0.095095 h 7.3827005 c 0.18215,3.626e-4 0.3472,0.080998 0.46663,0.21238 0.11969,0.13167 0.19377,0.31377 0.19377,0.51469 v -0.2775 c 0,-0.20091 -0.0741,-0.38302 -0.19377,-0.51468 -0.11943,-0.13137 -0.28448,-0.21201 -0.46663,-0.21238 h -1.1652 z m -7.8247,2.1036 c -0.003,0.0263 -0.007,0.051998 -0.007,0.079099 v 0.27749 c 0,-0.0271 0.004,-0.052799 0.007,-0.079097 z"
       fill="#1e5992"
       opacity="0.00100002"
       stroke-width="0.26458"
       id="path35" />
    <g
       stroke-width="0.99999"
       id="g38"
       transform="translate(-19.003196,-7.4812325)">
      <path
         d="m 7.5425,4.098 c 0,0 -0.35919,0.47868 -1.1575,0.79217 -0.032699,0.006 -0.065098,0.011604 -0.10078,0.0171 h -4.9607 c -0.21986,0 -0.41824,0.088497 -0.5617,0.23202 C 0.62245,5.27864 0.54139,5.47262 0.53651,5.68498 V 6.20173 C 0.533512,6.228029 0.529511,6.253728 0.529511,6.280827 v 7.3953 c 0,0.20092 0.073598,0.3825 0.19326,0.51416 0.1197,0.13166 0.28554,0.21342 0.46817,0.21342 h 14.552 c 0.18264,0 0.34796,-0.0817 0.46765,-0.21342 0.11969,-0.13167 0.19377,-0.31326 0.19377,-0.51416 v -8.8509 c 0,-0.20092 -0.0741,-0.38302 -0.19377,-0.5147 -0.11945,-0.13136 -0.28449,-0.21201 -0.46665,-0.21238 h -7.482 z"
         fill="url(#linearGradient1951-6-6-6)"
         id="path36"
         style="fill:url(#linearGradient1951-6-6-6)" />
      <path
         d="m 7.5425,4.098 c 0,0 -0.35919,0.47868 -1.1575,0.79217 -0.032699,0.006 -0.065098,0.011604 -0.10078,0.0171 h -4.9607 c -0.21986,0 -0.41824,0.088497 -0.5617,0.23202 C 0.62245,5.27864 0.5414,5.47262 0.53651,5.68498 V 6.06943 C 0.5415144,5.85707 0.622408,5.66311 0.76182,5.52374 0.90529,5.38027 1.10366,5.29171 1.32352,5.29171 h 4.9607 C 6.319918,5.28571 6.352318,5.280517 6.385,5.27461 7.1441,5.01159 7.6732,4.48245 7.6732,4.48245 h 8.0706 c 0.18215,3.626e-4 0.34718,0.080997 0.46663,0.21238 0.11969,0.13167 0.19377,0.31378 0.19377,0.51468 V 4.82506 c 0,-0.20092 -0.0741,-0.38302 -0.19377,-0.5147 C 16.09098,4.179 15.92595,4.09835 15.7438,4.09798 H 8.2618 Z M 0.5363,6.2016 C 0.533302,6.2279 0.529301,6.253599 0.529301,6.280699 v 0.38447 c 0,-0.0271 0.004001,-0.052799 0.006999,-0.079099 z"
         fill="url(#linearGradient11110-7-5-5)"
         opacity="0.3"
         id="path37"
         style="fill:url(#linearGradient11110-7-5-5)" />
      <path
         d="m 0.5293,13.658 v 0.28215 c 0,0.20092 0.073598,0.38249 0.19326,0.51416 0.1197,0.13167 0.28554,0.21342 0.46817,0.21342 h 14.552 c 0.18264,0 0.34796,-0.0817 0.46765,-0.21342 0.11969,-0.13167 0.19377,-0.31324 0.19377,-0.51416 V 13.658 c 0,0.20092 -0.0741,0.3825 -0.19377,0.51416 -0.11969,0.13166 -0.28501,0.21342 -0.46765,0.21342 h -14.552 c -0.18265,0 -0.34847,-0.0818 -0.46817,-0.21342 C 0.60287,14.0405 0.5293,13.8589 0.5293,13.658 Z"
         color="#000000"
         color-rendering="auto"
         dominant-baseline="auto"
         fill="url(#linearGradient29077-6-6)"
         image-rendering="auto"
         shape-rendering="auto"
         solid-color="#000000"
         stop-color="#000000"
         style="font-variant-ligatures:normal;font-variant-position:normal;font-variant-caps:normal;font-variant-numeric:normal;font-variant-alternates:normal;font-variant-east-asian:normal;font-feature-settings:normal;font-variation-settings:normal;text-indent:0;text-decoration-line:none;text-decoration-style:solid;text-decoration-color:#000000;text-transform:none;text-orientation:mixed;white-space:normal;shape-padding:0;shape-margin:0;inline-size:0;isolation:auto;mix-blend-mode:normal;fill:url(#linearGradient29077-6-6)"
         id="path38" />
    </g>
  </g>
  <path
     class="cls-1"
     d="M 7.5918723,10.152938 7.3357188,10.409091 V 9.9015275 Z M 11.497026,8.1570748 h 0.01897 a 0.17669847,0.17669847 0 0 1 0.135192,0.064038 c 0.798108,0.8265695 1.221473,2.6208312 1.128974,3.8233302 A 2.4061825,2.4061825 0 0 1 12.580931,12.8888 c -0.122147,0.252596 -0.298846,0.417435 -0.536025,0.461313 -0.301219,0.05575 -0.677147,-0.103179 -1.130159,-0.563301 L 10.733308,12.606556 A 5.246403,5.246403 0 0 1 10.111901,11.916365 H 6.8222261 A 5.1444158,5.1444158 0 0 1 6.1996308,12.608929 C 6.1379641,12.668221 6.0774835,12.727518 6.0193745,12.786812 5.5675483,13.248126 5.1892475,13.407037 4.889216,13.350113 4.6520367,13.308607 4.4741523,13.14021 4.3520051,12.891172 A 2.4097403,2.4097403 0 0 1 4.1527747,12.045627 C 4.0602748,10.8372 4.4860114,9.032266 5.2959782,8.2116261 a 0.17432667,0.17432667 0 0 1 0.1257049,-0.053365 h 0.018975 c 0.4992622,-0.6866337 1.6199336,-0.693749 2.1191959,0 H 8.1172242 C 8.0733461,7.1051853 8.3662624,6.8419165 8.7979284,6.8122692 a 2.1891636,2.1891636 0 0 1 0.4921467,0.045064 C 9.6173826,6.911885 9.9802669,6.9711797 10.237606,6.7173977 a 0.17432667,0.17432667 0 0 1 0.249037,0 0.17551258,0.17551258 0 0 1 0,0.2490381 C 10.101227,7.3506658 9.6410998,7.2747684 9.2331521,7.2071724 A 1.9602857,1.9602857 0 0 0 8.8180887,7.1656663 C 8.585653,7.1810827 8.4303008,7.3767555 8.4658775,8.1594467 h 0.9095822 c 0.4980767,-0.6890054 1.6199323,-0.6913773 2.1180083,0 z M 6.9004952,9.2670734 V 9.7366879 H 7.368924 c 0.5312812,0 0.5312812,0.8028521 0,0.8028521 H 6.9004952 v 0.46843 c 0,0.53128 -0.8028516,0.53128 -0.8028516,0 V 10.53954 H 5.6292148 c -0.5312812,0 -0.5312812,-0.8028521 0,-0.8028521 H 6.0976436 V 9.2670734 c 0,-0.5300956 0.8028516,-0.5300956 0.8028516,0 z M 10.567284,8.8591252 a 0.36999948,0.36999948 0 1 1 -0.524165,0 0.36999948,0.36999948 0 0 1 0.524165,0 z m 0,1.6151908 a 0.36999948,0.36999948 0 1 1 -0.524165,0 0.36999948,0.36999948 0 0 1 0.524165,0 z m 0.889421,-0.8443592 a 0.36999948,0.36999948 0 1 1 -0.524166,0 0.37118538,0.37118538 0 0 1 0.522981,0 z m -1.7788422,0 a 0.36999948,0.36999948 0 1 1 -0.5241656,0 0.36999948,0.36999948 0 0 1 0.5241656,0 z M 6.5091495,9.0749583 6.7653031,9.3299258 H 6.2565538 L 6.5127072,9.0749583 Z M 5.4359138,10.154124 5.6896956,10.409091 V 9.9015275 L 5.4347279,10.156495 Z m 1.0767934,1.075608 0.2549676,-0.256154 H 6.2577397 Z"
     fill-rule="evenodd"
     opacity="0.15"
     id="path1"
     style="opacity:1;fill:url(#linearGradient1);fill-opacity:1;stroke-width:1.1859" />
</svg>
